<?xml version="1.0" encoding="UTF-8" standalone="no"?>
<svg viewBox="0 0 140.20661 140.11117">
  <defs
     id="defs2" />
  <g
     transform="translate(115.80277,-238.11493)">
    <path
       inkscape:connector-curvature="0"
       id="path898"
       d="m -47.994126,377.72935 c -1.32436,-0.61671 -65.132404,-43.11447 -66.104694,-44.02739 -0.38855,-0.36483 -0.91243,-1.04433 -1.16417,-1.51 l -0.4577,-0.84666 -0.0566,-22.74006 c -0.0633,-25.38507 -0.1267,-24.1968 1.37345,-25.72029 0.83696,-0.84999 65.488094,-43.99159 66.674324,-44.49167 0.98208,-0.41403 3.16784,-0.35686 4.18721,0.1095 1.56304,0.7151 66.02194,43.73866 66.65416,44.48881 1.37923,1.63648 1.29084,-0.0657 1.29084,24.85871 0,25.15902 0.0639,23.997 -1.40283,25.50836 -0.86378,0.89008 -65.07493,43.81042 -66.53491,44.47362 -1.23675,0.56179 -3.12518,0.51819 -4.45903,-0.10293 z m -3.48573,-30.57657 v -14.35501 l -13.19334,-8.82249 c -7.25634,-4.85236 -13.29164,-8.82248 -13.41178,-8.82248 -0.42643,0 -21.33849,14.12748 -21.404,14.45981 -0.0476,0.24136 6.70001,4.8492 23.60069,16.11659 13.01701,8.67823 23.83405,15.7786 24.03786,15.7786 0.34934,0 0.37057,-0.82245 0.37057,-14.35502 z m 35.8775,-1.40639 c 12.9222499,-8.59173 23.5576299,-15.71913 23.6341699,-15.83868 0.0765,-0.11954 0.0967,-0.32124 0.0449,-0.44822 -0.10538,-0.25799 -20.9189799,-14.16389 -21.3514499,-14.26525 -0.27543,-0.0646 -26.32074,17.16994 -26.61309,17.6102 -0.0855,0.12881 -0.15696,6.65086 -0.15875,14.49345 l -0.003,14.25926 0.47625,-0.0947 c 0.26194,-0.0521 11.049,-7.12432 23.97125,-15.71604 z m -19.08999,-30.15199 c 8.86278,-5.91008 10.53284,-7.10147 10.4775,-7.47447 -0.0479,-0.32285 -2.9444,-2.36597 -10.63324,-7.50043 -5.81207,-3.88118 -10.69636,-7.0567 -10.85396,-7.0567 -0.54666,0 -21.65281,14.2374 -21.65281,14.60615 0,0.44965 21.30215,14.67386 21.78349,14.54562 0.18462,-0.0492 5.08018,-3.25326 10.87902,-7.12017 z m -61.55452,-2.06352 c 4.81074,-3.20681 7.51368,-5.13404 7.51368,-5.35735 0,-0.37157 -14.770114,-10.3774 -15.318604,-10.3774 -0.16469,0 -0.35726,0.15067 -0.42792,0.33481 -0.16781,0.43731 -0.16781,19.63641 0,20.07371 0.0707,0.18415 0.26138,0.33481 0.42382,0.33481 0.16244,0 3.6765,-2.25386 7.809024,-5.00858 z m 109.32534,-5.38776 v -10.39634 l -0.47625,0.0922 c -0.26193,0.0507 -3.7861801,2.30084 -7.8316601,5.00036 -5.55465998,3.70658 -7.35542,5.01126 -7.35542,5.32912 0,0.31804 1.82337002,1.63678 7.46078,5.39598 4.10342,2.73629 7.6276701,4.97507 7.8316601,4.97507 0.34838,0 0.37089,-0.63111 0.37089,-10.39634 z m -77.63012,-15.9234 13.06904,-8.71109 10e-4,-14.34041 c 10e-4,-13.99459 -0.008,-14.34042 -0.40443,-14.34042 -0.64039,0 -47.53658,31.36428 -47.53658,31.79257 0,0.23929 3.40806,2.64713 10.16,7.17816 10.88465,7.30438 11.07037,7.4223 11.41482,7.24745 0.12476,-0.0633 6.10791,-4.03515 13.29588,-8.82626 z m 62.1389499,1.71732 c 8.2426,-5.49291 10.42404,-7.03933 10.37167,-7.35246 -0.08,-0.47808 -46.9598199,-31.75678 -47.5963899,-31.75678 -0.4092,0 -0.41458,0.21396 -0.361,14.34042 l 0.0544,14.34041 13.20239,8.82041 c 8.84353,5.90828 13.31606,8.77806 13.54667,8.69216 0.18935,-0.0705 5.0413699,-3.25841 10.7822599,-7.08416 z"
       style="fill:#344561;stroke-width:0.21166666" />
  </g>
</svg>
