<?xml version="1.0" encoding="UTF-8"?>
<svg viewBox="0 0 55.349 16.264" xmlns="http://www.w3.org/2000/svg">
<path class="outlineColor" d="m0 8.1326v-8.1326l55.349 4e-3 -0.4781 0.52016c-2.1387 2.3268-6.7063 7.4302-6.7105 7.4976-0.0027 0.0463 3.5753 4.1356 3.5753 4.1356l3.5804 4.079s-12.446 0.0275-27.658 0.0275h-27.658z"/>
<path class="innerColor" d="m23.5 15.166-22.295-0.01708v-14.06h26.085c25.422 0 25.543 0.0645 25.543 0.0645s-4.478 5.0591-5.6225 6.248c-0.28228 0.29325-0.51325 0.56732-0.51325 0.60904 0 0.0911 6.1651 7.2059 6.1651 7.2059l-3.2448-0.017c-2.1018-0.01-13.854-0.0245-26.117-0.0339z"/>
</svg>
