<?xml version="1.0" encoding="UTF-8"?>
<svg width="79.235mm" height="79.245mm" version="1.1" viewBox="0 0 79.235 79.245" xmlns="http://www.w3.org/2000/svg" xmlns:cc="http://creativecommons.org/ns#" xmlns:dc="http://purl.org/dc/elements/1.1/" xmlns:rdf="http://www.w3.org/1999/02/22-rdf-syntax-ns#">
<metadata>
<rdf:RDF>
<cc:Work rdf:about="">
<dc:format>image/svg+xml</dc:format>
<dc:type rdf:resource="http://purl.org/dc/dcmitype/StillImage"/>
<dc:title/>
</cc:Work>
</rdf:RDF>
</metadata>
<g transform="translate(-168.27 -184.81)">
<g transform="matrix(.97976 0 0 .97976 105.11 77.195)">
<path d="m101.07 189.68c-6.3467-0.7662-12.908-3.1902-18.34-6.7751-3.051-2.0136-8.4496-7.4122-10.463-10.463-3.8662-5.8582-6.1438-12.333-6.8471-19.465-0.76452-7.7525 1.8788-17.361 6.8471-24.889 2.0136-3.051 7.4122-8.4496 10.463-10.463 5.8582-3.8662 12.333-6.1438 19.465-6.8471 7.7525-0.76453 17.361 1.8788 24.889 6.8471 3.051 2.0136 8.4496 7.4122 10.463 10.463 3.8662 5.8582 6.1438 12.333 6.8471 19.465 0.76453 7.7525-1.8788 17.361-6.8471 24.889-2.0136 3.051-7.4122 8.4496-10.463 10.463-7.8957 5.211-17.737 7.7742-26.013 6.7751zm3.0427-8.1923c0.31523-0.20212-2.7326-3.3854-14.816-15.474-8.367-8.3708-15.29-15.22-15.384-15.22-0.35607 0-0.4043 0.7308-0.19033 2.8841 0.50782 5.1105 2.8758 11.12 6.0328 15.309 1.9355 2.5687 5.1923 5.6796 7.671 7.3274 4.0449 2.689 9.4081 4.6657 13.967 5.1476 1.1318 0.11963 2.1174 0.23153 2.1902 0.24866 0.0728 0.0171 0.31089-0.0834 0.52917-0.22333zm10.794-1.475c1.1129-0.37359 3.0962-1.2333 4.4074-1.9105 9.3522-4.8302 15.65-14.085 16.82-24.72 0.21965-1.9962 0.21407-2.72-0.0232-3.0059-0.25992-0.31319-1.9524-0.37653-10.06-0.37653-11.334 0-10.296-0.33358-10.296 3.3073 0 3.5673-0.55189 3.3073 7.0208 3.3073 4.2738 0 6.473 0.0928 6.473 0.27312 0 0.66607-1.6872 4.544-2.8165 6.4738-2.3543 4.0228-7.5661 8.5261-11.691 10.102l-1.1461 0.43778-32.324-32.324 0.43778-1.1461c1.5756-4.125 6.0789-9.3368 10.102-11.691 4.6411-2.7161 8.8042-3.7558 14.155-3.535 3.992 0.16469 6.5995 0.80087 9.9219 2.4207 3.0241 1.4744 5.3751 3.2604 7.8407 5.9562 1.0719 1.172 2.0679 2.1296 2.2134 2.1281 0.49442-5e-3 4.101-3.4779 4.101-3.9487 0-0.6935-3.9545-4.7945-6.4005-6.6376-6.0015-4.5223-14.3-6.8718-21.58-6.1096-10.822 1.1331-20.112 7.3944-24.993 16.844-1.3049 2.5265-2.5897 6.0217-2.5897 7.0449 0 0.88612 36.902 37.789 37.788 37.789 0.33853 0 1.5261-0.30566 2.639-0.67924z" fill="#653298" stroke-width=".26458"/>
</g>
</g>
</svg>
