<?xml version="1.0" encoding="UTF-8" standalone="no"?>
<!-- Created with Inkscape (http://www.inkscape.org/) -->

<svg
   xmlns:dc="http://purl.org/dc/elements/1.1/"
   xmlns:cc="http://creativecommons.org/ns#"
   xmlns:rdf="http://www.w3.org/1999/02/22-rdf-syntax-ns#"
   xmlns:svg="http://www.w3.org/2000/svg"
   xmlns="http://www.w3.org/2000/svg"
   xmlns:sodipodi="http://sodipodi.sourceforge.net/DTD/sodipodi-0.dtd"
   xmlns:inkscape="http://www.inkscape.org/namespaces/inkscape"
   width="79.234787mm"
   height="79.245308mm"
   viewBox="0 0 79.234787 79.245308"
   version="1.1"
   id="svg8"
   inkscape:version="0.92.4 (5da689c313, 2019-01-14)"
   sodipodi:docname="gatsbyLogo.svg">
  <defs
     id="defs2" />
  <sodipodi:namedview
     id="base"
     pagecolor="#ffffff"
     bordercolor="#666666"
     borderopacity="1.0"
     inkscape:pageopacity="0.0"
     inkscape:pageshadow="2"
     inkscape:zoom="1.979899"
     inkscape:cx="246.04716"
     inkscape:cy="157.31723"
     inkscape:document-units="mm"
     inkscape:current-layer="layer1"
     showgrid="false"
     fit-margin-top="0"
     fit-margin-left="0"
     fit-margin-right="0"
     fit-margin-bottom="0"
     inkscape:window-width="1920"
     inkscape:window-height="1001"
     inkscape:window-x="-9"
     inkscape:window-y="-9"
     inkscape:window-maximized="1" />
  <metadata
     id="metadata5">
    <rdf:RDF>
      <cc:Work
         rdf:about="">
        <dc:format>image/svg+xml</dc:format>
        <dc:type
           rdf:resource="http://purl.org/dc/dcmitype/StillImage" />
        <dc:title></dc:title>
      </cc:Work>
    </rdf:RDF>
  </metadata>
  <g
     inkscape:label="Layer 1"
     inkscape:groupmode="layer"
     id="layer1"
     transform="translate(-168.26951,-184.80592)">
    <g
       transform="matrix(0.97976389,0,0,0.97976389,105.10656,77.195235)"
       id="layer1-9"
       inkscape:label="Layer 1">
      <path
         style="fill:#653298;fill-opacity:1;stroke-width:0.26458332"
         d="m 101.06683,189.68421 c -6.346719,-0.7662 -12.908489,-3.19017 -18.340409,-6.7751 -3.05104,-2.01362 -8.44957,-7.41215 -10.46319,-10.4632 -3.86625,-5.85819 -6.14378,-12.33268 -6.84713,-19.46488 -0.76452,-7.7525 1.87879,-17.36077 6.84713,-24.88884 2.01362,-3.05105 7.41215,-8.44959 10.46319,-10.46321 5.85818,-3.86625 12.33268,-6.14377 19.464889,-6.84712 7.7525,-0.76453 17.36077,1.87879 24.88884,6.84712 3.05105,2.01362 8.44958,7.41216 10.4632,10.46321 3.86625,5.85818 6.14377,12.33268 6.84712,19.46488 0.76453,7.7525 -1.87879,17.36077 -6.84712,24.88884 -2.01362,3.05105 -7.41215,8.44958 -10.4632,10.4632 -7.8957,5.21096 -17.73738,7.7742 -26.01332,6.7751 z m 3.04271,-8.19232 c 0.31523,-0.20212 -2.73265,-3.38542 -14.815809,-15.47407 -8.36698,-8.37078 -15.28962,-15.2196 -15.38367,-15.2196 -0.35607,0 -0.4043,0.7308 -0.19033,2.88409 0.50782,5.11047 2.87582,11.11971 6.0328,15.30934 1.93554,2.56867 5.19233,5.67957 7.67095,7.32736 4.04487,2.68902 9.40811,4.66569 13.966729,5.14755 1.13183,0.11963 2.1174,0.23153 2.19016,0.24866 0.0728,0.0171 0.31089,-0.0834 0.52917,-0.22333 z m 10.79368,-1.475 c 1.11288,-0.37359 3.0962,-1.23331 4.40736,-1.9105 9.35222,-4.83023 15.64968,-14.08539 16.81984,-24.71952 0.21965,-1.99619 0.21407,-2.72 -0.0232,-3.00587 -0.25992,-0.31319 -1.95239,-0.37653 -10.06037,-0.37653 -11.33411,0 -10.29566,-0.33358 -10.29566,3.30729 0,3.56727 -0.55189,3.30729 7.02076,3.30729 4.2738,0 6.47299,0.0928 6.47299,0.27312 0,0.66607 -1.68716,4.54404 -2.81649,6.47375 -2.35428,4.02284 -7.56611,8.52612 -11.69111,10.1017 l -1.14614,0.43778 -16.162149,-16.16214 -16.16214,-16.16214 0.43778,-1.14614 c 1.57558,-4.125 6.07886,-9.33683 10.1017,-11.69111 4.64108,-2.71611 8.804159,-3.75576 14.155209,-3.53501 3.99196,0.16469 6.59949,0.80087 9.92188,2.42073 3.02406,1.47441 5.37509,3.26038 7.84072,5.95624 1.07187,1.17197 2.06792,2.1296 2.21344,2.12807 0.49442,-0.005 4.10105,-3.47786 4.10105,-3.94871 0,-0.6935 -3.9545,-4.79449 -6.40048,-6.63759 -6.00149,-4.52226 -14.30034,-6.87184 -21.57969,-6.10965 -10.821719,1.13311 -20.112189,7.39443 -24.992589,16.84381 -1.30488,2.52648 -2.58974,6.02172 -2.58974,7.04491 0,0.88612 36.901969,37.78946 37.788059,37.78946 0.33853,0 1.52606,-0.30566 2.63895,-0.67924 z"
         id="path882"
         inkscape:connector-curvature="0" />
    </g>
  </g>
</svg>
