<?xml version="1.0" encoding="UTF-8" standalone="no"?>
<svg viewBox="0 0 120.38113 117.38638">
  <defs
     id="defs2" />
  <g
     transform="translate(-406.34003,-199.11202)">
    <path
       d="m 447.80667,316.43724 c -0.40746,-0.0764 -1.74096,-0.52347 -2.96333,-0.99358 -8.18628,-3.14836 -14.97858,-7.61163 -21.06943,-13.8449 -13.79515,-14.1177 -19.62633,-32.2199 -16.69436,-51.82563 1.95638,-13.08203 8.75498,-25.78376 18.63795,-34.82098 13.8218,-12.639 31.99119,-18.01329 50.84487,-15.03931 10.14055,1.59956 19.71831,5.91391 28.18263,12.695 2.42825,1.94536 7.11134,6.73398 9.12548,9.33113 7.47485,9.63845 11.58696,20.05346 12.69774,32.16037 0.30507,3.32515 0.13431,10.19673 -0.3396,13.66546 -2.68702,19.6674 -15.77013,37.48451 -33.66553,45.84707 -5.68731,2.6577 -8.3958,3.3542 -9.59469,2.46734 -1.15731,-0.85611 -1.15153,-0.79778 -1.17891,-11.90396 -0.0243,-9.86566 -0.0436,-10.33829 -0.49073,-12.01528 -0.53876,-2.02082 -1.45955,-3.95031 -2.3919,-5.0122 -0.35913,-0.40903 -0.60008,-0.82927 -0.53544,-0.93385 0.0646,-0.10459 0.77097,-0.25455 1.56962,-0.33325 2.32215,-0.22882 6.5334,-1.28112 8.93438,-2.23251 6.24337,-2.47393 10.21539,-5.78174 12.8184,-10.6749 3.64897,-6.85933 4.73574,-17.58241 2.49076,-24.57596 -0.7363,-2.29372 -2.6274,-5.65723 -4.41817,-7.85814 l -0.53821,-0.66148 0.56897,-1.87852 c 0.50665,-1.67275 0.56841,-2.21474 0.56376,-4.94769 -0.005,-2.73554 -0.0761,-3.34115 -0.6573,-5.57117 -0.8033,-3.08222 -1.18152,-3.78023 -2.16301,-3.99193 -2.36545,-0.51019 -8.49712,1.69907 -13.57338,4.89056 -2.10583,1.32394 -2.51185,1.43901 -3.77697,1.07045 -2.74307,-0.79912 -9.79555,-1.68418 -13.43943,-1.68659 -3.96992,-0.003 -9.32831,0.65109 -14.19929,1.73232 l -1.07596,0.23883 -2.20487,-1.34017 c -4.95369,-3.01095 -11.33593,-5.34366 -13.58191,-4.96421 -0.99772,0.16857 -1.23682,0.52161 -1.92915,2.84857 -1.24124,4.17181 -1.39581,7.95214 -0.47123,11.52434 0.44406,1.71568 0.49623,2.17059 0.28197,2.45879 -3.7904,5.09841 -5.17483,8.37292 -5.69051,13.45939 -0.44394,4.37886 0.29537,10.68425 1.75835,14.99665 2.46739,7.27305 6.34345,11.40483 13.65778,14.55882 2.60899,1.12502 6.27157,2.12907 9.17806,2.51604 1.0366,0.13801 1.99113,0.31669 2.12118,0.39707 0.15446,0.0955 -0.0385,0.50446 -0.55643,1.1796 -0.98135,1.27914 -1.70774,2.88394 -2.23249,4.93215 -0.22127,0.86369 -0.44002,1.60806 -0.48612,1.65415 -0.32255,0.32256 -3.47613,1.15621 -5.09681,1.34735 -5.00811,0.59064 -8.51117,-1.1941 -11.6162,-5.91818 -2.36465,-3.59766 -5.55154,-6.04179 -8.59372,-6.59081 -1.35726,-0.24495 -2.94896,-0.14072 -3.65974,0.23965 -1.08242,0.57924 0.0972,2.43999 2.60273,4.10568 1.003,0.66679 1.88776,1.50584 2.74713,2.60519 1.19023,1.5226 1.74952,2.53285 3.71009,6.70162 1.27455,2.71006 3.46044,4.64653 6.54978,5.8024 2.36048,0.88316 8.45378,1.32902 11.56532,0.84625 0.81715,-0.12678 1.51872,-0.19752 1.55905,-0.15719 0.0403,0.0403 0.14001,2.45388 0.22149,5.36344 0.16051,5.73086 0.0578,6.65334 -0.834,7.49115 -0.61726,0.57988 -1.66572,0.83351 -2.66867,0.64556 z m -3.36929,-18.489 c -0.46846,-0.56447 -0.12005,-0.97344 0.82929,-0.97344 0.869,0 1.3399,0.4381 0.92107,0.85692 -0.39185,0.39185 -1.46269,0.46314 -1.75036,0.11652 z m 4.50313,-0.65864 c -0.19799,-0.51596 0.34654,-0.97837 1.0689,-0.9077 0.70765,0.0692 1.02891,0.71603 0.51684,1.04054 -0.46777,0.29644 -1.45267,0.21393 -1.58574,-0.13284 z m -9.3866,-0.20627 c -0.35364,-0.42611 -0.11637,-0.9552 0.42837,-0.9552 0.68174,0 1.26272,0.39298 1.26272,0.85411 0,0.33132 -0.14538,0.41589 -0.71491,0.41589 -0.39321,0 -0.83249,-0.14166 -0.97618,-0.3148 z m -3.6929,-2.25239 c -0.59535,-0.4683 -0.71573,-1.13111 -0.23868,-1.31417 0.40635,-0.15593 1.38934,0.6382 1.38934,1.12241 0,0.58089 -0.54128,0.6711 -1.15066,0.19176 z m -3.19842,-3.66239 c -0.38154,-0.58231 -0.28938,-1.17875 0.18213,-1.17875 0.43421,0 1.03969,0.75998 0.95516,1.1989 -0.1144,0.59399 -0.74218,0.58286 -1.13729,-0.0202 z m -2.29671,-3.32866 c -0.22753,-0.32484 -0.26602,-0.54795 -0.11976,-0.69421 0.29702,-0.29702 0.94472,0.13288 0.94472,0.62705 0,0.57323 -0.44511,0.60947 -0.82496,0.0672 z m -2.4109,-2.33478 c -0.39712,-0.39712 -0.3047,-0.63158 0.21961,-0.55712 0.26193,0.0372 0.47625,0.20258 0.47625,0.3675 0,0.40299 -0.37917,0.50631 -0.69586,0.18962 z"
       style="fill:#344561;stroke-width:0.21166666" />
  </g>
</svg>
