<svg width="27" height="27" viewBox="0 0 27 27" fill="none" xmlns="http://www.w3.org/2000/svg">
<path fill-rule="evenodd" clip-rule="evenodd" d="M13.4989 0C6.04503 0 0 6.04422 0 13.5006C0 19.4644 3.86786 24.5248 9.23246 26.3108C9.90789 26.4344 10.154 26.0175 10.154 25.6594C10.154 25.3387 10.1423 24.49 10.1353 23.3637C6.38011 24.1792 5.58782 21.5537 5.58782 21.5537C4.9737 19.994 4.08857 19.5788 4.08857 19.5788C2.86283 18.7417 4.18137 18.7583 4.18137 18.7583C5.5364 18.8537 6.24914 20.1498 6.24914 20.1498C7.45334 22.2126 9.40922 21.6167 10.1783 21.2711C10.3009 20.3993 10.6499 19.8042 11.0353 19.4669C8.03763 19.1255 4.88582 17.9677 4.88582 12.7945C4.88582 11.3201 5.4121 10.1159 6.27566 9.17198C6.13635 8.83051 5.67315 7.45805 6.40839 5.59913C6.40839 5.59913 7.5413 5.23616 10.1204 6.98238C11.197 6.68318 12.3523 6.53401 13.5001 6.5282C14.6471 6.5329 15.8016 6.68325 16.8798 6.98238C19.4573 5.23616 20.5886 5.59913 20.5886 5.59913C21.3253 7.45805 20.8621 8.83051 20.7236 9.17198C21.5889 10.1159 22.111 11.3201 22.111 12.7945C22.111 17.9809 18.9542 19.1221 15.9475 19.4561C16.4314 19.8729 16.8632 20.6968 16.8632 21.9565C16.8632 23.7607 16.8468 25.2168 16.8468 25.6594C16.8468 26.0208 17.0904 26.441 17.775 26.3092C23.1355 24.5199 27 19.4636 27 13.5006C27 6.04422 20.955 0 13.4986 0" fill="#727B80"/>
</svg>
