<?xml version="1.0" encoding="UTF-8"?>
<svg fill="none" viewBox="0 0 708 547" xmlns="http://www.w3.org/2000/svg">
<g clip-path="url(#b)">
<path d="m573.13 315.72-206.72-119.35c-2.902-1.671-5.253-6.161-5.253-10.001v-159.93c0-3.8589 2.351-5.639 5.253-3.9987l206.72 119.39c2.903 1.67 5.253 6.161 5.253 10.001v159.9c0 3.9-2.35 5.681-5.253 3.999v-4e-3z" fill="#B1B4C4"/>
<path d="m576.48 316.05-1-6.79-1.3 8.11 2.3-1.32z" fill="#B1B4C4"/>
<path d="m360.79 23.452 2.249-1.2965 3.239 1.8483s-3.451 0.5215-3.53 0.4988c-0.079-0.0189-1.958-1.0469-1.958-1.0469v-0.0037z" fill="#B1B4C4"/>
<path d="m571.24 316.82-206.73-119.35c-2.899-1.678-5.253-6.168-5.253-10.001v-159.94c0-3.8702 2.354-5.639 5.253-3.9987l206.73 119.38c2.903 1.667 5.254 6.169 5.254 9.997v159.94c0 3.859-2.351 5.639-5.254 3.969z" fill="#E4E7F2"/>
<path d="m570.87 317.03-206.72-119.36c-2.902-1.674-5.253-6.161-5.253-10.005v-159.93c0-3.8702 2.351-5.6503 5.253-4.0025l206.72 119.38c2.902 1.671 5.253 6.161 5.253 10.001v159.94c0 3.863-2.351 5.643-5.253 3.969v3e-3z" fill="#D6D8E5"/>
<path d="m573.28 307.3-211.76-122.26 0.109-156.66c0-1.6101 1.13-2.2603 2.521-1.459l206.72 119.36c0.733 0.475 1.343 1.117 1.781 1.873s0.692 1.605 0.74 2.477l-0.11 156.67z" fill="#fff"/>
<path d="m444.53 95.943-66.996-38.661c-0.307-0.2227-0.557-0.514-0.731-0.8506-0.174-0.3367-0.267-0.7094-0.271-1.0883v-4.6714c0-0.7484 0.461-1.0961 1.002-0.7673l66.999 38.661c0.306 0.2231 0.556 0.5146 0.729 0.8512 0.173 0.3367 0.265 0.7091 0.269 1.0877v4.6791c0.019 0.7408-0.438 1.0885-0.998 0.7596h-3e-3z" fill="#E9EAF2"/>
<path d="m427.33 97.062-49.452-28.547c-0.314-0.2302-0.568-0.5322-0.741-0.8807-0.174-0.3484-0.262-0.7333-0.256-1.1226v-2.2676c0-0.7521 0.449-1.0999 0.997-0.7711l49.452 28.55c0.314 0.2298 0.57 0.5316 0.744 0.8801s0.262 0.7336 0.257 1.1232v2.3167c0.019 0.6993-0.378 1.0394-1.001 0.7182z" fill="#E9EAF2"/>
<path d="m427.33 105.87-49.452-28.547c-0.314-0.2302-0.568-0.5321-0.741-0.8805-0.174-0.3485-0.262-0.7334-0.256-1.1226v-2.2678c0-0.7521 0.449-1.0923 0.997-0.771l49.452 28.562c0.308 0.221 0.56 0.512 0.734 0.849s0.266 0.711 0.267 1.09v2.321c0.019 0.748-0.378 1.077-1.001 0.767z" fill="#E9EAF2"/>
<path d="m418.01 109.3-40.131-23.119c-0.307-0.2214-0.558-0.5126-0.731-0.8496-0.174-0.337-0.265-0.7103-0.266-1.0893v-2.3811c0-0.7521 0.449-1.0923 0.997-0.7711l40.131 23.168c0.315 0.23 0.569 0.532 0.744 0.88 0.174 0.349 0.262 0.734 0.258 1.123v2.317c0.011 0.703-0.442 1.043-1.002 0.722z" fill="#6DD5ED"/>
<path d="m444.53 188.47-66.996-38.664c-0.314-0.231-0.568-0.532-0.742-0.879-0.174-0.348-0.263-0.732-0.26-1.121v-4.618c0-0.749 0.461-1.089 1.002-0.771l66.999 38.664c0.312 0.231 0.565 0.531 0.739 0.878 0.173 0.347 0.262 0.73 0.259 1.118v4.671c0.019 0.699-0.438 1.04-0.998 0.718l-3e-3 4e-3z" fill="#E9EAF2"/>
<path d="m427.33 189.58-49.452-28.562c-0.307-0.221-0.558-0.513-0.731-0.85-0.174-0.337-0.265-0.71-0.266-1.089v-2.32c0-0.749 0.449-1.097 0.997-0.771l49.452 28.55c0.307 0.223 0.559 0.514 0.733 0.852 0.174 0.337 0.266 0.711 0.268 1.091v2.328c0.019 0.748-0.378 1.088-1.001 0.771z" fill="#E9EAF2"/>
<path d="m427.33 198.4-49.452-28.551c-0.306-0.224-0.556-0.518-0.729-0.857-0.174-0.338-0.265-0.713-0.268-1.093v-2.32c0-0.749 0.449-1.1 0.997-0.772l49.452 28.551c0.314 0.23 0.57 0.532 0.744 0.88 0.174 0.349 0.262 0.734 0.257 1.123v2.317c0.019 0.699-0.378 1.039-1.001 0.718v4e-3z" fill="#E9EAF2"/>
<path d="m418.01 201.82-40.131-23.168c-0.306-0.225-0.556-0.519-0.729-0.857-0.174-0.339-0.265-0.713-0.268-1.094v-2.32c0-0.749 0.449-1.089 0.997-0.771l40.131 23.168c0.308 0.223 0.559 0.514 0.733 0.852 0.174 0.337 0.266 0.711 0.269 1.091v2.328c0.011 0.752-0.442 1.134-1.002 0.771z" fill="#6DD5ED"/>
<path d="m462.45 199.94s7.389 6.199 18.051-2.267c7.62-6.251 14.43-2.684 18.218-0.522 3.79 2.158 9.312 3.447 19.714 22.288 2.248 3.703 5.328 6.832 8.995 9.139 5.612 3.232 8.303 1.663 12.714-4.997 4.407-6.663 7.287-14.003 15.39-9.203v66.803l-93.8-54.153v-27.53l0.718 0.442z" fill="#F5F6FF"/>
<path d="m442.07 171.62-64.192-37.062c-0.306-0.225-0.556-0.519-0.729-0.857-0.174-0.339-0.265-0.713-0.268-1.094v-37.001c0-0.7483 0.449-1.0885 0.997-0.7672l64.192 37.062c0.307 0.224 0.557 0.518 0.731 0.856 0.174 0.339 0.267 0.713 0.271 1.094v37.001c0.011 0.749-0.443 1.085-1.002 0.768z" fill="#E9EAF2"/>
<path d="m461.72 198.38v28.679l93.796 54.149v-66.807" stroke="#E9EAF2" stroke-miterlimit="10" stroke-width=".22"/>
<path d="m498.59 197.47v50.8" stroke="#E9EAF2" stroke-miterlimit="10" stroke-width=".21921"/>
<path d="m527.28 229.6v35.24" stroke="#E9EAF2" stroke-miterlimit="10" stroke-width=".21921"/>
<path d="m461.72 199.5c16.637 10.318 18.995-13.001 37.126-2.539 18.13 10.461 15.628 24.113 29 31.842 13.368 7.729 13.701-22.462 27.659-14.4" stroke="#E9EAF2" stroke-miterlimit="10" stroke-width="1.0885"/>
<path d="m500.16 200.19c0.866-0.5 0.868-2.119 3e-3 -3.615-0.864-1.497-2.266-2.305-3.132-1.805s-0.867 2.118-3e-3 3.615 2.266 2.305 3.132 1.805z" fill="#6DD5ED"/>
<path d="m558.53 218.02c0.87-0.5 0.875-2.125 0.011-3.629-0.865-1.504-2.271-2.317-3.141-1.817-0.871 0.5-0.876 2.125-0.012 3.629 0.865 1.504 2.271 2.318 3.142 1.817z" fill="#6DD5ED"/>
<path d="m530.18 232.64c0.871-0.501 0.876-2.125 0.011-3.629-0.864-1.504-2.271-2.318-3.141-1.817-0.871 0.5-0.875 2.125-0.011 3.629 0.864 1.503 2.27 2.317 3.141 1.817z" fill="#6DD5ED"/>
<path d="m464.36 203.06c0.87-0.501 0.876-2.125 0.011-3.629-0.864-1.504-2.271-2.318-3.141-1.817-0.871 0.5-0.876 2.125-0.011 3.629 0.864 1.503 2.27 2.317 3.141 1.817z" fill="#6DD5ED"/>
<path d="m464.37 150.23-3.84-2.218c-0.306-0.223-0.555-0.515-0.728-0.851-0.174-0.337-0.266-0.709-0.27-1.088v-18.573c0-0.748 0.458-1.088 0.998-0.767l3.84 2.219c0.306 0.223 0.556 0.515 0.73 0.851 0.173 0.337 0.267 0.709 0.272 1.088v18.58c0.019 0.71-0.42 1.092-1.002 0.759z" fill="#E9EAF2"/>
<path d="m473.23 155.35-3.847-2.17c-0.307-0.225-0.557-0.518-0.731-0.857-0.173-0.338-0.266-0.712-0.271-1.093v-37.833c0-0.748 0.461-1.089 1.002-0.767l3.847 2.218c0.315 0.231 0.569 0.532 0.744 0.881 0.174 0.348 0.262 0.733 0.258 1.123v37.727c0.011 0.752-0.438 1.092-1.002 0.771z" fill="#79F7FF"/>
<path d="m490.95 165.57-3.84-2.219c-0.308-0.225-0.558-0.518-0.732-0.856-0.174-0.339-0.267-0.714-0.27-1.094v-34.111c0-0.752 0.454-1.092 1.002-0.771l3.84 2.219c0.305 0.226 0.555 0.519 0.728 0.858 0.173 0.338 0.265 0.712 0.269 1.092v34.11c0 0.753-0.457 1.093-0.997 0.772z" fill="#E9EAF2"/>
<path d="m499.78 170.68-3.832-2.219c-0.306-0.224-0.556-0.516-0.73-0.853s-0.267-0.71-0.272-1.09v-28.271c0-0.748 0.461-1.088 1.002-0.767l3.84 2.219c0.307 0.225 0.557 0.518 0.73 0.857 0.173 0.338 0.265 0.713 0.268 1.093v28.26c0.011 0.752-0.439 1.092-1.009 0.771h3e-3z" fill="#79F7FF"/>
<path d="m517.41 180.87-3.84-2.223c-0.313-0.23-0.567-0.531-0.741-0.879-0.174-0.347-0.264-0.731-0.26-1.12v-14c0-0.752 0.461-1.092 1.001-0.771l3.84 2.223c0.306 0.224 0.556 0.517 0.729 0.855s0.265 0.712 0.269 1.091v14.003c0.019 0.798-0.457 1.138-0.998 0.821z" fill="#E9EAF2"/>
<path d="m526.27 185.97-3.851-2.219c-0.306-0.226-0.555-0.519-0.728-0.858-0.173-0.338-0.266-0.712-0.27-1.092v-47.497c0-0.753 0.457-1.1 0.998-0.772l3.851 2.219c0.307 0.223 0.557 0.514 0.73 0.851s0.265 0.709 0.268 1.088v47.493c0.011 0.768-0.438 1.108-0.998 0.791v-4e-3z" fill="#79F7FF"/>
<path d="m547.87 198.44-3.851-2.26c-0.306-0.226-0.555-0.519-0.728-0.858-0.174-0.338-0.266-0.712-0.27-1.092v-14c0-0.752 0.457-1.1 0.998-0.771l3.851 2.223c0.307 0.222 0.557 0.514 0.73 0.85 0.173 0.337 0.265 0.71 0.268 1.089v13.999c0.011 0.801-0.438 1.141-0.998 0.82z" fill="#E9EAF2"/>
<path d="m556.72 203.55-3.847-2.219c-0.308-0.222-0.559-0.514-0.733-0.851-0.174-0.338-0.266-0.711-0.269-1.091v-18.569c0-0.748 0.454-1.1 1.002-0.771l3.847 2.222c0.307 0.223 0.557 0.514 0.731 0.851s0.267 0.709 0.271 1.088v18.569c0.019 0.752-0.439 1.092-1.002 0.771z" fill="#79F7FF"/>
<path d="m477.56 356.18-178.42-103 0.095-132c0-1.345 0.952-1.893 2.12-1.221l174.17 100.57c0.619 0.402 1.134 0.945 1.503 1.584s0.582 1.356 0.621 2.093l-0.094 131.97z" fill="#2193B0" opacity=".5"/>
<path d="m477.45 363.38-174.17-100.56c-2.445-1.406-4.422-5.19-4.422-8.429v-134.75c0-3.25 1.977-4.751 4.422-3.368l174.17 100.59c2.442 1.406 4.422 5.189 4.422 8.424v134.72c0 3.289-1.98 4.789-4.422 3.372v-4e-3z" fill="#B1B4C4"/>
<path d="m475.86 364.31-174.18-100.57c-2.441-1.414-4.422-5.197-4.422-8.425v-134.75c0-3.262 1.981-4.755 4.422-3.371l174.18 100.58c2.445 1.406 4.422 5.197 4.422 8.425v134.76c0 3.25-1.977 4.755-4.422 3.345l-4e-3 4e-3z" fill="#E4E7F2"/>
<path d="m475.55 364.48-174.17-100.57c-2.445-1.406-4.422-5.189-4.422-8.428v-134.74c0-3.258 1.977-4.763 4.422-3.368l174.17 100.58c2.442 1.41 4.422 5.193 4.422 8.428v134.75c0 3.25-1.98 4.751-4.422 3.345v4e-3z" fill="#D6D8E5"/>
<path d="m477.07 356.79-178.41-103 0.094-131.99c0-1.361 0.949-1.905 2.121-1.233l174.17 100.57c0.617 0.4 1.132 0.941 1.501 1.578 0.369 0.638 0.582 1.353 0.623 2.088l-0.099 131.99z" fill="#2193B0" stroke="#53AEED" stroke-width=".84284"/>
<path d="m239.14 188.02-0.148 46.001" stroke="#6DD5ED" stroke-width=".75591"/>
<path d="m300.23 462.02 31.226 18.085z" fill="#2193B0"/>
<path d="m300.23 462.02 31.226 18.085" stroke="#6DD5ED" stroke-width=".75591"/>
<path d="m300.43 453.43-0.079 24.28" stroke="#2193B0" stroke-width="1.0016"/>
<path d="m125.54 240.16c4e-3 0.642-0.44 1.259-1.232 1.715-0.792 0.455-1.869 0.713-2.994 0.715-0.557 1e-3 -1.11-0.061-1.625-0.182-0.516-0.121-0.985-0.299-1.381-0.523-0.395-0.225-0.709-0.492-0.923-0.786-0.215-0.294-0.325-0.609-0.326-0.928-2e-3 -0.318 0.106-0.633 0.318-0.928 0.211-0.294 0.522-0.562 0.915-0.788 0.393-0.225 0.86-0.405 1.374-0.527 0.514-0.123 1.065-0.186 1.622-0.187s1.109 0.061 1.625 0.182c0.515 0.121 0.984 0.299 1.379 0.524 0.395 0.224 0.708 0.491 0.922 0.785s0.325 0.609 0.326 0.928z" fill="#2193B0"/>
<path d="m121.36 240.52 11.467 6.644z" fill="#2193B0"/>
<path d="m121.36 240.52 11.467 6.644" stroke="#2193B0" stroke-width="1.0016"/>
<path d="m159 298.29 28.191 16.327" stroke="#1D809A" stroke-width="1.0016"/>
<path d="m189.71 280.35 28.187 16.328" stroke="#1D809A" stroke-width="1.0016"/>
<path d="m441.05 395.91 11.864 6.872" stroke="#196F85" stroke-width="1.0016"/>
<path d="m231.65 138.99c-0.519-0.28-1.102-0.492-1.708-0.634l0.392-0.228c0.205 0.185 0.422 0.346 0.646 0.476l0.67 0.386z" fill="url(#a)"/>
<path d="m515.69 405.58-0.015-2.761-8e-3 2.556 0.016 2.762 7e-3 -2.557z" fill="#A7BCCE"/>
<path d="m541.07 408.91-3.361 1.953-7e-3 2.556 3.362-1.953 6e-3 -2.556z" fill="#2193B0"/>
<path d="m501.96 410.86-3.383-1.953-8e-3 2.556 3.384 1.953 7e-3 -2.556z" fill="#2193B0"/>
<path d="m509.13 419.72c0.017-0.091 0.045-0.184 0.069-0.276 0.028-0.107 0.055-0.215 0.092-0.323 0.032-0.088 0.074-0.175 0.112-0.263 0.048-0.112 0.098-0.224 0.156-0.336 0.044-0.081 0.098-0.161 0.147-0.24 0.127-0.208 0.269-0.407 0.427-0.593 0.138-0.168 0.292-0.332 0.458-0.493 0.06-0.059 0.115-0.118 0.178-0.175 0.104-0.095 0.22-0.184 0.333-0.273 0.099-0.082 0.193-0.163 0.3-0.239 0.123-0.089 0.257-0.173 0.389-0.26 0.136-0.088 0.264-0.179 0.411-0.264 0.323-0.187 0.667-0.355 1.017-0.515 0.102-0.045 0.206-0.088 0.307-0.13 0.276-0.116 0.56-0.223 0.849-0.322 0.104-0.036 0.206-0.073 0.311-0.106 0.183-0.058 0.368-0.108 0.555-0.159 0.141-0.039 0.281-0.079 0.425-0.115 0.196-0.046 0.395-0.086 0.595-0.126 0.136-0.028 0.272-0.059 0.409-0.084 0.404-0.07 0.815-0.127 1.228-0.171 0.127-0.012 0.255-0.02 0.381-0.031 0.76-0.068 1.523-0.085 2.284-0.05 0.35 0.013 0.699 0.037 1.047 0.07 0.18 0.018 0.36 0.038 0.54 0.059 0.162 0.021 0.322 0.045 0.482 0.069 0.193 0.031 0.382 0.064 0.573 0.099 0.149 0.029 0.299 0.059 0.448 0.092 0.225 0.049 0.448 0.105 0.669 0.164 0.123 0.032 0.248 0.064 0.37 0.099 0.397 0.116 0.784 0.245 1.158 0.392 0.187 0.072 0.366 0.15 0.546 0.23 0.093 0.042 0.189 0.079 0.28 0.123 0.272 0.128 0.537 0.267 0.792 0.412 2.126 1.229 3.188 2.84 3.184 4.448l6e-3 -2.556c4e-3 -1.608-1.056-3.22-3.184-4.448-0.254-0.145-0.52-0.284-0.792-0.412-0.09-0.044-0.188-0.081-0.28-0.123-0.161-0.072-0.318-0.146-0.485-0.21l-0.059-0.02c-0.374-0.147-0.762-0.276-1.158-0.392-0.034-0.01-0.062-0.023-0.095-0.031-0.089-0.027-0.183-0.044-0.275-0.068-0.222-0.059-0.445-0.115-0.672-0.164-0.058-0.013-0.117-0.032-0.177-0.044-0.089-0.019-0.181-0.031-0.269-0.048-0.191-0.036-0.382-0.068-0.572-0.099-0.078-0.012-0.152-0.029-0.23-0.04-0.084-0.012-0.169-0.017-0.252-0.029-0.18-0.021-0.36-0.041-0.541-0.059-0.086-8e-3 -0.171-0.022-0.256-0.029-0.082-7e-3 -0.162-8e-3 -0.242-0.013-0.184-0.012-0.365-0.022-0.549-0.028-0.091-4e-3 -0.183-0.014-0.273-0.016-0.074-2e-3 -0.146 2e-3 -0.218 1e-3 -0.198-3e-3 -0.396-2e-3 -0.594 3e-3 -0.099 2e-3 -0.196-2e-3 -0.294 1e-3l-0.172 0.012c-0.244 0.011-0.488 0.027-0.732 0.049-0.097 8e-3 -0.196 0.01-0.293 0.019-0.031 3e-3 -0.059 9e-3 -0.089 0.012-0.414 0.044-0.824 0.1-1.228 0.171l-0.06 9e-3c-0.116 0.021-0.23 0.049-0.346 0.073-0.2 0.042-0.401 0.08-0.598 0.128-0.143 0.035-0.283 0.076-0.423 0.114-0.187 0.052-0.373 0.102-0.557 0.16l-0.119 0.033c-0.067 0.023-0.127 0.051-0.192 0.073-0.286 0.098-0.569 0.205-0.848 0.322-0.103 0.042-0.207 0.085-0.308 0.13-0.347 0.155-0.687 0.327-1.017 0.515l-0.132 0.079c-0.099 0.06-0.184 0.124-0.278 0.184-0.132 0.086-0.266 0.17-0.389 0.261-0.107 0.076-0.201 0.157-0.303 0.239-0.112 0.089-0.228 0.178-0.332 0.273-0.02 0.017-0.045 0.036-0.065 0.056-0.043 0.037-0.072 0.08-0.112 0.119-0.161 0.155-0.314 0.32-0.457 0.493-0.031 0.036-0.072 0.069-0.1 0.107-0.03 0.036-0.048 0.073-0.075 0.11-0.09 0.121-0.175 0.247-0.253 0.376-0.034 0.054-0.076 0.106-0.108 0.159-0.014 0.027-0.023 0.055-0.038 0.081-0.06 0.112-0.108 0.224-0.157 0.336-0.029 0.066-0.067 0.13-0.091 0.196-9e-3 0.023-0.012 0.046-0.02 0.068-0.037 0.107-0.064 0.214-0.092 0.322-0.02 0.073-0.049 0.144-0.062 0.218-4e-3 0.02-4e-3 0.039-8e-3 0.058-0.02 0.113-0.028 0.226-0.038 0.341-6e-3 0.073-0.024 0.147-0.026 0.22l-2e-3 0.095-6e-3 2.556c0-0.106 0.017-0.211 0.026-0.316 0.011-0.114 0.018-0.227 0.039-0.34" fill="#2193B0"/>
<path d="m541.05 420.23c-0.05 0.154-0.11 0.306-0.17 0.461-0.042 0.105-0.086 0.209-0.132 0.312-0.044 0.097-0.088 0.196-0.136 0.292-0.05 0.104-0.103 0.207-0.159 0.308-0.117 0.218-0.243 0.431-0.376 0.639-0.056 0.086-0.112 0.174-0.171 0.26-0.085 0.122-0.173 0.243-0.264 0.361-0.06 0.079-0.117 0.159-0.18 0.237-0.179 0.226-0.366 0.446-0.561 0.658l-0.085 0.086c-0.18 0.191-0.366 0.377-0.558 0.557-0.152 0.142-0.305 0.286-0.469 0.426l-7e-3 2.556c0.134-0.114 0.264-0.232 0.392-0.348 0.027-0.026 0.051-0.054 0.078-0.078 0.194-0.183 0.38-0.367 0.554-0.555l0.088-0.089c0.199-0.216 0.386-0.435 0.562-0.656l0.046-0.055c0.048-0.061 0.088-0.121 0.134-0.183 0.09-0.12 0.178-0.24 0.262-0.361 0.06-0.085 0.115-0.173 0.171-0.26 0.075-0.117 0.149-0.236 0.22-0.356 0.021-0.039 0.049-0.076 0.071-0.116 0.032-0.056 0.056-0.112 0.086-0.167 0.055-0.102 0.108-0.204 0.159-0.307 0.095-0.199 0.183-0.401 0.267-0.605l0.058-0.139c0.039-0.106 0.079-0.214 0.114-0.322h4.768l8e-3 -2.556h-4.77z" fill="#2193B0"/>
<path d="m502.03 427.38 8e-3 -2.556c-1.659-1.413-2.766-2.978-3.314-4.597h-4.771l-6e-3 2.557h4.769c0.548 1.618 1.655 3.183 3.314 4.596z" fill="#2193B0"/>
<path d="m531.98 428.2c-0.573 0.225-1.161 0.428-1.76 0.617-0.33 0.105-0.67 0.192-1.009 0.287-0.315 0.086-0.627 0.18-0.948 0.258-0.344 0.084-0.696 0.15-1.045 0.223-0.324 0.068-0.646 0.143-0.975 0.2-0.726 0.129-1.457 0.236-2.189 0.32l-7e-3 2.556c0.737-0.084 1.467-0.192 2.188-0.32 0.036-5e-3 0.073-8e-3 0.108-0.014 0.296-0.054 0.583-0.126 0.876-0.187 0.345-0.072 0.695-0.137 1.036-0.221 0.324-0.079 0.637-0.174 0.956-0.262 0.335-0.093 0.673-0.18 1.001-0.282 0.039-0.014 0.079-0.023 0.119-0.035 0.559-0.179 1.107-0.373 1.641-0.584l3.383 1.953 5.804-3.372 8e-3 -2.556-5.804 3.372-3.383-1.953z" fill="#2193B0"/>
<path d="m515.82 430.1c-0.518-0.059-1.027-0.139-1.536-0.219-0.682-0.108-1.361-0.236-2.036-0.383-0.43-0.094-0.855-0.201-1.278-0.313-0.332-0.088-0.665-0.172-0.99-0.271-0.711-0.212-1.413-0.451-2.104-0.718l-3e-3 -2e-3 -3.367 1.958-5.841-3.372-7e-3 2.556 5.84 3.372 3.367-1.958c0.544 0.214 1.105 0.404 1.673 0.586 0.143 0.046 0.288 0.09 0.434 0.134s0.289 0.094 0.436 0.136c0.182 0.051 0.373 0.087 0.556 0.135 0.422 0.112 0.846 0.219 1.277 0.313 0.141 0.031 0.275 0.074 0.416 0.102 0.173 0.036 0.353 0.058 0.527 0.092 0.362 0.069 0.726 0.132 1.094 0.189 0.167 0.027 0.33 0.064 0.496 0.087 0.344 0.048 0.688 0.093 1.035 0.13l4e-3 2e-3 0.016 2.761h8.231l8e-3 -2.556h-8.232l-0.016-2.761z" fill="#2193B0"/>
<path d="m512.26 422.27c4.23 2.442 11.06 2.438 15.261-3e-3s4.184-6.399-0.045-8.84c-4.23-2.441-11.064-2.441-15.266 0-4.201 2.443-4.18 6.401 0.05 8.843zm23.102 7.882-3.382-1.953c-2.435 0.957-5.136 1.593-7.927 1.905l0.015 2.762h-8.231l-0.016-2.762c-2.796-0.312-5.503-0.948-7.947-1.905l-3.367 1.957-5.841-3.372 3.367-1.957c-1.66-1.413-2.766-2.979-3.314-4.597l-4.769 1e-3 -0.027-4.768h4.768c0.531-1.619 1.624-3.183 3.263-4.599l-3.384-1.953 5.804-3.372 3.383 1.953c2.438-0.953 5.135-1.592 7.925-1.905l-0.013-2.761h8.229l0.016 2.761c2.796 0.313 5.499 0.952 7.948 1.905l3.363-1.953 5.84 3.372-3.361 1.953c1.653 1.416 2.765 2.98 3.313 4.599h4.769l0.027 4.767h-4.769c-0.531 1.618-1.619 3.184-3.262 4.597l3.384 1.953-5.804 3.372z" fill="#D6D8E5"/>
<path d="m472.58 400.54-0.013-2.257-6e-3 2.088 0.013 2.257 6e-3 -2.088z" fill="#A7BCCE"/>
<path d="m493.32 403.25-2.747 1.595-5e-3 2.089 2.745-1.596 7e-3 -2.088z" fill="#2193B0"/>
<path d="m461.37 404.84-2.764-1.595-6e-3 2.088 2.764 1.595 6e-3 -2.088z" fill="#2193B0"/>
<path d="m467.23 412.08c0.014-0.076 0.037-0.151 0.057-0.225 0.023-0.088 0.044-0.178 0.076-0.264 0.025-0.074 0.06-0.144 0.091-0.215 0.038-0.093 0.08-0.184 0.128-0.275 0.036-0.066 0.078-0.13 0.12-0.197 0.102-0.171 0.218-0.333 0.348-0.484 0.113-0.137 0.238-0.271 0.374-0.403 0.05-0.048 0.094-0.096 0.146-0.142 0.084-0.078 0.178-0.151 0.27-0.224 0.083-0.066 0.16-0.132 0.247-0.196 0.1-0.071 0.211-0.14 0.317-0.211 0.111-0.073 0.216-0.145 0.335-0.215 0.264-0.153 0.545-0.292 0.833-0.421 0.082-0.037 0.167-0.072 0.25-0.108 0.225-0.093 0.457-0.181 0.694-0.263 0.084-0.028 0.168-0.06 0.254-0.086 0.149-0.046 0.301-0.088 0.453-0.13 0.115-0.03 0.229-0.065 0.347-0.093 0.16-0.039 0.322-0.071 0.485-0.103 0.112-0.024 0.223-0.049 0.336-0.069 0.329-0.057 0.664-0.104 1.003-0.14l0.31-0.025c0.2-0.018 0.399-0.032 0.599-0.039 0.708-0.033 1.417-0.014 2.123 0.056 0.147 0.013 0.294 0.029 0.441 0.049 0.289 0.036 0.576 0.081 0.861 0.136 0.123 0.024 0.246 0.047 0.366 0.075 0.185 0.04 0.368 0.085 0.548 0.133 0.101 0.027 0.202 0.052 0.302 0.082 0.323 0.094 0.64 0.2 0.946 0.318 0.152 0.06 0.3 0.126 0.445 0.191 0.077 0.033 0.155 0.064 0.229 0.099 0.223 0.105 0.439 0.217 0.647 0.338 1.737 1.003 2.604 2.319 2.601 3.634l6e-3 -2.09c4e-3 -1.313-0.863-2.63-2.602-3.632-0.206-0.12-0.424-0.232-0.646-0.338-0.075-0.036-0.152-0.066-0.228-0.1-0.132-0.059-0.262-0.119-0.398-0.172l-0.048-0.016c-0.305-0.12-0.622-0.226-0.946-0.32l-0.076-0.027c-0.074-0.021-0.151-0.035-0.226-0.055-0.182-0.049-0.365-0.093-0.549-0.134-0.048-0.011-0.096-0.026-0.145-0.036-0.072-0.015-0.147-0.024-0.22-0.038-0.155-0.03-0.311-0.057-0.467-0.081-0.064-0.011-0.124-0.024-0.187-0.032-0.069-0.011-0.138-0.015-0.208-0.024-0.145-0.017-0.292-0.035-0.441-0.049-0.069-7e-3 -0.139-0.019-0.209-0.023-0.066-5e-3 -0.131-7e-3 -0.196-0.011-0.151-0.01-0.299-0.018-0.448-0.025-0.076-3e-3 -0.151-9e-3 -0.224-0.012-0.06-1e-3 -0.119 1e-3 -0.179 1e-3 -0.162-2e-3 -0.324-1e-3 -0.485 3e-3 -0.08 1e-3 -0.16-3e-3 -0.24 0l-0.14 0.011c-0.2 8e-3 -0.399 0.022-0.599 0.038-0.079 7e-3 -0.16 0.01-0.239 0.016l-0.073 0.011c-0.336 0.035-0.67 0.081-1.003 0.14l-0.049 7e-3c-0.095 0.017-0.188 0.041-0.281 0.06-0.164 0.034-0.33 0.066-0.491 0.105-0.116 0.028-0.229 0.061-0.344 0.093-0.153 0.042-0.307 0.083-0.456 0.13-0.032 9e-3 -0.065 0.017-0.097 0.028-0.054 0.017-0.103 0.041-0.156 0.058-0.321 0.109-0.636 0.233-0.944 0.371-0.285 0.125-0.563 0.266-0.832 0.421-0.038 0.02-0.072 0.042-0.108 0.063-0.082 0.048-0.151 0.101-0.227 0.152-0.108 0.069-0.217 0.139-0.319 0.212-0.086 0.063-0.165 0.128-0.245 0.193-0.092 0.075-0.188 0.15-0.272 0.224l-0.055 0.046c-0.034 0.032-0.057 0.065-0.092 0.098-0.131 0.127-0.256 0.261-0.373 0.402-0.024 0.03-0.057 0.057-0.081 0.088-0.023 0.029-0.039 0.061-0.06 0.09-0.075 0.099-0.144 0.202-0.208 0.308-0.027 0.043-0.062 0.084-0.087 0.128-0.012 0.023-0.02 0.046-0.031 0.067-0.05 0.092-0.089 0.183-0.129 0.275-0.024 0.053-0.055 0.106-0.075 0.16-8e-3 0.018-0.01 0.037-0.016 0.054-0.032 0.088-0.053 0.176-0.076 0.264-0.016 0.06-0.038 0.119-0.05 0.178l-6e-3 0.049c-0.017 0.092-0.024 0.184-0.032 0.277-5e-3 0.062-0.018 0.12-0.02 0.18l-1e-3 0.078-7e-3 2.088c0-0.086 0.015-0.172 0.023-0.258 7e-3 -0.092 0.013-0.186 0.031-0.277" fill="#2193B0"/>
<path d="m493.3 412.5c-0.04 0.125-0.09 0.249-0.139 0.374-0.035 0.086-0.071 0.172-0.109 0.256-0.035 0.081-0.072 0.161-0.111 0.239-0.04 0.085-0.084 0.168-0.129 0.253-0.04 0.076-0.084 0.154-0.128 0.231-0.059 0.097-0.119 0.194-0.18 0.289-0.046 0.071-0.091 0.143-0.139 0.214-0.068 0.098-0.143 0.196-0.215 0.294l-0.148 0.195c-0.146 0.184-0.299 0.363-0.458 0.536-0.022 0.025-0.048 0.047-0.07 0.071-0.266 0.28-0.546 0.548-0.838 0.802l-7e-3 2.09c0.111-0.095 0.216-0.19 0.32-0.286 0.024-0.021 0.043-0.042 0.065-0.064 0.158-0.149 0.31-0.3 0.452-0.453l0.072-0.071c0.163-0.177 0.315-0.357 0.458-0.537 0.013-0.016 0.028-0.029 0.04-0.045 0.038-0.05 0.07-0.1 0.109-0.15 0.072-0.098 0.145-0.196 0.213-0.294 0.112-0.165 0.218-0.333 0.319-0.504l0.059-0.094c0.026-0.045 0.046-0.092 0.07-0.137 0.088-0.16 0.168-0.324 0.242-0.491 0.037-0.084 0.072-0.169 0.106-0.253 0.015-0.039 0.034-0.076 0.048-0.113 0.032-0.088 0.064-0.176 0.092-0.264h3.896l7e-3 -2.088h-3.897z" fill="#2193B0"/>
<path d="m461.42 418.34 7e-3 -2.088c-1.356-1.155-2.259-2.435-2.707-3.756h-3.896l-6e-3 2.089h3.896c0.448 1.321 1.35 2.601 2.706 3.755z" fill="#2193B0"/>
<path d="m485.9 419.01c-0.474 0.185-0.953 0.353-1.438 0.505-0.27 0.084-0.549 0.156-0.824 0.234-0.258 0.07-0.512 0.148-0.774 0.212-0.282 0.068-0.57 0.122-0.855 0.182-0.265 0.055-0.527 0.116-0.796 0.163-0.594 0.106-1.19 0.193-1.79 0.26l-5e-3 2.088c0.603-0.067 1.199-0.156 1.788-0.26l0.088-0.013c0.243-0.043 0.476-0.102 0.715-0.152 0.284-0.059 0.569-0.112 0.848-0.18 0.264-0.064 0.52-0.142 0.78-0.214 0.273-0.076 0.551-0.146 0.819-0.232 0.03-0.01 0.065-0.017 0.096-0.026 0.457-0.148 0.905-0.307 1.341-0.479l2.764 1.597 4.741-2.756 7e-3 -2.088-4.741 2.755-2.764-1.596z" fill="#2193B0"/>
<path d="m472.7 420.56c-0.423-0.046-0.84-0.113-1.256-0.178-0.557-0.087-1.111-0.192-1.662-0.312-0.353-0.078-0.7-0.164-1.045-0.256-0.271-0.071-0.544-0.142-0.809-0.222-0.119-0.036-0.238-0.072-0.356-0.11-0.462-0.147-0.92-0.303-1.363-0.476h-3e-3l-2.75 1.597-4.772-2.755-7e-3 2.088 4.773 2.756 2.75-1.6c0.565 0.219 1.14 0.415 1.721 0.588 0.12 0.036 0.236 0.076 0.357 0.111 0.148 0.043 0.303 0.072 0.452 0.112 0.346 0.091 0.694 0.177 1.046 0.255 0.114 0.025 0.224 0.058 0.34 0.084 0.141 0.028 0.286 0.046 0.43 0.073 0.295 0.056 0.592 0.108 0.894 0.156 0.134 0.021 0.268 0.052 0.405 0.069 0.28 0.042 0.563 0.078 0.845 0.108h3e-3l0.013 2.258h6.726l5e-3 -2.088h-6.725l-0.012-2.258z" fill="#2193B0"/>
<path d="m469.78 414.16c3.456 1.994 9.035 1.992 12.468-3e-3 3.434-1.995 3.419-5.227-0.037-7.221-3.455-1.995-9.039-1.995-12.471 0-3.432 1.994-3.414 5.229 0.04 7.224zm18.875 6.44-2.764-1.596c-1.988 0.781-4.195 1.3-6.476 1.556l0.012 2.257h-6.725l-0.011-2.257c-2.284-0.256-4.496-0.774-6.495-1.556l-2.75 1.598-4.771-2.754 2.749-1.6c-1.354-1.154-2.258-2.434-2.706-3.755h-3.896l-0.022-3.896h3.896c0.432-1.321 1.327-2.599 2.666-3.756l-2.766-1.596 4.742-2.755 2.764 1.596c1.992-0.78 4.194-1.301 6.476-1.556l-0.014-2.257h6.726l0.013 2.257c2.283 0.255 4.492 0.776 6.493 1.555l2.746-1.595 4.772 2.755-2.746 1.596c1.351 1.157 2.259 2.435 2.707 3.756h3.896l0.023 3.896h-3.898c-0.433 1.321-1.321 2.601-2.664 3.755l2.764 1.597-4.741 2.755z" fill="#D6D8E5"/>
<path d="m359 22.428 2.253-1.3001 3.239 1.8519s-3.451 0.5178-3.53 0.4989c-0.08-0.0189-1.962-1.0507-1.962-1.0507z" fill="#B1B4C4"/>
<path d="m136.19 305.94v4e-3l4.37 2.523 0.748-6.123 34.483-19.917c1.234-0.713 2.234-2.445 2.234-3.869l-4e-3 -75.482 3.118-13.332-4.372-2.525-3e-3 -2e-3 -7e-3 -3e-3 -1e-3 1e-3c-0.404-0.228-0.958-0.194-1.57 0.16l-37.443 21.618c-1.234 0.712-2.234 2.445-2.234 3.869l5e-3 91.625c0 0.723 0.26 1.225 0.676 1.453z" fill="#D6D8E5"/>
<path d="m181.14 189.74-4.373-2.525-2e-3 -2e-3 -8e-3 -3e-3h-2e-3c-0.403-0.227-0.957-0.193-1.569 0.16l-37.443 21.619c-0.617 0.356-1.175 0.967-1.579 1.667l19.978 11.534 21.879-12.332v-6.786l3.119-13.332z" fill="#ACAFCA"/>
<path d="m178.53 283.25-35.415 20.455c-0.826 0.472-1.488 0.094-1.488-0.861l-0.025-85.258c0-0.946 0.67-2.106 1.487-2.579l9.079-5.253 0.215-0.121c0.826-0.472 1.488-0.085 1.488 0.861v0.592c0 0.422 0.129 0.731 0.352 0.912 0.026 0.017 0.051 0.034 0.086 0.051v9e-3c0.267 0.154 0.645 0.128 1.058-0.112l10.988-6.345c0.825-0.473 1.487-1.625 1.487-2.579v-0.594c0-0.945 0.672-2.098 1.488-2.579l9.182-5.297c0.817-0.473 1.488-0.094 1.488 0.86l0.018 85.249c0 0.955-0.663 2.107-1.488 2.589zm3.276-92.051c0-1.427-0.997-2.003-2.227-1.289l-37.445 21.615c-1.238 0.714-2.235 2.441-2.235 3.869l9e-3 91.629c0 1.418 0.997 1.994 2.226 1.29l37.445-21.625c1.238-0.713 2.235-2.442 2.235-3.868l-8e-3 -91.621z" fill="#DCEEFF"/>
<path d="m157.12 206.91 5.331-3.079c0.457-0.264 0.828-0.144 0.828 0.269s-0.371 0.962-0.828 1.225l-5.331 3.08c-0.457 0.265-0.828 0.143-0.828-0.269 0-0.413 0.371-0.962 0.828-1.226z" fill="#031F60"/>
<path d="m163.88 203.73c0 0.4 0.281 0.561 0.628 0.362 0.346-0.201 0.627-0.687 0.627-1.087 0-0.401-0.281-0.562-0.627-0.362-0.348 0.2-0.628 0.686-0.628 1.087z" fill="#031F60"/>
<path d="m180.02 280.67c0 0.954-0.662 2.106-1.487 2.588l-35.416 20.454c-0.824 0.473-1.487 0.096-1.487-0.86v-0.326l-0.026-84.931c0-0.946 0.671-2.107 1.488-2.58l9.079-5.253 0.215-0.121c0.825-0.472 1.488-0.085 1.488 0.86v0.594c0 0.954 0.67 1.341 1.496 0.86l10.988-6.346c0.825-0.473 1.488-1.625 1.488-2.579v-0.594c0-0.945 0.67-2.098 1.487-2.579l8.968-5.176 0.215-0.121c0.816-0.472 1.487-0.094 1.487 0.861l0.017 85.249z" fill="#031F60"/>
<path d="m178.52 194.56-0.215 0.121-1.773 1.023v84.102l3.271 1.888c0.138-0.341 0.221-0.694 0.221-1.024l-0.017-85.25c0-0.954-0.67-1.332-1.487-0.86z" fill="#1E3779"/>
<path d="m178.32 279.6c0 0.955-0.662 2.107-1.487 2.588l-35.2 20.335-0.026-84.931c0-0.946 0.671-2.107 1.487-2.58l9.08-5.254v0.267c0 0.955 0.67 1.341 1.496 0.86l0.207-0.121v0.327c0 0.955 0.67 1.341 1.495 0.86l10.988-6.345c0.826-0.473 1.488-1.625 1.488-2.58v-0.593c0-0.946 0.671-2.098 1.488-2.58l8.967-5.175 0.017 84.922z" fill="#1C7B93"/>
<path d="m171.78 252.46c4.11-15.511 5.944-42.994 6.523-53.578l-1e-3 -4.203-8.968 5.176c-0.817 0.481-1.488 1.634-1.488 2.579v0.594c0 0.954-0.662 2.107-1.488 2.579l-10.988 6.345c-0.825 0.482-1.495 0.096-1.495-0.86v-0.326l-0.207 0.12c-0.826 0.482-1.496 0.095-1.496-0.86v-0.266l-9.08 5.253c-0.816 0.473-1.487 1.634-1.487 2.58l0.023 74.869c0.485-0.309 23.56-15.127 30.152-40.002z" fill="#2193B0"/>
<path d="m154.23 212-1.651-1.031c-0.275-0.189-0.405-0.517-0.405-0.946v-0.267l0.216-0.12c0.825-0.473 1.487-0.086 1.487 0.86v0.593c0 0.422 0.129 0.73 0.353 0.911z" fill="#031F60"/>
<g opacity=".2">
<g opacity=".2">
<path d="m192.07 276.8c0.063-0.155 0.111-0.31 0.147-0.468 0.046-0.182 0.071-0.369 0.075-0.557l-0.018-85.25c0-0.953-0.67-1.332-1.487-0.859l-0.215 0.12-1.774 1.023v1e-3l-7.194 4.152c-0.817 0.481-1.487 1.634-1.487 2.579v0.594c0 0.954-0.662 2.107-1.488 2.579l-10.988 6.345c-0.826 0.482-1.496 0.096-1.496-0.859v-0.593c0-0.946-0.662-1.333-1.487-0.86l-0.216 0.12-9.079 5.253c-0.816 0.473-1.488 1.634-1.488 2.58l0.026 84.931v0.326c0 0.955 0.662 1.333 1.488 0.861l35.415-20.455c0.539-0.315 1.005-0.917 1.266-1.563z" fill="#E9FFFB" opacity=".2"/>
</g>
</g>
<path d="m192.07 276.8c0.063-0.155 0.111-0.311 0.147-0.468 0.046-0.182 0.071-0.369 0.075-0.558l-0.018-85.249c0-0.953-0.67-1.332-1.487-0.859l-0.215 0.12-1.774 1.023v1e-3l-7.194 4.152c-0.817 0.481-1.487 1.634-1.487 2.579v0.594c0 0.954-0.662 2.107-1.488 2.579l-10.988 6.345c-0.826 0.482-1.496 0.096-1.496-0.859v-0.593c0-0.946-0.662-1.333-1.487-0.86l-0.216 0.12-9.079 5.253c-0.816 0.473-1.488 1.634-1.488 2.58l0.026 84.931v0.326c0 0.955 0.663 1.333 1.488 0.861l35.415-20.455c0.54-0.315 1.005-0.917 1.266-1.563z" stroke="#E9FFFB" stroke-miterlimit="10" stroke-width=".8372"/>
<g opacity=".8">
<g opacity=".8">
<path d="m173.27 214.39v63.401c0 1.424 1.001 2.001 2.234 1.289l30.458-17.585c1.233-0.713 2.234-2.445 2.234-3.869v-63.4c0-1.424-1.001-2.003-2.234-1.289l-30.458 17.584c-1.233 0.712-2.234 2.445-2.234 3.869z" fill="#3DCDF1" opacity=".8"/>
</g>
</g>
<path d="m173.28 214.39v63.4c0 1.424 1 2.001 2.233 1.29l30.459-17.586c1.233-0.712 2.233-2.445 2.233-3.869v-63.399c0-1.424-1-2.003-2.233-1.29l-30.459 17.585c-1.233 0.712-2.233 2.445-2.233 3.869z" stroke="#E9FFFB" stroke-linecap="round" stroke-miterlimit="10" stroke-width=".8372"/>
<g opacity=".8">
<g opacity=".8">
<path d="m177.66 252.72 12.183-7.034c0.494-0.285 0.893-0.055 0.893 0.515v0.051c0 0.57-0.399 1.263-0.893 1.548l-12.183 7.033c-0.493 0.285-0.893 0.054-0.893-0.516v-0.05c0-0.57 0.4-1.263 0.893-1.547z" fill="#2193B0" opacity=".8"/>
</g>
</g>
<g opacity=".8">
<g opacity=".8">
<path d="m193.31 243.68 10.498-6.061c0.494-0.286 0.894-0.055 0.894 0.516v0.051c0 0.569-0.4 1.261-0.894 1.546l-10.498 6.061c-0.493 0.286-0.893 0.055-0.893-0.515v-0.05c0-0.57 0.4-1.262 0.893-1.548z" fill="#2193B0" opacity=".8"/>
</g>
</g>
<g opacity=".8">
<g opacity=".8">
<path d="m177.66 262.66 12.183-7.033c0.494-0.285 0.893-0.054 0.893 0.516v0.05c0 0.57-0.399 1.263-0.893 1.548l-12.183 7.033c-0.493 0.285-0.893 0.055-0.893-0.515v-0.051c0-0.57 0.4-1.262 0.893-1.548z" fill="#2193B0" opacity=".8"/>
</g>
<g opacity=".8">
<path d="m193.31 253.63 10.498-6.063c0.494-0.284 0.894-0.054 0.894 0.516v0.051c0 0.57-0.4 1.263-0.894 1.547l-10.498 6.062c-0.493 0.285-0.893 0.054-0.893-0.516v-0.049c0-0.57 0.4-1.264 0.893-1.548z" fill="#2193B0" opacity=".8"/>
</g>
</g>
<g opacity=".8">
<g opacity=".8">
<path d="m177.66 257.69 6.596-3.808c0.493-0.285 0.893-0.054 0.893 0.515v0.051c0 0.571-0.4 1.264-0.893 1.548l-6.596 3.807c-0.493 0.285-0.893 0.055-0.893-0.516v-0.05c0-0.569 0.4-1.262 0.893-1.547z" fill="#2193B0" opacity=".8"/>
</g>
<g opacity=".8">
<path d="m187.22 252.18 5.595-3.248c0.492-0.286 0.892-0.055 0.892 0.514v0.051c0 0.57-0.4 1.263-0.892 1.55l-5.595 3.247c-0.492 0.287-0.892 0.056-0.892-0.514v-0.049c0-0.57 0.4-1.264 0.892-1.551z" fill="#2193B0" opacity=".8"/>
</g>
<g opacity=".8">
<path d="m195.98 247.09 7.831-4.499c0.493-0.284 0.894-0.052 0.894 0.518v0.051c0 0.569-0.401 1.261-0.894 1.545l-7.831 4.498c-0.494 0.284-0.895 0.053-0.895-0.518v-0.05c0-0.57 0.401-1.261 0.895-1.545z" fill="#2193B0" opacity=".8"/>
</g>
</g>
<g opacity=".8">
<g opacity=".8">
<path d="m177.66 267.69 10.626-6.123c0.494-0.285 0.894-0.054 0.894 0.516v0.05c0 0.57-0.4 1.263-0.894 1.547l-10.626 6.123c-0.493 0.285-0.894 0.054-0.894-0.517v-0.049c0-0.57 0.401-1.262 0.894-1.547z" fill="#2193B0" opacity=".8"/>
</g>
<g opacity=".8">
<path d="m191.25 259.86 5.594-3.248c0.493-0.287 0.893-0.055 0.893 0.514v0.051c0 0.57-0.4 1.263-0.893 1.55l-5.594 3.247c-0.493 0.286-0.893 0.056-0.893-0.513v-0.05c0-0.57 0.4-1.265 0.893-1.551z" fill="#2193B0" opacity=".8"/>
</g>
<g opacity=".8">
<path d="m200.01 254.78 3.8-2.185c0.494-0.283 0.894-0.052 0.894 0.518v0.05c0 0.57-0.401 1.262-0.894 1.546l-3.8 2.184c-0.494 0.284-0.894 0.052-0.894-0.518v-0.05c0-0.569 0.4-1.262 0.894-1.545z" fill="#2193B0" opacity=".8"/>
</g>
</g>
<g opacity=".8">
<g opacity=".8">
<path d="m178.52 245.08 24.435-14.109v-28.216l-24.478 14.132 0.043 28.193z" fill="#2193B0" opacity=".8"/>
</g>
</g>
<path d="m455.51 285.4-16.48-9.543v0.837l16.48 9.544v-0.838z" fill="#EDF0F8"/>
<path d="m159.53 443.58c-0.017-0.03 0.059 0.245 7e-3 0.425-0.021 0.231-0.232 0.263-0.441 0.401l-1.81 1.032c-1.827 1.047-3.667 2.072-5.518 3.076-2.03 1.083-4.042 2.194-5.587 2.964-0.85 0.443-1.706 0.875-2.568 1.295 0 0 0.95-0.649 2.405-1.579 1.439-0.952 3.407-2.141 5.359-3.356 1.795-1.102 3.603-2.183 5.423-3.244l1.797-1.05c0.225-0.114 0.356-0.28 0.569-0.183 0.18 0.045 0.382 0.247 0.364 0.219z" fill="#fff"/>
<path d="m441.15 222.64c-0.184 0.187-0.271 0.55-0.272 1.083l-7e-3 2.372v0.061c-1e-3 0.451-0.145 0.692-0.433 0.724-0.289 0.032-0.701-0.105-1.232-0.413l-5e-3 1.651c0.532 0.306 0.942 0.644 1.23 1.013 0.287 0.371 0.428 0.799 0.427 1.288l-7e-3 2.345c-1e-3 0.532 0.084 0.996 0.266 1.398 0.176 0.398 0.457 0.777 0.845 1.138 0.388 0.362 0.924 0.738 1.604 1.13l4e-3 -1.563c-0.44-0.271-0.736-0.535-0.893-0.797-0.159-0.267-0.234-0.575-0.234-0.934l7e-3 -2.245v-0.087c3e-3 -0.897-0.489-1.71-1.485-2.456v-0.088c0.984 0.403 1.478 0.126 1.494-0.822l7e-3 -2.247c0-0.361 0.083-0.579 0.241-0.659 0.159-0.08 0.456 4e-3 0.892 0.24l4e-3 -1.564c-0.67-0.386-1.202-0.628-1.594-0.716-0.398-0.093-0.682-0.041-0.859 0.148z" fill="#EDF0F8"/>
<path d="m450.41 232.64c-0.274-0.346-0.421-0.776-0.417-1.217v-0.06l5e-3 -2.371c2e-3 -0.767-0.197-1.421-0.608-1.972-0.405-0.549-1.109-1.109-2.116-1.689l-2e-3 1.561c0.436 0.269 0.736 0.531 0.893 0.792 0.159 0.257 0.233 0.571 0.233 0.933l-6e-3 2.246c0.016 0.969 0.517 1.82 1.498 2.552l-1e-3 0.086c-0.488-0.193-0.861-0.232-1.117-0.109-0.259 0.125-0.39 0.408-0.39 0.86v0.067l-6e-3 2.244c-2e-3 0.364-0.079 0.589-0.238 0.668-0.157 0.073-0.46-7e-3 -0.896-0.242l-4e-3 1.563c1 0.577 1.704 0.824 2.118 0.748 0.408-0.077 0.616-0.499 0.617-1.269l7e-3 -2.344c1e-3 -0.49 0.145-0.754 0.424-0.798 0.284-0.04 0.69 0.098 1.232 0.41l5e-3 -1.651c-0.541-0.313-0.948-0.647-1.231-1.008z" fill="#EDF0F8"/>
<path d="m456.37 231.2c-0.184 0.186-0.271 0.549-0.272 1.082l-7e-3 2.372v0.06c-1e-3 0.452-0.145 0.692-0.433 0.726-0.288 0.032-0.701-0.107-1.232-0.414l-4e-3 1.65c0.532 0.308 0.943 0.645 1.229 1.013 0.287 0.371 0.43 0.8 0.428 1.289l-6e-3 2.344c-3e-3 0.534 0.084 0.996 0.265 1.399 0.175 0.399 0.457 0.777 0.844 1.139 0.388 0.361 0.925 0.737 1.604 1.129l4e-3 -1.563c-0.44-0.27-0.736-0.534-0.893-0.798-0.159-0.267-0.234-0.575-0.232-0.932l5e-3 -2.246 1e-3 -0.088c3e-3 -0.897-0.49-1.709-1.486-2.456l1e-3 -0.086c0.983 0.401 1.477 0.125 1.493-0.824l7e-3 -2.246c1e-3 -0.362 0.084-0.578 0.241-0.658 0.159-0.08 0.456 4e-3 0.892 0.238l6e-3 -1.562c-0.671-0.387-1.204-0.628-1.596-0.718-0.398-0.092-0.68-0.041-0.859 0.15z" fill="#EDF0F8"/>
<path d="m465.64 241.2c-0.273-0.347-0.42-0.776-0.417-1.217v-0.06l5e-3 -2.372c3e-3 -0.766-0.196-1.42-0.608-1.972-0.405-0.548-1.109-1.108-2.114-1.688l-4e-3 1.561c0.436 0.269 0.736 0.531 0.893 0.792 0.159 0.257 0.235 0.571 0.233 0.933l-6e-3 2.246c0.016 0.969 0.517 1.818 1.498 2.55v0.088c-0.489-0.193-0.862-0.232-1.117-0.11-0.26 0.126-0.391 0.409-0.391 0.861v0.065l-6e-3 2.244c0 0.364-0.079 0.59-0.236 0.668-0.159 0.075-0.462-5e-3 -0.898-0.24l-4e-3 1.563c1 0.576 1.704 0.824 2.118 0.748 0.409-0.079 0.616-0.5 0.618-1.269l7e-3 -2.344c1e-3 -0.49 0.145-0.754 0.424-0.798 0.283-0.04 0.691 0.096 1.231 0.408l5e-3 -1.649c-0.541-0.313-0.948-0.647-1.231-1.008z" fill="#EDF0F8"/>
<path d="m444.92 313.97c1.842 1.064 3.344 0.209 3.349-1.911 7e-3 -2.117-1.485-4.698-3.327-5.762-1.845-1.066-3.345-0.21-3.35 1.908-7e-3 2.12 1.484 4.7 3.328 5.765zm8.029 2.259-1.475-0.851c-0.176 0.928-0.529 1.68-1.026 2.234l1.041 1.801-1.808 1.029-1.039-1.8c-0.732 0.146-1.564 0.067-2.46-0.25l-5e-3 1.697-2.547-1.472 4e-3 -1.695c-0.926-0.753-1.75-1.623-2.452-2.588l-1.046 0.597-1.796-3.109 1.048-0.597c-0.483-1.088-0.823-2.233-1.01-3.408l-1.476-0.854 8e-3 -2.926 1.476 0.852c0.178-0.928 0.53-1.682 1.026-2.235l-1.04-1.801 1.806-1.03 1.04 1.802c0.731-0.146 1.563-0.068 2.459 0.249l5e-3 -1.697 2.547 1.472-4e-3 1.694c0.926 0.753 1.75 1.623 2.452 2.588l1.048-0.597 1.795 3.109-1.047 0.598c0.491 1.122 0.84 2.281 1.009 3.408l1.475 0.853-8e-3 2.927z" fill="#EDF0F8"/>
<path d="m457.04 328.57c1.507 0.868 2.733 0.171 2.737-1.562 6e-3 -1.73-1.212-3.84-2.718-4.708-1.508-0.871-2.734-0.172-2.739 1.558-5e-3 1.732 1.213 3.842 2.72 4.712zm6.563 1.846-1.206-0.696c-0.144 0.76-0.434 1.374-0.838 1.825l0.849 1.473-1.476 0.842-0.851-1.472c-0.596 0.118-1.277 0.054-2.009-0.204l-4e-3 1.386-2.081-1.202 4e-3 -1.386c-0.732-0.586-1.411-1.306-2.006-2.113l-0.856 0.487-1.465-2.54 0.855-0.49c-0.394-0.889-0.671-1.825-0.826-2.785l-1.205-0.697 7e-3 -2.392 1.205 0.697c0.145-0.759 0.433-1.376 0.839-1.828l-0.851-1.471 1.477-0.842 0.85 1.473c0.598-0.12 1.277-0.055 2.009 0.203l5e-3 -1.386 2.082 1.202-4e-3 1.385c0.756 0.616 1.43 1.327 2.005 2.115l0.855-0.487 1.468 2.54-0.856 0.489c0.395 0.888 0.672 1.824 0.824 2.784l1.206 0.698-6e-3 2.392z" fill="#EDF0F8"/>
<path d="m455.69 248.74-16.481-9.543v0.838l16.481 9.543v-0.838z" fill="#EDF0F8"/>
<path d="m464.49 255.46-25.283-14.624v0.839l25.283 14.624v-0.839z" fill="#EDF0F8"/>
<path d="m464.49 253.81-7.7-4.46v0.839l7.7 4.46v-0.839z" fill="#50E85E"/>
<path d="m455.69 251.95-16.481-9.543v0.838l16.481 9.544v-0.839z" fill="#EDF0F8"/>
<path d="m464.49 258.67-25.283-14.624v0.838l25.283 14.623v-0.837z" fill="#EDF0F8"/>
<path d="m464.49 257.03-7.7-4.459v0.839l7.7 4.458v-0.838z" fill="#50E85E"/>
<path d="m455.69 256.59-16.481-9.542v0.838l16.481 9.543v-0.839z" fill="#EDF0F8"/>
<path d="m464.32 266.92-7.7-4.46v0.838l7.7 4.459v-0.837z" fill="#EDF0F8"/>
<path d="m455.51 265.06-16.48-9.545v0.839l16.48 9.543v-0.837z" fill="#EDF0F8"/>
<path d="m464.32 270.13-7.7-4.46v0.839l7.7 4.46v-0.839z" fill="#EDF0F8"/>
<path d="m455.51 269.7-16.48-9.544v0.838l16.48 9.543v-0.837z" fill="#EDF0F8"/>
<path d="m464.32 274.77-7.7-4.459v0.837l7.7 4.46v-0.838z" fill="#EDF0F8"/>
<path d="m455.51 272.9-16.48-9.543v0.839l16.48 9.542v-0.838z" fill="#50E85E"/>
<path d="m464.32 277.98-7.7-4.46v0.839l7.7 4.46v-0.839z" fill="#EDF0F8"/>
<path d="m455.51 277.55-16.48-9.543v0.839l16.48 9.543v-0.839z" fill="#EDF0F8"/>
<path d="m464.32 282.63-7.7-4.46v0.838l7.7 4.46v-0.838z" fill="#50E85E"/>
<path d="m455.51 280.76-16.48-9.544v0.839l16.48 9.543v-0.838z" fill="#EDF0F8"/>
<path d="m464.32 285.84-7.7-4.459v0.838l7.7 4.46v-0.839z" fill="#50E85E"/>
<path d="m464.32 290.48-7.7-4.458v0.838l7.7 4.459v-0.839z" fill="#50E85E"/>
<path d="m455.51 288.61-16.48-9.544v0.839l16.48 9.543v-0.838z" fill="#EDF0F8"/>
<path d="m464.32 293.69-7.7-4.46v0.839l7.7 4.46v-0.839z" fill="#EDF0F8"/>
<g opacity=".15">
<g opacity=".15">
<path d="m134.47 318.19 59.093-33.945c0.55-0.318 1.442-0.317 1.992 2e-3l5.023 2.849c0.551 0.318 0.55 0.834-1e-3 1.152l-59.102 33.927c-0.55 0.317-1.443 0.317-1.992 0l-5.013-2.834c-0.551-0.317-0.551-0.832 0-1.151z" fill="#000" opacity=".15"/>
</g>
</g>
<path d="m185.7 354.97-28.188 16.327" stroke="#196F85" stroke-width="1.0016"/>
<path d="m207.97 367.86-28.192 16.328" stroke="#196F85" stroke-width="1.0016"/>
<path d="m231.82 381.82-28.187 16.328" stroke="#196F85" stroke-width="1.0016"/>
<path d="m254.17 394.7-28.188 16.328" stroke="#196F85" stroke-width="1.0016"/>
<path d="m277.95 408.5-28.192 16.328" stroke="#196F85" stroke-width="1.0016"/>
<path d="m302.2 422.53-28.188 16.328" stroke="#196F85" stroke-width="1.0016"/>
<path d="m328.3 437.64-28.192 16.328" stroke="#196F85" stroke-width="1.0016"/>
<path d="m370.38 437.16 28.188 16.328" stroke="#196F85" stroke-width="1.0016"/>
<path d="m395.2 423.05 28.192 16.327" stroke="#196F85" stroke-width="1.0016"/>
<path d="m418.41 409.48 28.188 16.327" stroke="#196F85" stroke-width="1.0016"/>
<path d="m464.02 382.88 16.963 9.823" stroke="#196F85" stroke-width="1.0016"/>
<path d="m483.59 371.27 28.188 16.327" stroke="#196F85" stroke-width="1.0016"/>
<path d="m236.39 253.36 28.188 16.327" stroke="#1D809A" stroke-width="1.0016"/>
<path d="m214.36 266.24 28.188 16.328" stroke="#1D809A" stroke-width="1.0016"/>
<path d="m380.24 439.62 68.25 39.53" stroke="#2193B0" stroke-width="1.0016"/>
<path d="m450.81 478.35c4e-3 0.643-0.44 1.26-1.232 1.715-0.792 0.456-1.869 0.713-2.993 0.716-0.558 1e-3 -1.111-0.061-1.626-0.182-0.516-0.121-0.985-0.299-1.38-0.524-0.396-0.224-0.71-0.491-0.924-0.785s-0.325-0.61-0.326-0.928c-2e-3 -0.642 0.443-1.259 1.236-1.714 0.793-0.454 1.869-0.711 2.993-0.713 1.125-1e-3 2.204 0.252 3.001 0.705 0.798 0.453 1.248 1.068 1.251 1.71z" fill="#2193B0" opacity=".928"/>
<path d="m223.58 225.09 15.942 9.241" stroke="#1D809A" stroke-width="1.0016"/>
<path d="m223.73 192.98-0.091 32.58" stroke="#2193B0" stroke-width="1.0016"/>
<path d="m159.7 153.23c2e-3 0.318-0.106 0.633-0.318 0.928-0.211 0.294-0.522 0.562-0.915 0.788-0.393 0.225-0.86 0.404-1.374 0.527s-1.065 0.186-1.622 0.187c-1.124 2e-3 -2.204-0.252-3.001-0.705-0.798-0.452-1.247-1.068-1.251-1.71-3e-3 -0.642 0.44-1.259 1.232-1.715s1.869-0.713 2.994-0.715c0.557-1e-3 1.109 0.06 1.624 0.181s0.984 0.298 1.379 0.523c0.395 0.224 0.709 0.49 0.924 0.784s0.327 0.609 0.328 0.927" fill="#2193B0"/>
<path d="m155.72 153.95 68.251 39.533z" fill="#2193B0"/>
<path d="m155.72 153.95 68.251 39.533" stroke="#2193B0" stroke-width="1.0016"/>
<path d="m178.5 363.57-68.247 39.53" stroke="#2193B0" stroke-width="1.0016"/>
<path d="m110.54 403.01-32.579 0.045" stroke="#2193B0" stroke-width="1.0016"/>
<path d="m14.045 362.89c0.0018 0.319-0.1063 0.634-0.3179 0.928-0.2116 0.295-0.5227 0.562-0.9154 0.788-0.3928 0.226-0.8595 0.405-1.3736 0.528-0.514 0.122-1.0653 0.186-1.6224 0.187-0.55728 0-1.1094-0.061-1.6248-0.183-0.51538-0.121-0.9839-0.299-1.3788-0.523-0.39489-0.225-0.70841-0.492-0.92262-0.786s-0.32491-0.609-0.32578-0.927c-0.00351-0.643 0.43964-1.26 1.232-1.715 0.79238-0.456 1.8691-0.713 2.9935-0.716 0.55762-1e-3 1.1101 0.061 1.6259 0.182s0.9848 0.299 1.3801 0.524c0.3953 0.224 0.7091 0.491 0.9236 0.785 0.2144 0.294 0.3253 0.61 0.3261 0.928" fill="#2193B0" opacity=".928"/>
<path d="m10.065 363.62 68.251 39.526z" fill="#2193B0"/>
<path d="m10.065 363.62 68.251 39.526" stroke="#2193B0" stroke-width="1.0016"/>
<path d="m179.63 384.45-109.38 63.344" stroke="#2193B0" stroke-width="1.0016"/>
<path d="m70.25 447.8-32.58 0.05" stroke="#2193B0" stroke-width="1.0016"/>
<path d="m6.4255 429.91 31.381 18.176" stroke="#2193B0" stroke-width="1.0016"/>
<path d="m8.4816 428.84c0.00351 0.642-0.43964 1.259-1.232 1.714-0.79239 0.456-1.8691 0.714-2.9935 0.716-0.55761 1e-3 -1.1101-0.061-1.6259-0.182s-0.98479-0.299-1.3801-0.523c-0.3953-0.225-0.70915-0.492-0.92359-0.786-0.21445-0.294-0.32527-0.61-0.32614-0.928-0.0035153-0.642 0.43964-1.259 1.232-1.715 0.79238-0.456 1.8691-0.713 2.9935-0.715 0.5576-1e-3 1.1101 0.06 1.6259 0.181s0.98479 0.299 1.3801 0.524c0.39529 0.225 0.70914 0.492 0.92359 0.786 0.21444 0.294 0.32527 0.609 0.32614 0.928" fill="#2193B0" opacity=".928"/>
<path d="m60.148 420.74c0.0017 0.642-0.4422 1.258-1.2344 1.713-0.7922 0.454-1.8679 0.711-2.9911 0.714-0.5571 1e-3 -1.1091-0.061-1.6244-0.182-0.5154-0.12-0.9841-0.298-1.3793-0.522-0.3952-0.225-0.7092-0.491-0.924-0.785-0.2149-0.293-0.3263-0.608-0.3281-0.927-0.0017-0.318 0.1063-0.633 0.3179-0.928 0.2117-0.294 0.5227-0.562 0.9155-0.787 0.3927-0.226 0.8595-0.405 1.3735-0.528 0.5141-0.122 1.0654-0.186 1.6224-0.187 1.1244-2e-3 2.2039 0.252 3.0013 0.705 0.7973 0.453 1.2472 1.068 1.2507 1.71" fill="#2193B0" opacity=".928"/>
<path d="m56.168 421.46 68.254 39.53z" fill="#2193B0"/>
<path d="m56.168 421.46 68.254 39.53" stroke="#2193B0" stroke-width="1.0016"/>
<path d="m228.52 460.9-104.1 0.143" stroke="#2193B0" stroke-width="1.0016"/>
<path d="m284.52 428.39-56.202 32.546" stroke="#2193B0" stroke-width="1.0016"/>
<path d="m250.02 424.4-0.151 45.997" stroke="#2193B0" stroke-width="1.0016"/>
<path d="m250.11 469.99-68.251 39.53" stroke="#2193B0" stroke-width="1.0016"/>
<path d="m184.82 510.97c2e-3 0.319-0.106 0.634-0.317 0.928-0.212 0.295-0.523 0.562-0.916 0.788s-0.859 0.405-1.373 0.527c-0.514 0.123-1.066 0.187-1.623 0.187-0.557 1e-3 -1.109-0.061-1.625-0.182-0.515-0.121-0.983-0.299-1.378-0.523-0.395-0.225-0.709-0.492-0.923-0.786s-0.325-0.609-0.326-0.927c-2e-3 -0.642 0.442-1.258 1.235-1.713 0.792-0.455 1.868-0.712 2.991-0.714 0.557-1e-3 1.109 0.061 1.624 0.181 0.516 0.121 0.984 0.299 1.379 0.523 0.396 0.224 0.71 0.491 0.924 0.784 0.215 0.294 0.327 0.609 0.328 0.927" fill="#2193B0" opacity=".928"/>
<path d="m300.22 477.35 68.25 39.53" stroke="#2193B0" stroke-width="1.0016"/>
<path d="m367.78 516.88-0.041 13.229" stroke="#2193B0" stroke-width="1.0016"/>
<path d="m367.91 529.82-22.341 12.937" stroke="#2193B0" stroke-width="1.0016"/>
<path d="m348.28 543.96c2e-3 0.318-0.107 0.634-0.318 0.928-0.212 0.295-0.524 0.563-0.917 0.788-0.393 0.226-0.86 0.405-1.375 0.528-0.514 0.122-1.066 0.185-1.623 0.186s-1.11-0.061-1.625-0.182-0.984-0.299-1.379-0.524-0.708-0.492-0.922-0.785c-0.215-0.294-0.325-0.61-0.326-0.928-4e-3 -0.642 0.439-1.259 1.232-1.715 0.792-0.456 1.869-0.713 2.993-0.715 0.558-1e-3 1.11 0.06 1.626 0.181s0.985 0.299 1.38 0.524c0.396 0.225 0.71 0.492 0.924 0.786s0.325 0.609 0.326 0.928" fill="#2193B0" opacity=".928"/>
<path d="m549.86 311.02-56.788 32.889" stroke="#2193B0" stroke-width="1.0016"/>
<path d="m615.62 387.33-104.1 0.143" stroke="#2193B0" stroke-width="1.0016"/>
<path d="m683.88 347.8-68.254 39.534" stroke="#2193B0" stroke-width="1.0016"/>
<path d="m686.64 348.69c3e-3 0.642-0.44 1.259-1.232 1.715-0.793 0.456-1.869 0.713-2.994 0.715-0.557 1e-3 -1.109-0.06-1.624-0.181-0.516-0.121-0.984-0.298-1.379-0.523-0.396-0.224-0.71-0.491-0.924-0.784-0.215-0.294-0.327-0.609-0.328-0.927-4e-3 -0.642 0.439-1.259 1.232-1.715 0.792-0.456 1.869-0.713 2.993-0.715 0.557-1e-3 1.109 0.06 1.624 0.181 0.516 0.121 0.985 0.298 1.38 0.523 0.395 0.224 0.709 0.49 0.924 0.784s0.326 0.609 0.328 0.927" fill="#2193B0" opacity=".928"/>
<path d="m492.3 433.66-0.125 39.572" stroke="#2193B0" stroke-width="1.0016"/>
<path d="m491.93 472.81 15.061 8.724" stroke="#2193B0" stroke-width="1.0016"/>
<path d="m506.72 481.06-0.148 45.997" stroke="#2193B0" stroke-width="1.0016"/>
<path d="m510.86 528.13c2e-3 0.318-0.106 0.633-0.318 0.928-0.211 0.294-0.522 0.562-0.915 0.787-0.393 0.226-0.86 0.405-1.374 0.528-0.514 0.122-1.065 0.186-1.622 0.187s-1.109-0.061-1.625-0.182c-0.515-0.122-0.984-0.299-1.379-0.524-0.394-0.225-0.708-0.492-0.922-0.786s-0.325-0.609-0.326-0.927c-2e-3 -0.642 0.442-1.258 1.234-1.713 0.793-0.454 1.868-0.711 2.992-0.714 0.557-1e-3 1.109 0.061 1.624 0.182 0.515 0.12 0.984 0.298 1.379 0.522 0.395 0.225 0.709 0.491 0.924 0.785 0.215 0.293 0.327 0.608 0.328 0.927" fill="#2193B0" opacity=".928"/>
<path d="m707.42 219.48-126.28 73.141" stroke="#2193B0" stroke-width="1.0016"/>
<path d="m616.7 226.19-0.147 45.997" stroke="#2193B0" stroke-width="1.0016"/>
<path d="m684.7 187.1-68.251 39.53" stroke="#2193B0" stroke-width="1.0016"/>
<path d="m687.46 187.98c3e-3 0.643-0.44 1.26-1.232 1.715-0.793 0.456-1.869 0.713-2.994 0.716-0.557 1e-3 -1.11-0.061-1.626-0.182s-0.985-0.299-1.38-0.524c-0.395-0.224-0.709-0.491-0.923-0.785-0.215-0.294-0.326-0.61-0.327-0.928-3e-3 -0.643 0.44-1.259 1.232-1.715 0.793-0.456 1.87-0.713 2.994-0.716 0.558-1e-3 1.11 0.061 1.626 0.182s0.985 0.299 1.38 0.524c0.395 0.224 0.709 0.491 0.924 0.785 0.214 0.294 0.325 0.61 0.326 0.928" fill="#2193B0" opacity=".928"/>
<path d="m420.2 49.504-0.151-46.001" stroke="#2193B0" stroke-width="1.0016"/>
<path d="m424.34 2.4302c1e-3 -0.31842-0.107-0.63392-0.319-0.92844-0.212-0.29453-0.523-0.5623-0.916-0.78801s-0.861-0.40493-1.375-0.52741c-0.514-0.12248-1.066-0.18581-1.624-0.18638-0.557-8.5166e-4 -1.109 0.061059-1.624 0.18219-0.516 0.12113-0.984 0.29911-1.379 0.52376s-0.709 0.49157-0.923 0.78549-0.325 0.60907-0.326 0.92745c-1e-3 0.31824 0.107 0.63356 0.318 0.92795 0.212 0.29438 0.523 0.56206 0.916 0.78774 0.393 0.22569 0.859 0.40495 1.373 0.52755 0.514 0.12261 1.066 0.18615 1.623 0.187 0.557 0.00113 1.11-0.06057 1.626-0.18157 0.516-0.12101 0.985-0.29894 1.38-0.52362s0.709-0.49169 0.923-0.78575c0.215-0.29406 0.326-0.6094 0.327-0.92796" fill="#2193B0" opacity=".928"/>
<path d="m538.85 91.219-45.241 0.0643" stroke="#2193B0" stroke-width="1.0016"/>
<path d="m607.1 51.689-68.25 39.534" stroke="#2193B0" stroke-width="1.0016"/>
<path d="m609.86 52.573c3e-3 0.3186-0.104 0.6343-0.316 0.9291-0.211 0.2949-0.522 0.563-0.915 0.7891-0.392 0.226-0.859 0.4057-1.374 0.5285-0.514 0.1228-1.066 0.1865-1.624 0.1873-0.557 0.0012-1.11-0.0605-1.626-0.1815s-0.985-0.299-1.38-0.5236c-0.395-0.2247-0.709-0.4917-0.923-0.7858-0.215-0.2941-0.326-0.6094-0.327-0.928-1e-3 -0.3182 0.107-0.6335 0.318-0.9279 0.212-0.2944 0.523-0.5621 0.916-0.7877 0.393-0.2257 0.859-0.405 1.373-0.5276s1.066-0.1861 1.623-0.187c0.557-0.0011 1.11 0.0606 1.626 0.1816 0.515 0.121 0.984 0.2989 1.38 0.5236 0.395 0.2247 0.709 0.4917 0.923 0.7858 0.215 0.294 0.326 0.6094 0.326 0.9279" fill="#2193B0" opacity=".928"/>
<path d="m593.85 78.372-33.101 0.0453" stroke="#2193B0" stroke-width="1.0016"/>
<path d="m593.54 78.293 31.646 18.331" stroke="#2193B0" stroke-width="1.0016"/>
<path d="m657.99 96.48-33.101 0.0454" stroke="#2193B0" stroke-width="1.0016"/>
<path d="m664.53 96.816c4e-3 0.6423-0.439 1.2592-1.232 1.7149-0.792 0.4557-1.869 0.713-2.993 0.7153-0.558 0.0011-1.11-0.0606-1.626-0.1816s-0.985-0.2989-1.38-0.5236-0.709-0.4917-0.924-0.7857c-0.214-0.2941-0.325-0.6094-0.326-0.928-3e-3 -0.6423 0.44-1.2592 1.232-1.7149s1.869-0.713 2.994-0.7153c0.557-0.0012 1.11 0.0605 1.626 0.1815 0.515 0.1211 0.984 0.299 1.38 0.5237 0.395 0.2246 0.709 0.4917 0.923 0.7857 0.215 0.2941 0.325 0.6094 0.326 0.928" fill="#2193B0" opacity=".928"/>
<path d="m244.11 405.66-56.198 32.55" stroke="#6DD5ED" stroke-width=".75591"/>
<path d="m188.13 438.16-9.4 0.012" stroke="#6DD5ED" stroke-width=".75591"/>
<path d="m178.84 438.3-82.786 47.951" stroke="#6DD5ED" stroke-width=".75591"/>
<path d="m203.13 394.95-9.396 0.011" stroke="#6DD5ED" stroke-width=".75591"/>
<path d="m194.16 394.86-56.202 32.546" stroke="#6DD5ED" stroke-width=".75591"/>
<path d="m166.04 411.07-0.151 46" stroke="#6DD5ED" stroke-width=".75591"/>
<path d="m166.18 456.41-29.945 17.348" stroke="#6DD5ED" stroke-width=".75591"/>
<path d="m157.86 367.3-32.576 0.045" stroke="#6DD5ED" stroke-width=".75591"/>
<path d="m57.355 327.88 68.25 39.526z" fill="#2193B0"/>
<path d="m57.355 327.88 68.25 39.526" stroke="#6DD5ED" stroke-width=".75591"/>
<path d="m106.94 310.56-0.151 45.997" stroke="#6DD5ED" stroke-width=".75591"/>
<path d="m58.7 282.86 48.416 28.04z" fill="#2193B0"/>
<path d="m58.7 282.86 48.416 28.04" stroke="#6DD5ED" stroke-width=".75591"/>
<path d="m96.87 350.74-32.576 0.046" stroke="#6DD5ED" stroke-width=".75591"/>
<path d="m33.287 332.75 31.223 18.085z" fill="#2193B0"/>
<path d="m33.287 332.75 31.223 18.085" stroke="#6DD5ED" stroke-width=".75591"/>
<path d="m396.38 454.68-0.05 14.752" stroke="#6DD5ED" stroke-width=".75591"/>
<path d="m396.21 469.09 31.226 18.085z" fill="#2193B0"/>
<path d="m396.21 469.09 31.226 18.085" stroke="#6DD5ED" stroke-width=".75591"/>
<path d="m415.39 480.21-0.049 14.751" stroke="#6DD5ED" stroke-width=".75591"/>
<path d="m415.14 494.61 31.222 18.085z" fill="#2193B0"/>
<path d="m415.14 494.61 31.222 18.085" stroke="#6DD5ED" stroke-width=".75591"/>
<path d="m340.29 479.96-9.395 0.012" stroke="#6DD5ED" stroke-width=".75591"/>
<path d="m369.92 462.75-29.949 17.341" stroke="#6DD5ED" stroke-width=".75591"/>
<path d="m363.33 471.88-9.396 0.011" stroke="#6DD5ED" stroke-width=".75591"/>
<path d="m362.97 471.82 31.227 18.085z" fill="#2193B0"/>
<path d="m362.97 471.82 31.227 18.085" stroke="#6DD5ED" stroke-width=".75591"/>
<path d="m373.75 501.23-32.575 0.045" stroke="#2193B0" stroke-width="1.0016"/>
<path d="m373.35 462.15c2e-3 0.451-0.31 0.883-0.866 1.203-0.556 0.319-1.312 0.5-2.101 0.502-0.391 0-0.779-0.043-1.141-0.128-0.361-0.085-0.69-0.21-0.967-0.368-0.278-0.157-0.498-0.344-0.648-0.551-0.151-0.206-0.229-0.427-0.23-0.65-2e-3 -0.451 0.31-0.884 0.866-1.203 0.556-0.32 1.312-0.5 2.101-0.502 0.789-1e-3 1.546 0.177 2.106 0.494 0.56 0.318 0.876 0.749 0.88 1.199" fill="#6DD5ED"/>
<path d="m450.49 513.58c2e-3 0.224-0.074 0.445-0.222 0.652-0.149 0.207-0.367 0.395-0.643 0.554s-0.604 0.285-0.965 0.371c-0.362 0.086-0.749 0.131-1.141 0.132-0.392 0-0.78-0.044-1.142-0.129s-0.691-0.21-0.969-0.368c-0.277-0.158-0.497-0.346-0.647-0.552-0.15-0.207-0.228-0.429-0.228-0.652-1e-3 -0.451 0.31-0.884 0.866-1.203 0.557-0.32 1.312-0.5 2.101-0.502 0.391 0 0.779 0.043 1.141 0.128s0.691 0.21 0.968 0.367c0.277 0.158 0.497 0.345 0.648 0.551 0.15 0.207 0.228 0.428 0.229 0.651" fill="#6DD5ED"/>
<path d="m142.02 427.3c2e-3 0.224-0.074 0.445-0.222 0.652s-0.366 0.395-0.642 0.553c-0.275 0.159-0.603 0.285-0.964 0.371-0.361 0.087-0.748 0.132-1.139 0.132-0.392 1e-3 -0.78-0.043-1.142-0.128s-0.692-0.21-0.969-0.368-0.497-0.346-0.647-0.553c-0.151-0.206-0.228-0.428-0.228-0.651-2e-3 -0.451 0.31-0.884 0.866-1.203 0.556-0.32 1.312-0.5 2.101-0.502 0.391 0 0.779 0.043 1.141 0.128 0.361 0.085 0.69 0.21 0.968 0.367 0.277 0.158 0.497 0.345 0.648 0.551 0.15 0.207 0.228 0.428 0.229 0.651" fill="#6DD5ED"/>
<path d="m63.36 283.62c0.0017 0.451-0.3102 0.884-0.8673 1.203-0.5571 0.32-1.3137 0.5-2.1034 0.501-0.3912 1e-3 -0.7788-0.043-1.1406-0.128-0.3617-0.084-0.6907-0.209-0.9679-0.367-0.2773-0.158-0.4975-0.345-0.648-0.551-0.1506-0.206-0.2285-0.427-0.2294-0.651-0.0017-0.223 0.0737-0.445 0.2219-0.651 0.1481-0.207 0.3662-0.395 0.6418-0.554 0.2755-0.159 0.6031-0.285 0.964-0.371s0.748-0.131 1.1393-0.132c0.3917-1e-3 0.7798 0.043 1.142 0.128s0.6915 0.211 0.9688 0.369c0.2774 0.158 0.4974 0.345 0.6476 0.552 0.1501 0.207 0.2274 0.428 0.2274 0.652" fill="#6DD5ED"/>
<path d="m36.084 332.35c0.0018 0.223-0.0736 0.445-0.2218 0.651-0.1482 0.207-0.3663 0.395-0.6418 0.554s-0.6031 0.285-0.964 0.371-0.748 0.131-1.1393 0.132c-0.3912 1e-3 -0.7788-0.043-1.1405-0.128-0.3618-0.085-0.6907-0.21-0.968-0.367-0.2773-0.158-0.4975-0.345-0.648-0.551s-0.2285-0.427-0.2293-0.651c-0.0018-0.223 0.0736-0.445 0.2218-0.652 0.1482-0.206 0.3663-0.394 0.6418-0.553s0.6031-0.285 0.964-0.371c0.3609-0.087 0.748-0.131 1.1393-0.132 0.3917-1e-3 0.7798 0.043 1.1421 0.128 0.3622 0.085 0.6914 0.21 0.9687 0.368 0.2774 0.158 0.4974 0.346 0.6476 0.553 0.1501 0.206 0.2274 0.428 0.2274 0.652" fill="#6DD5ED"/>
<path d="m446.37 426.46-0.045 14.752" stroke="#6DD5ED" stroke-width=".75591"/>
<path d="m446.21 440.87 31.227 18.085z" fill="#2193B0"/>
<path d="m446.21 440.87 31.227 18.085" stroke="#6DD5ED" stroke-width=".75591"/>
<path d="m540.55 458.71-63.435 0.075" stroke="#6DD5ED" stroke-width=".75591"/>
<path d="m544.69 458.78c2e-3 0.224-0.074 0.445-0.222 0.652-0.149 0.207-0.367 0.395-0.643 0.554s-0.604 0.285-0.965 0.371c-0.362 0.086-0.749 0.131-1.141 0.131-0.391 1e-3 -0.778-0.043-1.14-0.128s-0.691-0.209-0.968-0.367-0.498-0.345-0.648-0.551c-0.151-0.206-0.229-0.427-0.23-0.651-1e-3 -0.223 0.074-0.445 0.222-0.651 0.148-0.207 0.367-0.395 0.642-0.554 0.276-0.159 0.603-0.285 0.964-0.371s0.748-0.131 1.139-0.132c0.392-1e-3 0.78 0.043 1.143 0.128 0.362 0.085 0.691 0.211 0.968 0.369 0.278 0.158 0.498 0.345 0.648 0.552s0.227 0.428 0.227 0.652" fill="#6DD5ED"/>
<path d="m576.04 364.45-83.134 0.099" stroke="#6DD5ED" stroke-width=".75591"/>
<path d="m605.77 347.12-29.945 17.344" stroke="#6DD5ED" stroke-width=".75591"/>
<path d="m609.2 346.53c2e-3 0.224-0.074 0.445-0.222 0.652-0.149 0.207-0.367 0.395-0.643 0.554s-0.604 0.285-0.965 0.371c-0.362 0.086-0.749 0.131-1.141 0.131-0.391 1e-3 -0.779-0.043-1.14-0.127-0.362-0.085-0.691-0.21-0.968-0.368-0.278-0.157-0.498-0.345-0.648-0.551-0.151-0.206-0.229-0.427-0.23-0.651-1e-3 -0.223 0.074-0.445 0.222-0.651 0.148-0.207 0.367-0.395 0.642-0.554 0.276-0.159 0.603-0.285 0.964-0.371s0.748-0.131 1.139-0.132c0.392-1e-3 0.78 0.043 1.142 0.128 0.363 0.085 0.692 0.211 0.969 0.369 0.278 0.158 0.498 0.345 0.648 0.552s0.227 0.428 0.227 0.652" fill="#6DD5ED"/>
<path d="m533.62 364.43 71.192 35.565z" fill="#2193B0"/>
<path d="m533.62 364.43 71.192 35.565" stroke="#6DD5ED" stroke-width=".75591"/>
<path d="m551.31 347.07-29.948 17.348" stroke="#6DD5ED" stroke-width=".75591"/>
<path d="m551.14 332.64-0.045 14.756" stroke="#6DD5ED" stroke-width=".75591"/>
<path d="m488.54 290.34 36.537 18.251z" fill="#2193B0"/>
<path d="m488.54 290.34 36.537 18.251" stroke="#6DD5ED" stroke-width=".75591"/>
<path d="m507.11 312.88-18.13 0.023" stroke="#6DD5ED" stroke-width=".75591"/>
<path d="m529.7 299.78-22.817 13.213" stroke="#6DD5ED" stroke-width=".75591"/>
<path d="m479.43 357.93-1.095 6.833 1.938-1.112-0.843-5.721z" fill="#B1B4C4"/>
<path d="m298.54 117.13 1.894-1.097 2.732 1.561s-2.91 0.439-2.974 0.42c-0.068-0.015-1.652-0.884-1.652-0.884z" fill="#B1B4C4"/>
<path d="m344.18 442.77-174.17-100.57c-2.445-1.406-2.131-3.866 0.688-5.503l116.67-67.359c2.827-1.625 7.091-1.803 9.532-0.397l174.17 100.56c2.442 1.413 2.139 3.874-0.68 5.499l-116.68 67.404c-2.797 1.595-7.086 1.772-9.539 0.363z" fill="#D6D8E5" opacity=".4"/>
<path d="m347.98 440.49-174.17-100.57c-2.441-1.406-2.139-3.866 0.681-5.503l116.68-67.404c2.816-1.625 7.087-1.803 9.532-0.393l174.17 100.6c2.441 1.413 2.139 3.874-0.684 5.499l-116.67 67.404c-2.824 1.595-7.098 1.769-9.54 0.363z" fill="#B1B4C4"/>
<path d="m175.85 335.91-3.69 1.735v-3.277l3.69 1.542z" fill="#B1B4C4"/>
<path d="m473.8 367.4 1.811 2.663 0.919-0.388v-3.21l-2.73 0.935z" fill="#B1B4C4"/>
<path d="m347.98 437.72-174.17-100.56c-2.441-1.409-2.139-3.877 0.681-5.503l116.68-67.362c2.816-1.633 7.087-1.811 9.532-0.397l174.17 100.56c2.441 1.41 2.139 3.878-0.684 5.503l-116.67 67.363c-2.824 1.632-7.098 1.814-9.54 0.396z" fill="#E4E7F2"/>
<path d="m347.98 437.3-174.17-100.57c-2.441-1.405-2.139-3.866 0.681-5.503l116.68-67.358c2.816-1.625 7.087-1.803 9.532-0.397l174.17 100.56c2.441 1.414 2.139 3.874-0.684 5.499l-116.67 67.404c-2.824 1.595-7.098 1.773-9.54 0.363z" fill="#D6D8E5"/>
<path d="m287.94 286.59-8.111-4.686c-0.658-0.378-0.575-1.044 0.185-1.489l7.74-4.468c0.393-0.218 0.83-0.341 1.278-0.36s0.895 0.066 1.304 0.251l8.111 4.686c0.657 0.378 0.582 1.051-0.185 1.489l-7.741 4.468c-0.391 0.219-0.829 0.344-1.278 0.363-0.448 0.019-0.895-0.068-1.303-0.254z" fill="#2B303F"/>
<path d="m299.43 293.22-8.115-4.687c-0.658-0.378-0.582-1.051 0.189-1.489l7.74-4.464c0.391-0.22 0.828-0.344 1.276-0.364s0.894 0.066 1.302 0.251l8.103 4.686c0.669 0.378 0.582 1.047-0.185 1.493l-7.733 4.464c-0.391 0.218-0.828 0.342-1.275 0.361-0.448 0.02-0.893-0.065-1.302-0.248v-3e-3z" fill="#2B303F"/>
<path d="m311.04 299.92-8.148-4.675c-0.658-0.386-0.571-1.051 0.189-1.49l7.74-4.475c0.392-0.217 0.829-0.34 1.277-0.358s0.893 0.07 1.301 0.256l8.114 4.676c0.658 0.389 0.571 1.058-0.189 1.493l-7.74 4.475c-0.388 0.211-0.819 0.331-1.26 0.348-0.442 0.017-0.881-0.069-1.284-0.25z" fill="#2B303F"/>
<path d="m322.39 306.47-8.114-4.686c-0.658-0.378-0.575-1.043 0.185-1.489l7.74-4.468c0.392-0.218 0.83-0.341 1.278-0.36s0.895 0.067 1.304 0.251l8.111 4.686c0.657 0.378 0.574 1.051-0.186 1.489l-7.74 4.468c-0.391 0.219-0.828 0.343-1.276 0.362s-0.894-0.068-1.302-0.253z" fill="#2B303F"/>
<path d="m333.86 313.1-8.107-4.687c-0.665-0.378-0.582-1.051 0.189-1.489l7.733-4.464c0.392-0.22 0.83-0.344 1.279-0.364s0.896 0.066 1.306 0.251l8.107 4.686c0.665 0.378 0.578 1.047-0.189 1.493l-7.733 4.464c-0.393 0.218-0.83 0.342-1.279 0.361-0.449 0.02-0.896-0.065-1.306-0.248v-3e-3z" fill="#2B303F"/>
<path d="m345.35 319.72-8.115-4.675c-0.653-0.385-0.57-1.051 0.189-1.489l7.741-4.475c0.391-0.218 0.829-0.341 1.277-0.358 0.447-0.018 0.893 0.07 1.301 0.256l8.114 4.675c0.658 0.39 0.575 1.055-0.185 1.493l-7.744 4.475c-0.392 0.217-0.83 0.34-1.277 0.357-0.448 0.017-0.894-0.072-1.301-0.259z" fill="#2B303F"/>
<path d="m356.81 326.36-8.095-4.72c-0.666-0.378-0.582-1.043 0.185-1.489l7.733-4.468c0.393-0.218 0.832-0.341 1.281-0.36 0.45-0.019 0.897 0.067 1.308 0.251l8.103 4.686c0.665 0.378 0.582 1.051-0.185 1.489l-7.733 4.468c-0.391 0.227-0.83 0.359-1.281 0.384-0.452 0.025-0.902-0.057-1.316-0.241z" fill="#2B303F"/>
<path d="m368.31 332.99-8.126-4.687c-0.662-0.378-0.578-1.051 0.189-1.489l7.733-4.464c0.391-0.22 0.828-0.345 1.277-0.365 0.448-0.019 0.895 0.067 1.304 0.252l8.111 4.687c0.665 0.378 0.582 1.047-0.185 1.493l-7.741 4.463c-0.389 0.216-0.823 0.338-1.268 0.358-0.444 0.02-0.887-0.064-1.294-0.244v-4e-3z" fill="#2B303F"/>
<path d="m379.79 339.61-8.111-4.675c-0.658-0.385-0.574-1.051 0.185-1.489l7.741-4.467c0.39-0.222 0.827-0.347 1.275-0.366 0.449-0.019 0.895 0.069 1.302 0.256l8.115 4.687c0.658 0.378 0.575 1.043-0.185 1.481l-7.741 4.475c-0.392 0.218-0.83 0.341-1.279 0.358-0.448 0.017-0.894-0.072-1.302-0.26z" fill="#2B303F"/>
<path d="m391.27 346.24-8.107-4.687c-0.665-0.378-0.582-1.043 0.189-1.489l7.733-4.468c0.393-0.217 0.832-0.339 1.281-0.356s0.896 0.071 1.304 0.258l8.104 4.675c0.669 0.386 0.582 1.055-0.185 1.49l-7.733 4.467c-0.393 0.219-0.831 0.343-1.28 0.362s-0.896-0.067-1.306-0.252z" fill="#2B303F"/>
<path d="m402.75 352.87-8.115-4.687c-0.658-0.378-0.571-1.043 0.189-1.489l7.74-4.464c0.392-0.218 0.828-0.341 1.276-0.361 0.447-0.02 0.893 0.065 1.302 0.248l8.115 4.687c0.657 0.378 0.574 1.047-0.189 1.493l-7.741 4.463c-0.391 0.218-0.828 0.342-1.275 0.362-0.448 0.019-0.893-0.066-1.302-0.248v-4e-3z" fill="#2B303F"/>
<path d="m414.22 359.49-8.103-4.676c-0.665-0.385-0.582-1.05 0.185-1.489l7.733-4.467c0.393-0.22 0.832-0.345 1.282-0.364 0.449-0.019 0.897 0.068 1.307 0.254l8.103 4.687c0.666 0.378 0.582 1.043-0.185 1.481l-7.733 4.475c-0.393 0.218-0.833 0.341-1.283 0.358-0.449 0.017-0.897-0.072-1.306-0.259z" fill="#2B303F"/>
<path d="m425.71 366.12-8.107-4.683c-0.665-0.378-0.582-1.043 0.189-1.482l7.733-4.474c0.392-0.218 0.829-0.34 1.277-0.357s0.893 0.071 1.301 0.258l8.114 4.676c0.654 0.385 0.579 1.054-0.189 1.489l-7.74 4.467c-0.39 0.221-0.828 0.347-1.276 0.366s-0.894-0.069-1.302-0.256v-4e-3z" fill="#2B303F"/>
<path d="m442.75 375.95-13.64-7.877c-0.658-0.378-0.578-1.047 0.189-1.493l7.74-4.463c0.391-0.218 0.828-0.342 1.276-0.362 0.447-0.02 0.893 0.065 1.302 0.248l13.644 7.88c0.654 0.378 0.567 1.047-0.189 1.493l-7.74 4.464c-0.392 0.218-0.828 0.342-1.276 0.362-0.447 0.019-0.893-0.066-1.302-0.249l-4e-3 -3e-3z" fill="#2B303F"/>
<path d="m293.85 302.84-8.115-4.675c-0.665-0.389-0.578-1.055 0.189-1.493l7.733-4.475c0.394-0.217 0.832-0.339 1.281-0.357 0.449-0.017 0.896 0.072 1.305 0.259l8.107 4.675c0.665 0.389 0.582 1.055-0.189 1.493l-7.733 4.471c-0.392 0.218-0.829 0.341-1.277 0.359-0.448 0.017-0.893-0.07-1.301-0.257z" fill="#2B303F"/>
<path d="m305.34 309.48-8.108-4.694c-0.665-0.39-0.582-1.055 0.189-1.493l7.733-4.471c0.393-0.218 0.832-0.341 1.281-0.359s0.896 0.07 1.305 0.257l8.107 4.675c0.665 0.389 0.578 1.054-0.189 1.493l-7.714 4.49c-0.396 0.222-0.839 0.346-1.292 0.364s-0.904-0.072-1.316-0.262h4e-3z" fill="#2B303F"/>
<path d="m316.85 316.12-8.107-4.676c-0.665-0.385-0.582-1.054 0.189-1.492l7.733-4.464c0.391-0.221 0.83-0.347 1.279-0.366s0.897 0.069 1.306 0.256l8.107 4.687c0.665 0.378 0.578 1.043-0.189 1.481l-7.733 4.475c-0.393 0.218-0.832 0.34-1.281 0.357s-0.896-0.071-1.304-0.258z" fill="#2B303F"/>
<path d="m328.35 322.76-8.107-4.675c-0.665-0.389-0.582-1.054 0.189-1.493l7.733-4.463c0.392-0.22 0.83-0.345 1.279-0.365 0.449-0.019 0.896 0.066 1.306 0.251l8.103 4.687c0.669 0.378 0.582 1.047-0.185 1.481l-7.729 4.475c-0.393 0.218-0.832 0.341-1.281 0.359s-0.895-0.07-1.304-0.257h-4e-3z" fill="#2B303F"/>
<path d="m339.75 329.35-8.103-4.687c-0.669-0.378-0.582-1.043 0.185-1.481l7.733-4.471c0.393-0.218 0.832-0.341 1.281-0.359s0.896 0.07 1.304 0.257l8.108 4.675c0.665 0.389 0.582 1.054-0.189 1.493l-7.733 4.463c-0.392 0.222-0.83 0.348-1.279 0.368-0.45 0.02-0.897-0.067-1.307-0.254v-4e-3z" fill="#2B303F"/>
<path d="m351.26 335.96-8.108-4.675c-0.665-0.389-0.578-1.055 0.189-1.493l7.733-4.471c0.393-0.218 0.832-0.341 1.281-0.359 0.449-0.017 0.896 0.07 1.305 0.257l8.107 4.675c0.665 0.389 0.582 1.055-0.189 1.493l-7.733 4.471c-0.393 0.218-0.832 0.341-1.281 0.359-0.449 0.017-0.896-0.07-1.304-0.257z" fill="#2B303F"/>
<path d="m362.76 342.63-8.107-4.676c-0.666-0.385-0.579-1.05 0.189-1.489l7.732-4.475c0.393-0.218 0.832-0.341 1.281-0.358 0.449-0.018 0.896 0.07 1.305 0.256l8.107 4.675c0.665 0.39 0.578 1.059-0.189 1.493l-7.733 4.475c-0.393 0.218-0.832 0.34-1.281 0.357s-0.896-0.072-1.304-0.258z" fill="#2B303F"/>
<path d="m374.26 349.27-8.107-4.675c-0.665-0.389-0.582-1.055 0.189-1.493l7.733-4.471c0.391-0.218 0.829-0.341 1.276-0.359 0.448-0.017 0.894 0.07 1.301 0.257l8.115 4.675c0.665 0.389 0.578 1.055-0.189 1.493l-7.733 4.471c-0.393 0.218-0.831 0.341-1.28 0.359-0.449 0.017-0.896-0.07-1.305-0.257z" fill="#2B303F"/>
<path d="m385.76 355.91-8.107-4.675c-0.665-0.39-0.582-1.059 0.189-1.493l7.733-4.475c0.392-0.218 0.829-0.34 1.277-0.357s0.893 0.071 1.3 0.258l8.115 4.683c0.654 0.378 0.578 1.043-0.189 1.482l-7.74 4.475c-0.392 0.218-0.829 0.34-1.277 0.358s-0.894-0.07-1.301-0.256z" fill="#2B303F"/>
<path d="m397.26 362.54-8.115-4.676c-0.657-0.385-0.574-1.05 0.186-1.489l7.744-4.467c0.391-0.219 0.828-0.343 1.276-0.362 0.447-0.019 0.893 0.067 1.301 0.252l8.111 4.687c0.658 0.378 0.582 1.043-0.185 1.481l-7.74 4.475c-0.392 0.218-0.83 0.34-1.277 0.357-0.448 0.017-0.894-0.071-1.301-0.258z" fill="#2B303F"/>
<path d="m408.76 369.18-8.126-4.675c-0.661-0.389-0.574-1.055 0.182-1.493l7.744-4.464c0.391-0.219 0.828-0.344 1.275-0.364 0.448-0.019 0.894 0.066 1.303 0.251l8.114 4.687c0.658 0.378 0.571 1.047-0.189 1.485l-7.74 4.471c-0.39 0.216-0.824 0.337-1.269 0.355s-0.888-0.069-1.294-0.253z" fill="#2B303F"/>
<path d="m420.26 375.83-8.11-4.686c-0.658-0.386-0.575-1.051 0.185-1.489l7.74-4.468c0.392-0.219 0.829-0.344 1.278-0.363 0.448-0.019 0.895 0.068 1.304 0.254l8.11 4.686c0.658 0.378 0.575 1.043-0.185 1.493l-7.74 4.464c-0.392 0.218-0.83 0.341-1.278 0.36s-0.894-0.066-1.304-0.251z" fill="#2B303F"/>
<path d="m282.35 296.2-13.64-7.869c-0.666-0.386-0.582-1.051 0.189-1.49l7.733-4.467c0.391-0.221 0.83-0.346 1.279-0.366 0.449-0.019 0.897 0.069 1.306 0.256l13.633 7.869c0.665 0.39 0.582 1.055-0.189 1.493l-7.733 4.475c-0.392 0.218-0.83 0.34-1.277 0.357-0.448 0.017-0.894-0.072-1.301-0.258z" fill="#2B303F"/>
<path d="m442.17 376.4-8.107-4.675c-0.374-0.189-0.787-0.288-1.205-0.288-0.419 0-0.832 0.099-1.206 0.288l-8.179 4.679c-0.144 0.05-0.27 0.143-0.359 0.267-0.088 0.125-0.136 0.274-0.136 0.426 0 0.153 0.048 0.302 0.136 0.427 0.089 0.124 0.215 0.217 0.359 0.267l0.646 0.37c0.137 0.043 0.257 0.128 0.343 0.244 0.085 0.116 0.131 0.255 0.131 0.399s-0.046 0.283-0.131 0.399c-0.086 0.116-0.206 0.201-0.343 0.243l-8.643 4.986c-0.673 0.389-0.673 1.013 0 1.391l5.166 2.982c0.374 0.188 0.786 0.286 1.204 0.286s0.83-0.098 1.204-0.286l8.08-4.668 1.686-0.968 1.206-0.691 1.209-0.7 6.97-4.029c0.623-0.377 0.635-0.994-0.034-1.345l3e-3 -4e-3z" fill="#2B303F"/>
<path d="m243.48 312.31-8.114-4.687c-0.658-0.378-0.575-1.043 0.185-1.489l7.744-4.467c0.392-0.218 0.828-0.341 1.276-0.36 0.447-0.019 0.893 0.067 1.302 0.25l8.114 4.687c0.654 0.385 0.571 1.05-0.189 1.489l-7.74 4.467c-0.391 0.219-0.828 0.343-1.276 0.362s-0.894-0.067-1.302-0.252z" fill="#2B303F"/>
<path d="m254.93 318.93-8.104-4.687c-0.669-0.385-0.582-1.05 0.186-1.489l7.733-4.467c0.392-0.219 0.83-0.344 1.279-0.363s0.896 0.068 1.306 0.253l8.107 4.687c0.665 0.378 0.582 1.043-0.189 1.489l-7.733 4.467c-0.393 0.218-0.831 0.341-1.28 0.36-0.448 0.019-0.895-0.067-1.305-0.25z" fill="#2B303F"/>
<path d="m266.38 325.53-8.141-4.687c-0.666-0.378-0.582-1.043 0.189-1.489l7.733-4.464c0.391-0.218 0.827-0.341 1.275-0.361 0.447-0.02 0.893 0.065 1.302 0.248l8.111 4.687c0.669 0.378 0.582 1.054-0.185 1.493l-7.733 4.459c-0.388 0.215-0.82 0.336-1.262 0.356-0.443 0.02-0.884-0.063-1.289-0.242z" fill="#2B303F"/>
<path d="m363.87 381.82-8.115-4.679c-0.657-0.385-0.57-1.05 0.189-1.489l7.741-4.467c0.39-0.221 0.827-0.347 1.275-0.366s0.895 0.069 1.302 0.256l8.115 4.687c0.658 0.378 0.582 1.043-0.189 1.481l-7.74 4.475c-0.392 0.218-0.829 0.341-1.277 0.359s-0.894-0.07-1.301-0.257z" fill="#2B303F"/>
<path d="m375.35 388.43-8.115-4.687c-0.657-0.378-0.574-1.043 0.185-1.489l7.741-4.468c0.392-0.218 0.829-0.341 1.278-0.36 0.448-0.019 0.894 0.067 1.303 0.251l8.111 4.686c0.658 0.378 0.575 1.051-0.185 1.49l-7.74 4.467c-0.391 0.219-0.828 0.343-1.276 0.362s-0.894-0.067-1.302-0.252z" fill="#2B303F"/>
<path d="m386.76 395.04-8.107-4.679c-0.665-0.385-0.578-1.054 0.189-1.489l7.733-4.475c0.393-0.218 0.832-0.341 1.281-0.358 0.449-0.018 0.896 0.07 1.304 0.256l8.108 4.675c0.665 0.39 0.582 1.055-0.189 1.493l-7.733 4.483c-0.394 0.216-0.833 0.337-1.282 0.353-0.449 0.015-0.896-0.074-1.304-0.263v4e-3z" fill="#2B303F"/>
<path d="m398.21 401.68-8.107-4.687c-0.665-0.378-0.582-1.043 0.186-1.489l7.732-4.464c0.392-0.218 0.83-0.342 1.278-0.362s0.894 0.065 1.304 0.249l8.111 4.687c0.665 0.377 0.582 1.046-0.186 1.492l-7.732 4.464c-0.394 0.219-0.832 0.342-1.282 0.362-0.449 0.02-0.897-0.065-1.307-0.249l3e-3 -3e-3z" fill="#2B303F"/>
<path d="m280.77 333.84-11.063-6.376c-0.657-0.389-0.57-1.054 0.189-1.493l7.741-4.463c0.39-0.222 0.827-0.348 1.275-0.368s0.894 0.067 1.302 0.254l11.063 6.388c0.658 0.377 0.575 1.046-0.185 1.485l-7.744 4.475c-0.392 0.217-0.83 0.339-1.277 0.356-0.448 0.017-0.894-0.071-1.301-0.258z" fill="#2B303F"/>
<path d="m352.42 375.21-11.055-6.388c-0.666-0.378-0.582-1.043 0.185-1.489l7.733-4.467c0.393-0.218 0.832-0.341 1.281-0.36 0.45-0.019 0.897 0.066 1.308 0.25l11.051 6.388c0.669 0.378 0.582 1.054-0.185 1.489l-7.733 4.467c-0.392 0.219-0.831 0.344-1.28 0.363s-0.896-0.068-1.305-0.253z" fill="#2B303F"/>
<path d="m338.03 366.89-53.922-31.125c-0.658-0.377-0.582-1.046 0.185-1.492l7.744-4.464c0.391-0.218 0.828-0.342 1.276-0.362 0.447-0.019 0.893 0.066 1.302 0.249l53.922 31.135c0.666 0.378 0.582 1.043-0.189 1.482l-7.733 4.475c-0.392 0.219-0.831 0.342-1.28 0.36s-0.896-0.071-1.305-0.258z" fill="#2B303F"/>
<path d="m285.85 311.07-8.111-4.687c-0.657-0.378-0.582-1.043 0.185-1.489l7.741-4.467c0.391-0.218 0.828-0.341 1.276-0.36 0.447-0.019 0.893 0.067 1.302 0.25l8.107 4.687c0.665 0.378 0.582 1.054-0.186 1.489l-7.732 4.467c-0.392 0.22-0.83 0.345-1.278 0.364-0.449 0.019-0.895-0.068-1.304-0.254z" fill="#2B303F"/>
<path d="m297.31 317.7-8.111-4.687c-0.657-0.378-0.582-1.051 0.186-1.489l7.74-4.464c0.391-0.219 0.828-0.344 1.275-0.364 0.448-0.02 0.894 0.066 1.303 0.251l8.107 4.687c0.665 0.378 0.582 1.047-0.186 1.493l-7.732 4.463c-0.392 0.219-0.829 0.343-1.278 0.363-0.448 0.019-0.894-0.066-1.304-0.249v-4e-3z" fill="#2B303F"/>
<path d="m308.79 324.31-8.111-4.675c-0.658-0.39-0.582-1.055 0.185-1.493l7.741-4.464c0.391-0.22 0.828-0.345 1.277-0.365 0.448-0.02 0.895 0.067 1.304 0.252l8.111 4.686c0.658 0.378 0.574 1.047-0.185 1.493l-7.741 4.464c-0.391 0.218-0.829 0.341-1.276 0.358-0.448 0.018-0.894-0.07-1.301-0.256h-4e-3z" fill="#2B303F"/>
<path d="m320.25 330.91-8.088-4.649c-0.658-0.389-0.571-1.058 0.189-1.493l7.741-4.475c0.391-0.218 0.828-0.34 1.276-0.358s0.894 0.07 1.301 0.256l8.115 4.676c0.657 0.389 0.571 1.054-0.189 1.492l-7.741 4.475c-0.397 0.218-0.84 0.339-1.293 0.352-0.452 0.013-0.902-0.081-1.311-0.276z" fill="#2B303F"/>
<path d="m331.71 337.55-8.11-4.682c-0.658-0.378-0.575-1.044 0.185-1.482l7.74-4.475c0.392-0.218 0.829-0.341 1.277-0.358 0.448-0.018 0.893 0.07 1.301 0.256l8.115 4.675c0.657 0.39 0.574 1.059-0.186 1.493l-7.74 4.468c-0.392 0.219-0.829 0.344-1.278 0.363-0.448 0.019-0.895-0.068-1.304-0.254v-4e-3z" fill="#2B303F"/>
<path d="m343.18 344.18-8.11-4.687c-0.658-0.378-0.575-1.043 0.185-1.489l7.74-4.467c0.392-0.218 0.829-0.341 1.276-0.36 0.448-0.019 0.893 0.067 1.302 0.25l8.115 4.687c0.657 0.378 0.574 1.05-0.186 1.489l-7.744 4.467c-0.391 0.219-0.828 0.344-1.276 0.363-0.447 0.019-0.893-0.068-1.302-0.253z" fill="#2B303F"/>
<path d="m354.65 350.8-8.111-4.687c-0.658-0.378-0.575-1.051 0.185-1.489l7.74-4.467c0.391-0.22 0.828-0.344 1.276-0.363s0.894 0.068 1.302 0.253l8.115 4.687c0.657 0.377 0.574 1.043-0.185 1.489l-7.745 4.467c-0.391 0.218-0.828 0.341-1.276 0.36-0.447 0.019-0.893-0.067-1.301-0.25z" fill="#2B303F"/>
<path d="m366.08 357.42-8.114-4.686c-0.658-0.386-0.575-1.051 0.185-1.489l7.74-4.464c0.391-0.22 0.828-0.344 1.276-0.364s0.894 0.066 1.302 0.251l8.115 4.686c0.657 0.378 0.582 1.043-0.185 1.493l-7.741 4.464c-0.392 0.218-0.829 0.343-1.277 0.362-0.448 0.02-0.895-0.065-1.304-0.249l3e-3 -4e-3z" fill="#2B303F"/>
<path d="m377.58 364.04-8.126-4.676c-0.669-0.389-0.586-1.054 0.181-1.493l7.737-4.475c0.392-0.217 0.829-0.339 1.277-0.356s0.893 0.071 1.301 0.258l8.11 4.675c0.658 0.39 0.582 1.055-0.185 1.493l-7.74 4.472c-0.389 0.214-0.822 0.335-1.266 0.352-0.443 0.018-0.885-0.068-1.289-0.25z" fill="#2B303F"/>
<path d="m389.05 370.66-8.103-4.686c-0.666-0.378-0.582-1.043 0.185-1.482l7.733-4.471c0.391-0.218 0.829-0.341 1.276-0.359 0.448-0.017 0.894 0.071 1.301 0.257l8.115 4.675c0.665 0.389 0.582 1.055-0.185 1.493l-7.733 4.464c-0.392 0.222-0.831 0.348-1.281 0.368s-0.898-0.068-1.308-0.255v-4e-3z" fill="#2B303F"/>
<path d="m400.52 377.25-8.103-4.683c-0.666-0.378-0.582-1.043 0.185-1.493l7.733-4.463c0.393-0.219 0.832-0.343 1.281-0.362 0.449-0.02 0.897 0.065 1.308 0.248l8.103 4.687c0.665 0.378 0.582 1.054-0.185 1.493l-7.733 4.463c-0.393 0.221-0.831 0.346-1.281 0.366-0.45 0.019-0.898-0.067-1.308-0.252v-4e-3z" fill="#2B303F"/>
<path d="m411.98 383.91-8.103-4.687c-0.666-0.378-0.582-1.043 0.185-1.489l7.733-4.468c0.393-0.217 0.832-0.341 1.281-0.36 0.45-0.019 0.897 0.067 1.308 0.251l8.145 4.686c0.665 0.378 0.582 1.044-0.186 1.49l-7.732 4.467c-0.399 0.225-0.845 0.352-1.303 0.371-0.457 0.019-0.912-0.071-1.328-0.261z" fill="#2B303F"/>
<path d="m274.38 304.45-16.774-9.683c-0.665-0.385-0.582-1.051 0.186-1.489l7.733-4.467c0.392-0.22 0.831-0.345 1.281-0.364s0.898 0.068 1.308 0.254l16.765 9.683c0.666 0.386 0.583 1.051-0.185 1.489l-7.736 4.468c-0.391 0.219-0.828 0.343-1.276 0.362s-0.894-0.068-1.302-0.253z" fill="#2B303F"/>
<path d="m269.02 314.21-8.107-4.675c-0.665-0.389-0.582-1.055 0.186-1.493l7.732-4.471c0.394-0.219 0.833-0.342 1.283-0.36 0.449-0.017 0.897 0.071 1.306 0.258l8.104 4.675c0.669 0.389 0.582 1.055-0.185 1.493l-7.733 4.475c-0.394 0.217-0.832 0.34-1.281 0.357s-0.896-0.072-1.305-0.259z" fill="#2B303F"/>
<path d="m280.49 320.8-8.107-4.687c-0.665-0.378-0.582-1.043 0.186-1.493l7.732-4.463c0.392-0.218 0.83-0.342 1.278-0.361s0.895 0.067 1.304 0.251l8.111 4.687c0.657 0.378 0.582 1.05-0.185 1.489l-7.741 4.467c-0.391 0.219-0.828 0.343-1.276 0.362-0.447 0.019-0.893-0.067-1.302-0.252z" fill="#2B303F"/>
<path d="m291.94 327.46-8.115-4.687c-0.658-0.378-0.571-1.051 0.189-1.489l7.74-4.468c0.391-0.219 0.828-0.343 1.276-0.362s0.894 0.068 1.302 0.253l8.115 4.686c0.657 0.378 0.574 1.044-0.189 1.49l-7.741 4.467c-0.391 0.217-0.828 0.34-1.276 0.36-0.447 0.019-0.893-0.067-1.301-0.25z" fill="#2B303F"/>
<path d="m303.42 334.07-8.111-4.679c-0.658-0.386-0.575-1.051 0.185-1.489l7.741-4.475c0.392-0.219 0.83-0.342 1.278-0.36 0.449-0.018 0.895 0.071 1.303 0.257l8.111 4.68c0.658 0.385 0.574 1.05-0.185 1.489l-7.741 4.475c-0.391 0.218-0.829 0.34-1.276 0.358-0.448 0.018-0.894-0.07-1.301-0.256h-4e-3z" fill="#2B303F"/>
<path d="m314.89 340.69-8.115-4.683c-0.658-0.378-0.582-1.043 0.185-1.489l7.726-4.449c0.391-0.218 0.828-0.342 1.275-0.361 0.448-0.02 0.893 0.065 1.302 0.248l8.107 4.686c0.666 0.378 0.579 1.055-0.189 1.493l-7.732 4.464c-0.39 0.214-0.824 0.333-1.269 0.35-0.444 0.016-0.886-0.071-1.29-0.256v-3e-3z" fill="#2B303F"/>
<path d="m326.35 347.31-8.103-4.686c-0.665-0.378-0.582-1.051 0.185-1.49l7.733-4.467c0.393-0.22 0.832-0.344 1.282-0.363 0.449-0.019 0.897 0.068 1.307 0.253l8.104 4.687c0.665 0.378 0.582 1.043-0.186 1.489l-7.733 4.468c-0.393 0.217-0.832 0.341-1.281 0.36s-0.897-0.067-1.308-0.251z" fill="#2B303F"/>
<path d="m337.82 353.93-8.104-4.675c-0.665-0.389-0.582-1.054 0.185-1.493l7.733-4.475c0.394-0.218 0.833-0.34 1.283-0.357 0.45-0.018 0.897 0.071 1.306 0.259l8.104 4.675c0.665 0.386 0.582 1.055-0.186 1.489l-7.732 4.475c-0.394 0.219-0.833 0.342-1.283 0.36s-0.897-0.071-1.306-0.258z" fill="#2B303F"/>
<path d="m349.28 360.55-8.104-4.687c-0.665-0.378-0.582-1.043 0.186-1.489l7.733-4.463c0.391-0.218 0.827-0.342 1.275-0.362 0.447-0.019 0.893 0.065 1.302 0.248l8.115 4.687c0.657 0.389 0.582 1.054-0.185 1.493l-7.745 4.463c-0.39 0.22-0.827 0.345-1.275 0.365-0.448 0.019-0.894-0.067-1.302-0.251v-4e-3z" fill="#2B303F"/>
<path d="m360.75 367.14-8.145-4.649c-0.658-0.378-0.575-1.055 0.185-1.493l7.741-4.464c0.39-0.219 0.827-0.344 1.275-0.364 0.448-0.019 0.894 0.066 1.302 0.251l8.115 4.687c0.658 0.378 0.574 1.047-0.185 1.493l-7.741 4.463c-0.39 0.207-0.823 0.322-1.265 0.335-0.441 0.013-0.88-0.076-1.282-0.259z" fill="#2B303F"/>
<path d="m372.22 373.78-8.111-4.675c-0.658-0.39-0.574-1.055 0.185-1.493l7.741-4.464c0.39-0.222 0.827-0.348 1.275-0.367 0.448-0.02 0.894 0.067 1.302 0.254l8.115 4.686c0.658 0.378 0.574 1.047-0.185 1.486l-7.744 4.471c-0.392 0.218-0.829 0.341-1.277 0.358-0.448 0.018-0.894-0.07-1.301-0.256z" fill="#2B303F"/>
<path d="m383.68 380.41-8.111-4.686c-0.658-0.378-0.582-1.043 0.185-1.493l7.741-4.464c0.391-0.218 0.828-0.341 1.275-0.361 0.448-0.02 0.893 0.065 1.302 0.248l8.107 4.687c0.666 0.389 0.583 1.054-0.189 1.492l-7.732 4.464c-0.391 0.22-0.828 0.345-1.276 0.364-0.448 0.02-0.894-0.066-1.302-0.251z" fill="#2B303F"/>
<path d="m409.34 395.22-22.299-12.873c-0.669-0.378-0.582-1.044 0.185-1.49l7.733-4.467c0.393-0.217 0.831-0.34 1.28-0.359s0.896 0.066 1.305 0.249l22.303 12.874c0.658 0.389 0.575 1.054-0.185 1.492l-7.744 4.475c-0.392 0.218-0.829 0.34-1.277 0.357s-0.893-0.071-1.301-0.258z" fill="#2B303F"/>
<path d="m257.56 307.59-11.055-6.387c-0.665-0.378-0.582-1.051 0.185-1.489l7.733-4.468c0.393-0.219 0.832-0.343 1.282-0.361 0.45-0.019 0.898 0.069 1.307 0.255l11.052 6.388c0.665 0.378 0.582 1.043-0.186 1.489l-7.733 4.463c-0.392 0.218-0.83 0.342-1.279 0.362-0.448 0.019-0.895-0.065-1.306-0.248v-4e-3z" fill="#2B303F"/>
<path d="m454.24 369.29-162.84-93.997c-0.654-0.378-0.578-1.051 0.189-1.489l3.867-2.23c0.392-0.218 0.83-0.342 1.279-0.361 0.449-0.02 0.896 0.065 1.306 0.248l162.84 93.985c0.654 0.378 0.571 1.047-0.189 1.493l-3.874 2.23c-0.39 0.221-0.827 0.347-1.275 0.368-0.447 0.021-0.894-0.064-1.303-0.247z" fill="#2B303F"/>
<path d="m353.36 379.99c-0.23 0.506-0.624 0.919-1.119 1.172l-44.818 25.867c-0.753 0.421-1.594 0.659-2.456 0.695s-1.72-0.131-2.506-0.487l-76.577-44.217c-0.349-0.182-0.623-0.48-0.775-0.843-0.28-0.672 0.11-1.466 1.126-2.056l44.818-25.84c0.754-0.418 1.596-0.653 2.458-0.688 0.861-0.035 1.719 0.132 2.505 0.487l76.588 44.217c0.321 0.128 0.58 0.377 0.721 0.693 0.142 0.316 0.154 0.675 0.035 1z" fill="#B1B4C4"/>
<path d="m353.36 379.99c-0.23 0.506-0.624 0.919-1.119 1.172l-44.818 25.867c-0.753 0.421-1.594 0.659-2.456 0.695s-1.72-0.131-2.506-0.487l-76.577-44.217c-0.349-0.182-0.623-0.48-0.775-0.843 0.236-0.487 0.627-0.883 1.111-1.126l44.814-25.867c0.753-0.421 1.594-0.66 2.456-0.697s1.721 0.13 2.507 0.485l76.607 44.221c0.332 0.176 0.597 0.456 0.756 0.797z" fill="#C3C6D1"/>
<path d="m466.63 362.17-162.83-94.009c-0.364-0.262-0.662-0.606-0.869-1.003-0.208-0.398-0.321-0.838-0.329-1.287v-1.912c0-0.885 0.54-1.289 1.198-0.907l162.84 93.981c0.366 0.261 0.665 0.605 0.874 1.004 0.208 0.399 0.319 0.841 0.324 1.29v1.921c0 0.899-0.529 1.303-1.198 0.925l-4e-3 -3e-3z" fill="#2B303F"/>
<g opacity=".2">
<g opacity=".2">
<path d="m428.5 206.05-161.71-92.005c-2.272-1.302-4.107-0.234-4.098 2.385l0.425 119.35c0.01 2.619 1.86 5.798 4.132 7.099l161.71 92.005c2.272 1.302 4.107 0.234 4.098-2.385l-0.425-119.36c-9e-3 -2.617-1.859-5.796-4.132-7.097z" fill="#E9FFFB" opacity=".2"/>
</g>
</g>
<path d="m425.77 205.24-161.38-92.581c-2.268-1.309-4.107-0.248-4.107 2.371v119.35c0 2.619 1.839 5.804 4.107 7.113l161.38 92.581c2.268 1.309 4.107 0.248 4.107-2.371v-119.36c0-2.618-1.839-5.803-4.107-7.112z" fill="#CEEEF6" fill-opacity=".2" stroke="#CEEEF6" stroke-miterlimit="10" stroke-width="1.3333"/>
<path d="m414.61 310.16s-0.042-11.524-2.075-28.17c-1.241-10.156-3.765-27.284-13.584-32.907-9.818-5.622-13.458 4.615-14.856 9.655-1.813 6.538-11.408 2.436-12.785-8.324-1.377-10.761-2.357-45.039-13.861-51.626-11.505-6.588-15.16 9.383-16.448 13.838-2.534 8.756-10.09 6.372-12.572 0.582-2.482-5.789-9.191-7.174-11.694 0.986-2.505 8.16-4.044 17.525-12.27 12.748-7.215-4.19-3.935-11.89-10.976-15.508-5.563-2.86-8.098 10.868-8.049 24.761l129.17 73.965z" fill="#3DCDF1"/>
<path d="m409.35 241.17c0 1.495-1.342 1.931-2.998 0.975l-16.263-9.364c-1.654-0.956-2.996-2.943-2.996-4.437s1.342-1.931 2.996-0.975l16.263 9.365c1.656 0.956 2.998 2.942 2.998 4.436z" fill="#3DCDF1"/>
<path d="m363.82 193.09c0 1.495-1.341 1.931-2.997 0.975l-16.263-9.366c-1.654-0.956-2.997-2.941-2.997-4.436 0-1.494 1.343-1.93 2.997-0.974l16.263 9.365c1.656 0.956 2.997 2.941 2.997 4.436z" fill="#3DCDF1"/>
<path d="m331.82 199.36c0 1.495-1.342 1.931-2.997 0.975l-16.261-9.364c-1.658-0.956-2.998-2.943-2.998-4.437s1.34-1.93 2.998-0.975l16.261 9.365c1.655 0.956 2.997 2.942 2.997 4.436z" fill="#3DCDF1"/>
<path d="m301.9 206.22c0 1.495-1.342 1.931-2.997 0.975l-16.263-9.365c-1.656-0.956-2.996-2.942-2.996-4.437 0-1.494 1.34-1.93 2.998-0.974l16.261 9.365c1.655 0.956 2.997 2.942 2.997 4.436z" fill="#3DCDF1"/>
</g>
<defs>
<radialGradient id="a" cx="0" cy="0" r="1" gradientTransform="translate(213.62 172.96) rotate(180) scale(423.87 423.87)" gradientUnits="userSpaceOnUse">
<stop stop-color="#2B2D71" offset="0"/>
<stop stop-color="#1A1C43" offset="1"/>
</radialGradient>
<clipPath id="b">
<rect width="707.67" height="546.4" fill="#fff"/>
</clipPath>
</defs>
</svg>
