<?xml version="1.0" encoding="UTF-8"?>
<svg version="1.1" viewBox="0 0 180.14 180.14" xmlns="http://www.w3.org/2000/svg">
<g transform="translate(983.23 -42.888)">
<g transform="translate(-16.158 67.235)">
<path transform="matrix(.26458 0 0 .26458 16.158 -67.235)" d="m-3376.8 162.1a340.42 340.42 0 0 0-339.31 341.5 340.42 340.42 0 0 0 341.47 339.34 340.42 340.42 0 0 0 339.37-341.45v-0.10742a340.42 340.42 0 0 0-341.53-339.29zm-76.695 173.76c13.891 0.0189 24.087 3.2638 34 10.812 7.4266 5.6554 54.12 53.09 57.469 58.381 6.3657 10.059 8.7997 18.832 8.8222 31.801 0.026 15.188-4.0763 26.454-14.027 38.512-1.6844 2.0411-3.0625 4.0356-3.0625 4.4336 0 0.39791 3.9684 4.433 8.8203 8.9668 9.9877 9.3329 8.0931 9.0469 16.379 2.4746 9.3503-7.4166 21.932-11.488 35.184-11.387 13.486 0.10355 24.996 3.9207 35.309 11.713 6.2018 4.686 52.093 50.986 55.453 55.947 8.0661 11.909 11.481 26.352 9.666 40.891-1.1089 8.8843-2.6801 13.605-7.2226 21.705-3.0402 5.4214-6.4129 9.199-23.182 25.957-20.597 20.584-26.862 25.631-36.117 29.1-9.2366 3.4614-19.666 4.7461-29.314 3.6113-7.4755-0.87915-15.56-3.7081-22.82-7.9844-7.9996-4.7116-55.344-51.818-60.914-60.607-6.6124-10.435-9.2402-19.728-9.2402-32.668 0-14.364 5.1985-27.934 15.117-39.463l2.4082-2.8008-8.8985-8.9492-8.8984-8.9473-5.2637 4.4004c-6.2541 5.2271-15.968 10.12-23.516 11.848-3.1395 0.71868-9.0741 1.2431-14 1.2363-12.923-0.0189-21.999-2.6091-31.75-9.0645-6.8361-4.5256-55.595-53.138-59.902-59.723-10.258-15.681-12.26-36.636-5.2168-54.637 3.0458-7.7849 8.5061-14.429 26.881-32.701 21.936-21.814 23.666-23.288 31.838-27.127 9.519-4.472 15.3-5.746 26-5.7305zm-0.098 39.146c-2.9804-0.044-5.9863 0.42994-8.3008 1.4336-4.471 1.939-37.366 34.639-39.576 39.342-0.974 2.0722-1.625 5.1019-1.625 7.5703 0 8.7868-0.049 8.7203 25.51 34.506 25.799 26.028 28.078 27.797 35.832 27.797 2.3247 0 5.7637-0.60392 7.6426-1.3418s4.355-2.0878 5.5019-3l2.084-1.6582-5.9511-6.2617c-6.9573-7.3186-8.225-9.9019-8.2012-16.713 0.04-11.4 7.8322-19.259 19.182-19.346 6.8169-0.0521 10.099 1.6012 17.272 8.7031l5.6719 5.6172 1.6133-2c3.5231-4.3691 4.6015-7.4648 4.6015-13.201 0-3.8996-0.4482-6.4486-1.4765-8.3984-2.382-4.5165-47.43-49.337-51.633-51.371-2.2114-1.0706-5.1661-1.6337-8.1464-1.6777zm143.25 144.14c-5.1494 0.0264-10.595 1.996-13.002 4.709-1.4226 1.6034-1.3727 1.7076 2.4394 5.2734 2.1393 2.0011 5.3118 5.7048 7.0508 8.2305 3.009 4.3702 3.1617 4.887 3.1426 10.666-0.019 5.1582-0.3521 6.6368-2.2188 9.8223-3.7458 6.3917-9.5961 9.6706-17.25 9.6699-6.0412-5.3e-4 -9.6407-1.8419-16.697-8.5449-6.605-6.2741-6.8999-6.2629-10.277 0.40234-2.511 4.9552-2.6267 12.271-0.2773 17.477 2.3102 5.1185 46.022 48.83 51.141 51.141 4.9897 2.252 12.04 2.1896 16.971-0.15039 4.8519-2.3026 37.64-34.51 39.551-38.85 1.955-4.4409 1.7225-12.527-0.4883-16.943-1.2027-2.4027-9.4125-11.224-24.717-26.559-25.287-25.338-26.694-26.385-35.367-26.344z" fill="#2193b0"/>
</g>
</g>
</svg>
