<?xml version="1.0" encoding="UTF-8"?>
<svg viewBox="0 0 180.14 180.14" xmlns="http://www.w3.org/2000/svg">
<g transform="translate(512.27 -42.888)">
<g transform="translate(-16.158 67.235)">
<path transform="matrix(.26458 0 0 .26458 16.158 -67.235)" d="m-1596.8 162.1a340.42 340.42 0 0 0-339.31 341.5 340.42 340.42 0 0 0 341.47 339.34 340.42 340.42 0 0 0 339.37-341.45v-0.10742a340.42 340.42 0 0 0-341.53-339.29zm31.975 200.1c3.0053 8e-3 16.385 4.3108 17.94 5.7715 3.1923 2.999 8.6724-17.494-45.725 171.03-23.295 80.732-29.55 101.48-30.92 102.6-2.213 1.8036-5.2667 1.664-12.99-0.5918-6.7364-1.9675-10.15-4.4207-10.15-7.2949 0-0.9936 2.6891-11.099 5.9746-22.459 10.305-35.629 30.284-104.83 40.721-141.05 31.658-109.87 29.97-104.3 32.141-106.2 1.1293-0.98997 2.4843-1.8 3.0097-1.7988zm54.518 38.67c0.621 0.0369 1.2317 0.1946 1.8653 0.45703 2.7081 1.1217 97.221 95.53 98.865 98.756 0.8362 1.6408 0.9543 2.8873 0.418 4.4258-0.4108 1.1782-22.796 24.18-49.744 51.115-45.69 45.668-49.181 48.975-51.732 48.975-2.3745 0-3.6682-0.93189-9.7852-7.0488-6.0991-6.0991-7.0488-7.4153-7.0488-9.7676 0-2.5221 2.9762-5.697 41.197-43.965l41.195-41.248-39.66-39.586c-21.813-21.772-40.35-40.443-41.195-41.492-2.9019-3.6031-2.0867-5.9366 4.4844-12.814 5.5831-5.8438 8.4497-7.9664 11.141-7.8066zm-170.62 0.01c2.536 0.10482 5.2739 2.2387 10.582 7.6934 10.053 10.33 13.457 5.161-35.064 53.254l-41.191 40.828 41.166 41.188c38.296 38.317 41.164 41.379 41.164 43.924 0 2.3733-0.9327 3.6671-7.0488 9.7832-6.131 6.131-7.4066 7.0488-9.7988 7.0488-2.5709 0-5.976-3.2281-52.207-49.477-48.678-48.696-49.453-49.519-49.201-52.355 0.2328-2.6253 4.5406-7.2162 48.443-51.623 27.109-27.421 49.242-49.178 50.6-49.74 0.8883-0.36795 1.7113-0.55838 2.5567-0.52344z" fill="#2193b0"/>
</g>
</g>
</svg>
