<?xml version="1.0" encoding="UTF-8" standalone="no"?>
<svg
   xmlns:svg="http://www.w3.org/2000/svg"
   xmlns="http://www.w3.org/2000/svg"
   viewBox="0 0 180.13974 180.13979">
  <defs
     id="defs2" />
  <g
     transform="translate(276.41201,-42.888378)">
    <g
       transform="translate(-16.158161,67.234894)">
      <path
         style="opacity:1;fill:#2193b0;fill-opacity:1;stroke:none;stroke-width:4.37369967;stroke-linecap:round;stroke-linejoin:miter;stroke-miterlimit:4;stroke-dasharray:none;stroke-dashoffset:0;stroke-opacity:1"
         d="m -705.39453,162.09961 a 340.42136,340.42136 0 0 0 -339.31057,341.50195 340.42136,340.42136 0 0 0 341.47463,339.33789 340.42136,340.42136 0 0 0 339.36524,-341.44726 l -0.002,-0.10742 a 340.42136,340.42136 0 0 0 -341.5273,-339.28516 z m -24.84766,183.21094 25.98438,0.23242 c 25.19505,0.2245 26.03544,0.28258 27.66797,1.91601 1.4033,1.40414 2.20665,4.98883 4.82617,21.53711 1.72849,10.91963 3.23074,19.92365 3.33789,20.00782 0.10734,0.0843 2.17376,0.88491 4.59375,1.77929 2.42003,0.89439 6.50171,2.55719 9.07031,3.69532 l 4.66992,2.06836 15.41016,-11.58594 c 18.36007,-13.8059 18.48704,-13.84474 25.80859,-7.67969 5.67587,4.77929 25.29092,24.74717 29.16993,29.69336 3.65196,4.65668 4.10615,6.0629 3.01757,9.36133 -0.70148,2.12553 -9.64944,14.32614 -21.63867,29.50586 -0.41439,0.52463 0.892,4.48453 3.29688,10 2.18982,5.02231 3.98423,9.54262 3.98828,10.04492 0.008,1.16984 0.30552,1.23028 21.18945,4.38086 16.06995,2.4243 17.78954,2.83838 20,4.8125 l 2.41797,2.16015 0.2168,24.26758 c 0.1954,21.89885 0.0794,24.53848 -1.19922,27.06446 -0.77919,1.53951 -2.31798,3.20403 -3.41797,3.69726 -1.09999,0.49319 -10.3696,2.09947 -20.59961,3.57031 -10.23001,1.47081 -18.59961,2.97369 -18.59961,3.33985 0,0.36623 -1.76381,4.61927 -3.91992,9.45117 l -3.91992,8.78516 8.05273,10.57812 c 4.42991,5.81843 9.61673,12.50594 11.52539,14.85938 6.21188,7.65925 5.81313,9.23189 -5.52148,21.76367 -15.03753,16.62592 -27.3565,27.16068 -31.75391,27.15429 -2.79231,-0.004 -4.77227,-1.33251 -20.01953,-13.42968 l -13.1543,-10.4375 -3.64453,1.8164 c -2.00443,0.99889 -6.22165,2.7884 -9.37109,3.97657 l -5.72657,2.16015 -0.54296,4.95899 c -0.87746,8.00768 -4.34053,28.78103 -5.4375,32.61914 -1.76202,6.16505 -2.61723,6.34486 -30.16602,6.28711 -12.97999,-0.0265 -24.32115,-0.34508 -25.20117,-0.70508 -3.69177,-1.51102 -4.21036,-3.17228 -7.29688,-23.3711 l -3.01367,-19.72656 -7.55664,-3.07226 c -4.15601,-1.6904 -8.35108,-3.39387 -9.32226,-3.78516 -1.51582,-0.61073 -3.94569,0.94627 -17.17188,11 -18.9103,14.37439 -18.00813,14.1784 -27.43359,5.93164 -8.46887,-7.40984 -23.87099,-23.03447 -27.89063,-28.29297 -2.29285,-2.99954 -3.11328,-4.83413 -3.11328,-6.96484 0,-3.00329 0.0933,-3.14238 17.48242,-25.76172 l 5.53516,-7.20117 -2.59766,-5.19922 c -1.42851,-2.86001 -3.23218,-7.17962 -4.00781,-9.59961 -0.77563,-2.42003 -1.63425,-4.64023 -1.91016,-4.93359 -0.2759,-0.2933 -8.42354,-1.66878 -18.10351,-3.05469 -9.68001,-1.38595 -18.76864,-2.88178 -20.19727,-3.32617 -4.99275,-1.55309 -5.00195,-1.61077 -5.00195,-29.61914 v -25.37891 l 1.86523,-2.16797 c 1.76557,-2.05262 2.91571,-2.33363 21.40039,-5.2207 10.7438,-1.67804 19.74745,-3.06077 20.00782,-3.07422 0.26041,-0.0151 0.91633,-1.55579 1.45703,-3.42578 0.54074,-1.87 2.26264,-6.16803 3.82812,-9.55078 l 2.84766,-6.15039 -5.06445,-6.64844 c -2.78529,-3.6573 -7.90251,-10.21679 -11.3711,-14.57617 -7.81341,-9.82005 -8.23565,-10.82588 -6.21875,-14.7793 3.25493,-6.38018 25.98081,-29.78429 34.22071,-35.24219 2.21903,-1.46982 4.74025,-2.45312 6.29492,-2.45312 2.65202,0 2.93,0.19147 25.5039,17.49804 l 7.69141,5.89649 6.16797,-2.79297 c 3.39281,-1.5363 7.5197,-3.22852 9.16992,-3.75977 3.45245,-1.11144 3.05731,0.15402 5.38281,-17.24023 2.31001,-17.27849 3.76632,-23.42257 6.10547,-25.76172 z m 24.29688,104.97265 c -18.33658,0.53651 -36.30997,10.43287 -45.32422,28.91992 -3.91555,8.03029 -5.36352,14.2779 -5.34961,23.08594 0.0227,13.36623 3.654,23.39082 12.12891,33.45899 13.2215,15.70711 32.13463,21.95153 52.95703,17.48633 8.61089,-1.84653 16.09749,-6.25084 24.02539,-14.13282 10.28481,-10.22528 15.1296,-21.90099 15.15625,-36.52734 0.0227,-12.50298 -2.91539,-21.6034 -10.11524,-31.32227 -10.83796,-14.62985 -27.29918,-21.44214 -43.47851,-20.96875 z"
         transform="matrix(0.26458333,0,0,0.26458333,16.158161,-67.234894)" />
    </g>
  </g>
</svg>
