<?xml version="1.0" encoding="UTF-8" standalone="no"?>
<svg
   xmlns:svg="http://www.w3.org/2000/svg"
   xmlns="http://www.w3.org/2000/svg"
   viewBox="0 0 180.13976 180.13979"
   version="1.1"
   id="svg8"
   >
  <defs
     id="defs2" />
  <g
     transform="translate(983.22778,-42.888378)">
    <g
       transform="translate(-16.158161,67.234894)">
      <path
         style="opacity:1;fill:#2193b0;fill-opacity:1;stroke:none;stroke-width:4.37369967;stroke-linecap:round;stroke-linejoin:miter;stroke-miterlimit:4;stroke-dasharray:none;stroke-dashoffset:0;stroke-opacity:1"
         d="m -3376.8223,162.09961 a 340.42136,340.42136 0 0 0 -339.3125,341.50195 340.42136,340.42136 0 0 0 341.4746,339.33789 340.42136,340.42136 0 0 0 339.3653,-341.44726 v -0.10742 a 340.42136,340.42136 0 0 0 -341.5274,-339.28516 z m -76.6953,173.75977 c 13.8913,0.0189 24.0872,3.2638 34,10.8125 7.4266,5.65542 54.1205,53.09008 57.4688,58.38085 6.3657,10.05869 8.7997,18.83175 8.8222,31.80079 0.026,15.18769 -4.0763,26.45362 -14.0273,38.51171 -1.6844,2.04106 -3.0625,4.03565 -3.0625,4.4336 0,0.39791 3.9684,4.43302 8.8203,8.96679 9.9877,9.33287 8.0931,9.04687 16.3789,2.47461 9.3503,-7.41664 21.9324,-11.48827 35.1836,-11.38671 13.4865,0.10355 24.9956,3.92067 35.3086,11.71289 6.2018,4.68597 52.0927,50.98591 55.4531,55.94726 8.0661,11.90865 11.4808,26.35169 9.666,40.89063 -1.1089,8.88434 -2.6801,13.60479 -7.2226,21.70508 -3.0402,5.42136 -6.4129,9.19898 -23.1817,25.95703 -20.597,20.58387 -26.8624,25.6314 -36.1171,29.09961 -9.2366,3.46136 -19.6655,4.74609 -29.3145,3.61132 -7.4755,-0.87915 -15.5597,-3.70806 -22.8203,-7.98437 -7.9996,-4.71156 -55.3444,-51.81787 -60.9141,-60.60742 -6.6124,-10.43528 -9.2402,-19.72793 -9.2402,-32.66797 0,-14.36413 5.1985,-27.93435 15.1172,-39.46289 l 2.4082,-2.80078 -8.8985,-8.94922 -8.8984,-8.94727 -5.2637,4.40039 c -6.2541,5.22713 -15.9676,10.11989 -23.5156,11.84766 -3.1395,0.71868 -9.0741,1.24313 -14,1.23633 -12.9226,-0.0189 -21.9988,-2.6091 -31.75,-9.06446 -6.8361,-4.5256 -55.595,-53.13815 -59.9023,-59.72265 -10.2583,-15.68126 -12.2596,-36.63604 -5.2168,-54.63672 3.0458,-7.78488 8.5061,-14.42863 26.8808,-32.70117 21.9365,-21.81442 23.6657,-23.28764 31.8379,-27.12696 9.519,-4.47205 15.2995,-5.74596 26,-5.73046 z m -0.098,39.14648 c -2.9804,-0.044 -5.9863,0.42994 -8.3008,1.43359 -4.471,1.93898 -37.3655,34.63882 -39.5762,39.3418 -0.974,2.0722 -1.625,5.10194 -1.625,7.57031 0,8.78684 -0.049,8.7203 25.5098,34.50586 25.799,26.02821 28.0781,27.79688 35.832,27.79688 2.3247,0 5.7637,-0.60392 7.6426,-1.3418 1.8789,-0.73788 4.355,-2.08785 5.5019,-3 l 2.084,-1.6582 -5.9511,-6.26172 c -6.9573,-7.31857 -8.225,-9.90192 -8.2012,-16.71289 0.04,-11.39962 7.8322,-19.25908 19.1816,-19.34571 6.8169,-0.0521 10.0992,1.60117 17.2715,8.70313 l 5.6719,5.61719 1.6133,-2 c 3.5231,-4.36906 4.6015,-7.4648 4.6015,-13.20118 0,-3.8996 -0.4482,-6.44865 -1.4765,-8.39843 -2.382,-4.51646 -47.4305,-49.3368 -51.6329,-51.3711 -2.2114,-1.07055 -5.1661,-1.6337 -8.1464,-1.67773 z m 143.248,144.14258 c -5.1494,0.0264 -10.595,1.996 -13.0019,4.70898 -1.4226,1.60339 -1.3727,1.70764 2.4394,5.27344 2.1393,2.00107 5.3118,5.7048 7.0508,8.23047 3.009,4.37015 3.1617,4.88696 3.1426,10.66601 -0.019,5.15819 -0.3521,6.63685 -2.2188,9.82227 -3.7458,6.39167 -9.5961,9.6706 -17.25,9.66992 -6.0412,-5.3e-4 -9.6407,-1.84193 -16.6972,-8.54492 -6.605,-6.27409 -6.8999,-6.26289 -10.2774,0.40234 -2.511,4.95515 -2.6267,12.27083 -0.2773,17.47657 2.3102,5.11853 46.0221,48.83038 51.1406,51.14062 4.9897,2.25203 12.0402,2.18963 16.9707,-0.15039 4.8519,-2.3026 37.6403,-34.51003 39.5508,-38.84961 1.955,-4.44087 1.7225,-12.52691 -0.4883,-16.94336 -1.2027,-2.40268 -9.4125,-11.22384 -24.7168,-26.55859 -25.2871,-25.3375 -26.6942,-26.38525 -35.3672,-26.34375 z"
         transform="matrix(0.26458333,0,0,0.26458333,16.158161,-67.234894)" />
    </g>
  </g>
</svg>
