<?xml version="1.0" encoding="UTF-8" standalone="no"?>
<svg
   xmlns:svg="http://www.w3.org/2000/svg"
   xmlns="http://www.w3.org/2000/svg"
   viewBox="0 0 180.13976 180.13979">
  <defs
     id="defs2" />
  <g
     transform="translate(512.26945,-42.888378)">
    <g
       transform="translate(-16.158161,67.234894)">
      <path
         style="opacity:1;fill:#2193b0;fill-opacity:1;stroke:none;stroke-width:4.37369967;stroke-linecap:round;stroke-linejoin:miter;stroke-miterlimit:4;stroke-dasharray:none;stroke-dashoffset:0;stroke-opacity:1"
         d="m -1596.8223,162.09961 a 340.42136,340.42136 0 0 0 -339.3125,341.50195 340.42136,340.42136 0 0 0 341.4746,339.33789 340.42136,340.42136 0 0 0 339.3653,-341.44726 v -0.10742 a 340.42136,340.42136 0 0 0 -341.5274,-339.28516 z m 31.9746,200.10156 c 3.0053,0.008 16.3848,4.31085 17.9395,5.77149 3.1923,2.99901 8.6724,-17.49391 -45.7246,171.02734 -23.295,80.73241 -29.5496,101.48276 -30.9199,102.59961 -2.213,1.80363 -5.2667,1.66398 -12.9903,-0.5918 -6.7364,-1.96747 -10.1504,-4.42074 -10.1504,-7.29492 0,-0.9936 2.6891,-11.09931 5.9746,-22.45898 10.3052,-35.62946 30.284,-104.83366 40.7208,-141.05469 31.6575,-109.86811 29.9696,-104.296 32.1406,-106.19922 1.1293,-0.98997 2.4843,-1.79996 3.0097,-1.79883 z m 54.5176,38.66992 c 0.621,0.0369 1.2317,0.1946 1.8653,0.45703 2.7081,1.12173 97.2213,95.53042 98.8652,98.75586 0.8362,1.64077 0.9543,2.88729 0.418,4.42579 -0.4108,1.17815 -22.7956,24.17986 -49.7442,51.11523 -45.6901,45.66765 -49.181,48.97461 -51.7324,48.97461 -2.3745,0 -3.6682,-0.93189 -9.7852,-7.04883 -6.0991,-6.09914 -7.0488,-7.41531 -7.0488,-9.76758 0,-2.52211 2.9762,-5.69705 41.1973,-43.96484 l 41.1953,-41.24805 -39.6602,-39.58593 c -21.813,-21.77216 -40.3501,-40.44288 -41.1953,-41.49219 -2.9019,-3.60306 -2.0867,-5.93655 4.4844,-12.81446 5.5831,-5.84376 8.4497,-7.96638 11.1406,-7.80664 z m -170.6191,0.01 c 2.536,0.10482 5.2739,2.23871 10.582,7.69336 10.053,10.33043 13.4568,5.16104 -35.0644,53.2539 l -41.1914,40.82813 41.166,41.1875 c 38.2957,38.31685 41.164,41.3793 41.164,43.92383 0,2.37331 -0.9327,3.66713 -7.0488,9.7832 -6.131,6.13104 -7.4066,7.04883 -9.7988,7.04883 -2.5709,0 -5.976,-3.22807 -52.2071,-49.47656 -48.678,-48.69634 -49.4528,-49.51935 -49.2011,-52.35547 0.2328,-2.6253 4.5406,-7.21625 48.4433,-51.62305 27.1094,-27.42055 49.2425,-49.17807 50.5996,-49.74023 0.8883,-0.36795 1.7113,-0.55838 2.5567,-0.52344 z"
         transform="matrix(0.26458333,0,0,0.26458333,16.158161,-67.234894)" />
    </g>
  </g>
</svg>
