<?xml version="1.0" encoding="UTF-8" standalone="no"?>
<svg
   xmlns:svg="http://www.w3.org/2000/svg"
   xmlns="http://www.w3.org/2000/svg"
   viewBox="0 0 180.13973 180.13979"
   version="1.1">
  <defs
     id="defs2" />
  <g
     transform="translate(737.54302,-42.888376)">
    <g
       transform="translate(-16.158161,67.234894)">
      <path
         style="opacity:1;fill:#2193b0;fill-opacity:1;stroke:none;stroke-width:4.37369967;stroke-linecap:round;stroke-linejoin:miter;stroke-miterlimit:4;stroke-dasharray:none;stroke-dashoffset:0;stroke-opacity:1"
         d="m -2448.252,162.09961 a 340.42136,340.42136 0 0 0 -339.3105,341.50195 340.42136,340.42136 0 0 0 341.4746,339.33789 340.42136,340.42136 0 0 0 339.3652,-341.44726 v -0.10742 A 340.42136,340.42136 0 0 0 -2448.252,162.09961 Z m 66.9043,170.2168 c 62.031,0.0253 99.5383,0.23412 102.1055,0.58984 10.354,1.43486 20.6959,8.63745 25.2246,17.56836 3.3567,6.61973 3.3577,6.70948 3.1016,128.49414 l -0.2442,116.80078 -2.4726,5.21289 c -2.844,6.00114 -8.9146,12.62931 -13.8984,15.17188 -7.9611,4.0614 -6.8517,3.9966 -69.1407,4.00586 l -58.3125,0.008 0.4649,3.91797 c 0.6407,5.41035 3.8687,14.69313 8.584,24.68945 4.6783,9.91809 5.0576,13.42648 1.9511,17.99805 -4.1538,6.11282 -0.6521,5.77654 -61.9765,5.93554 -30.14,0.0782 -55.7803,-0.15633 -56.9786,-0.52343 v -0.002 c -5.1394,-1.5739 -9.327,-6.91024 -9.3886,-11.96679 -0.023,-1.72437 1.6305,-6.29127 4.4238,-12.23828 5.5434,-11.80188 7.4681,-17.3244 8.0879,-23.21094 l 0.4844,-4.59961 -58.3145,-0.008 c -49.3718,-0.008 -58.9167,-0.19121 -62.2461,-1.20118 -11.7614,-3.56795 -20.6982,-13.42863 -22.875,-25.24218 -1.2587,-6.83089 -0.6818,-234.65155 0.6035,-238.35938 3.0465,-8.78819 11.3369,-17.41753 20.17,-20.99414 l 4.4336,-1.79492 166.3925,-0.21484 c 25.7409,-0.0333 49.1434,-0.0455 69.8203,-0.0371 z m -231.8867,26.25195 -1.9629,1.96289 -1.9648,1.96289 v 87.51953 87.51953 l 1.9629,2.11719 1.9609,2.11719 h 166.0762 166.0742 l 1.9102,-1.91016 c 1.0508,-1.05086 2.1294,-3.12045 2.3965,-4.59961 0.2672,-1.47919 0.38,-40.97159 0.2519,-87.75976 l -0.2324,-85.07032 -2.2442,-1.92968 -2.2441,-1.92969 h -165.9922 z"
         transform="matrix(0.26458333,0,0,0.26458333,16.158161,-67.234894)" />
    </g>
  </g>
</svg>
