<?xml version="1.0" encoding="UTF-8"?>
<svg viewBox="0 0 180.14 180.14" xmlns="http://www.w3.org/2000/svg">
<g transform="translate(276.41 -42.888)">
<g transform="translate(-16.158 67.235)">
<path transform="matrix(.26458 0 0 .26458 16.158 -67.235)" d="m-705.39 162.1a340.42 340.42 0 0 0-339.31 341.5 340.42 340.42 0 0 0 341.47 339.34 340.42 340.42 0 0 0 339.37-341.45l-2e-3 -0.10742a340.42 340.42 0 0 0-341.53-339.29zm-24.848 183.21 25.984 0.23242c25.195 0.2245 26.035 0.28258 27.668 1.916 1.4033 1.4041 2.2066 4.9888 4.8262 21.537 1.7285 10.92 3.2307 19.924 3.3379 20.008 0.10734 0.0843 2.1738 0.88491 4.5938 1.7793 2.42 0.89439 6.5017 2.5572 9.0703 3.6953l4.6699 2.0684 15.41-11.586c18.36-13.806 18.487-13.845 25.809-7.6797 5.6759 4.7793 25.291 24.747 29.17 29.693 3.652 4.6567 4.1062 6.0629 3.0176 9.3613-0.70148 2.1255-9.6494 14.326-21.639 29.506-0.41439 0.52463 0.892 4.4845 3.2969 10 2.1898 5.0223 3.9842 9.5426 3.9883 10.045 8e-3 1.1698 0.30552 1.2303 21.189 4.3809 16.07 2.4243 17.79 2.8384 20 4.8125l2.418 2.1602 0.2168 24.268c0.1954 21.899 0.0794 24.538-1.1992 27.064-0.77919 1.5395-2.318 3.204-3.418 3.6973-1.1 0.49319-10.37 2.0995-20.6 3.5703-10.23 1.4708-18.6 2.9737-18.6 3.3398 0 0.36623-1.7638 4.6193-3.9199 9.4512l-3.9199 8.7852 8.0527 10.578c4.4299 5.8184 9.6167 12.506 11.525 14.859 6.2119 7.6592 5.8131 9.2319-5.5215 21.764-15.038 16.626-27.356 27.161-31.754 27.154-2.7923-4e-3 -4.7723-1.3325-20.02-13.43l-13.154-10.438-3.6445 1.8164c-2.0044 0.99889-6.2216 2.7884-9.3711 3.9766l-5.7266 2.1602-0.54296 4.959c-0.87746 8.0077-4.3405 28.781-5.4375 32.619-1.762 6.165-2.6172 6.3449-30.166 6.2871-12.98-0.0265-24.321-0.34508-25.201-0.70508-3.6918-1.511-4.2104-3.1723-7.2969-23.371l-3.0137-19.727-7.5566-3.0723c-4.156-1.6904-8.3511-3.3939-9.3223-3.7852-1.5158-0.61073-3.9457 0.94627-17.172 11-18.91 14.374-18.008 14.178-27.434 5.9316-8.4689-7.4098-23.871-23.034-27.891-28.293-2.2928-2.9995-3.1133-4.8341-3.1133-6.9648 0-3.0033 0.0933-3.1424 17.482-25.762l5.5352-7.2012-2.5977-5.1992c-1.4285-2.86-3.2322-7.1796-4.0078-9.5996-0.77563-2.42-1.6342-4.6402-1.9102-4.9336-0.2759-0.2933-8.4235-1.6688-18.104-3.0547-9.68-1.386-18.769-2.8818-20.197-3.3262-4.9928-1.5531-5.002-1.6108-5.002-29.619v-25.379l1.8652-2.168c1.7656-2.0526 2.9157-2.3336 21.4-5.2207 10.744-1.678 19.747-3.0608 20.008-3.0742 0.26041-0.0151 0.91633-1.5558 1.457-3.4258 0.54074-1.87 2.2626-6.168 3.8281-9.5508l2.8477-6.1504-5.0644-6.6484c-2.7853-3.6573-7.9025-10.217-11.371-14.576-7.8134-9.82-8.2356-10.826-6.2188-14.779 3.2549-6.3802 25.981-29.784 34.221-35.242 2.219-1.4698 4.7402-2.4531 6.2949-2.4531 2.652 0 2.93 0.19147 25.504 17.498l7.6914 5.8965 6.168-2.793c3.3928-1.5363 7.5197-3.2285 9.1699-3.7598 3.4524-1.1114 3.0573 0.15402 5.3828-17.24 2.31-17.278 3.7663-23.423 6.1055-25.762zm24.297 104.97c-18.337 0.53651-36.31 10.433-45.324 28.92-3.9156 8.0303-5.3635 14.278-5.3496 23.086 0.0227 13.366 3.654 23.391 12.129 33.459 13.222 15.707 32.135 21.952 52.957 17.486 8.6109-1.8465 16.097-6.2508 24.025-14.133 10.285-10.225 15.13-21.901 15.156-36.527 0.0227-12.503-2.9154-21.603-10.115-31.322-10.838-14.63-27.299-21.442-43.479-20.969z" fill="#2193b0"/>
</g>
</g>
</svg>
