<?xml version="1.0" encoding="UTF-8" standalone="no"?>
<!-- Created with Inkscape (http://www.inkscape.org/) -->

<svg
   xmlns:dc="http://purl.org/dc/elements/1.1/"
   xmlns:cc="http://creativecommons.org/ns#"
   xmlns:rdf="http://www.w3.org/1999/02/22-rdf-syntax-ns#"
   xmlns:svg="http://www.w3.org/2000/svg"
   xmlns="http://www.w3.org/2000/svg"
   viewBox="0 0 5449.6777 1865.3453"
   style="width: 100%; max-width: 450px; margin: 55px auto;"
>
  <defs
     id="defs2">
    <linearGradient
       id="linearGradient943">
      <stop
         style="stop-color:#fb604e;stop-opacity:1;"
         offset="0"
         id="stop939" />
      <stop
         style="stop-color:#8a120f;stop-opacity:1"
         offset="1"
         id="stop941" />
    </linearGradient>
    <linearGradient
       xlink:href="#linearGradient943"
       id="linearGradient2498"
       gradientUnits="userSpaceOnUse"
       x1="17.766144"
       y1="614.32269"
       x2="-28.29394"
       y2="613.21643" />
    <linearGradient
       xlink:href="#linearGradient943"
       id="linearGradient2500"
       gradientUnits="userSpaceOnUse"
       x1="126.93179"
       y1="613.33398"
       x2="201.96289"
       y2="613.33398" />
    <linearGradient
       xlink:href="#linearGradient943"
       id="linearGradient2502"
       gradientUnits="userSpaceOnUse"
       x1="218.2178"
       y1="615.229"
       x2="293.21481"
       y2="614.883" />
    <linearGradient
       xlink:href="#linearGradient943"
       id="linearGradient2504"
       gradientUnits="userSpaceOnUse"
       x1="33.935322"
       y1="608.89429"
       x2="111.19366"
       y2="608.89429" />
    <linearGradient
       xlink:href="#linearGradient943"
       id="linearGradient2506"
       gradientUnits="userSpaceOnUse"
       gradientTransform="matrix(63.916426,0,0,63.916426,-15286.383,-44811.343)"
       x1="71.679909"
       y1="614.76129"
       x2="74.329124"
       y2="584.35052" />
    <linearGradient
       xlink:href="#linearGradient943"
       id="linearGradient2508"
       gradientUnits="userSpaceOnUse"
       x1="76.764725"
       y1="576.91888"
       x2="75.893616"
       y2="564.10919" />
    <linearGradient
       xlink:href="#linearGradient943"
       id="linearGradient2510"
       gradientUnits="userSpaceOnUse"
       x1="33.935322"
       y1="608.89429"
       x2="111.19366"
       y2="608.89429" />
    <linearGradient
       xlink:href="#linearGradient943"
       id="linearGradient2512"
       gradientUnits="userSpaceOnUse"
       gradientTransform="matrix(63.916426,0,0,63.916426,-15286.383,-44811.343)"
       x1="71.679909"
       y1="614.76129"
       x2="74.329124"
       y2="584.35052" />
    <linearGradient
       xlink:href="#linearGradient943"
       id="linearGradient2514"
       gradientUnits="userSpaceOnUse"
       x1="76.764725"
       y1="576.91888"
       x2="75.893616"
       y2="564.10919" />
    <linearGradient
       xlink:href="#linearGradient943"
       id="linearGradient2516"
       gradientUnits="userSpaceOnUse"
       x1="-17.753162"
       y1="617.05884"
       x2="-28.570513"
       y2="616.53528" />
    <linearGradient
       xlink:href="#linearGradient943"
       id="linearGradient2518"
       gradientUnits="userSpaceOnUse"
       x1="201.93069"
       y1="614.72198"
       x2="126.95608"
       y2="612.89972" />
    <linearGradient
       xlink:href="#linearGradient943"
       id="linearGradient2520"
       gradientUnits="userSpaceOnUse"
       x1="218.2178"
       y1="615.229"
       x2="293.21481"
       y2="614.883" />
  </defs>
  <g
     id="layer1"
     transform="translate(-3033.3561,7310.4026)">
    <g
       style="stroke-width:0.21218343"
       transform="matrix(4.7129033,0,0,4.7129033,1463.461,29766.169)"
       id="layer1-8"
    />
    <path
       style="opacity:1;fill:#e32201;fill-opacity:1;stroke:none;stroke-width:0.01852199;stroke-linecap:round;stroke-linejoin:round;stroke-miterlimit:4;stroke-dasharray:none;stroke-dashoffset:0;stroke-opacity:1"
       d=""
       id="path1110"
        />
    <g
       style="stroke-width:0.21218343"
       transform="matrix(4.7129033,0,0,4.7129033,25163.588,27112.743)"
       id="layer1-8-4"
      />
    <path
       style="opacity:1;fill:#e32201;fill-opacity:1;stroke:none;stroke-width:0.01852198;stroke-linecap:round;stroke-linejoin:round;stroke-miterlimit:4;stroke-dasharray:none;stroke-dashoffset:0;stroke-opacity:1"
       d=""
       id="path1110-9"
        />
    <g
       id="text3034"
       style="font-style:normal;font-variant:normal;font-weight:normal;font-stretch:normal;font-size:262.51071167px;line-height:1.25;font-family:'Showcard Gothic';-inkscape-font-specification:'Showcard Gothic';letter-spacing:19.38862991px;word-spacing:0px;fill:#000000;fill-opacity:1;stroke:none;stroke-width:0.26458332"
       transform="matrix(1.0468551,0,0,0.95524204,-622.21477,-2094.7958)"
       aria-label="ORGANIC COFFEE CHERRIES">
      <g
         style="fill:#674b42;fill-opacity:1"
         id="g3770">
        <path
           d="m 4176.514,-3705.275 q 39.9919,0 68.704,28.9685 28.8403,28.9685 28.8403,70.6267 0,41.2736 -28.4558,69.8575 -28.3275,28.584 -68.8321,28.584 -42.4273,0 -70.4985,-29.353 -28.0712,-29.353 -28.0712,-69.7294 0,-27.0458 13.0743,-49.7335 13.0742,-22.6877 35.8901,-35.8902 22.944,-13.3306 49.3489,-13.3306 z m -0.3845,35.1211 q -26.1485,0 -43.9654,18.2014 -17.8169,18.2014 -17.8169,46.2727 0,31.2756 22.4313,49.4771 17.4324,14.2278 39.9919,14.2278 25.5076,0 43.4527,-18.4577 17.9451,-18.4578 17.9451,-45.5036 0,-26.9176 -18.0733,-45.5036 -18.0732,-18.7141 -43.9654,-18.7141 z"
           style="font-style:normal;font-variant:normal;font-weight:bold;font-stretch:normal;font-family:'Century Gothic';-inkscape-font-specification:'Century Gothic Bold';letter-spacing:22.15843201px;word-spacing:22.15843201px;fill:#674b42;fill-opacity:1;stroke-width:0.26458332"
           id="path3704"
            />
        <path
           d="m 4332.4914,-3700.5324 h 38.0692 q 31.2757,0 44.4781,5.6399 13.3306,5.5117 21.4059,18.4578 8.0753,12.9461 8.0753,30.6348 0,18.586 -8.9725,31.1475 -8.8444,12.4334 -26.7894,18.8423 l 44.6063,83.8291 h -39.2228 l -42.4273,-79.8555 h -3.3327 v 79.8555 h -35.8901 z m 35.8901,73.703 h 11.2798 q 17.176,0 23.585,-4.4863 6.5371,-4.4862 6.5371,-14.8687 0,-6.1526 -3.2045,-10.6389 -3.2045,-4.6144 -8.588,-6.5371 -5.3835,-2.0509 -19.7396,-2.0509 h -9.8698 z"
           style="font-style:normal;font-variant:normal;font-weight:bold;font-stretch:normal;font-family:'Century Gothic';-inkscape-font-specification:'Century Gothic Bold';letter-spacing:22.15843201px;word-spacing:22.15843201px;fill:#674b42;fill-opacity:1;stroke-width:0.26458332"
           id="path3706"
            />
        <path
           d="m 4678.5583,-3669.7694 -25.2512,24.9949 q -23.9695,-25.3794 -55.8861,-25.3794 -27.8149,0 -46.6572,18.4578 -18.7141,18.4578 -18.7141,44.8626 0,27.3022 19.4832,46.2727 19.4832,18.9705 48.0671,18.9705 18.586,0 31.2757,-7.8189 12.8179,-7.819 20.6369,-24.4822 h -54.6043 v -33.7111 h 94.8525 l 0.2563,7.9471 q 0,24.7385 -12.8179,46.9135 -12.8179,22.175 -33.1983,33.8393 -20.3805,11.6643 -47.8108,11.6643 -29.353,0 -52.4253,-12.6898 -22.944,-12.8179 -36.4028,-36.4028 -13.3306,-23.585 -13.3306,-50.8871 0,-37.4283 24.7385,-65.115 29.353,-32.942 76.3947,-32.942 24.6104,0 46.0163,9.1007 18.0733,7.6908 35.3774,26.4049 z"
           style="font-style:normal;font-variant:normal;font-weight:bold;font-stretch:normal;font-family:'Century Gothic';-inkscape-font-specification:'Century Gothic Bold';letter-spacing:22.15843201px;word-spacing:22.15843201px;fill:#674b42;fill-opacity:1;stroke-width:0.26458332"
           id="path3708"
            />
        <path
           d="m 4804.5418,-3700.5324 h 36.4028 l 72.5494,188.5514 h -37.3001 l -14.7406,-38.8382 h -76.9074 l -15.3815,38.8382 h -37.3001 z m 18.4578,49.9899 -25.1231,64.7304 h 50.118 z"
           style="font-style:normal;font-variant:normal;font-weight:bold;font-stretch:normal;font-family:'Century Gothic';-inkscape-font-specification:'Century Gothic Bold';letter-spacing:22.15843201px;word-spacing:22.15843201px;fill:#674b42;fill-opacity:1;stroke-width:0.26458332"
           id="path3710"
          />
        <path
           d="m 4963.7237,-3700.5324 h 34.3519 l 80.881,124.0774 v -124.0774 h 35.8902 v 188.5514 h -34.4802 l -80.7528,-123.6927 v 123.6927 h -35.8901 z"
           style="font-style:normal;font-variant:normal;font-weight:bold;font-stretch:normal;font-family:'Century Gothic';-inkscape-font-specification:'Century Gothic Bold';letter-spacing:22.15843201px;word-spacing:22.15843201px;fill:#674b42;fill-opacity:1;stroke-width:0.26458332"
           id="path3712"
           />
        <path
           d="m 5177.5098,-3700.5324 h 35.6338 v 188.5514 h -35.6338 z"
           style="font-style:normal;font-variant:normal;font-weight:bold;font-stretch:normal;font-family:'Century Gothic';-inkscape-font-specification:'Century Gothic Bold';letter-spacing:22.15843201px;word-spacing:22.15843201px;fill:#674b42;fill-opacity:1;stroke-width:0.26458332"
           id="path3714"
      />
        <path
           d="m 5448.8483,-3667.334 -25.1231,23.9695 q -25.6358,-27.0458 -57.6806,-27.0458 -27.0458,0 -45.6317,18.4578 -18.4578,18.4578 -18.4578,45.5036 0,18.8423 8.2034,33.4547 8.2035,14.6124 23.2005,22.9441 14.9969,8.3316 33.3265,8.3316 15.6379,0 28.5839,-5.7681 12.9461,-5.8962 28.4558,-21.2777 l 24.354,25.3795 q -20.8932,20.3804 -39.4791,28.3275 -18.586,7.819 -42.4273,7.819 -43.9654,0 -72.0366,-27.8149 -27.9431,-27.943 -27.9431,-71.5239 0,-28.1994 12.6898,-50.118 12.8179,-21.9186 36.531,-35.2493 23.8413,-13.3306 51.2716,-13.3306 23.3286,0 44.8627,9.8698 21.6622,9.8698 37.3001,28.0712 z"
           style="font-style:normal;font-variant:normal;font-weight:bold;font-stretch:normal;font-family:'Century Gothic';-inkscape-font-specification:'Century Gothic Bold';letter-spacing:22.15843201px;word-spacing:22.15843201px;fill:#674b42;fill-opacity:1;stroke-width:0.26458332"
           id="path3716"
           />
        <path
           d="m 5793.2158,-3667.334 -25.1231,23.9695 q -25.6358,-27.0458 -57.6805,-27.0458 -27.0458,0 -45.6318,18.4578 -18.4578,18.4578 -18.4578,45.5036 0,18.8423 8.2035,33.4547 8.2035,14.6124 23.2004,22.9441 14.997,8.3316 33.3266,8.3316 15.6378,0 28.5839,-5.7681 12.9461,-5.8962 28.4557,-21.2777 l 24.3541,25.3795 q -20.8932,20.3804 -39.4792,28.3275 -18.586,7.819 -42.4273,7.819 -43.9654,0 -72.0366,-27.8149 -27.943,-27.943 -27.943,-71.5239 0,-28.1994 12.6897,-50.118 12.8179,-21.9186 36.531,-35.2493 23.8413,-13.3306 51.2717,-13.3306 23.3285,0 44.8626,9.8698 21.6623,9.8698 37.3001,28.0712 z"
           style="font-style:normal;font-variant:normal;font-weight:bold;font-stretch:normal;font-family:'Century Gothic';-inkscape-font-specification:'Century Gothic Bold';letter-spacing:22.15843201px;word-spacing:22.15843201px;fill:#674b42;fill-opacity:1;stroke-width:0.26458332"
           id="path3718"
           />
        <path
           d="m 5935.7344,-3705.275 q 39.9918,0 68.7039,28.9685 28.8403,28.9685 28.8403,70.6267 0,41.2736 -28.4557,69.8575 -28.3276,28.584 -68.8322,28.584 -42.4272,0 -70.4985,-29.353 -28.0712,-29.353 -28.0712,-69.7294 0,-27.0458 13.0743,-49.7335 13.0743,-22.6877 35.8901,-35.8902 22.9441,-13.3306 49.349,-13.3306 z m -0.3846,35.1211 q -26.1485,0 -43.9654,18.2014 -17.8169,18.2014 -17.8169,46.2727 0,31.2756 22.4314,49.4771 17.4323,14.2278 39.9918,14.2278 25.5077,0 43.4527,-18.4577 17.9451,-18.4578 17.9451,-45.5036 0,-26.9176 -18.0732,-45.5036 -18.0733,-18.7141 -43.9655,-18.7141 z"
           style="font-style:normal;font-variant:normal;font-weight:bold;font-stretch:normal;font-family:'Century Gothic';-inkscape-font-specification:'Century Gothic Bold';letter-spacing:22.15843201px;word-spacing:22.15843201px;fill:#674b42;fill-opacity:1;stroke-width:0.26458332"
           id="path3720"
            />
        <path
           d="m 6089.789,-3700.5324 h 93.5707 v 34.9929 h -58.0651 v 34.2238 h 58.0651 v 34.4802 h -58.0651 v 84.8545 h -35.5056 z"
           style="font-style:normal;font-variant:normal;font-weight:bold;font-stretch:normal;font-family:'Century Gothic';-inkscape-font-specification:'Century Gothic Bold';letter-spacing:22.15843201px;word-spacing:22.15843201px;fill:#674b42;fill-opacity:1;stroke-width:0.26458332"
           id="path3722"
            />
        <path
           d="m 6238.0756,-3700.5324 h 93.5707 v 34.9929 h -58.0651 v 34.2238 h 58.0651 v 34.4802 h -58.0651 v 84.8545 h -35.5056 z"
           style="font-style:normal;font-variant:normal;font-weight:bold;font-stretch:normal;font-family:'Century Gothic';-inkscape-font-specification:'Century Gothic Bold';letter-spacing:22.15843201px;word-spacing:22.15843201px;fill:#674b42;fill-opacity:1;stroke-width:0.26458332"
           id="path3724"
           />
        <path
           d="m 6385.9777,-3700.5324 h 102.9278 v 35.1211 h -67.294 v 34.0956 h 67.294 v 34.4802 h -67.294 v 49.6053 h 67.294 v 35.2492 h -102.9278 z"
           style="font-style:normal;font-variant:normal;font-weight:bold;font-stretch:normal;font-family:'Century Gothic';-inkscape-font-specification:'Century Gothic Bold';letter-spacing:22.15843201px;word-spacing:22.15843201px;fill:#674b42;fill-opacity:1;stroke-width:0.26458332"
           id="path3726"
            />
        <path
           d="m 6544.5187,-3700.5324 h 102.9278 v 35.1211 h -67.294 v 34.0956 h 67.294 v 34.4802 h -67.294 v 49.6053 h 67.294 v 35.2492 h -102.9278 z"
           style="font-style:normal;font-variant:normal;font-weight:bold;font-stretch:normal;font-family:'Century Gothic';-inkscape-font-specification:'Century Gothic Bold';letter-spacing:22.15843201px;word-spacing:22.15843201px;fill:#674b42;fill-opacity:1;stroke-width:0.26458332"
           id="path3728"
         />
      </g>
      <g
         style="fill:#fb604e;fill-opacity:1"
         id="g3755">
        <path
           d="m 6993.8649,-3667.334 -25.1231,23.9695 q -25.6358,-27.0458 -57.6806,-27.0458 -27.0458,0 -45.6317,18.4578 -18.4578,18.4578 -18.4578,45.5036 0,18.8423 8.2034,33.4547 8.2035,14.6124 23.2005,22.9441 14.9969,8.3316 33.3265,8.3316 15.6379,0 28.5839,-5.7681 12.9461,-5.8962 28.4558,-21.2777 l 24.354,25.3795 q -20.8932,20.3804 -39.4791,28.3275 -18.586,7.819 -42.4273,7.819 -43.9654,0 -72.0366,-27.8149 -27.9431,-27.943 -27.9431,-71.5239 0,-28.1994 12.6898,-50.118 12.8179,-21.9186 36.531,-35.2493 23.8413,-13.3306 51.2716,-13.3306 23.3286,0 44.8627,9.8698 21.6622,9.8698 37.3001,28.0712 z"
           style="font-style:normal;font-variant:normal;font-weight:bold;font-stretch:normal;font-family:'Century Gothic';-inkscape-font-specification:'Century Gothic Bold';letter-spacing:22.15843201px;word-spacing:22.15843201px;fill:#fb604e;fill-opacity:1;stroke-width:0.26458332"
           id="path3730"
           />
        <path
           d="m 7047.1708,-3700.5324 h 36.4028 v 71.1394 h 63.0641 v -71.1394 h 36.2747 v 188.5514 h -36.2747 v -82.6754 h -63.0641 v 82.6754 h -36.4028 z"
           style="font-style:normal;font-variant:normal;font-weight:bold;font-stretch:normal;font-family:'Century Gothic';-inkscape-font-specification:'Century Gothic Bold';letter-spacing:22.15843201px;word-spacing:22.15843201px;fill:#fb604e;fill-opacity:1;stroke-width:0.26458332"
           id="path3732"
          />
        <path
           d="m 7248.0109,-3700.5324 h 102.9278 v 35.1211 h -67.294 v 34.0956 h 67.294 v 34.4802 h -67.294 v 49.6053 h 67.294 v 35.2492 h -102.9278 z"
           style="font-style:normal;font-variant:normal;font-weight:bold;font-stretch:normal;font-family:'Century Gothic';-inkscape-font-specification:'Century Gothic Bold';letter-spacing:22.15843201px;word-spacing:22.15843201px;fill:#fb604e;fill-opacity:1;stroke-width:0.26458332"
           id="path3734"
           
           />
        <path
           d="m 7408.8591,-3700.5324 h 38.0692 q 31.2757,0 44.4781,5.6399 13.3307,5.5117 21.4059,18.4578 8.0753,12.9461 8.0753,30.6348 0,18.586 -8.9725,31.1475 -8.8444,12.4334 -26.7894,18.8423 l 44.6063,83.8291 h -39.2228 l -42.4273,-79.8555 h -3.3326 v 79.8555 h -35.8902 z m 35.8902,73.703 h 11.2797 q 17.176,0 23.585,-4.4863 6.5371,-4.4862 6.5371,-14.8687 0,-6.1526 -3.2045,-10.6389 -3.2044,-4.6144 -8.588,-6.5371 -5.3835,-2.0509 -19.7395,-2.0509 h -9.8698 z"
           style="font-style:normal;font-variant:normal;font-weight:bold;font-stretch:normal;font-family:'Century Gothic';-inkscape-font-specification:'Century Gothic Bold';letter-spacing:22.15843201px;word-spacing:22.15843201px;fill:#fb604e;fill-opacity:1;stroke-width:0.26458332"
           id="path3736"
          />
        <path
           d="m 7583.2942,-3700.5324 h 38.0692 q 31.2757,0 44.4781,5.6399 13.3306,5.5117 21.4059,18.4578 8.0753,12.9461 8.0753,30.6348 0,18.586 -8.9725,31.1475 -8.8444,12.4334 -26.7895,18.8423 l 44.6063,83.8291 h -39.2227 l -42.4273,-79.8555 h -3.3327 v 79.8555 h -35.8901 z m 35.8901,73.703 h 11.2798 q 17.176,0 23.5849,-4.4863 6.5372,-4.4862 6.5372,-14.8687 0,-6.1526 -3.2045,-10.6389 -3.2045,-4.6144 -8.588,-6.5371 -5.3835,-2.0509 -19.7396,-2.0509 h -9.8698 z"
           style="font-style:normal;font-variant:normal;font-weight:bold;font-stretch:normal;font-family:'Century Gothic';-inkscape-font-specification:'Century Gothic Bold';letter-spacing:22.15843201px;word-spacing:22.15843201px;fill:#fb604e;fill-opacity:1;stroke-width:0.26458332"
           id="path3738"
           />
        <path
           d="m 7752.7303,-3700.5324 h 35.6337 v 188.5514 h -35.6337 z"
           style="font-style:normal;font-variant:normal;font-weight:bold;font-stretch:normal;font-family:'Century Gothic';-inkscape-font-specification:'Century Gothic Bold';letter-spacing:22.15843201px;word-spacing:22.15843201px;fill:#fb604e;fill-opacity:1;stroke-width:0.26458332"
           id="path3740"
          />
        <path
           d="m 7850.8991,-3700.5324 h 102.9278 v 35.1211 h -67.294 v 34.0956 h 67.294 v 34.4802 h -67.294 v 49.6053 h 67.294 v 35.2492 h -102.9278 z"
           style="font-style:normal;font-variant:normal;font-weight:bold;font-stretch:normal;font-family:'Century Gothic';-inkscape-font-specification:'Century Gothic Bold';letter-spacing:22.15843201px;word-spacing:22.15843201px;fill:#fb604e;fill-opacity:1;stroke-width:0.26458332"
           id="path3742"
           />
        <path
           d="m 8108.1377,-3674.8965 -26.533,23.4567 q -13.9716,-19.4832 -28.4558,-19.4832 -7.0498,0 -11.5361,3.8454 -4.4863,3.7172 -4.4863,8.4598 0,4.7426 3.2045,8.9725 4.3581,5.6399 26.2767,24.2259 20.5087,17.176 24.8667,21.6622 10.8953,11.0234 15.3815,21.1496 4.6145,9.9979 4.6145,21.9186 0,23.2004 -16.0224,38.3255 -16.0224,15.1252 -41.7864,15.1252 -20.1241,0 -35.121,-9.8698 -14.8688,-9.8698 -25.5077,-31.0194 l 30.1221,-18.2014 q 13.587,24.9949 31.2757,24.9949 9.2289,0 15.5097,-5.3835 6.2807,-5.3835 6.2807,-12.4334 0,-6.4089 -4.7426,-12.8179 -4.7426,-6.4089 -20.8932,-19.6114 -30.7629,-25.123 -39.7355,-38.71 -8.9725,-13.7152 -8.9725,-27.3022 0,-19.6114 14.8688,-33.5829 14.9969,-14.0997 36.9155,-14.0997 14.0997,0 26.7894,6.5372 12.818,6.5371 27.6867,23.8413 z"
           style="font-style:normal;font-variant:normal;font-weight:bold;font-stretch:normal;font-family:'Century Gothic';-inkscape-font-specification:'Century Gothic Bold';letter-spacing:22.15843201px;word-spacing:22.15843201px;fill:#fb604e;fill-opacity:1;stroke-width:0.26458332"
           id="path3744"
            />
      </g>
    </g>
    <g
       transform="translate(1918.2279,-6774.214)"
       id="g3196"
      >
      <g
         transform="translate(4218.4579,7623.4004)"
         id="g3076"
        >
        <g
           transform="matrix(0.26458333,0,0,0.26458333,-563.7354,1044.2302)"
           style="fill:#e32201;fill-opacity:1;stroke:none;stroke-width:0.87323093;stroke-opacity:1"
           id="g3038" />
        <g
           transform="matrix(0.26458333,0,0,0.26458333,-563.7354,1044.2302)"
           style="fill:#e32201;fill-opacity:1;stroke:none;stroke-width:0.87323093;stroke-opacity:1"
           id="g3040" />
        <g
           transform="matrix(0.26458333,0,0,0.26458333,-563.7354,1044.2302)"
           style="fill:#e32201;fill-opacity:1;stroke:none;stroke-width:0.87323093;stroke-opacity:1"
           id="g3042" />
        <g
           transform="matrix(0.26458333,0,0,0.26458333,-563.7354,1044.2302)"
           style="fill:#e32201;fill-opacity:1;stroke:none;stroke-width:0.87323093;stroke-opacity:1"
           id="g3044" />
        <g
           transform="matrix(0.26458333,0,0,0.26458333,-563.7354,1044.2302)"
           style="fill:#e32201;fill-opacity:1;stroke:none;stroke-width:0.87323093;stroke-opacity:1"
           id="g3046" />
        <g
           transform="matrix(0.26458333,0,0,0.26458333,-563.7354,1044.2302)"
           style="fill:#e32201;fill-opacity:1;stroke:none;stroke-width:0.87323093;stroke-opacity:1"
           id="g3048" />
        <g
           transform="matrix(0.26458333,0,0,0.26458333,-563.7354,1044.2302)"
           style="fill:#e32201;fill-opacity:1;stroke:none;stroke-width:0.87323093;stroke-opacity:1"
           id="g3050" />
        <g
           transform="matrix(0.26458333,0,0,0.26458333,-563.7354,1044.2302)"
           style="fill:#e32201;fill-opacity:1;stroke:none;stroke-width:0.87323093;stroke-opacity:1"
           id="g3052" />
        <g
           transform="matrix(0.26458333,0,0,0.26458333,-563.7354,1044.2302)"
           style="fill:#e32201;fill-opacity:1;stroke:none;stroke-width:0.87323093;stroke-opacity:1"
           id="g3054" />
        <g
           transform="matrix(0.26458333,0,0,0.26458333,-563.7354,1044.2302)"
           style="fill:#e32201;fill-opacity:1;stroke:none;stroke-width:0.87323093;stroke-opacity:1"
           id="g3056" />
        <g
           transform="matrix(0.26458333,0,0,0.26458333,-563.7354,1044.2302)"
           style="fill:#e32201;fill-opacity:1;stroke:none;stroke-width:0.87323093;stroke-opacity:1"
           id="g3058" />
        <g
           transform="matrix(0.26458333,0,0,0.26458333,-563.7354,1044.2302)"
           style="fill:#e32201;fill-opacity:1;stroke:none;stroke-width:0.87323093;stroke-opacity:1"
           id="g3060" />
        <g
           transform="matrix(0.26458333,0,0,0.26458333,-563.7354,1044.2302)"
           style="fill:#e32201;fill-opacity:1;stroke:none;stroke-width:0.87323093;stroke-opacity:1"
           id="g3062" />
        <g
           transform="matrix(0.26458333,0,0,0.26458333,-563.7354,1044.2302)"
           style="fill:#e32201;fill-opacity:1;stroke:none;stroke-width:0.87323093;stroke-opacity:1"
           id="g3064" />
        <g
           transform="matrix(0.26458333,0,0,0.26458333,-563.7354,1044.2302)"
           style="fill:#e32201;fill-opacity:1;stroke:none;stroke-width:0.87323093;stroke-opacity:1"
           id="g3066" />
        <flowRoot
           transform="matrix(0.26458333,0,0,0.26458333,-5143.7417,2211.7211)"
           style="font-style:normal;font-weight:normal;font-size:40px;line-height:1.25;font-family:sans-serif;letter-spacing:0px;word-spacing:0px;fill:#000000;fill-opacity:1;stroke:none"
           id="flowRoot3074"
           xml:space="preserve"><flowRegion
             id="flowRegion3070"><rect
               y="-591.76605"
               x="-67.14286"
               height="127.14286"
               width="48.57143"
               id="rect3068" /></flowRegion><flowPara
             id="flowPara3072" /></flowRoot>      </g>
      <g
         transform="translate(4162.3313,3975.1713)"
         id="g3126"
         >
        <g
           transform="matrix(0.26458333,0,0,0.26458333,-563.7354,1044.2302)"
           style="fill:#e32201;fill-opacity:1;stroke:none;stroke-width:0.87323093;stroke-opacity:1"
           id="g3078" />
        <g
           transform="matrix(0.26458333,0,0,0.26458333,-563.7354,1044.2302)"
           style="fill:#e32201;fill-opacity:1;stroke:none;stroke-width:0.87323093;stroke-opacity:1"
           id="g3080" />
        <g
           transform="matrix(0.26458333,0,0,0.26458333,-563.7354,1044.2302)"
           style="fill:#e32201;fill-opacity:1;stroke:none;stroke-width:0.87323093;stroke-opacity:1"
           id="g3082" />
        <g
           transform="matrix(0.26458333,0,0,0.26458333,-563.7354,1044.2302)"
           style="fill:#e32201;fill-opacity:1;stroke:none;stroke-width:0.87323093;stroke-opacity:1"
           id="g3084" />
        <g
           transform="matrix(0.26458333,0,0,0.26458333,-563.7354,1044.2302)"
           style="fill:#e32201;fill-opacity:1;stroke:none;stroke-width:0.87323093;stroke-opacity:1"
           id="g3086" />
        <g
           transform="matrix(0.26458333,0,0,0.26458333,-563.7354,1044.2302)"
           style="fill:#e32201;fill-opacity:1;stroke:none;stroke-width:0.87323093;stroke-opacity:1"
           id="g3088" />
        <g
           transform="matrix(0.26458333,0,0,0.26458333,-563.7354,1044.2302)"
           style="fill:#e32201;fill-opacity:1;stroke:none;stroke-width:0.87323093;stroke-opacity:1"
           id="g3090" />
        <g
           transform="matrix(0.26458333,0,0,0.26458333,-563.7354,1044.2302)"
           style="fill:#e32201;fill-opacity:1;stroke:none;stroke-width:0.87323093;stroke-opacity:1"
           id="g3092" />
        <g
           transform="matrix(0.26458333,0,0,0.26458333,-563.7354,1044.2302)"
           style="fill:#e32201;fill-opacity:1;stroke:none;stroke-width:0.87323093;stroke-opacity:1"
           id="g3094" />
        <g
           transform="matrix(0.26458333,0,0,0.26458333,-563.7354,1044.2302)"
           style="fill:#e32201;fill-opacity:1;stroke:none;stroke-width:0.87323093;stroke-opacity:1"
           id="g3096" />
        <g
           transform="matrix(0.26458333,0,0,0.26458333,-563.7354,1044.2302)"
           style="fill:#e32201;fill-opacity:1;stroke:none;stroke-width:0.87323093;stroke-opacity:1"
           id="g3098" />
        <g
           transform="matrix(0.26458333,0,0,0.26458333,-563.7354,1044.2302)"
           style="fill:#e32201;fill-opacity:1;stroke:none;stroke-width:0.87323093;stroke-opacity:1"
           id="g3100" />
        <g
           transform="matrix(0.26458333,0,0,0.26458333,-563.7354,1044.2302)"
           style="fill:#e32201;fill-opacity:1;stroke:none;stroke-width:0.87323093;stroke-opacity:1"
           id="g3102" />
        <g
           transform="matrix(0.26458333,0,0,0.26458333,-563.7354,1044.2302)"
           style="fill:#e32201;fill-opacity:1;stroke:none;stroke-width:0.87323093;stroke-opacity:1"
           id="g3104" />
        <g
           transform="matrix(0.26458333,0,0,0.26458333,-563.7354,1044.2302)"
           style="fill:#e32201;fill-opacity:1;stroke:none;stroke-width:0.87323093;stroke-opacity:1"
           id="g3106" />
        <flowRoot
           transform="matrix(0.26458333,0,0,0.26458333,-5143.7417,2211.7211)"
           style="font-style:normal;font-weight:normal;font-size:40px;line-height:1.25;font-family:sans-serif;letter-spacing:0px;word-spacing:0px;fill:#000000;fill-opacity:1;stroke:none"
           id="flowRoot3114"
           xml:space="preserve"><flowRegion
             id="flowRegion3110"><rect
               y="-591.76605"
               x="-67.14286"
               height="127.14286"
               width="48.57143"
               id="rect3108" /></flowRegion><flowPara
             id="flowPara3112" /></flowRoot>        <g
           id="g3124"
           transform="matrix(1.4930483,0,0,1.4930483,-2700.9307,-4054.3323)"
           style="fill:#fb604e;fill-opacity:1;stroke-width:0.66977066">
          <g
             id="g3122"
             transform="matrix(11.326629,0,0,11.326629,96.266374,-6717.9453)"
             style="fill:#fb604e;fill-opacity:1;stroke-width:0.03960514">
            <path
               style="font-style:normal;font-variant:normal;font-weight:bold;font-stretch:normal;font-size:105.83333588px;line-height:1.25;font-family:'Century Gothic';-inkscape-font-specification:'Century Gothic Bold';letter-spacing:2.64583325px;word-spacing:0px;fill:url(#linearGradient2498);fill-opacity:1;stroke:none;stroke-width:0.01047886"
               d="m -28.378162,651.00772 c 9.607791,-0.0583 10.51946,-1.47959 10.625,-8 v -25.94891 l 26.5078119,33.94891 c 0,0 11.9211481,1.03871 8.8784931,-4.93369 -8.1323191,-11.75217 -16.2674201,-23.50241 -24.3980241,-35.25576 8.310856,-10.6095 16.623865,-21.21732 24.9355471,-31.82617 0,0 -10.2901085,-2.08288 -16.0509941,4.71151 -6.624314,8.40082 -13.2480559,16.80209 -19.8728339,25.20255 V 578.9921 c -6.985209,-0.77688 -13.20886,-0.7922 -10.625,8 z"
               id="path3116"
                />
            <path
               style="font-style:normal;font-variant:normal;font-weight:bold;font-stretch:normal;font-size:105.83333588px;line-height:1.25;font-family:'Century Gothic';-inkscape-font-specification:'Century Gothic Bold';letter-spacing:2.64583325px;word-spacing:0px;fill:url(#linearGradient2500);fill-opacity:1;stroke:none;stroke-width:0.01047886"
               d="m 164.57522,575.35868 c -19.98203,-0.61296 -38.40545,17.49062 -37.61914,37.54101 -0.53825,18.83516 14.63565,36.68421 33.68359,37.98047 14.59249,2.31211 30.50216,-4.48518 37.04297,-18.13867 2.9733,-5.48924 4.52788,-11.77098 4.24805,-18.01953 H 167.626 c -0.6919,7.7396 3.40876,9.60891 9,9.5918 l 13.3719,0.28614 c -4.03861,10.50623 -16.2731,18.2515 -27.03596,16.53612 -15.77065,-1.20961 -28.34194,-17.31412 -25.09571,-32.93554 2.21767,-15.04859 18.34089,-25.31859 33.01172,-22.3086 6.62129,0.99352 12.73621,4.3681 17.49805,9.01758 0,0 7.78938,-6.58889 5.3971,-9.4817 -8.2717,-7.10065 -18.67718,-10.34072 -29.19788,-10.06908 z"
               id="path3118"
             />
            <path
               style="font-style:normal;font-variant:normal;font-weight:bold;font-stretch:normal;font-size:105.83333588px;line-height:1.25;font-family:'Century Gothic';-inkscape-font-specification:'Century Gothic Bold';letter-spacing:2.64583325px;word-spacing:0px;fill:url(#linearGradient2502);fill-opacity:1;stroke:none;stroke-width:0.01047886"
               d="m 254.58303,575.40283 c -20.48053,0.13213 -38.12403,19.37879 -36.36523,39.82617 0.35439,20.24861 19.23217,37.88063 39.65234,35.95117 20.81719,-0.281 37.96466,-21.00686 35.0918,-41.60742 -1.34959,-19.0282 -19.14313,-35.36103 -38.37891,-34.16992 z m 1.07617,10.14062 c 16.26846,-0.58381 29.57068,15.98616 26.7768,31.7715 -1.33387,15.25797 -17.3537,27.17821 -32.37445,23.30858 -13.58365,-2.56203 -23.12885,-16.4706 -21.18946,-30.06445 0.69016,-13.72435 12.90376,-25.52284 26.78711,-25.01563 z"
               id="path3120"
               />
          </g>
        </g>
      </g>
      <g
         id="g3194"
         transform="translate(4162.3313,3975.1713)">
        <g
           id="g3128"
           style="fill:#e32201;fill-opacity:1;stroke:none;stroke-width:0.87323093;stroke-opacity:1"
           transform="matrix(0.26458333,0,0,0.26458333,-563.7354,1044.2302)" />
        <g
           id="g3130"
           style="fill:#e32201;fill-opacity:1;stroke:none;stroke-width:0.87323093;stroke-opacity:1"
           transform="matrix(0.26458333,0,0,0.26458333,-563.7354,1044.2302)" />
        <g
           id="g3132"
           style="fill:#e32201;fill-opacity:1;stroke:none;stroke-width:0.87323093;stroke-opacity:1"
           transform="matrix(0.26458333,0,0,0.26458333,-563.7354,1044.2302)" />
        <g
           id="g3134"
           style="fill:#e32201;fill-opacity:1;stroke:none;stroke-width:0.87323093;stroke-opacity:1"
           transform="matrix(0.26458333,0,0,0.26458333,-563.7354,1044.2302)" />
        <g
           id="g3136"
           style="fill:#e32201;fill-opacity:1;stroke:none;stroke-width:0.87323093;stroke-opacity:1"
           transform="matrix(0.26458333,0,0,0.26458333,-563.7354,1044.2302)" />
        <g
           id="g3138"
           style="fill:#e32201;fill-opacity:1;stroke:none;stroke-width:0.87323093;stroke-opacity:1"
           transform="matrix(0.26458333,0,0,0.26458333,-563.7354,1044.2302)" />
        <g
           id="g3140"
           style="fill:#e32201;fill-opacity:1;stroke:none;stroke-width:0.87323093;stroke-opacity:1"
           transform="matrix(0.26458333,0,0,0.26458333,-563.7354,1044.2302)" />
        <g
           id="g3142"
           style="fill:#e32201;fill-opacity:1;stroke:none;stroke-width:0.87323093;stroke-opacity:1"
           transform="matrix(0.26458333,0,0,0.26458333,-563.7354,1044.2302)" />
        <g
           id="g3144"
           style="fill:#e32201;fill-opacity:1;stroke:none;stroke-width:0.87323093;stroke-opacity:1"
           transform="matrix(0.26458333,0,0,0.26458333,-563.7354,1044.2302)" />
        <g
           id="g3146"
           style="fill:#e32201;fill-opacity:1;stroke:none;stroke-width:0.87323093;stroke-opacity:1"
           transform="matrix(0.26458333,0,0,0.26458333,-563.7354,1044.2302)" />
        <g
           id="g3148"
           style="fill:#e32201;fill-opacity:1;stroke:none;stroke-width:0.87323093;stroke-opacity:1"
           transform="matrix(0.26458333,0,0,0.26458333,-563.7354,1044.2302)" />
        <g
           id="g3150"
           style="fill:#e32201;fill-opacity:1;stroke:none;stroke-width:0.87323093;stroke-opacity:1"
           transform="matrix(0.26458333,0,0,0.26458333,-563.7354,1044.2302)" />
        <g
           id="g3152"
           style="fill:#e32201;fill-opacity:1;stroke:none;stroke-width:0.87323093;stroke-opacity:1"
           transform="matrix(0.26458333,0,0,0.26458333,-563.7354,1044.2302)" />
        <g
           id="g3154"
           style="fill:#e32201;fill-opacity:1;stroke:none;stroke-width:0.87323093;stroke-opacity:1"
           transform="matrix(0.26458333,0,0,0.26458333,-563.7354,1044.2302)" />
        <g
           id="g3156"
           style="fill:#e32201;fill-opacity:1;stroke:none;stroke-width:0.87323093;stroke-opacity:1"
           transform="matrix(0.26458333,0,0,0.26458333,-563.7354,1044.2302)" />
        <flowRoot
           xml:space="preserve"
           id="flowRoot3164"
           style="font-style:normal;font-weight:normal;font-size:40px;line-height:1.25;font-family:sans-serif;letter-spacing:0px;word-spacing:0px;fill:#000000;fill-opacity:1;stroke:none"
           transform="matrix(0.26458333,0,0,0.26458333,-5143.7417,2211.7211)"><flowRegion
             id="flowRegion3160"><rect
               id="rect3158"
               width="48.57143"
               height="127.14286"
               x="-67.14286"
               y="-591.76605" /></flowRegion><flowPara
             id="flowPara3162" /></flowRoot>        <g
           style="fill:#fb604e;fill-opacity:1;stroke-width:0.66977066"
           transform="matrix(1.4930483,0,0,1.4930483,-2700.9307,-4054.3323)"
           id="g3192">
          <g
             style="fill:#fb604e;fill-opacity:1;stroke-width:0.03960514"
             transform="matrix(11.326629,0,0,11.326629,96.266374,-6717.9453)"
        
             id="g3190">
            <g
               id="g3182">
              <g
                 id="g3172">
                <path
                   transform="translate(-7.1578502e-6,-4.24819e-6)"
                   style="fill:url(#linearGradient2504);fill-opacity:1;stroke-width:0.05913239"
                   d="m 68.669951,651.584 c -18.0083,-1.88787 -32.24154,-15.58807 -34.54887,-33.25502 -0.37188,-2.84739 -0.15919,-9.08092 0.40478,-11.86398 2.64133,-13.03406 11.816,-23.71694 24.40864,-28.42109 3.59329,-1.34234 7.31376,-2.11142 11.39401,-2.35535 l 2.12278,-0.12691 1.05979,-3.17219 c 1.2564,-3.76075 1.7002,-4.78332 2.4728,-5.69746 0.54168,-0.64094 0.63419,-0.67485 1.49037,-0.54646 1.21354,0.18198 3.86902,1.07261 4.69938,1.57616 0.46794,0.28375 0.66514,0.55635 0.66514,0.91943 0,0.28384 -0.49853,1.63474 -1.10784,3.002 -1.1136,2.49884 -1.83195,4.42381 -1.70009,4.55566 0.039,0.039 0.94002,0.29712 2.00224,0.57356 11.47402,2.98599 20.653679,10.48723 25.594189,20.9145 7.29495,15.39649 3.13501,33.99151 -10.067139,45.00046 -5.42622,4.52478 -11.8493,7.42662 -19.01918,8.59259 -2.42969,0.3951 -7.50999,0.55162 -9.871,0.3041 z m 8.03446,-9.20653 c 8.07994,-0.97671 14.37308,-4.17142 19.35832,-9.82725 4.129979,-4.68553 6.334629,-9.94136 7.027239,-16.75283 0.79235,-7.79239 -2.455,-16.52777 -8.342819,-22.44214 -4.66392,-4.68496 -10.73387,-7.69028 -16.57545,-8.20676 l -1.4949,-0.13218 0.55016,1.20777 c 2.44597,5.36974 3.46091,8.2452 4.3993,12.46393 1.07996,4.85519 0.76452,8.1781 -1.15601,12.17713 -1.15813,2.41156 -1.77177,3.39486 -3.8953,6.24207 -2.94477,3.9483 -3.98619,6.37657 -4.37524,10.20177 -0.31893,3.13575 -0.006,5.72318 1.33302,11.00355 0.44516,1.75612 1.26741,4.27458 1.39563,4.27458 0.0231,0 0.82222,-0.0943 1.77605,-0.20964 z m -6.96374,-0.25627 c -0.06427,-0.12853 -0.77509,-2.05627 -1.72242,-4.2502 -2.86962,-6.64575 -4.21771,-11.14323 -4.2091,-14.04223 0.006,-1.8277 0.51804,-3.8899 1.41644,-5.69827 0.79819,-1.60672 1.42121,-2.49346 4.56583,-6.49855 3.6445,-4.64177 4.30202,-7.01046 3.84873,-13.86492 -0.3985,-6.02606 -1.30855,-12.12213 -1.92127,-12.86989 -0.32851,-0.40093 -3.50889,-0.16279 -6.2988,0.47162 -9.90674,2.25283 -18.0457,9.64262 -21.23242,19.27807 -1.01873,3.08032 -1.27356,4.88486 -1.26995,8.99352 0.004,3.95747 0.18953,5.81199 0.83517,8.32448 2.61724,10.18489 11.05874,18.30151 20.90344,20.09895 2.04037,0.37253 5.419468,0.72762 5.263155,0.41501 z"
                   id="path3166"
                 />
                <path
                   style="fill:url(#linearGradient2506);fill-opacity:1;stroke-width:3.77952719"
                   d="m -10751.046,-7438.8691 c 100.099,47.0128 146.008,449.492 171.478,834.6562 28.973,438.1126 -13.054,589.51 -245.998,886.1953 -200.993,255.991 -240.814,312.6674 -291.832,415.3633 -57.422,115.5844 -90.152,247.3929 -90.536,364.2129 -0.55,185.2936 85.618,472.7622 269.034,897.5352 60.55,140.228 117.698,290.0055 121.807,298.2207 54.333,19.4491 227.358,8.9929 319.861,3.2148 -8.195,0 -60.749,-160.97 -89.202,-273.2148 -85.585,-337.5024 -105.582,-502.8866 -85.197,-703.3125 24.867,-244.4932 91.428,-399.6994 279.647,-652.0606 135.73,-181.9835 174.953,-244.8325 248.976,-398.9707 122.753,-255.6038 142.916,-467.992 73.889,-778.3184 -59.979,-269.6461 -160.21,-531.8784 -316.548,-875.093 -139.809,-29.7819 -289.924,-19.8998 -365.379,-18.4284 z"
                   id="path3168"
                   transform="matrix(0.01564545,0,0,0.01564545,239.16202,701.09276)"
                    />
                <path
               
                   id="path3170"
                   d="m 72.451291,575.56165 1.05979,-3.17219 c 1.2564,-3.76075 1.7002,-4.78332 2.4728,-5.69746 0.54168,-0.64094 0.63419,-0.67485 1.49037,-0.54646 1.21354,0.18198 3.86902,1.07261 4.69938,1.57616 0.46794,0.28375 0.66514,0.55635 0.66514,0.91943 0,0.28384 -0.49853,1.63474 -1.10784,3.002 -1.1136,2.49884 -1.83195,4.42381 -1.70009,4.55566 -3.166623,-0.50562 -7.612894,-0.63714 -7.57955,-0.63714 z"
                   style="fill:url(#linearGradient2508);fill-opacity:1;stroke-width:0.05913239" />
              </g>
              <g
                 id="g3180">
                <path
    
                   id="path3174"
                   d="m 68.669951,651.584 c -18.0083,-1.88787 -32.24154,-15.58807 -34.54887,-33.25502 -0.37188,-2.84739 -0.15919,-9.08092 0.40478,-11.86398 2.64133,-13.03406 11.816,-23.71694 24.40864,-28.42109 3.59329,-1.34234 7.31376,-2.11142 11.39401,-2.35535 l 2.12278,-0.12691 1.05979,-3.17219 c 1.2564,-3.76075 1.7002,-4.78332 2.4728,-5.69746 0.54168,-0.64094 0.63419,-0.67485 1.49037,-0.54646 1.21354,0.18198 3.86902,1.07261 4.69938,1.57616 0.46794,0.28375 0.66514,0.55635 0.66514,0.91943 0,0.28384 -0.49853,1.63474 -1.10784,3.002 -1.1136,2.49884 -1.83195,4.42381 -1.70009,4.55566 0.039,0.039 0.94002,0.29712 2.00224,0.57356 11.47402,2.98599 20.653679,10.48723 25.594189,20.9145 7.29495,15.39649 3.13501,33.99151 -10.067139,45.00046 -5.42622,4.52478 -11.8493,7.42662 -19.01918,8.59259 -2.42969,0.3951 -7.50999,0.55162 -9.871,0.3041 z m 8.03446,-9.20653 c 8.07994,-0.97671 14.37308,-4.17142 19.35832,-9.82725 4.129979,-4.68553 6.334629,-9.94136 7.027239,-16.75283 0.79235,-7.79239 -2.455,-16.52777 -8.342819,-22.44214 -4.66392,-4.68496 -10.73387,-7.69028 -16.57545,-8.20676 l -1.4949,-0.13218 0.55016,1.20777 c 2.44597,5.36974 3.46091,8.2452 4.3993,12.46393 1.07996,4.85519 0.76452,8.1781 -1.15601,12.17713 -1.15813,2.41156 -1.77177,3.39486 -3.8953,6.24207 -2.94477,3.9483 -3.98619,6.37657 -4.37524,10.20177 -0.31893,3.13575 -0.006,5.72318 1.33302,11.00355 0.44516,1.75612 1.26741,4.27458 1.39563,4.27458 0.0231,0 0.82222,-0.0943 1.77605,-0.20964 z m -6.96374,-0.25627 c -0.06427,-0.12853 -0.77509,-2.05627 -1.72242,-4.2502 -2.86962,-6.64575 -4.21771,-11.14323 -4.2091,-14.04223 0.006,-1.8277 0.51804,-3.8899 1.41644,-5.69827 0.79819,-1.60672 1.42121,-2.49346 4.56583,-6.49855 3.6445,-4.64177 4.30202,-7.01046 3.84873,-13.86492 -0.3985,-6.02606 -1.30855,-12.12213 -1.92127,-12.86989 -0.32851,-0.40093 -3.50889,-0.16279 -6.2988,0.47162 -9.90674,2.25283 -18.0457,9.64262 -21.23242,19.27807 -1.01873,3.08032 -1.27356,4.88486 -1.26995,8.99352 0.004,3.95747 0.18953,5.81199 0.83517,8.32448 2.61724,10.18489 11.05874,18.30151 20.90344,20.09895 2.04037,0.37253 5.419468,0.72762 5.263155,0.41501 z"
                   style="fill:url(#linearGradient2510);fill-opacity:1;stroke-width:0.05913239"
                   transform="translate(-7.1578502e-6,-4.24819e-6)" />
                <path
                
                   transform="matrix(0.01564545,0,0,0.01564545,239.16202,701.09276)"
                   id="path3176"
                   d="m -10751.046,-7438.8691 c 100.099,47.0128 146.008,449.492 171.478,834.6562 28.973,438.1126 -13.054,589.51 -245.998,886.1953 -200.993,255.991 -240.814,312.6674 -291.832,415.3633 -57.422,115.5844 -90.152,247.3929 -90.536,364.2129 -0.55,185.2936 85.618,472.7622 269.034,897.5352 60.55,140.228 117.698,290.0055 121.807,298.2207 54.333,19.4491 227.358,8.9929 319.861,3.2148 -8.195,0 -60.749,-160.97 -89.202,-273.2148 -85.585,-337.5024 -105.582,-502.8866 -85.197,-703.3125 24.867,-244.4932 91.428,-399.6994 279.647,-652.0606 135.73,-181.9835 174.953,-244.8325 248.976,-398.9707 122.753,-255.6038 142.916,-467.992 73.889,-778.3184 -59.979,-269.6461 -160.21,-531.8784 -316.548,-875.093 -139.809,-29.7819 -289.924,-19.8998 -365.379,-18.4284 z"
                   style="fill:url(#linearGradient2512);fill-opacity:1;stroke-width:3.77952719" />
                <path
                   style="fill:url(#linearGradient2514);fill-opacity:1;stroke-width:0.05913239"
                   d="m 72.451291,575.56165 1.05979,-3.17219 c 1.2564,-3.76075 1.7002,-4.78332 2.4728,-5.69746 0.54168,-0.64094 0.63419,-0.67485 1.49037,-0.54646 1.21354,0.18198 3.86902,1.07261 4.69938,1.57616 0.46794,0.28375 0.66514,0.55635 0.66514,0.91943 0,0.28384 -0.49853,1.63474 -1.10784,3.002 -1.1136,2.49884 -1.83195,4.42381 -1.70009,4.55566 -3.166623,-0.50562 -7.612894,-0.63714 -7.57955,-0.63714 z"
                   id="path3178"
                   />
              </g>
            </g>
            <path
        
               id="path3184"
               d="m -28.378162,651.00772 c 9.607791,-0.0583 10.51946,-1.47959 10.625,-8 v -25.94891 -8.15265 -29.91406 c -6.985209,-0.77688 -13.20886,-0.7922 -10.625,8 z"
               style="font-style:normal;font-variant:normal;font-weight:bold;font-stretch:normal;font-size:105.83333588px;line-height:1.25;font-family:'Century Gothic';-inkscape-font-specification:'Century Gothic Bold';letter-spacing:2.64583325px;word-spacing:0px;fill:url(#linearGradient2516);fill-opacity:1;stroke:none;stroke-width:0.01047886" />
            <path
             
               id="path3186"
               d="m 189.9979,624.5999 c 2.9733,-5.48924 11.8669,-3.4911 11.93279,-9.87794 H 167.626 c -0.6919,7.7396 3.40876,9.60891 9,9.5918 l 9.75389,0.38392 z"
               style="font-style:normal;font-variant:normal;font-weight:bold;font-stretch:normal;font-size:105.83333588px;line-height:1.25;font-family:'Century Gothic';-inkscape-font-specification:'Century Gothic Bold';letter-spacing:2.64583325px;word-spacing:0px;fill:url(#linearGradient2518);fill-opacity:1;stroke:none;stroke-width:0.01047886" />
            <path
              
               id="path3188"
               d="m 254.58303,575.40283 c -20.48053,0.13213 -38.12403,19.37879 -36.36523,39.82617 0.35439,20.24861 19.23217,37.88063 39.65234,35.95117 20.81719,-0.281 37.96466,-21.00686 35.0918,-41.60742 -1.34959,-19.0282 -19.14313,-35.36103 -38.37891,-34.16992 z m 1.07617,10.14062 c 16.26846,-0.58381 29.57068,15.98616 26.7768,31.7715 -1.33387,15.25797 -17.3537,27.17821 -32.37445,23.30858 -13.58365,-2.56203 -23.12885,-16.4706 -21.18946,-30.06445 0.69016,-13.72435 12.90376,-25.52284 26.78711,-25.01563 z"
               style="font-style:normal;font-variant:normal;font-weight:bold;font-stretch:normal;font-size:105.83333588px;line-height:1.25;font-family:'Century Gothic';-inkscape-font-specification:'Century Gothic Bold';letter-spacing:2.64583325px;word-spacing:0px;fill:url(#linearGradient2520);fill-opacity:1;stroke:none;stroke-width:0.01047886" />
          </g>
        </g>
      </g>
    </g>
  </g>
</svg>
