<svg xmlns="http://www.w3.org/2000/svg" style='width: 100%; max-width: 500px; margin: 45px auto 45px auto;' xmlns:xlink="http://www.w3.org/1999/xlink"  viewBox="0 0 5449.678 1865.345">
  <defs/>
  <defs>
    <linearGradient id="a">
      <stop offset="0" stop-color="#fb604e"/>
      <stop offset="1" stop-color="#8a120f"/>
    </linearGradient>
    <linearGradient id="b" x1="17.766" x2="-28.294" y1="614.323" y2="613.216" gradientUnits="userSpaceOnUse" xlink:href="#a"/>
    <linearGradient id="c" x1="126.932" x2="201.963" y1="613.334" y2="613.334" gradientUnits="userSpaceOnUse" xlink:href="#a"/>
    <linearGradient id="d" x1="218.218" x2="293.215" y1="615.229" y2="614.883" gradientUnits="userSpaceOnUse" xlink:href="#a"/>
    <linearGradient id="e" x1="33.935" x2="111.194" y1="608.894" y2="608.894" gradientUnits="userSpaceOnUse" xlink:href="#a"/>
    <linearGradient id="f" x1="71.68" x2="74.329" y1="614.761" y2="584.351" gradientTransform="matrix(63.91643 0 0 63.91643 -15286.383 -44811.343)" gradientUnits="userSpaceOnUse" xlink:href="#a"/>
    <linearGradient id="g" x1="76.765" x2="75.894" y1="576.919" y2="564.109" gradientUnits="userSpaceOnUse" xlink:href="#a"/>
    <linearGradient id="h" x1="33.935" x2="111.194" y1="608.894" y2="608.894" gradientUnits="userSpaceOnUse" xlink:href="#a"/>
    <linearGradient id="i" x1="71.68" x2="74.329" y1="614.761" y2="584.351" gradientTransform="matrix(63.91643 0 0 63.91643 -15286.383 -44811.343)" gradientUnits="userSpaceOnUse" xlink:href="#a"/>
    <linearGradient id="j" x1="76.765" x2="75.894" y1="576.919" y2="564.109" gradientUnits="userSpaceOnUse" xlink:href="#a"/>
    <linearGradient id="k" x1="-17.753" x2="-28.571" y1="617.059" y2="616.535" gradientUnits="userSpaceOnUse" xlink:href="#a"/>
    <linearGradient id="l" x1="201.931" x2="126.956" y1="614.722" y2="612.9" gradientUnits="userSpaceOnUse" xlink:href="#a"/>
    <linearGradient id="m" x1="218.218" x2="293.215" y1="615.229" y2="614.883" gradientUnits="userSpaceOnUse" xlink:href="#a"/>
  </defs>
  <g stroke-width=".265" aria-label="ORGANIC COFFEE CHERRIES" font-family="Century Gothic" font-size="262.511" font-weight="700" letter-spacing="22.158" style="line-height:1.25;-inkscape-font-specification:'Showcard Gothic'" word-spacing="22.158">
    <g fill="#674b42">
      <path d="M716.634 1676.172q41.866 0 71.923 27.672 30.192 27.672 30.192 67.466 0 39.426-29.79 66.73-29.654 27.305-72.057 27.305-44.415 0-73.801-28.039-29.387-28.04-29.387-66.608 0-25.836 13.687-47.508 13.687-21.672 37.572-34.284 24.019-12.734 51.661-12.734zm-.402 33.55q-27.374 0-46.026 17.386-18.652 17.387-18.652 44.202 0 29.876 23.483 47.262 18.249 13.591 41.865 13.591 26.703 0 45.49-17.631 18.785-17.632 18.785-43.467 0-25.713-18.92-43.467-18.92-17.876-46.025-17.876zM879.92 1680.703h39.853q32.74 0 46.562 5.387 13.955 5.265 22.409 17.632 8.453 12.366 8.453 29.263 0 17.755-9.393 29.754-9.258 11.877-28.044 17.999l46.696 80.077h-41.06l-44.416-76.281h-3.488v76.28H879.92zm37.572 70.404H929.3q17.98 0 24.69-4.286 6.843-4.285 6.843-14.203 0-5.877-3.354-10.163-3.355-4.407-8.99-6.244-5.636-1.96-20.665-1.96h-10.332zM1242.202 1710.089l-26.435 23.876q-25.092-24.243-58.504-24.243-29.118 0-48.844 17.631-19.59 17.632-19.59 42.855 0 26.08 20.395 44.201 20.397 18.122 50.32 18.122 19.457 0 32.74-7.47 13.42-7.468 21.605-23.385h-57.163v-32.203h99.297l.268 7.592q0 23.63-13.418 44.813-13.419 21.183-34.754 32.325-21.336 11.142-50.051 11.142-30.729 0-54.882-12.121-24.019-12.245-38.108-34.774-13.956-22.53-13.956-48.61 0-35.753 25.898-62.2 30.728-31.468 79.974-31.468 25.764 0 48.173 8.694 18.92 7.346 37.035 25.223zM1374.088 1680.703h38.109l75.948 180.112h-39.047l-15.432-37.1h-80.51l-16.103 37.1h-39.048zm19.323 47.752l-26.3 61.833h52.466zM1540.729 1680.703h35.961l84.67 118.524v-118.524h37.573v180.112h-36.096l-84.537-118.157v118.157h-37.571zM1764.532 1680.703h37.303v180.112h-37.303zM2048.584 1712.415l-26.3 22.897q-26.838-25.835-60.384-25.835-28.313 0-47.77 17.631-19.322 17.632-19.322 43.467 0 18 8.588 31.958 8.587 13.958 24.287 21.917 15.7 7.958 34.888 7.958 16.37 0 29.923-5.51 13.553-5.632 29.79-20.325l25.495 24.244q-21.873 19.468-41.33 27.06-19.456 7.468-44.415 7.468-46.025 0-75.411-26.57-29.253-26.692-29.253-68.322 0-26.937 13.285-47.875 13.418-20.938 38.242-33.672 24.959-12.734 53.674-12.734 24.422 0 46.965 9.428 22.677 9.428 39.048 26.815zM2409.087 1712.415l-26.3 22.897q-26.838-25.835-60.384-25.835-28.313 0-47.77 17.631-19.322 17.632-19.322 43.467 0 18 8.588 31.958 8.587 13.958 24.287 21.917 15.7 7.958 34.888 7.958 16.37 0 29.923-5.51 13.553-5.632 29.79-20.325l25.495 24.244q-21.873 19.468-41.33 27.06-19.456 7.468-44.415 7.468-46.025 0-75.412-26.57-29.252-26.692-29.252-68.322 0-26.937 13.284-47.875 13.419-20.938 38.243-33.672 24.958-12.734 53.674-12.734 24.422 0 46.965 9.428 22.677 9.428 39.048 26.815zM2558.283 1676.172q41.866 0 71.923 27.672 30.192 27.672 30.192 67.466 0 39.426-29.79 66.73-29.654 27.305-72.057 27.305-44.415 0-73.802-28.039-29.386-28.04-29.386-66.608 0-25.836 13.687-47.508 13.687-21.672 37.572-34.284 24.019-12.734 51.66-12.734zm-.403 33.55q-27.373 0-46.025 17.386-18.652 17.387-18.652 44.202 0 29.876 23.483 47.262 18.249 13.591 41.865 13.591 26.703 0 45.489-17.631 18.786-17.632 18.786-43.467 0-25.713-18.92-43.467-18.92-17.876-46.026-17.876zM2719.556 1680.703h97.955v33.426h-60.786v32.692h60.786v32.937h-60.786v81.057h-37.17zM2874.79 1680.703h97.955v33.426h-60.785v32.692h60.785v32.937h-60.785v81.057h-37.17zM3029.622 1680.703h107.75v33.549h-70.446v32.57h70.447v32.936h-70.447v47.385h70.447v33.672h-107.75zM3195.592 1680.703h107.75v33.549h-70.447v32.57h70.447v32.936h-70.447v47.385h70.447v33.672h-107.75z" style="-inkscape-font-specification:'Century Gothic Bold'"/>
    </g>
    <g fill="#fb604e">
      <path d="M3665.992 1712.415l-26.3 22.897q-26.837-25.835-60.383-25.835-28.313 0-47.77 17.631-19.323 17.632-19.323 43.467 0 18 8.588 31.958 8.588 13.958 24.288 21.917 15.7 7.958 34.888 7.958 16.37 0 29.923-5.51 13.553-5.632 29.789-20.325l25.495 24.244q-21.872 19.468-41.329 27.06-19.457 7.468-44.415 7.468-46.025 0-75.412-26.57-29.252-26.692-29.252-68.322 0-26.937 13.284-47.875 13.419-20.938 38.243-33.672 24.958-12.734 53.674-12.734 24.421 0 46.964 9.428 22.678 9.428 39.048 26.815zM3721.796 1680.703h38.108v67.955h66.02v-67.955h37.974v180.112h-37.975v-78.975h-66.019v78.975h-38.108zM3932.046 1680.703h107.75v33.549h-70.446v32.57h70.447v32.936h-70.447v47.385h70.447v33.672h-107.75zM4100.431 1680.703h39.853q32.741 0 46.562 5.387 13.955 5.265 22.409 17.632 8.454 12.366 8.454 29.263 0 17.755-9.393 29.754-9.26 11.877-28.045 17.999l46.696 80.077h-41.06l-44.415-76.281h-3.49v76.28h-37.571zm37.572 70.404h11.808q17.98 0 24.69-4.286 6.844-4.285 6.844-14.203 0-5.877-3.355-10.163-3.355-4.407-8.99-6.244-5.636-1.96-20.665-1.96h-10.332zM4283.04 1680.703h39.852q32.741 0 46.562 5.387 13.956 5.265 22.41 17.632 8.453 12.366 8.453 29.263 0 17.755-9.393 29.754-9.259 11.877-28.045 17.999l46.697 80.077h-41.06l-44.416-76.281h-3.489v76.28h-37.572zm37.571 70.404h11.808q17.981 0 24.69-4.286 6.844-4.285 6.844-14.203 0-5.877-3.355-10.163-3.354-4.407-8.99-6.244-5.636-1.96-20.665-1.96h-10.332zM4460.414 1680.703h37.304v180.112h-37.304zM4563.183 1680.703h107.75v33.549h-70.447v32.57h70.447v32.936h-70.447v47.385h70.447v33.672h-107.75zM4832.474 1705.191l-27.776 22.407q-14.626-18.611-29.789-18.611-7.38 0-12.077 3.673-4.696 3.551-4.696 8.081 0 4.53 3.355 8.571 4.562 5.388 27.507 23.142 21.47 16.407 26.032 20.692 11.406 10.53 16.103 20.203 4.83 9.55 4.83 20.938 0 22.162-16.773 36.61t-43.744 14.448q-21.067 0-36.767-9.428-15.565-9.428-26.703-29.63l31.534-17.387q14.223 23.876 32.74 23.876 9.662 0 16.237-5.143 6.575-5.142 6.575-11.877 0-6.122-4.964-12.244-4.965-6.122-21.873-18.734-32.204-23.998-41.597-36.977-9.393-13.101-9.393-26.08 0-18.734 15.566-32.08 15.7-13.469 38.645-13.469 14.76 0 28.044 6.245 13.419 6.244 28.984 22.774z" style="-inkscape-font-specification:'Century Gothic Bold'"/>
    </g>
  </g>
  <g fill="#fb604e" stroke-width=".04" font-family="Century Gothic" font-size="105.833" font-weight="700" letter-spacing="2.646" word-spacing="0">
    <path fill="url(#b)" d="M-28.378 651.008c9.608-.059 10.52-1.48 10.625-8v-25.95l26.508 33.95s11.92 1.038 8.878-4.934c-8.132-11.752-16.267-23.502-24.398-35.256 8.311-10.61 16.624-21.217 24.936-31.826 0 0-10.29-2.083-16.051 4.712l-19.873 25.202v-29.914c-6.985-.777-13.209-.792-10.625 8z" style="line-height:1.25;-inkscape-font-specification:'Century Gothic Bold'" transform="matrix(16.9112 0 0 16.9112 490.003 -9573.19)"/>
    <path fill="url(#c)" d="M164.575 575.359c-19.982-.613-38.405 17.49-37.619 37.54-.538 18.836 14.636 36.685 33.684 37.981 14.592 2.312 30.502-4.485 37.043-18.139 2.973-5.489 4.528-11.77 4.248-18.019h-34.305c-.692 7.74 3.409 9.609 9 9.592l13.372.286c-4.039 10.506-16.273 18.251-27.036 16.536-15.77-1.21-28.342-17.314-25.096-32.936 2.218-15.048 18.341-25.318 33.012-22.308 6.621.993 12.736 4.368 17.498 9.017 0 0 7.79-6.588 5.397-9.481-8.272-7.1-18.677-10.341-29.198-10.07z" style="line-height:1.25;-inkscape-font-specification:'Century Gothic Bold'" transform="matrix(16.9112 0 0 16.9112 490.003 -9573.19)"/>
    <path fill="url(#d)" d="M254.583 575.403c-20.48.132-38.124 19.379-36.365 39.826.354 20.249 19.232 37.88 39.652 35.951 20.817-.28 37.965-21.007 35.092-41.607-1.35-19.028-19.143-35.361-38.379-34.17zm1.076 10.14c16.269-.583 29.57 15.987 26.777 31.772-1.334 15.258-17.354 27.178-32.374 23.309-13.584-2.563-23.13-16.471-21.19-30.065.69-13.724 12.904-25.523 26.787-25.016z" style="line-height:1.25;-inkscape-font-specification:'Century Gothic Bold'" transform="matrix(16.9112 0 0 16.9112 490.003 -9573.19)"/>
  </g>
  <g>
    <g fill="#fb604e" stroke-width=".04">
      <path fill="url(#e)" d="M68.67 651.584c-18.008-1.888-32.242-15.588-34.549-33.255-.372-2.847-.16-9.08.405-11.864 2.641-13.034 11.816-23.717 24.409-28.421 3.593-1.342 7.313-2.112 11.394-2.355l2.122-.127 1.06-3.173c1.256-3.76 1.7-4.783 2.473-5.697.542-.64.634-.675 1.49-.546 1.214.182 3.87 1.072 4.7 1.576.468.283.665.556.665.92 0 .283-.499 1.634-1.108 3.001-1.114 2.499-1.832 4.424-1.7 4.556.039.039.94.297 2.002.573 11.474 2.986 20.654 10.488 25.594 20.915 7.295 15.396 3.135 33.991-10.067 45-5.426 4.525-11.85 7.427-19.019 8.593-2.43.395-7.51.552-9.871.304zm8.034-9.207c8.08-.976 14.373-4.171 19.359-9.827 4.13-4.685 6.334-9.941 7.027-16.753.792-7.792-2.455-16.527-8.343-22.442-4.664-4.685-10.734-7.69-16.575-8.207l-1.495-.132.55 1.208c2.446 5.37 3.46 8.245 4.4 12.464 1.08 4.855.764 8.178-1.157 12.177-1.158 2.412-1.772 3.395-3.895 6.242-2.945 3.949-3.986 6.377-4.375 10.202-.32 3.136-.006 5.723 1.333 11.004.445 1.756 1.267 4.274 1.395 4.274.023 0 .823-.094 1.776-.21zm-6.963-.256c-.065-.128-.775-2.056-1.723-4.25-2.87-6.646-4.217-11.143-4.209-14.042.006-1.828.518-3.89 1.417-5.698.798-1.607 1.42-2.494 4.565-6.499 3.645-4.642 4.302-7.01 3.85-13.865-.4-6.026-1.31-12.122-1.922-12.87-.329-.4-3.509-.163-6.299.472-9.907 2.253-18.046 9.642-21.232 19.278-1.02 3.08-1.274 4.885-1.27 8.993.004 3.958.19 5.812.835 8.325 2.617 10.185 11.059 18.301 20.903 20.099 2.04.372 5.42.727 5.263.415z" transform="matrix(16.9112 0 0 16.9112 490.003 -9573.19)"/>
      <path fill="url(#f)" d="M-10751.046-7438.87c100.099 47.014 146.008 449.493 171.478 834.657 28.973 438.113-13.054 589.51-245.998 886.195-200.993 255.991-240.814 312.668-291.832 415.364-57.422 115.584-90.152 247.393-90.536 364.213-.55 185.293 85.618 472.762 269.034 897.535 60.55 140.228 117.698 290.005 121.807 298.22 54.333 19.45 227.358 8.993 319.861 3.215-8.195 0-60.749-160.97-89.202-273.214-85.585-337.503-105.582-502.887-85.197-703.313 24.867-244.493 91.428-399.7 279.647-652.06 135.73-181.984 174.953-244.833 248.976-398.971 122.753-255.604 142.916-467.992 73.889-778.319-59.979-269.646-160.21-531.878-316.548-875.093-139.809-29.782-289.924-19.9-365.379-18.428z" transform="matrix(.26458 0 0 .26458 4534.52 2283.134)"/>
      <path fill="url(#g)" d="M72.451 575.562l1.06-3.173c1.256-3.76 1.7-4.783 2.473-5.697.542-.64.634-.675 1.49-.546 1.214.182 3.87 1.072 4.7 1.576.468.283.665.556.665.92 0 .283-.499 1.634-1.108 3.001-1.114 2.499-1.832 4.424-1.7 4.556-3.167-.506-7.613-.637-7.58-.637z" transform="matrix(16.9112 0 0 16.9112 490.003 -9573.19)"/>
      <path fill="url(#h)" d="M68.67 651.584c-18.008-1.888-32.242-15.588-34.549-33.255-.372-2.847-.16-9.08.405-11.864 2.641-13.034 11.816-23.717 24.409-28.421 3.593-1.342 7.313-2.112 11.394-2.355l2.122-.127 1.06-3.173c1.256-3.76 1.7-4.783 2.473-5.697.542-.64.634-.675 1.49-.546 1.214.182 3.87 1.072 4.7 1.576.468.283.665.556.665.92 0 .283-.499 1.634-1.108 3.001-1.114 2.499-1.832 4.424-1.7 4.556.039.039.94.297 2.002.573 11.474 2.986 20.654 10.488 25.594 20.915 7.295 15.396 3.135 33.991-10.067 45-5.426 4.525-11.85 7.427-19.019 8.593-2.43.395-7.51.552-9.871.304zm8.034-9.207c8.08-.976 14.373-4.171 19.359-9.827 4.13-4.685 6.334-9.941 7.027-16.753.792-7.792-2.455-16.527-8.343-22.442-4.664-4.685-10.734-7.69-16.575-8.207l-1.495-.132.55 1.208c2.446 5.37 3.46 8.245 4.4 12.464 1.08 4.855.764 8.178-1.157 12.177-1.158 2.412-1.772 3.395-3.895 6.242-2.945 3.949-3.986 6.377-4.375 10.202-.32 3.136-.006 5.723 1.333 11.004.445 1.756 1.267 4.274 1.395 4.274.023 0 .823-.094 1.776-.21zm-6.963-.256c-.065-.128-.775-2.056-1.723-4.25-2.87-6.646-4.217-11.143-4.209-14.042.006-1.828.518-3.89 1.417-5.698.798-1.607 1.42-2.494 4.565-6.499 3.645-4.642 4.302-7.01 3.85-13.865-.4-6.026-1.31-12.122-1.922-12.87-.329-.4-3.509-.163-6.299.472-9.907 2.253-18.046 9.642-21.232 19.278-1.02 3.08-1.274 4.885-1.27 8.993.004 3.958.19 5.812.835 8.325 2.617 10.185 11.059 18.301 20.903 20.099 2.04.372 5.42.727 5.263.415z" transform="matrix(16.9112 0 0 16.9112 490.003 -9573.19)"/>
      <path fill="url(#i)" d="M-10751.046-7438.87c100.099 47.014 146.008 449.493 171.478 834.657 28.973 438.113-13.054 589.51-245.998 886.195-200.993 255.991-240.814 312.668-291.832 415.364-57.422 115.584-90.152 247.393-90.536 364.213-.55 185.293 85.618 472.762 269.034 897.535 60.55 140.228 117.698 290.005 121.807 298.22 54.333 19.45 227.358 8.993 319.861 3.215-8.195 0-60.749-160.97-89.202-273.214-85.585-337.503-105.582-502.887-85.197-703.313 24.867-244.493 91.428-399.7 279.647-652.06 135.73-181.984 174.953-244.833 248.976-398.971 122.753-255.604 142.916-467.992 73.889-778.319-59.979-269.646-160.21-531.878-316.548-875.093-139.809-29.782-289.924-19.9-365.379-18.428z" transform="matrix(.26458 0 0 .26458 4534.52 2283.134)"/>
      <path fill="url(#j)" d="M72.451 575.562l1.06-3.173c1.256-3.76 1.7-4.783 2.473-5.697.542-.64.634-.675 1.49-.546 1.214.182 3.87 1.072 4.7 1.576.468.283.665.556.665.92 0 .283-.499 1.634-1.108 3.001-1.114 2.499-1.832 4.424-1.7 4.556-3.167-.506-7.613-.637-7.58-.637z" transform="matrix(16.9112 0 0 16.9112 490.003 -9573.19)"/>
      <path fill="url(#k)" d="M-28.378 651.008c9.608-.059 10.52-1.48 10.625-8V578.992c-6.985-.777-13.209-.792-10.625 8z" font-family="Century Gothic" font-size="105.833" font-weight="700" letter-spacing="2.646" style="line-height:1.25;-inkscape-font-specification:'Century Gothic Bold'" transform="matrix(16.9112 0 0 16.9112 490.003 -9573.19)" word-spacing="0"/>
      <path fill="url(#l)" d="M189.998 624.6c2.973-5.49 11.867-3.491 11.933-9.878h-34.305c-.692 7.74 3.409 9.609 9 9.592l9.754.384z" font-family="Century Gothic" font-size="105.833" font-weight="700" letter-spacing="2.646" style="line-height:1.25;-inkscape-font-specification:'Century Gothic Bold'" transform="matrix(16.9112 0 0 16.9112 490.003 -9573.19)" word-spacing="0"/>
      <path fill="url(#m)" d="M254.583 575.403c-20.48.132-38.124 19.379-36.365 39.826.354 20.249 19.232 37.88 39.652 35.951 20.817-.28 37.965-21.007 35.092-41.607-1.35-19.028-19.143-35.361-38.379-34.17zm1.076 10.14c16.269-.583 29.57 15.987 26.777 31.772-1.334 15.258-17.354 27.178-32.374 23.309-13.584-2.563-23.13-16.471-21.19-30.065.69-13.724 12.904-25.523 26.787-25.016z" font-family="Century Gothic" font-size="105.833" font-weight="700" letter-spacing="2.646" style="line-height:1.25;-inkscape-font-specification:'Century Gothic Bold'" transform="matrix(16.9112 0 0 16.9112 490.003 -9573.19)" word-spacing="0"/>
    </g>
  </g>
</svg>
