<?xml version="1.0" encoding="UTF-8"?>
<svg style="margin:55px auto;max-width:450px;width:100%" viewBox="0 0 5449.7 1865.3" xmlns="http://www.w3.org/2000/svg">
<defs>
<linearGradient id="h" x1="17.766" x2="-28.294" y1="614.32" y2="613.22" gradientUnits="userSpaceOnUse"/>
<linearGradient id="g" x1="126.93" x2="201.96" y1="613.33" y2="613.33" gradientUnits="userSpaceOnUse"/>
<linearGradient id="d" x1="218.22" x2="293.21" y1="615.23" y2="614.88" gradientUnits="userSpaceOnUse"/>
<linearGradient id="c" x1="33.935" x2="111.19" y1="608.89" y2="608.89" gradientUnits="userSpaceOnUse"/>
<linearGradient id="b" x1="71.68" x2="74.329" y1="614.76" y2="584.35" gradientTransform="matrix(63.916 0 0 63.916 -15286 -44811)" gradientUnits="userSpaceOnUse"/>
<linearGradient id="a" x1="76.765" x2="75.894" y1="576.92" y2="564.11" gradientUnits="userSpaceOnUse"/>
<linearGradient id="f" x1="-17.753" x2="-28.571" y1="617.06" y2="616.54" gradientUnits="userSpaceOnUse"/>
<linearGradient id="e" x1="201.93" x2="126.96" y1="614.72" y2="612.9" gradientUnits="userSpaceOnUse"/>
</defs>
<g transform="translate(-3033.4 7310.4)">
<g transform="matrix(1.0469 0 0 .95524 -622.21 -2094.8)" stroke-width=".26458" aria-label="ORGANIC COFFEE CHERRIES">
<g fill="#674b42">
<path d="m4176.5-3705.3q39.992 0 68.704 28.968 28.84 28.968 28.84 70.627 0 41.274-28.456 69.858-28.328 28.584-68.832 28.584-42.427 0-70.498-29.353t-28.071-69.729q0-27.046 13.074-49.734 13.074-22.688 35.89-35.89 22.944-13.331 49.349-13.331zm-0.3845 35.121q-26.148 0-43.965 18.201t-17.817 46.273q0 31.276 22.431 49.477 17.432 14.228 39.992 14.228 25.508 0 43.453-18.458 17.945-18.458 17.945-45.504 0-26.918-18.073-45.504-18.073-18.714-43.965-18.714z"/>
<path d="m4332.5-3700.5h38.069q31.276 0 44.478 5.6399 13.331 5.5117 21.406 18.458t8.0753 30.635q0 18.586-8.9725 31.148-8.8444 12.433-26.789 18.842l44.606 83.829h-39.223l-42.427-79.856h-3.3327v79.856h-35.89zm35.89 73.703h11.28q17.176 0 23.585-4.4863 6.5371-4.4862 6.5371-14.869 0-6.1526-3.2045-10.639-3.2045-4.6144-8.588-6.5371-5.3835-2.0509-19.74-2.0509h-9.8698z"/>
<path d="m4678.6-3669.8-25.251 24.995q-23.97-25.379-55.886-25.379-27.815 0-46.657 18.458-18.714 18.458-18.714 44.863 0 27.302 19.483 46.273t48.067 18.97q18.586 0 31.276-7.8189 12.818-7.819 20.637-24.482h-54.604v-33.711h94.852l0.2563 7.9471q0 24.738-12.818 46.914t-33.198 33.839q-20.38 11.664-47.811 11.664-29.353 0-52.425-12.69-22.944-12.818-36.403-36.403-13.331-23.585-13.331-50.887 0-37.428 24.738-65.115 29.353-32.942 76.395-32.942 24.61 0 46.016 9.1007 18.073 7.6908 35.377 26.405z"/>
<path d="m4804.5-3700.5h36.403l72.549 188.55h-37.3l-14.741-38.838h-76.907l-15.382 38.838h-37.3zm18.458 49.99-25.123 64.73h50.118z"/>
<path d="m4963.7-3700.5h34.352l80.881 124.08v-124.08h35.89v188.55h-34.48l-80.753-123.69v123.69h-35.89z"/>
<path d="m5177.5-3700.5h35.634v188.55h-35.634z"/>
<path d="m5448.8-3667.3-25.123 23.97q-25.636-27.046-57.681-27.046-27.046 0-45.632 18.458-18.458 18.458-18.458 45.504 0 18.842 8.2034 33.455 8.2035 14.612 23.2 22.944 14.997 8.3316 33.326 8.3316 15.638 0 28.584-5.7681 12.946-5.8962 28.456-21.278l24.354 25.38q-20.893 20.38-39.479 28.328-18.586 7.819-42.427 7.819-43.965 0-72.037-27.815-27.943-27.943-27.943-71.524 0-28.199 12.69-50.118 12.818-21.919 36.531-35.249 23.841-13.331 51.272-13.331 23.329 0 44.863 9.8698 21.662 9.8698 37.3 28.071z"/>
<path d="m5793.2-3667.3-25.123 23.97q-25.636-27.046-57.68-27.046-27.046 0-45.632 18.458-18.458 18.458-18.458 45.504 0 18.842 8.2035 33.455t23.2 22.944q14.997 8.3316 33.327 8.3316 15.638 0 28.584-5.7681 12.946-5.8962 28.456-21.278l24.354 25.38q-20.893 20.38-39.479 28.328-18.586 7.819-42.427 7.819-43.965 0-72.037-27.815-27.943-27.943-27.943-71.524 0-28.199 12.69-50.118 12.818-21.919 36.531-35.249 23.841-13.331 51.272-13.331 23.328 0 44.863 9.8698 21.662 9.8698 37.3 28.071z"/>
<path d="m5935.7-3705.3q39.992 0 68.704 28.968 28.84 28.968 28.84 70.627 0 41.274-28.456 69.858-28.328 28.584-68.832 28.584-42.427 0-70.498-29.353-28.071-29.353-28.071-69.729 0-27.046 13.074-49.734t35.89-35.89q22.944-13.331 49.349-13.331zm-0.3846 35.121q-26.148 0-43.965 18.201t-17.817 46.273q0 31.276 22.431 49.477 17.432 14.228 39.992 14.228 25.508 0 43.453-18.458 17.945-18.458 17.945-45.504 0-26.918-18.073-45.504-18.073-18.714-43.966-18.714z"/>
<path d="m6089.8-3700.5h93.571v34.993h-58.065v34.224h58.065v34.48h-58.065v84.854h-35.506z"/>
<path d="m6238.1-3700.5h93.571v34.993h-58.065v34.224h58.065v34.48h-58.065v84.854h-35.506z"/>
<path d="m6386-3700.5h102.93v35.121h-67.294v34.096h67.294v34.48h-67.294v49.605h67.294v35.249h-102.93z"/>
<path d="m6544.5-3700.5h102.93v35.121h-67.294v34.096h67.294v34.48h-67.294v49.605h67.294v35.249h-102.93z"/>
</g>
<g fill="#fb604e">
<path d="m6993.9-3667.3-25.123 23.97q-25.636-27.046-57.681-27.046-27.046 0-45.632 18.458-18.458 18.458-18.458 45.504 0 18.842 8.2034 33.455 8.2035 14.612 23.2 22.944 14.997 8.3316 33.326 8.3316 15.638 0 28.584-5.7681 12.946-5.8962 28.456-21.278l24.354 25.38q-20.893 20.38-39.479 28.328-18.586 7.819-42.427 7.819-43.965 0-72.037-27.815-27.943-27.943-27.943-71.524 0-28.199 12.69-50.118 12.818-21.919 36.531-35.249 23.841-13.331 51.272-13.331 23.329 0 44.863 9.8698 21.662 9.8698 37.3 28.071z"/>
<path d="m7047.2-3700.5h36.403v71.139h63.064v-71.139h36.275v188.55h-36.275v-82.675h-63.064v82.675h-36.403z"/>
<path d="m7248-3700.5h102.93v35.121h-67.294v34.096h67.294v34.48h-67.294v49.605h67.294v35.249h-102.93z"/>
<path d="m7408.9-3700.5h38.069q31.276 0 44.478 5.6399 13.331 5.5117 21.406 18.458 8.0753 12.946 8.0753 30.635 0 18.586-8.9725 31.148-8.8444 12.433-26.789 18.842l44.606 83.829h-39.223l-42.427-79.856h-3.3326v79.856h-35.89zm35.89 73.703h11.28q17.176 0 23.585-4.4863 6.5371-4.4862 6.5371-14.869 0-6.1526-3.2045-10.639-3.2044-4.6144-8.588-6.5371-5.3835-2.0509-19.74-2.0509h-9.8698z"/>
<path d="m7583.3-3700.5h38.069q31.276 0 44.478 5.6399 13.331 5.5117 21.406 18.458t8.0753 30.635q0 18.586-8.9725 31.148-8.8444 12.433-26.79 18.842l44.606 83.829h-39.223l-42.427-79.856h-3.3327v79.856h-35.89zm35.89 73.703h11.28q17.176 0 23.585-4.4863 6.5372-4.4862 6.5372-14.869 0-6.1526-3.2045-10.639-3.2045-4.6144-8.588-6.5371-5.3835-2.0509-19.74-2.0509h-9.8698z"/>
<path d="m7752.7-3700.5h35.634v188.55h-35.634z"/>
<path d="m7850.9-3700.5h102.93v35.121h-67.294v34.096h67.294v34.48h-67.294v49.605h67.294v35.249h-102.93z"/>
<path d="m8108.1-3674.9-26.533 23.457q-13.972-19.483-28.456-19.483-7.0498 0-11.536 3.8454-4.4863 3.7172-4.4863 8.4598t3.2045 8.9725q4.3581 5.6399 26.277 24.226 20.509 17.176 24.867 21.662 10.895 11.023 15.382 21.15 4.6145 9.9979 4.6145 21.919 0 23.2-16.022 38.326-16.022 15.125-41.786 15.125-20.124 0-35.121-9.8698-14.869-9.8698-25.508-31.019l30.122-18.201q13.587 24.995 31.276 24.995 9.2289 0 15.51-5.3835 6.2807-5.3835 6.2807-12.433 0-6.4089-4.7426-12.818-4.7426-6.4089-20.893-19.611-30.763-25.123-39.736-38.71-8.9725-13.715-8.9725-27.302 0-19.611 14.869-33.583 14.997-14.1 36.916-14.1 14.1 0 26.789 6.5372 12.818 6.5371 27.687 23.841z"/>
</g>
</g>
<g transform="translate(1918.2 -6774.2)">
<g transform="translate(4218.5 7623.4)">
<flowRoot transform="matrix(.26458 0 0 .26458 -5143.7 2211.7)" fill="#000000" font-family="sans-serif" font-size="40px" letter-spacing="0px" word-spacing="0px" style="line-height:1.25" xml:space="preserve"><flowRegion><rect x="-67.143" y="-591.77" width="48.571" height="127.14"/></flowRegion><flowPara/></flowRoot>
</g>
<g transform="translate(4162.3 3975.2)">
<flowRoot transform="matrix(.26458 0 0 .26458 -5143.7 2211.7)" fill="#000000" font-family="sans-serif" font-size="40px" letter-spacing="0px" word-spacing="0px" style="line-height:1.25" xml:space="preserve"><flowRegion><rect x="-67.143" y="-591.77" width="48.571" height="127.14"/></flowRegion><flowPara/></flowRoot>
<g transform="matrix(1.493 0 0 1.493 -2700.9 -4054.3)" fill="#fb604e" stroke-width=".66977">
<g transform="matrix(11.327 0 0 11.327 96.266 -6717.9)" stroke-width=".039605">
<path d="m-28.378 651.01c9.6078-0.0583 10.519-1.4796 10.625-8v-25.949l26.508 33.949s11.921 1.0387 8.8785-4.9337c-8.1323-11.752-16.267-23.502-24.398-35.256 8.3109-10.61 16.624-21.217 24.936-31.826 0 0-10.29-2.0829-16.051 4.7115-6.6243 8.4008-13.248 16.802-19.873 25.203v-29.914c-6.9852-0.77688-13.209-0.7922-10.625 8z" fill="url(#h)"/>
<path d="m164.58 575.36c-19.982-0.61296-38.405 17.491-37.619 37.541-0.53825 18.835 14.636 36.684 33.684 37.98 14.592 2.3121 30.502-4.4852 37.043-18.139 2.9733-5.4892 4.5279-11.771 4.248-18.02h-34.305c-0.6919 7.7396 3.4088 9.6089 9 9.5918l13.372 0.28614c-4.0386 10.506-16.273 18.252-27.036 16.536-15.771-1.2096-28.342-17.314-25.096-32.936 2.2177-15.049 18.341-25.319 33.012-22.309 6.6213 0.99352 12.736 4.3681 17.498 9.0176 0 0 7.7894-6.5889 5.3971-9.4817-8.2717-7.1006-18.677-10.341-29.198-10.069z" fill="url(#g)"/>
<path d="m254.58 575.4c-20.481 0.13213-38.124 19.379-36.365 39.826 0.35439 20.249 19.232 37.881 39.652 35.951 20.817-0.281 37.965-21.007 35.092-41.607-1.3496-19.028-19.143-35.361-38.379-34.17zm1.0762 10.141c16.268-0.58381 29.571 15.986 26.777 31.772-1.3339 15.258-17.354 27.178-32.374 23.309-13.584-2.562-23.129-16.471-21.189-30.064 0.69016-13.724 12.904-25.523 26.787-25.016z" fill="url(#d)"/>
</g>
</g>
</g>
<g transform="translate(4162.3 3975.2)">
<flowRoot transform="matrix(.26458 0 0 .26458 -5143.7 2211.7)" fill="#000000" font-family="sans-serif" font-size="40px" letter-spacing="0px" word-spacing="0px" style="line-height:1.25" xml:space="preserve"><flowRegion><rect x="-67.143" y="-591.77" width="48.571" height="127.14"/></flowRegion><flowPara/></flowRoot>
<g transform="matrix(1.493 0 0 1.493 -2700.9 -4054.3)" fill="#fb604e" stroke-width=".66977">
<g transform="matrix(11.327 0 0 11.327 96.266 -6717.9)" fill="#fb604e" stroke-width=".039605">
<path transform="translate(-7.1579e-6 -4.2482e-6)" d="m68.67 651.58c-18.008-1.8879-32.242-15.588-34.549-33.255-0.37188-2.8474-0.15919-9.0809 0.40478-11.864 2.6413-13.034 11.816-23.717 24.409-28.421 3.5933-1.3423 7.3138-2.1114 11.394-2.3554l2.1228-0.12691 1.0598-3.1722c1.2564-3.7608 1.7002-4.7833 2.4728-5.6975 0.54168-0.64094 0.63419-0.67485 1.4904-0.54646 1.2135 0.18198 3.869 1.0726 4.6994 1.5762 0.46794 0.28375 0.66514 0.55635 0.66514 0.91943 0 0.28384-0.49853 1.6347-1.1078 3.002-1.1136 2.4988-1.832 4.4238-1.7001 4.5557 0.039 0.039 0.94002 0.29712 2.0022 0.57356 11.474 2.986 20.654 10.487 25.594 20.914 7.295 15.396 3.135 33.992-10.067 45-5.4262 4.5248-11.849 7.4266-19.019 8.5926-2.4297 0.3951-7.51 0.55162-9.871 0.3041zm8.0345-9.2065c8.0799-0.97671 14.373-4.1714 19.358-9.8272 4.13-4.6855 6.3346-9.9414 7.0272-16.753 0.79235-7.7924-2.455-16.528-8.3428-22.442-4.6639-4.685-10.734-7.6903-16.575-8.2068l-1.4949-0.13218 0.55016 1.2078c2.446 5.3697 3.4609 8.2452 4.3993 12.464 1.08 4.8552 0.76452 8.1781-1.156 12.177-1.1581 2.4116-1.7718 3.3949-3.8953 6.2421-2.9448 3.9483-3.9862 6.3766-4.3752 10.202-0.31893 3.1358-6e-3 5.7232 1.333 11.004 0.44516 1.7561 1.2674 4.2746 1.3956 4.2746 0.0231 0 0.82222-0.0943 1.776-0.20964zm-6.9637-0.25627c-0.06427-0.12853-0.77509-2.0563-1.7224-4.2502-2.8696-6.6458-4.2177-11.143-4.2091-14.042 6e-3 -1.8277 0.51804-3.8899 1.4164-5.6983 0.79819-1.6067 1.4212-2.4935 4.5658-6.4986 3.6445-4.6418 4.302-7.0105 3.8487-13.865-0.3985-6.0261-1.3086-12.122-1.9213-12.87-0.32851-0.40093-3.5089-0.16279-6.2988 0.47162-9.9067 2.2528-18.046 9.6426-21.232 19.278-1.0187 3.0803-1.2736 4.8849-1.27 8.9935 4e-3 3.9575 0.18953 5.812 0.83517 8.3245 2.6172 10.185 11.059 18.302 20.903 20.099 2.0404 0.37253 5.4195 0.72762 5.2632 0.41501z" fill="url(#c)" stroke-width=".059132"/>
<path transform="matrix(.015645 0 0 .015645 239.16 701.09)" d="m-10751-7438.9c100.1 47.013 146.01 449.49 171.48 834.66 28.973 438.11-13.054 589.51-246 886.2-200.99 255.99-240.81 312.67-291.83 415.36-57.422 115.58-90.152 247.39-90.536 364.21-0.55 185.29 85.618 472.76 269.03 897.54 60.55 140.23 117.7 290.01 121.81 298.22 54.333 19.449 227.36 8.9929 319.86 3.2148-8.195 0-60.749-160.97-89.202-273.21-85.585-337.5-105.58-502.89-85.197-703.31 24.867-244.49 91.428-399.7 279.65-652.06 135.73-181.98 174.95-244.83 248.98-398.97 122.75-255.6 142.92-467.99 73.889-778.32-59.979-269.65-160.21-531.88-316.55-875.09-139.81-29.782-289.92-19.9-365.38-18.428z" fill="url(#b)" stroke-width="3.7795"/>
<path d="m72.451 575.56 1.0598-3.1722c1.2564-3.7608 1.7002-4.7833 2.4728-5.6975 0.54168-0.64094 0.63419-0.67485 1.4904-0.54646 1.2135 0.18198 3.869 1.0726 4.6994 1.5762 0.46794 0.28375 0.66514 0.55635 0.66514 0.91943 0 0.28384-0.49853 1.6347-1.1078 3.002-1.1136 2.4988-1.832 4.4238-1.7001 4.5557-3.1666-0.50562-7.6129-0.63714-7.5796-0.63714z" fill="url(#a)" stroke-width=".059132"/>
<path transform="translate(-7.1579e-6 -4.2482e-6)" d="m68.67 651.58c-18.008-1.8879-32.242-15.588-34.549-33.255-0.37188-2.8474-0.15919-9.0809 0.40478-11.864 2.6413-13.034 11.816-23.717 24.409-28.421 3.5933-1.3423 7.3138-2.1114 11.394-2.3554l2.1228-0.12691 1.0598-3.1722c1.2564-3.7608 1.7002-4.7833 2.4728-5.6975 0.54168-0.64094 0.63419-0.67485 1.4904-0.54646 1.2135 0.18198 3.869 1.0726 4.6994 1.5762 0.46794 0.28375 0.66514 0.55635 0.66514 0.91943 0 0.28384-0.49853 1.6347-1.1078 3.002-1.1136 2.4988-1.832 4.4238-1.7001 4.5557 0.039 0.039 0.94002 0.29712 2.0022 0.57356 11.474 2.986 20.654 10.487 25.594 20.914 7.295 15.396 3.135 33.992-10.067 45-5.4262 4.5248-11.849 7.4266-19.019 8.5926-2.4297 0.3951-7.51 0.55162-9.871 0.3041zm8.0345-9.2065c8.0799-0.97671 14.373-4.1714 19.358-9.8272 4.13-4.6855 6.3346-9.9414 7.0272-16.753 0.79235-7.7924-2.455-16.528-8.3428-22.442-4.6639-4.685-10.734-7.6903-16.575-8.2068l-1.4949-0.13218 0.55016 1.2078c2.446 5.3697 3.4609 8.2452 4.3993 12.464 1.08 4.8552 0.76452 8.1781-1.156 12.177-1.1581 2.4116-1.7718 3.3949-3.8953 6.2421-2.9448 3.9483-3.9862 6.3766-4.3752 10.202-0.31893 3.1358-6e-3 5.7232 1.333 11.004 0.44516 1.7561 1.2674 4.2746 1.3956 4.2746 0.0231 0 0.82222-0.0943 1.776-0.20964zm-6.9637-0.25627c-0.06427-0.12853-0.77509-2.0563-1.7224-4.2502-2.8696-6.6458-4.2177-11.143-4.2091-14.042 6e-3 -1.8277 0.51804-3.8899 1.4164-5.6983 0.79819-1.6067 1.4212-2.4935 4.5658-6.4986 3.6445-4.6418 4.302-7.0105 3.8487-13.865-0.3985-6.0261-1.3086-12.122-1.9213-12.87-0.32851-0.40093-3.5089-0.16279-6.2988 0.47162-9.9067 2.2528-18.046 9.6426-21.232 19.278-1.0187 3.0803-1.2736 4.8849-1.27 8.9935 4e-3 3.9575 0.18953 5.812 0.83517 8.3245 2.6172 10.185 11.059 18.302 20.903 20.099 2.0404 0.37253 5.4195 0.72762 5.2632 0.41501z" fill="url(#c)" stroke-width=".059132"/>
<path transform="matrix(.015645 0 0 .015645 239.16 701.09)" d="m-10751-7438.9c100.1 47.013 146.01 449.49 171.48 834.66 28.973 438.11-13.054 589.51-246 886.2-200.99 255.99-240.81 312.67-291.83 415.36-57.422 115.58-90.152 247.39-90.536 364.21-0.55 185.29 85.618 472.76 269.03 897.54 60.55 140.23 117.7 290.01 121.81 298.22 54.333 19.449 227.36 8.9929 319.86 3.2148-8.195 0-60.749-160.97-89.202-273.21-85.585-337.5-105.58-502.89-85.197-703.31 24.867-244.49 91.428-399.7 279.65-652.06 135.73-181.98 174.95-244.83 248.98-398.97 122.75-255.6 142.92-467.99 73.889-778.32-59.979-269.65-160.21-531.88-316.55-875.09-139.81-29.782-289.92-19.9-365.38-18.428z" fill="url(#b)" stroke-width="3.7795"/>
<path d="m72.451 575.56 1.0598-3.1722c1.2564-3.7608 1.7002-4.7833 2.4728-5.6975 0.54168-0.64094 0.63419-0.67485 1.4904-0.54646 1.2135 0.18198 3.869 1.0726 4.6994 1.5762 0.46794 0.28375 0.66514 0.55635 0.66514 0.91943 0 0.28384-0.49853 1.6347-1.1078 3.002-1.1136 2.4988-1.832 4.4238-1.7001 4.5557-3.1666-0.50562-7.6129-0.63714-7.5796-0.63714z" fill="url(#a)" stroke-width=".059132"/>
<path d="m-28.378 651.01c9.6078-0.0583 10.519-1.4796 10.625-8v-64.016c-6.9852-0.77688-13.209-0.7922-10.625 8z" fill="url(#f)"/>
<path d="m190 624.6c2.9733-5.4892 11.867-3.4911 11.933-9.8779h-34.305c-0.6919 7.7396 3.4088 9.6089 9 9.5918l9.7539 0.38392z" fill="url(#e)"/>
<path d="m254.58 575.4c-20.481 0.13213-38.124 19.379-36.365 39.826 0.35439 20.249 19.232 37.881 39.652 35.951 20.817-0.281 37.965-21.007 35.092-41.607-1.3496-19.028-19.143-35.361-38.379-34.17zm1.0762 10.141c16.268-0.58381 29.571 15.986 26.777 31.772-1.3339 15.258-17.354 27.178-32.374 23.309-13.584-2.562-23.129-16.471-21.189-30.064 0.69016-13.724 12.904-25.523 26.787-25.016z" fill="url(#d)"/>
</g>
</g>
</g>
</g>
</g>
</svg>
