<?xml version="1.0" encoding="UTF-8" standalone="no"?>
<svg viewBox="0 0 119.97244 114.70285">
  <defs
     id="defs2" />
  <g
     transform="translate(69.383742,-129.7282)">
    <path
       d="m -67.945012,205.80189 v -38.62917 h 12.59417 12.59416 v 38.62917 38.62916 h -12.59416 -12.59417 z m 40.2841,38.28791 c -0.072,-0.18769 -0.0698,-2.97375 0.005,-6.19125 0.0748,-3.2175 0.13671,-20.44706 0.1376,-38.28791 l 0.002,-32.43792 h 12.48834 12.4883301 v 5.3975 c 0,5.08223 0.0226,5.3975 0.38597,5.3975 0.23918,0 0.75915,-0.54616 1.36714,-1.43598 2.81931,-4.1262 7.25053,-7.76843 11.3702299,-9.34573 5.20912,-1.99441 12.64482,-2.32205 18.7325,-0.82541 8.16158,2.00651 14.31588,7.14211 17.84113,14.88796 1.61547,3.54956 2.74409,8.0357 3.21403,12.77534 0.13457,1.35724 0.21734,11.37276 0.21734,26.29958 v 24.10757 h -12.48834 -12.48833 l -0.007,-21.43125 c -0.008,-25.89264 -0.0443,-26.39883 -2.22451,-31.02226 -2.18885,-4.64171 -5.86732,-6.87744 -11.31556,-6.87744 -4.1852999,0 -7.1111199,1.19598 -9.9042799,4.04853 -2.62837,2.68425 -3.93271,5.16615 -4.47654,8.51793 -0.14362,0.88517 -0.22154,9.30958 -0.22258,24.06324 l -0.002,22.70125 H -15.035412 c -11.2979,0 -12.50753,-0.0327 -12.62593,-0.34125 z m -30.6457,-88.58261 c -2.86818,-0.41782 -5.37825,-1.65545 -7.40094,-3.64915 -2.35938,-2.32556 -3.48461,-4.87645 -3.65511,-8.28615 -0.31399,-6.27899 2.89086,-11.03607 8.86704,-13.16171 1.27166,-0.45231 2.04472,-0.56849 4.35071,-0.65385 2.98501,-0.1105 4.60662,0.0923 6.6149,0.82714 3.73346,1.36613 6.43271,4.17914 7.70552,8.03025 0.48289,1.46108 0.57971,2.12485 0.58206,3.99039 0.003,2.63119 -0.24108,3.78913 -1.25406,5.94195 -0.88122,1.87276 -3.06859,4.19422 -4.91685,5.21827 -3.03052,1.67908 -6.98644,2.312 -10.89327,1.74286 z"
       style="fill:#344561;stroke-width:0.21166666" />
  </g>
</svg>
