<?xml version="1.0" encoding="UTF-8"?>
<svg viewBox="0 0 119.97 114.7" xmlns="http://www.w3.org/2000/svg">
<g transform="translate(69.384 -129.73)">
<path d="m-67.945 205.8v-38.629h25.188v77.258h-25.188zm40.284 38.288c-0.072-0.18769-0.0698-2.9738 5e-3 -6.1912s0.13671-20.447 0.1376-38.288l2e-3 -32.438h24.977v5.3975c0 5.0822 0.0226 5.3975 0.38597 5.3975 0.23918 0 0.75915-0.54616 1.3671-1.436 2.8193-4.1262 7.2505-7.7684 11.37-9.3457 5.2091-1.9944 12.645-2.322 18.732-0.82541 8.1616 2.0065 14.316 7.1421 17.841 14.888 1.6155 3.5496 2.7441 8.0357 3.214 12.775 0.13457 1.3572 0.21734 11.373 0.21734 26.3v24.108h-24.977l-7e-3 -21.431c-8e-3 -25.893-0.0443-26.399-2.2245-31.022-2.1888-4.6417-5.8673-6.8774-11.316-6.8774-4.1853 0-7.1111 1.196-9.9043 4.0485-2.6284 2.6842-3.9327 5.1662-4.4765 8.5179-0.14362 0.88517-0.22154 9.3096-0.22258 24.063l-2e-3 22.701h-12.495c-11.298 0-12.508-0.0327-12.626-0.34125zm-30.646-88.583c-2.8682-0.41782-5.3782-1.6554-7.4009-3.6492-2.3594-2.3256-3.4846-4.8764-3.6551-8.2862-0.31399-6.279 2.8909-11.036 8.867-13.162 1.2717-0.45231 2.0447-0.56849 4.3507-0.65385 2.985-0.1105 4.6066 0.0923 6.6149 0.82714 3.7335 1.3661 6.4327 4.1791 7.7055 8.0302 0.48289 1.4611 0.57971 2.1248 0.58206 3.9904 3e-3 2.6312-0.24108 3.7891-1.2541 5.942-0.88122 1.8728-3.0686 4.1942-4.9168 5.2183-3.0305 1.6791-6.9864 2.312-10.893 1.7429z" fill="#344561" stroke-width=".21167"/>
</g>
</svg>
