<svg width="25" height="26" viewBox="0 0 25 26" fill="none" xmlns="http://www.w3.org/2000/svg">
<path d="M5 20.667V10.192H8.2V20.667H5ZM8.3 7.29199C8.325 8.19199 7.65 8.91699 6.575 8.91699C5.575 8.91699 4.925 8.19199 4.925 7.29199C4.925 6.36699 5.6 5.66699 6.625 5.66699C7.65 5.66699 8.3 6.36699 8.3 7.29199ZM16.7 20.667V14.867C16.7 13.517 16.25 12.592 15.075 12.592C14.2 12.592 13.675 13.217 13.425 13.817C13.35 14.042 13.325 14.342 13.325 14.642V20.667H10.125V13.542C10.125 12.242 10.075 11.142 10.05 10.192H12.825L12.975 11.667H13.025C13.45 10.967 14.5 9.96699 16.225 9.96699C18.325 9.96699 19.925 11.392 19.925 14.492V20.667H16.7ZM25 2.86699C25 1.66699 24 0.666992 22.8 0.666992H2.2C1 0.666992 0 1.66699 0 2.86699V23.467C0 24.667 1 25.667 2.2 25.667H22.8C24 25.667 25 24.667 25 23.467V2.86699Z" fill="#727B80"/>
</svg>
