<?xml version="1.0" encoding="UTF-8" standalone="no"?>
<!-- Created with Inkscape (http://www.inkscape.org/) -->

<svg
   xmlns:dc="http://purl.org/dc/elements/1.1/"
   xmlns:cc="http://creativecommons.org/ns#"
   xmlns:rdf="http://www.w3.org/1999/02/22-rdf-syntax-ns#"
   xmlns:svg="http://www.w3.org/2000/svg"
   xmlns="http://www.w3.org/2000/svg"
   xmlns:xlink="http://www.w3.org/1999/xlink"
   xmlns:sodipodi="http://sodipodi.sourceforge.net/DTD/sodipodi-0.dtd"
   xmlns:inkscape="http://www.inkscape.org/namespaces/inkscape"
   width="4.4856129in"
   height="0.58721435in"
   viewBox="0 0 113.93457 14.915244"
   version="1.1"
   id="svg8"
   sodipodi:docname="m-full-script-blue.svg"
   inkscape:version="0.92.4 (5da689c313, 2019-01-14)">
  <defs
     id="defs2">
    <linearGradient
       inkscape:collect="always"
       id="linearGradient881">
      <stop
         style="stop-color:#2193b0;stop-opacity:1"
         offset="0"
         id="stop877" />
      <stop
         style="stop-color:#6dd5ed;stop-opacity:1"
         offset="1"
         id="stop879" />
    </linearGradient>
    <linearGradient
       inkscape:collect="always"
       xlink:href="#linearGradient881"
       id="linearGradient894"
       gradientUnits="userSpaceOnUse"
       gradientTransform="translate(-9.8221555,14.854538)"
       x1="3.0234864"
       y1="-12.224494"
       x2="65.176643"
       y2="-2.3021121" />
    <linearGradient
       y2="-5.9102507"
       x2="57.960365"
       y1="-12.224494"
       x1="3.0234864"
       gradientTransform="matrix(1,0,0,1.0475754,-9.8096273,221.07618)"
       gradientUnits="userSpaceOnUse"
       id="linearGradient894-7"
       xlink:href="#linearGradient881"
       inkscape:collect="always" />
  </defs>
  <sodipodi:namedview
     id="base"
     pagecolor="#ffffff"
     bordercolor="#666666"
     borderopacity="1.0"
     inkscape:pageopacity="0.0"
     inkscape:pageshadow="2"
     inkscape:zoom="0.98994949"
     inkscape:cx="443.8872"
     inkscape:cy="253.60739"
     inkscape:document-units="mm"
     inkscape:current-layer="svg8"
     showgrid="false"
     fit-margin-top="0"
     fit-margin-left="0"
     fit-margin-right="0"
     fit-margin-bottom="0"
     inkscape:window-width="1920"
     inkscape:window-height="1001"
     inkscape:window-x="-9"
     inkscape:window-y="-9"
     inkscape:window-maximized="1"
     units="in" />
  <metadata
     id="metadata5">
    <rdf:RDF>
      <cc:Work
         rdf:about="">
        <dc:format>image/svg+xml</dc:format>
        <dc:type
           rdf:resource="http://purl.org/dc/dcmitype/StillImage" />
        <dc:title></dc:title>
      </cc:Work>
    </rdf:RDF>
  </metadata>
  <g
     id="g1012"
     transform="translate(-558.35766,-384.34618)">
    <path
       inkscape:connector-curvature="0"
       id="path830"
       d="m 561.82621,399.05374 c -1.01685,-0.44396 -1.61974,-1.0906 -1.93246,-2.07276 -0.0844,-0.26497 -0.1172,-0.66927 -0.14989,-1.84959 -0.0342,-1.23072 -0.0618,-1.55619 -0.14873,-1.75713 -0.19481,-0.44962 -0.60727,-0.77066 -0.99013,-0.77066 -0.22334,0 -0.26466,-0.1423 -0.24176,-0.83231 0.0116,-0.33909 0.0208,-0.64646 0.0211,-0.68302 2.3e-4,-0.0367 0.14461,-0.0997 0.32066,-0.14032 0.41387,-0.0956 0.68037,-0.30342 0.859,-0.67007 0.1347,-0.27638 0.14576,-0.3895 0.18153,-1.83586 0.0411,-1.66383 0.0951,-1.97569 0.44491,-2.57182 0.26694,-0.45489 0.88467,-0.99056 1.46766,-1.27275 0.77572,-0.37547 0.8003,-0.36869 1.03421,0.28527 0.10631,0.29735 0.1934,0.55626 0.1934,0.57533 0,0.019 -0.13454,0.12183 -0.29902,0.22843 -0.16441,0.10664 -0.37028,0.30143 -0.45736,0.43302 -0.31554,0.47681 -0.36769,0.78511 -0.41378,2.44583 -0.0383,1.37918 -0.057,1.57794 -0.17816,1.88936 -0.17818,0.45808 -0.44349,0.81602 -0.78138,1.0542 -0.15105,0.10647 -0.27478,0.22478 -0.27478,0.26282 0,0.0379 0.12266,0.16112 0.27262,0.27343 0.34558,0.25892 0.62733,0.65028 0.7921,1.10022 0.11275,0.308 0.13404,0.54576 0.16897,1.89356 0.0351,1.35691 0.0556,1.58452 0.17142,1.90229 0.16358,0.44929 0.36769,0.72086 0.7281,0.96884 0.15402,0.10598 0.26815,0.22459 0.25379,0.26371 -0.0149,0.0391 -0.0893,0.26535 -0.16666,0.50271 -0.15005,0.46077 -0.22122,0.58616 -0.33205,0.58495 -0.0381,-2.3e-4 -0.28277,-0.0939 -0.54341,-0.20767 z"
       style="fill:#354762;fill-opacity:1;stroke-width:0.26458335"
       sodipodi:nodetypes="ccccsccccccccscccccsccccccccc" />
    <path
       inkscape:connector-curvature="0"
       id="path830-4"
       d="m 581.02141,397.21375 c -0.29442,-0.12044 -0.51202,-0.4312 -0.50753,-0.72469 0.003,-0.16134 0.3505,-1.02233 0.83103,-2.05586 2.28979,-4.92487 3.3009,-7.06979 3.41418,-7.24268 0.25554,-0.38999 0.93999,-0.51077 1.43725,-0.25364 0.28461,0.14719 0.3591,0.29043 2.09362,4.02656 0.45407,0.97805 0.99939,2.1491 1.21181,2.60232 1.04371,2.22679 1.27837,2.75835 1.27837,2.89566 0,0.27427 -0.24945,0.63534 -0.51493,0.74531 -0.29686,0.12297 -0.80394,0.0598 -0.95192,-0.11842 -0.0529,-0.0639 -0.30808,-0.57615 -0.56683,-1.1384 -0.25873,-0.56224 -0.52179,-1.05484 -0.5846,-1.09466 -0.0628,-0.0398 -1.21084,-0.0731 -2.55123,-0.0738 -2.21548,-8.9e-4 -2.44871,0.0126 -2.56494,0.15047 -0.0703,0.0834 -0.3185,0.57486 -0.55155,1.0919 -0.23305,0.51704 -0.51861,1.01474 -0.63461,1.10597 -0.21986,0.17294 -0.54184,0.20518 -0.83812,0.0838 z m 6.46245,-3.99714 c 0,-0.20502 -1.77257,-4.07669 -1.85402,-4.04955 -0.11434,0.0381 -1.87784,3.97853 -1.82141,4.06985 0.0655,0.10582 3.67543,0.0861 3.67543,-0.0203 z"
       style="fill:#354762;fill-opacity:1;stroke-width:0.26458335"
       sodipodi:nodetypes="cccccccsccccccsccccsccc" />
    <path
       inkscape:connector-curvature="0"
       id="path830-9"
       d="m 569.1829,396.78291 c -0.10392,-0.0968 -0.21043,-0.26297 -0.23661,-0.36914 -0.0262,-0.10621 -0.0364,-2.2973 -0.0228,-4.86919 l 0.0248,-4.67618 0.2437,-0.20957 c 0.33326,-0.2866 0.82736,-0.28379 1.17256,0.007 0.14401,0.12123 0.49635,0.68451 0.80131,1.28116 0.29934,0.58569 0.82552,1.59254 1.16927,2.23746 0.34377,0.64493 0.83015,1.57321 1.08087,2.06288 0.25072,0.48965 0.50109,0.88976 0.55637,0.88909 0.0554,-6.7e-4 0.64415,-1.04621 1.30858,-2.32344 1.98016,-3.8065 2.15033,-4.10581 2.41084,-4.24052 0.35442,-0.18328 0.72478,-0.15123 1.00143,0.0866 l 0.24371,0.20956 0.0434,4.50247 c 0.0239,2.47637 0.0192,4.67584 -0.0102,4.88771 -0.0664,0.47585 -0.31539,0.7005 -0.7761,0.7005 -0.2267,0 -0.41076,-0.067 -0.57668,-0.20954 l -0.2437,-0.20954 -0.025,-3.09723 c -0.0166,-2.08209 -0.0543,-3.08743 -0.11461,-3.06732 -0.0494,0.0164 -0.63479,1.06479 -1.30096,2.32963 -0.66617,1.26483 -1.31054,2.38765 -1.43193,2.49513 -0.1473,0.13043 -0.33164,0.19542 -0.55429,0.19542 -0.43671,0 -0.69501,-0.29222 -1.35737,-1.53565 -1.24197,-2.33154 -1.82578,-3.36022 -1.926,-3.39363 -0.085,-0.0282 -0.10825,0.59874 -0.10825,2.92024 0,1.98163 -0.0318,3.0261 -0.0964,3.16796 -0.18841,0.41352 -0.93391,0.54697 -1.27586,0.22841 z"
       style="fill:#354762;fill-opacity:1;stroke-width:0.26458335"
       sodipodi:nodetypes="ccccccccscccccccsccccscsccsccc" />
    <path
       inkscape:connector-curvature="0"
       id="path830-1"
       d="m 599.41218,397.02707 c -0.23751,-0.0685 -0.43546,-0.31816 -1.3919,-1.75573 -1.22918,-1.84748 -1.35931,-2.01348 -1.73068,-2.20799 -0.35868,-0.18788 -1.92064,-0.25744 -2.05821,-0.0917 -0.0663,0.0797 -0.10753,0.70362 -0.12519,1.88753 l -0.0262,1.76834 -0.23844,0.20495 c -0.35237,0.30286 -0.92469,0.28718 -1.24597,-0.034 -0.22503,-0.22502 -0.24254,-0.29607 -0.2984,-1.21108 -0.0984,-1.61118 -0.0193,-8.16562 0.10112,-8.37546 0.20537,-0.35806 0.45206,-0.38602 3.13679,-0.35544 2.40916,0.0274 2.56417,0.0388 3.02391,0.2228 0.64291,0.25722 1.26732,0.82882 1.52201,1.39329 0.27949,0.61942 0.29075,2.03147 0.0209,2.61584 -0.31817,0.68892 -0.98202,1.22533 -1.94246,1.56958 -0.16276,0.0584 -0.16095,0.0669 0.0425,0.19853 0.42036,0.27221 0.82043,0.76648 1.59351,1.96886 0.87441,1.35994 0.95199,1.62905 0.57752,2.00351 -0.11476,0.11475 -0.26458,0.20861 -0.333,0.20861 -0.0685,0 -0.17532,0.0155 -0.23757,0.0347 -0.0622,0.0191 -0.23779,-10e-4 -0.39008,-0.0451 z m -1.66974,-5.77674 c 0.63033,-0.31586 0.75681,-0.54888 0.75681,-1.39428 0,-0.79844 -0.11924,-1.04936 -0.64628,-1.35979 -0.26262,-0.15469 -0.44142,-0.16998 -1.98832,-0.16998 h -1.69972 l -0.0233,1.4761 c -0.0165,1.05059 0.006,1.51138 0.0783,1.59853 0.0835,0.10052 0.36984,0.11637 1.60803,0.0882 1.38351,-0.0315 1.53973,-0.0509 1.91446,-0.23873 z"
       style="fill:#354762;fill-opacity:1;stroke-width:0.26458332"
       sodipodi:nodetypes="cccccccccccccccccssccccscscccccc" />
    <path
       inkscape:connector-curvature="0"
       id="path830-7"
       d="m 603.21368,396.98769 -0.26097,-0.26097 v -4.83397 c 0,-3.1447 0.0322,-4.89401 0.0919,-5.00576 0.21672,-0.40493 1.01999,-0.57285 1.41543,-0.29586 0.44866,0.31424 0.45685,0.40853 0.45685,5.25597 0,4.84746 -0.008,4.94173 -0.45685,5.25598 -0.11493,0.0804 -0.38171,0.14559 -0.59662,0.14559 -0.31066,0 -0.44122,-0.0524 -0.64976,-0.26098 z"
       style="fill:#354762;fill-opacity:1;stroke-width:0.26458335"
       sodipodi:nodetypes="scsccscss" />
    <path
       inkscape:connector-curvature="0"
       id="path830-5"
       d="m 607.50003,397.00911 c -0.12662,-0.0995 -0.26797,-0.32758 -0.31426,-0.50676 -0.107,-0.41395 -0.12016,-8.64871 -0.0148,-9.18039 0.1451,-0.73175 0.83009,-1.01838 1.48275,-0.62045 0.15753,0.096 0.29449,0.18513 0.30437,0.19796 0.0103,0.0129 0.0396,0.95206 0.0661,2.08719 0.0333,1.4267 0.0791,2.07415 0.14851,2.09719 0.0553,0.0183 0.90786,-0.7269 1.89483,-1.65608 2.77447,-2.61202 3.11717,-2.90156 3.43427,-2.90156 0.19256,0 0.36066,0.088 0.57229,0.29965 0.31876,0.31875 0.36952,0.57669 0.18051,0.9173 -0.1092,0.19689 -1.20105,1.23151 -3.16363,2.99798 -0.521,0.46893 -0.94734,0.89863 -0.9474,0.95486 -9e-5,0.0844 2.22484,2.21119 3.89518,3.72326 0.66868,0.60533 0.73765,1.15811 0.1975,1.583 -0.23681,0.18627 -0.56342,0.23081 -0.84726,0.11552 -0.0812,-0.0329 -1.26284,-1.10448 -2.626,-2.38119 -1.60995,-1.50786 -2.52338,-2.3041 -2.6066,-2.27216 -0.107,0.041 -0.12817,0.39116 -0.12817,2.12979 v 2.08064 l -0.25761,0.2576 c -0.32488,0.32488 -0.9102,0.36018 -1.27068,0.0767 z"
       style="fill:#354762;fill-opacity:1;stroke-width:0.26458335"
       sodipodi:nodetypes="ccccccccscccccccccscccc" />
    <path
       inkscape:connector-curvature="0"
       id="path830-52"
       d="m 626.36429,396.99738 c -0.40565,-0.16344 -0.41208,-0.22748 -0.45772,-4.56341 l -0.043,-4.0904 -1.53611,-0.043 -1.5361,-0.043 -0.2077,-0.24161 c -0.28006,-0.32577 -0.27851,-0.77184 0.004,-1.054 l 0.21137,-0.21138 h 4.05516 4.05517 c 0.46499,0.39964 0.46064,1.14493 0.0547,1.39738 -0.12485,0.0714 -0.70229,0.1246 -1.65571,0.15267 l -1.46392,0.043 -0.0431,4.0904 c -0.0463,4.39423 -0.0417,4.35151 -0.49456,4.55788 -0.23954,0.10915 -0.67865,0.11175 -0.94222,0.005 z"
       style="fill:#354762;fill-opacity:1;stroke-width:0.26458332"
       sodipodi:nodetypes="ccccccccccccccccc" />
    <path
       inkscape:connector-curvature="0"
       id="path830-97"
       d="m 633.119,396.80684 -0.22097,-0.26261 v -4.56632 -4.56632 l 0.2495,-0.24949 0.24949,-0.24948 h 3.04042 3.04041 l 0.20951,0.2095 c 0.30846,0.30846 0.28626,0.73494 -0.0531,1.0205 l -0.26261,0.22097 h -2.28882 c -2.00834,0 -2.29515,0.0165 -2.34061,0.13502 -0.0284,0.0742 -0.0518,0.66487 -0.0518,1.31249 0,0.8583 0.0298,1.20231 0.11025,1.269 0.0702,0.0583 0.89304,0.10088 2.2596,0.11712 2.0182,0.0242 2.15975,0.036 2.32017,0.19662 0.094,0.094 0.19547,0.29415 0.22559,0.44468 0.0461,0.23006 0.0133,0.31503 -0.20474,0.53315 l -0.25949,0.25948 h -2.12328 c -1.53764,0 -2.15154,0.0282 -2.22569,0.10235 -0.11575,0.11575 -0.14667,2.5978 -0.0346,2.77418 0.0477,0.0748 0.69693,0.10949 2.39603,0.12801 l 2.3308,0.0254 0.20586,0.23948 c 0.26906,0.31296 0.26763,0.68806 -0.005,0.95932 l -0.20951,0.2095 h -3.06894 -3.06894 z"
       style="fill:#354762;fill-opacity:1;stroke-width:0.26458335"
       sodipodi:nodetypes="cccccccccccscsccccscscccccccccc" />
    <path
       inkscape:connector-curvature="0"
       id="path830-3"
       d="m 645.78483,397.20147 c -2.42776,-0.52329 -3.86112,-2.67039 -3.7037,-5.54796 0.062,-1.13505 0.22455,-1.78932 0.64228,-2.58663 0.83248,-1.58897 2.57773,-2.49475 4.58033,-2.37718 1.2541,0.0736 2.51531,0.54983 3.11477,1.17601 0.32981,0.34454 0.34883,0.86735 0.0433,1.19331 -0.2726,0.29091 -0.56181,0.24335 -1.29526,-0.21297 -0.78552,-0.48872 -1.42252,-0.65565 -2.29453,-0.60124 -0.92157,0.0574 -1.49575,0.30555 -1.99653,0.86253 -0.47287,0.52594 -0.70712,1.13261 -0.83112,2.15244 -0.24687,2.03044 0.40756,3.69767 1.67272,4.26143 0.38642,0.17219 0.6036,0.20463 1.38599,0.20708 l 0.92778,0.003 0.98971,-0.50927 c 0.67927,-0.34952 1.04487,-0.49176 1.16557,-0.45346 0.30537,0.097 0.48279,0.37228 0.48279,0.74932 0,0.46607 -0.354,0.8364 -1.19834,1.25359 -1.09587,0.54147 -2.44102,0.69845 -3.68585,0.43012 z"
       style="fill:#354762;fill-opacity:1;stroke-width:0.26458335"
       sodipodi:nodetypes="ccccccsccccccccsccc" />
    <path
       inkscape:connector-curvature="0"
       id="path830-0"
       d="m 652.98947,396.92098 -0.24261,-0.20866 v -4.81392 -4.81391 l 0.24261,-0.20868 c 0.39846,-0.34274 1.20603,-0.22008 1.44095,0.21886 0.0529,0.0989 0.089,0.89848 0.089,1.97057 0,1.28797 0.0297,1.83388 0.10373,1.90796 0.14808,0.1481 5.00534,0.1481 5.15344,0 0.0741,-0.0741 0.10372,-0.61999 0.10372,-1.90796 0,-1.07209 0.0361,-1.87172 0.089,-1.97057 0.11309,-0.2113 0.52726,-0.42753 0.8189,-0.42753 0.32533,0 0.68551,0.2118 0.80458,0.47315 0.0759,0.16658 0.10334,1.43093 0.10334,4.76647 0,4.85262 -0.005,4.90751 -0.42754,5.13388 -0.30604,0.16379 -0.84022,0.10587 -1.10244,-0.11954 l -0.2426,-0.20853 -0.0248,-1.97477 c -0.0215,-1.71777 -0.0434,-1.98883 -0.16784,-2.08284 -0.1065,-0.0804 -0.75675,-0.10815 -2.54149,-0.10815 -2.06506,0 -2.41726,0.0189 -2.53426,0.13587 -0.11524,0.11523 -0.13587,0.42415 -0.13587,2.03864 v 1.90275 l -0.25276,0.25274 c -0.33673,0.33674 -0.91382,0.35664 -1.2772,0.044 z"
       style="fill:#354762;fill-opacity:1;stroke-width:0.26458335"
       sodipodi:nodetypes="ccccscsscscscscccccssscccc" />
    <path
       inkscape:connector-curvature="0"
       id="path830-8"
       d="m 668.16507,399.21138 c -0.0741,-0.11983 -0.34027,-0.94369 -0.34027,-1.05305 0,-0.0588 0.0946,-0.16539 0.21034,-0.23689 0.31422,-0.1942 0.5578,-0.50217 0.71347,-0.90211 0.1258,-0.32317 0.14352,-0.50534 0.18402,-1.89065 0.026,-0.89068 0.0759,-1.63581 0.11922,-1.77832 0.16779,-0.55293 0.53647,-1.06291 0.95578,-1.32206 0.11479,-0.071 0.2087,-0.15136 0.2087,-0.17871 0,-0.0274 -0.13663,-0.15392 -0.30363,-0.28126 -0.37361,-0.28492 -0.6164,-0.61863 -0.80031,-1.10005 -0.12734,-0.33331 -0.14467,-0.51218 -0.18421,-1.90096 -0.0311,-1.09587 -0.0699,-1.61383 -0.13588,-1.8164 -0.13117,-0.403 -0.44236,-0.82769 -0.72453,-0.98881 -0.2924,-0.16697 -0.29808,-0.23111 -0.0759,-0.85873 0.20643,-0.58331 0.23705,-0.58914 1.04093,-0.19807 0.95589,0.465 1.50895,1.12777 1.76845,2.11927 0.0752,0.28723 0.11379,0.79161 0.14282,1.86539 0.0396,1.4665 0.0405,1.47273 0.21032,1.76264 0.18123,0.30913 0.39243,0.4514 0.84033,0.56603 l 0.27594,0.0706 0.0174,0.69251 c 0.0188,0.74666 -0.0183,0.86337 -0.27324,0.86337 -0.18807,0 -0.49233,0.15213 -0.70833,0.35417 -0.28438,0.26601 -0.3419,0.58716 -0.37599,2.09868 -0.0348,1.53976 -0.0877,1.83567 -0.45285,2.53279 -0.28302,0.5402 -0.80573,1.01802 -1.45701,1.3319 -0.57267,0.276 -0.79811,0.34152 -0.8555,0.24866 z"
       style="fill:#354762;fill-opacity:1;stroke-width:0.26458335"
       sodipodi:nodetypes="cscccccsccccsccccccccssccccc" />
  </g>
</svg>
