<?xml version="1.0" encoding="UTF-8" standalone="no"?>
<svg
   xmlns:svg="http://www.w3.org/2000/svg"
   xmlns="http://www.w3.org/2000/svg"
   width="24.221132mm"
   height="16.518463mm"
   viewBox="0 0 24.221132 16.518463"
>
  
  <path
     d="m 3.8413115,16.288474 c -1.12616,-0.49169 -1.79384,-1.20783 -2.14019,-2.29556 -0.0934,-0.29344 -0.12972,-0.74122 -0.16595,-2.04841 -0.0378,-1.36299 -0.0683,-1.72346 -0.1647,-1.9459897 -0.21573,-0.49795 -0.67253001,-0.8535 -1.09655001,-0.8535 -0.24735,0 -0.2931,-0.1575 -0.26774,-0.92178 0.0125,-0.37555 0.023,-0.71594 0.0234,-0.75643 2.6e-4,-0.0405 0.16022,-0.11043 0.35513,-0.15542 0.45835,-0.1058 0.75350001,-0.33604 0.95132001,-0.7421 0.14912,-0.30609 0.16151,-0.43137 0.20106,-2.03319 0.0455,-1.84267 0.10526,-2.18807 0.49271,-2.84826 0.29565,-0.50378 0.97978,-1.09704995 1.62543,-1.40955995 0.8591,-0.41583 0.88631,-0.40832 1.14538,0.31594 0.1178,0.32932 0.21419,0.61604995 0.21419,0.63716995 0,0.0211 -0.14903,0.13496 -0.33117,0.25298 -0.18215,0.11803 -0.41008,0.33383 -0.50652,0.47956 -0.34946,0.52806 -0.40722,0.86949 -0.45825,2.70873 -0.0424,1.52743 -0.0631,1.74755 -0.1973,2.09244 -0.19735,0.50733 -0.49118,0.90374 -0.86539,1.16751 -0.16737,0.11797 -0.30431,0.24896 -0.30431,0.29108 0,0.0421 0.13587,0.17839 0.30193,0.30282 0.38272,0.28675 0.69475,0.72017 0.87724,1.21849 0.12491,0.3410997 0.14841,0.6044297 0.18712,2.0970897 0.039,1.50276 0.0617,1.75484 0.18984,2.10676 0.1812,0.4976 0.40722,0.79835 0.80638,1.07298 0.17049,0.1173 0.29697,0.24873 0.28106,0.29206 -0.0159,0.0433 -0.099,0.29386 -0.18457,0.55674 -0.16618,0.5103 -0.245,0.64916 -0.36774,0.64783 -0.0423,-2.6e-4 -0.31316,-0.10395 -0.60181,-0.22998 z m 15.7843395,0.16793 c -0.0825,-0.13342 -0.37888,-1.05078 -0.37888,-1.17255 0,-0.0655 0.10539,-0.18417 0.23421,-0.26378 0.34988,-0.21624 0.6211,-0.55916 0.79444,-1.00449 0.14008,-0.35984 0.15981,-0.56269 0.2049,-2.10522 0.029,-0.99175 0.0846,-1.82145 0.13275,-1.9801297 0.18683,-0.61569 0.59735,-1.18354 1.06425,-1.4721 0.12782,-0.079 0.23238,-0.16854 0.23238,-0.19899 0,-0.0305 -0.15213,-0.17139 -0.33808,-0.31319 -0.41601,-0.31726 -0.68635,-0.68884 -0.89114,-1.22489 -0.14179,-0.37113 -0.16109,-0.57031 -0.20511,-2.11669 -0.0347,-1.22025 -0.0779,-1.79699 -0.15131,-2.02255 -0.14606,-0.44873 -0.49256,-0.92162 -0.80675,-1.10103 -0.32559,-0.18592 -0.33191,-0.25734 -0.0846,-0.95617995 0.22986,-0.64952 0.26396,-0.65601 1.15908,-0.22056 1.06437,0.51778 1.68018,1.25575995 1.96914,2.35978995 0.0837,0.31983 0.12671,0.88145 0.15903,2.07709 0.0441,1.63293 0.045,1.63987 0.23419,1.96268 0.20179,0.34421 0.43696,0.50263 0.93569,0.63028 l 0.30726,0.0786 0.0194,0.77111 c 0.0209,0.8314 -0.0203,0.96136 -0.30425,0.96136 -0.20942,0 -0.54821,0.16939 -0.78872,0.39436 -0.31665,0.29619 -0.3807,0.6537797 -0.41866,2.3368497 -0.0387,1.71451 -0.0976,2.044 -0.50424,2.82024 -0.31514,0.6015 -0.89717,1.13355 -1.62237,1.48305 -0.63767,0.30732 -0.88868,0.38029 -0.95259,0.27689 z"
     style="fill:#354762;fill-opacity:1;stroke-width:0.26458335"
     />
  <path
     style="fill:#354762;fill-opacity:1;stroke-width:0.26458335"
     d="m 6.7624115,13.974024 c -0.11716,-0.10918 -0.23729,-0.29653 -0.2668,-0.41623 -0.0296,-0.11977 -0.0411,-2.59039 -0.0256,-5.4903997 l 0.028,-5.27274 0.27479,-0.23631 c 0.37578,-0.32316 0.93291,-0.31999 1.32216,0.007 0.16238,0.1367 0.55967,0.77185 0.90353,1.44461 0.33754,0.66041 0.93085,1.7957 1.3184495,2.52292 0.38763,0.72719 0.93605,1.77391 1.21876,2.32604 0.2827,0.55212 0.56502,1.00327 0.62735,1.00253 0.0624,-7.7e-4 0.72633,-1.17968 1.47552,-2.61987 2.23278,-4.29212 2.42466,-4.6296 2.71841,-4.78151 0.39964,-0.20665 0.81723,-0.17052 1.12919,0.0977 l 0.2748,0.23629 0.0489,5.0769 c 0.0269,2.7922797 0.0217,5.2723497 -0.0118,5.5112597 -0.0749,0.53655 -0.35562,0.78985 -0.87512,0.78985 -0.25562,0 -0.46315,-0.0754 -0.65024,-0.23626 l -0.27479,-0.23627 -0.0281,-3.49237 c -0.0188,-2.3477097 -0.0612,-3.4813097 -0.12919,-3.4586397 -0.0557,0.0186 -0.71577,1.20064 -1.46693,2.62684 -0.75116,1.4261997 -1.47774,2.6922597 -1.61461,2.8134497 -0.16609,0.14707 -0.37395,0.22036 -0.62501,0.22036 -0.49242,0 -0.78367,-0.32951 -1.53054,-1.73156 C 9.2031415,8.0486043 8.5448315,6.8886943 8.4318415,6.8510343 c -0.0958,-0.0319 -0.12212,0.67512 -0.12212,3.2927797 0,2.23445 -0.0358,3.41215 -0.10879,3.57213 -0.21244,0.46627 -1.05305,0.61675 -1.43862,0.25754 z"
    />
</svg>
