<svg xmlns="http://www.w3.org/2000/svg" width="299.47006" height="299.50983" viewBox="0 0 79.23479 79.24531">
  <defs/>
  <path fill="#9fd6dd" d="M38.92812 75.68144c-.48124-.23269-3.19587-2.84448-9.90656-9.53127-5.08401-5.0659-9.24367-9.30508-9.24367-9.42037 0-.19248 3.27397-5.39109 4.06105-6.44839.338-.45404.34798-.45671 1.4421-.3865.61266.03931 1.3051-.00014 1.55984-.08898.25196-.08784.54777-.12529.65736-.08324.1096.04204 1.32618 1.71306 2.70352 3.71335 1.37734 2.0003 5.04207 7.31594 8.14383 11.81256 3.10176 4.49662 5.6653 8.3414 5.69678 8.54395.04587.29518-.09487.49789-.70908 1.0214-1.12767.96113-1.65891 1.18826-2.77908 1.18812-.68763-.00008-1.15284-.09181-1.62609-.32063zm6.00308-4.42998c-.95288-1.34617-15.50423-22.3934-15.63896-22.62037-.20668-.34817.03747-.91228.39502-.91272.18075-.0003 4.37229.83153 9.31452 1.84835 6.4466 1.32634 9.0275 1.91355 9.13318 2.07801.08102.12608.33038.5242.55414.88471.22376.36052.60389.76795.84472.90542.24085.13747.47121.33597.51193.4411.06744.17414-2.47014 16.08415-2.66901 16.73405-.13305.43483-1.23783 1.56213-1.5309 1.56213-.1548 0-.53094-.37862-.91464-.92068zm5.04513-3.55757c0-.03246.49837-3.13145 1.10749-6.88671.85361-5.26256 1.16173-6.86152 1.34409-6.97506.13012-.08102.49978-.36275.82146-.62607.32169-.26331.69462-.4749.82873-.47019.13412.00446 2.22756.42068 4.65209.92437 2.86934.5961 4.43103.9842 4.47353 1.1117.08606.25815-12.62338 12.98093-12.96732 12.98093-.14304 0-.26007-.02656-.26007-.05897zM16.20334 53.35115c-.95072-.9532-1.72858-1.83812-1.72858-1.96647 0-.2821 7.23114-3.41358 7.5765-3.28106.58654.22508.40817.64111-1.63626 3.81626-1.17614 1.82665-2.13087 3.16322-2.25981 3.16364-.1228.00044-1.00113-.77917-1.95185-1.73237zm43.6268-1.42484c-2.80397-.58895-5.16874-1.11447-5.25506-1.16782-.08632-.05333-.26361-.41813-.39398-.81064-.13037-.39251-.4006-.86732-.6005-1.05512-.23371-.21956-.36342-.5032-.36334-.79453.00015-.70582 1.87858-12.04158 2.01473-12.15864.06663-.05728.42602-.2162.79866-.35317.37263-.13696.83164-.41307 1.02001-.61358.18838-.20052.44695-.36399.57461-.36327.27698.00167 17.52636 7.29064 17.72637 7.49064.07617.07617.08962.29432.0299.48477-.1199.38228-10.07012 10.44853-10.30599 10.42615-.08102-.00768-2.44146-.49584-5.24541-1.08479zm-50.4819-5.43702c-1.71755-1.72949-3.1228-3.21709-3.1228-3.30578 0-.08868.05634-.19607.1252-.23863.16974-.1049 14.3477 2.83654 14.5245 3.01334.08867.08867.08596.19435-.00735.28768-.23855.23856-7.76281 3.3879-8.0942 3.3879-.19818 0-1.37964-1.08461-3.42532-3.14451zm29.73162 1.15108c-9.21553-1.9136-9.13761-1.89071-9.13761-2.68421 0-.42758-.96584.01553 12.11718-5.55902 10.4323-4.4451 10.8299-4.5879 11.06533-3.97436.12368.3223-1.80987 12.04088-2.01876 12.23508-.09469.08802-.46102.24197-.81409.34211-.41727.11835-.86377.41032-1.27581.8343-.34865.35872-.75582.64614-.90483.63872-.149-.0074-4.21314-.83211-9.03141-1.83262zm-25.56261-5.31056c-4.3751-.92384-8.03758-1.71126-8.13885-1.74982-.28191-.10736-.21972-.79622.13928-1.54279.37576-.7814 8.11896-8.70263 8.50282-8.6983.20218.00222 8.22994 11.3955 8.61196 12.22236.0985.21318.01648.42242-.34382.87736-.26024.32858-.55046.59145-.64493.58415-.09446-.00729-3.75137-.76913-8.12646-1.69296zm15.42776.1193c.0882-.33729 8.1937-12.88826 8.41569-13.03127.0924-.05953.49943-.1107.90453-.11372.91027-.0068 1.75717-.38637 2.42268-1.08585.2792-.29347.5775-.53412.66289-.53477.20008-.00167 9.96533 4.12464 10.2091 4.31372.26898.20864.2249.90928-.07365 1.1706-.30971.27108-22.05571 9.54244-22.38184 9.54244-.14544 0-.20302-.09434-.1594-.26115zm-4.8955-1.43237c-.94507-1.27971-8.25433-11.99613-8.34724-12.23827-.06293-.16397 1.08562-1.40865 3.94261-4.27257 2.21728-2.22267 4.13607-4.07442 4.26398-4.11502.12792-.0406 2.54867.9069 5.37945 2.10555l5.14688 2.17937.09003 1.0257c.10041 1.14383.17394 1.37437.68995 2.16332l.35867.5484-.28814.48276c-.31678.53076-8.14638 12.6691-8.24067 12.77563-.03223.03642-.5969.06979-1.25487.0742l-1.1963.00802-.54435-.7371zm43.03145-4.63485c-4.56843-1.93744-8.37675-3.59313-8.46292-3.6793-.09895-.09894-.10511-.20811-.01676-.29624.21794-.21734 7.09628-3.10125 7.3967-3.10125.2997 0 8.55928 8.23326 9.29539 9.26577.4698.65897.61206 1.3433.27795 1.33707-.10127-.00167-3.92194-1.58862-8.49038-3.52605zm-10.46823-6.19733l-.5081-.43434.55925-3.5002c.84813-5.30816.824-5.19425 1.10005-5.19425.31104 0 6.50141 6.1852 6.50141 6.49598 0 .16358-.99661.65713-3.35129 1.65964-1.8432.78475-3.45072 1.42248-3.57225 1.41717-.12153-.00557-.4496-.2051-.72907-.444zm-8.18315-1.6666c-2.34958-.99774-4.79949-2.04084-5.44423-2.318l-1.17225-.50394-.33376-.95752c-.18357-.52662-.33552-1.04519-.33767-1.15237-.00568-.2825 7.36787-11.66355 7.55656-11.66355.17073 0 6.81661 6.5563 7.01815 6.92355.122.22233-1.44766 10.37119-1.65515 10.7015-.08462.13474-1.19886.79495-1.32738.78651-.01777-.00111-1.95468-.81845-4.30427-1.81618zM30.45817 20.9206c-2.80526-1.20116-4.73033-2.1053-4.75497-2.23323-.0231-.11993 2.74455-2.98706 6.26032-6.48536 4.74882-4.72523 6.47495-6.35264 7.00471-6.6041.95477-.45322 2.21173-.45273 3.14946.0011.87698.42455 4.91245 4.31805 4.91245 4.73963 0 .24678-6.27092 10.15968-7.30332 11.54489-.33762.453-.35719.45855-1.36382.38652-.8831-.06318-1.13564-.0207-1.8663.31378-.46474.21277-.95298.37967-1.08498.37089-.132-.0088-2.36109-.92418-4.95355-2.03423z"/>
  <path fill="#67c7cb" d="M39.47027 75.7049c-.22846-.06856-.75877-.39135-1.17848-.7173-.4197-.32596-4.73454-4.56835-9.58851-9.42753-8.67047-8.67976-8.82152-8.84088-8.60352-9.1766.12205-.18794 1.00585-1.56806 1.964-3.06694.95816-1.49887 1.84065-2.84148 1.9611-2.98357.17473-.20613.41528-.25094 1.19-.22166.53405.02015 1.27679-.01887 1.65052-.0868l.67953-.12348L35.6901 61.7363c4.47985 6.5094 8.17372 11.94364 8.2086 12.07608.08246.31305-1.6131 1.70008-2.319 1.89701-.61207.17076-1.53198.1688-2.10942-.00445zm5.89346-4.15882c-1.44048-1.9393-16.01072-23.15615-16.01072-23.31446 0-.11046.06822-.243.15161-.29453.08339-.05156 4.26039.75261 9.28223 1.787l9.13061 1.88071.44099.78138c.24253.42975.67118.9309.95254 1.11365.28136.18276.535.39858.56367.4796.02867.08102-.56725 3.89091-1.32424 8.46643L47.17408 70.765l-.61822.62992c-.34003.34646-.66734.62992-.72737.62992-.06002 0-.26917-.21544-.46476-.47875zm4.90722-4.28645c0-.1974 2.0426-12.89796 2.1039-13.08175.08119-.24338 1.6687-1.29545 1.86902-1.23861.12397.03519 2.0815.43995 4.35006.8995 2.26857.45957 4.18915.89616 4.26796.97023.08989.08446-2.18887 2.46732-6.11269 6.39195-3.44079 3.4415-6.306 6.25729-6.36712 6.25729-.06112 0-.11113-.08938-.11113-.19861zM16.32871 53.18185c-1.33847-1.34197-1.68147-1.76404-1.53155-1.8846.3022-.24301 6.79302-2.98996 7.06414-2.98958.13311.00015.27695.09134.31962.20254.08058.21-3.6785 6.21458-3.96497 6.33345-.08937.03708-.93863-.71073-1.88724-1.66181zm43.32772-1.4918C57 51.13209 54.76758 50.6391 54.6955 50.59455c-.07209-.04453-.20943-.32866-.3052-.63135-.09578-.3027-.37632-.80819-.62343-1.1233l-.4493-.57294.93122-5.76137c.51217-3.16875.97347-5.92155 1.0251-6.11734.06476-.24562.27428-.41843.6758-.55742.32005-.11078.8339-.4039 1.14186-.65135l.55994-.44992 7.91036 3.34585c10.62235 4.49296 9.80596 4.10843 9.59379 4.51882-.09582.18535-2.36766 2.5411-5.04853 5.23503-3.92368 3.94278-4.9471 4.89582-5.24755 4.88665-.20528-.00623-2.54669-.4679-5.20312-1.02586zM9.54537 46.39847c-1.69697-1.6984-3.0392-3.13419-2.98277-3.19063.09925-.09924 13.06012 2.50913 13.80454 2.77816.32433.1172.33841.1498.11806.27312-.46199.25854-7.54632 3.22737-7.7013 3.22737-.08422 0-1.54156-1.3896-3.23853-3.08802zm29.75103 1.0887c-4.7802-.99944-8.7424-1.82022-8.8049-1.82395-.22427-.01336-.46188-.7423-.29603-.90815.26168-.26168 22.18006-9.571 22.42524-9.5246.12622.02388.24935.22745.2756.4556.0593.5156-1.73478 11.60271-1.91481 11.83316-.0725.0928-.35888.21133-.6364.26339-.3127.05866-.80873.37263-1.30436.82561-.43988.40202-.85677.72311-.92643.71353-.06966-.00958-4.03772-.83515-8.81791-1.8346zm-26.06197-5.4144c-5.14038-1.08524-7.81756-1.71221-7.8601-1.84076-.03547-.10723.05294-.50496.19644-.88386.21295-.56215 1.00724-1.4415 4.31701-4.7793 2.23083-2.24971 4.10704-4.07267 4.16936-4.051.19684.06842 8.2673 11.80986 8.33205 12.12204.09242.4455-.49022 1.10385-.96476 1.0901-.21692-.00629-3.90242-.75203-8.19-1.65722zm15.97127.26419c0-.06084 1.82625-2.94251 4.05833-6.40371l4.05834-6.2931.87563-.09152c1.14566-.11974 1.7483-.38432 2.54221-1.11612l.6514-.60045 4.91843 2.07555c2.70513 1.14156 5.00514 2.15869 5.11113 2.26028.1178.11291.15621.33017.09881.55886-.08464.33728-1.15537.82629-10.8658 4.96258-5.92456 2.52365-10.92414 4.62665-11.1102 4.67335-.18605.0467-.33828.03513-.33828-.02573zm-3.56985-.77503c-.92213-.04042-1.01685-.07672-1.34604-.51558-1.1937-1.5914-8.24996-12.01428-8.29783-12.25683-.04427-.2241.90646-1.25733 3.97122-4.316l4.02937-4.02136 5.14766 2.18079 5.14764 2.18079.08092 1.03684c.05802.74339.19352 1.23831.47876 1.74865.2188.3915.39783.7898.39783.88513 0 .24086-8.22841 12.95585-8.44333 13.0471-.09584.0407-.62064.0544-1.1662.03045zm41.3588-5.40596c-4.45387-1.89104-8.11883-3.50094-8.14437-3.57757-.03976-.11926 2.48571-1.24952 6.19897-2.7743l1.00487-.41263 4.46656 4.48658c4.72397 4.74514 5.57994 5.76023 4.8297 5.72744-.14179-.00618-3.90186-1.55847-8.35573-3.44952zm-10.21662-6.08693l-.49011-.40662.6697-4.08907c.36834-2.249.71343-4.15982.76687-4.24628.08904-.14408 6.39354 6.00171 6.39354 6.2326 0 .09528-6.54827 2.92794-6.75 2.91994-.05496-.00222-.32044-.18693-.59-.41057zm-9.50398-2.22798c-2.82308-1.20315-5.1822-2.24427-5.24247-2.3136-.06028-.06933-.25833-.54548-.4401-1.0581l-.33052-.93205.3516-.54105c.19338-.29758 1.83278-2.8446 3.64311-5.66005 1.81033-2.81545 3.36503-5.119 3.45488-5.119.08985 0 1.6709 1.5086 3.51345 3.35246 2.3663 2.36798 3.35009 3.449 3.35009 3.6812 0 .30007-1.3846 9.092-1.5551 9.87466-.08207.37668-.86684.91818-1.31744.90904-.16204-.00334-2.60441-.99037-5.4275-2.1935zm-16.63208-7.0406c-2.5724-1.098-4.67708-2.07082-4.67708-2.16182 0-.091 2.80073-2.96183 6.22383-6.37963 6.73349-6.72305 6.83872-6.80875 8.3677-6.8148 1.29801-.00501 1.99206.44126 4.32723 2.78315 1.7724 1.7775 2.0332 2.09834 1.91502 2.35592-.07524.164-1.76089 2.81795-3.74588 5.89767l-3.60908 5.59949-1.19034.00334c-.97321.00278-1.32253.07031-1.91502.3709-.39858.20222-.79098.36194-.872.35495-.08102-.00702-2.252-.91109-4.82438-2.00908z"/>
  <path fill="#5bb4c5" d="M40.03294 75.75767c-1.22727-.28867-1.30368-.35813-10.6431-9.676-5.12453-5.1127-9.31732-9.3468-9.31732-9.40912 0-.06231.9261-1.55044 2.05799-3.30695l2.05799-3.19366 1.36695-.02555c.75183-.01403 1.49636-.05228 1.65453-.08494.23653-.04882 1.749 2.0589 8.51965 11.8727L43.9617 73.8662l-.7829.72137c-.43058.39675-.9831.80364-1.22783.9042-.5455.22416-1.5207.35935-1.91803.2659zm-2.4306-15.52336c-4.4156-6.39743-8.04955-11.76425-8.07544-11.9263-.03318-.20772.03547-.29461.2327-.29461.21396 0 16.1898 3.23787 17.82116 3.61187.19238.0441.45052.3125.6199.64452.15965.31291.59446.83671.96628 1.164l.67602.59505-1.35045 8.29828-1.35046 8.29827-.60221.62607c-.33121.34434-.67127.62347-.75567.6203-.0844-.00335-3.76623-5.24003-8.18183-11.63745zm12.81592 6.7588c0-.3322 1.76758-11.41654 1.99346-12.50077.04654-.22354.37933-.59542.83738-.9358l.76012-.56485 4.25547.86214c2.34051.47418 4.33327.9104 4.42835.96936.1099.06817-2.09378 2.37497-6.05096 6.33409-5.2697 5.27227-6.22382 6.16692-6.22382 5.83584zM16.3947 53.10052c-.92638-.929-1.65448-1.71755-1.618-1.75231.20655-.19684 7.11714-3.02443 7.2265-2.95685.0724.04477.13164.14251.13164.21725 0 .18016-3.85047 6.18103-3.96607 6.18103-.04938 0-.8477-.7601-1.77407-1.68911zm43.45135-1.45914c-2.71418-.57753-5.01263-1.10053-5.10767-1.16223-.09504-.0617-.21547-.30644-.26762-.54388-.05217-.23744-.28926-.70013-.52692-1.0282-.23765-.32807-.4321-.75586-.4321-.95064 0-.32652 1.67301-10.80754 1.8408-11.5322.04677-.2021.2598-.38128.57812-.48634.2772-.09148.78466-.36964 1.12767-.61811l.62365-.45177 1.19252.49232c6.63196 2.73795 16.20892 6.88054 16.25985 7.03334.07013.21037-9.95216 10.34507-10.20129 10.3157-.08368-.00985-2.37283-.49045-5.08701-1.06799zM9.61354 46.31934c-2.4759-2.47813-2.95132-3.01845-2.65022-3.01205.71577.0152 13.32855 2.71962 13.30318 2.85246-.03.15725-7.07314 3.17943-7.40956 3.17943-.12444 0-1.58396-1.35893-3.2434-3.01984zM39.15897 47.365c-8.75194-1.81643-9.10118-1.91327-8.88953-2.4648.08148-.21236 21.84605-9.55542 22.25924-9.55542.12603 0 .26654.06052.31225.13447.10223.16543-1.79726 11.82704-1.94698 11.95308-.05908.04972-.40938.20138-.77844.33698-.36905.13559-.9294.51114-1.2452.83455-.3158.3234-.67673.58237-.80207.57547-.12534-.0069-4.13452-.82335-8.90927-1.81433zm-24.90518-5.17032c-3.96998-.83699-7.56618-1.59846-7.99153-1.69215-.87629-.19302-.95139-.37908-.52694-1.30544.24628-.53754 8.11451-8.60612 8.31903-8.53088.10991.04042 8.21167 11.70575 8.32489 11.9866.0674.16717-.63367 1.09871-.8099 1.07614-.05356-.00685-3.34556-.69728-7.31555-1.53427zm15.18581-.11049c.0572-.10127 1.89116-2.95171 4.0755-6.3343l3.9715-6.15017.75759-.00335c.92762-.0039 1.89574-.4196 2.62129-1.12538l.5379-.52326 4.9862 2.11686c4.209 1.7869 4.99334 2.16676 5.03204 2.43703.02951.20626-.07528.39894-.29462.54154-.42053.27342-21.4117 9.22507-21.63232 9.22507-.08748 0-.11227-.08287-.05506-.18414zm-4.93298-.92068c-.14489-.16204-2.13937-3.03598-4.4322-6.38654l-4.16876-6.09191 4.04961-4.04961 4.0496-4.0496 5.06786 2.14165 5.06784 2.14166.09313 1.01326c.0903.98245.37118 1.75604.82612 2.2753.20114.22955-.15536.83524-3.99504 6.7875l-4.21588 6.53546-1.03942-.01125c-.84439-.00918-1.08885-.06655-1.30286-.3059zm42.66808-5.04654c-4.51687-1.91447-8.21182-3.51773-8.21098-3.56279.00167-.09654 6.77922-2.96103 6.9966-2.95713.19705.00334 8.7769 8.63197 9.19642 9.24848.17998.2645.30546.54197.27885.6166-.02661.07463-3.74401-1.43069-8.26089-3.34516zm-10.33344-6.14036l-.4269-.34905.61895-3.8808c.34042-2.13443.6651-3.99762.7215-4.14042.08254-.20894.70532.34372 3.18928 2.83022 1.69768 1.69942 3.05661 3.1172 3.01984 3.1506-.12981.11793-6.41496 2.74903-6.55438 2.74381-.07777-.00278-.3335-.16237-.5683-.35436zm-9.44253-2.2113l-5.30282-2.25391-.27921-.7179c-.15356-.39483-.28613-.88361-.2946-1.08616-.01659-.39736 6.93044-11.33346 7.20332-11.33953.0817-.00167 1.62293 1.47218 3.42495 3.27554 3.04687 3.04913 3.2757 3.31487 3.26625 3.79322-.00557.28291-.35521 2.63523-.77694 5.22737l-.76678 4.713-.58567.32115-.58568.32115zm-16.63521-7.049c-2.50554-1.06911-4.57753-2.01148-4.60442-2.09415-.0269-.08267 2.71913-2.91267 6.10227-6.28889 4.60189-4.59245 6.31813-6.21412 6.81406-6.43854.90607-.41002 2.17344-.40595 2.98889.00963.84705.43165 4.70808 4.24091 4.6241 4.56209-.06807.26029-6.93151 10.97275-7.23911 11.2988-.11626.12323-.60686.20375-1.34638.22097-.88393.0206-1.315.10673-1.79408.35853-.34684.1823-.71143.32784-.8102.32343-.09879-.00445-2.2296-.88274-4.73513-1.95185z"/>
  <path fill="#42a3bc" d="M39.4437 75.49115c-.32407-.1216-.6191-.22207-.65562-.2233-.12557-.00445-18.56826-18.48203-18.56826-18.60365 0-.06693.90502-1.53092 2.01115-3.2533l2.01115-3.1316 1.26649-.01425c.69657-.00785 1.42301-.03708 1.61432-.06496.3954-.05766-.5391-1.36145 10.09983 14.09098l6.59242 9.57511-.6993.63443c-.38462.34894-.89507.73566-1.13432.85938-.6372.32951-1.84305.39182-2.53785.13114zm5.62712-4.68162C39.86393 63.41642 29.50183 48.24915 29.5965 48.1594c.06862-.06506 4.19273.72282 9.16467 1.75085l9.0399 1.86913.26485.51078c.29216.56346.63829.96278 1.25512 1.44798l.4075.32053-1.35632 8.28336-1.35631 8.28336-.53837.55241c-.2961.30383-.58786.55241-.64834.55241-.06048 0-.40176-.4143-.7584-.92068zm5.49444-4.01485c-.00015-.16168.43968-3.04495.97746-6.4073 1.05917-6.62232.8986-6.07289 2.03076-6.94903l.42999-.33277 4.32074.87766c2.3764.4827 4.32073.91163 4.32073.95318 0 .04153-2.71786 2.79277-6.03969 6.11386-4.11988 4.11897-6.03978 5.9449-6.03999 5.7444zM16.46823 53.02673l-1.61057-1.61558.50827-.21332c.27955-.11732 1.83167-.78238 3.44915-1.47791 1.61748-.69553 2.99298-1.2646 3.05667-1.2646.06368 0 .11579.07556.11579.1679 0 .18564-3.71088 6.01041-3.83256 6.01576-.04186.00167-.80093-.72367-1.68675-1.61225zm44.77727-1.19656c-1.86346-.39532-4.07272-.8621-4.90945-1.03726l-1.52134-.31847-.36438-.82394c-.20041-.45316-.49415-.96206-.65276-1.13089-.2869-.3054-.2835-.3369.6698-6.18848.527-3.23484.98624-5.95586 1.02054-6.0467.0343-.09086.25003-.21032.47938-.26549s.7019-.3021 1.0501-.54874c.43283-.30659.73572-.4214.95751-.36295.77274.20365 16.97103 7.16304 17.02097 7.31284.07559.22678-9.8536 10.1638-10.13639 10.14438-.12422-.00851-1.75052-.33897-3.61398-.7343zM9.8359 46.39453C8.1948 44.7518 6.99846 43.4468 7.13363 43.4468c.29015 0 12.27001 2.46137 12.77402 2.62454.28925.09364-.27893.38023-3.2408 1.6347-1.97535.83664-3.65783 1.54705-3.73885 1.5787-.08102.03162-1.47247-1.26896-3.09212-2.8902zm29.23953.86264c-8.59738-1.78275-9.17566-1.94443-8.65587-2.42.10207-.0934 5.11879-2.2694 11.14827-4.8356 7.31492-3.11328 11.01174-4.61672 11.11012-4.51834.22502.22501-1.68255 11.80504-1.96831 11.94874-.11975.06021-.4937.22314-.83098.36205-.33729.13891-.83089.47711-1.0969.75155-.318.32811-.61246.49368-.85984.4835-.2069-.00852-4.18783-.80588-8.84649-1.7719zm-25.7055-5.3468l-7.8074-1.65197.05223-.35765c.02873-.1967.153-.55651.27616-.79957.24453-.48256 7.9939-8.35005 8.16325-8.28768.1233.04543 8.06028 11.52487 8.1749 11.82357.11432.29792-.41259.9497-.75711.93653-.16204-.00618-3.80795-.75464-8.10202-1.66322zm16.86388-.931c.40002-.6279 2.18015-3.39548 3.95585-6.15017l3.22854-5.00852.90288-.10162c.98445-.1108 2.22723-.69552 2.66726-1.25492.14601-.18564.35687-.33752.46857-.33752.1117 0 2.35599.91506 4.98732 2.03346 4.38976 1.8658 4.7879 2.0645 4.82883 2.40979.04081.34423-.06598.42388-1.25213.934-5.69957 2.45123-20.28868 8.61715-20.38893 8.61715-.06901 0 .2018-.51374.60181-1.14165zm-9.57206-5.50674c-2.22805-3.24857-4.17725-6.10369-4.33154-6.3447l-.28053-.43821 3.96224-3.96428c2.17924-2.18036 4.029-3.96523 4.11058-3.96637.19462-.00278 9.66816 3.98231 9.90758 4.16761.10936.08464.18414.48576.18414.98765 0 .65554.10193 1.04275.45436 1.72612l.45437.88099-4.16125 6.43151-4.16125 6.43152-1.04384-.00278-1.04384-.00279zm46.52216.55195c-4.4308-1.87276-8.01042-3.4511-7.95471-3.50743.0557-.05632 1.59279-.7334 3.41574-1.50462l3.31446-1.40222 4.31235 4.3035c3.8741 3.86615 5.20338 5.31122 5.02686 5.46472-.0323.02806-3.6839-1.4812-8.1147-3.35395zm-10.25146-6.1008l-.45417-.39772.63615-3.85399c.3499-2.1197.66034-3.92653.6899-4.0152.02956-.08865 1.40944 1.19573 3.06642 2.8542 1.65699 1.65846 2.98262 3.0408 2.94585 3.07185-.05411.0457-2.26925.99012-5.97363 2.5468-.42217.1774-.49035.16199-.91052-.20594zm-9.63734-2.2634c-5.10865-2.16287-5.26202-2.23968-5.35964-2.68412-.05528-.25165-.19814-.66231-.31749-.9126l-.217-.45506 3.49064-5.4379c1.91986-2.99085 3.58506-5.53588 3.70045-5.65562.18345-.19038.61698.18875 3.45324 3.01985 1.78389 1.78065 3.27712 3.37012 3.3183 3.53217.06136.24155-1.48338 10.22788-1.59632 10.31973-.1324.10767-1.00006.5068-1.09525.50382-.06478-.00223-2.4844-1.00565-5.37693-2.23027zM30.8301 20.69262c-2.54994-1.08341-4.65542-2.02734-4.67885-2.09763-.02344-.07028 2.72962-2.89051 6.11789-6.26717 4.55095-4.53536 6.33145-6.21694 6.81483-6.43622.83957-.38088 2.0707-.38951 2.88392-.02021.61215.27797 4.76763 4.17747 4.76763 4.47395 0 .08375-1.66388 2.72226-3.69751 5.86335l-3.69752 5.71108-1.0532-.01904c-.85815-.01554-1.21341.0545-1.91806.3782-.47565.2185-.87339.39418-.88385.39041-.01047-.0039-2.10534-.89328-4.65528-1.9767z"/>
  <path fill="#479cbc" d="M39.49164 75.5101c-.2977-.11115-.79488-.4062-1.10482-.65567-.30993-.24945-3.41395-3.32404-6.89782-6.83242-3.48387-3.50837-5.88448-5.9488-5.3347-5.42317.63534.60743 1.1003.93971 1.2759.91183.15197-.02411.31923.0256.3717.11048.05245.0849.40968.15436.7938.15436.38411 0 .76357.06517.84323.14484.07967.07966.59148.15452 1.13736.16636.5459.01186 1.0306.08312 1.07712.1584.04655.07528.27987.094.51854.0416.26133-.0574.52024-.02367.65092.08477.14005.11623.449.14827.87141.09038.35994-.04933.68661-.03764.72595.026.0393.06364.64842.12811 1.35352.14327.7051.01515 1.36137.09344 1.45837.17394.097.0805.21251.11022.25669.06603.0442-.04415 1.4852 1.96165 3.20227 4.45739l3.12192 4.53772-.69821.63443c-.38402.34894-.89398.73566-1.13323.85939-.6144.31771-1.84269.39176-2.48992.15009zm5.58046-4.70057c-.6976-.99248-3.28192-4.73888-4.34408-6.29748-.45014-.66052-.51186-.7976-.19901-.44192.24943.28356.4553.54872.45747.58923.00446.0789 1.66657.0466 4.05499-.07884.8102-.04254 1.78796-.07327 2.1728-.06827.56364.0073.69973-.03958.69973-.24107 0-.13759.03407-.2161.0757-.17446.04164.04165-.15995 1.52761-.44798 3.30217l-.52368 3.22647-.53943.55243c-.29668.30383-.58892.55242-.6494.55242-.06048 0-.40118-.4143-.75711-.92068zm5.4925-4.05101c-.00057-.14179.07668-.76802.1716-1.39163.19012-1.24917.25887-1.31827 1.52343-1.53143.32407-.05462.77347-.19261.99866-.30663.22518-.11401.48045-.1634.56725-.10975.0868.05361.5986-.3242 1.13732-.83966.53873-.51546-.21301.27197-1.67053 1.74985-1.45752 1.47787-2.6673 2.68704-2.6884 2.68704-.0211 0-.0388-.116-.03937-.2578zm-13.48293-2.4306l-.23361-.47876.3002.36827c.28905.35458.3834.58924.2369.58924-.03842 0-.175-.21544-.30349-.47875zm13.94909-.69972c0-.20256.0334-.28541.0743-.18414.04086.10127.04086.267 0 .36827-.04087.10128-.0743.01843-.0743-.18413zm-14.46254-.07722c-.10249-.12349-.15782-.25305-.12295-.28792.03486-.03485.14432.06617.2432.22453.21388.34245.14255.38005-.12025.06339zm11.50471-.00874c.00708-.17161.04198-.20651.089-.089.04254.10634.0373.23339-.01163.28234-.04894.04894-.08377-.03808-.07738-.19334zm-16.8049-14.63421c0-.1561-.116-.31705-.2578-.35768-.14178-.04064.00736-.03669.33146.00874.73945.10367.78155.14356.43117.40863-.38436.2908-.50483.27655-.50483-.05969zm1.32578.1473c0-.07507-.116-.169-.25779-.20874-.14178-.03976-.05892-.05006.18414-.02294.24307.02711.5248.05478.62607.06145.35205.02316.18182.30673-.18414.30673-.20255 0-.36828-.06143-.36828-.13651zm1.15086.03586c.10634-.04253.2334-.0373.28235.01164.04893.04894-.03803.08377-.19335.07737-.1716-.00707-.2065-.04198-.089-.089zm13.28547-.36982c-1.34478-.23375-15.21376-3.02822-16.31452-3.28722-.46294-.10893-.4189-.56222.07366-.7582.2228-.08864 5.20436-2.22782 11.07013-4.75372 7.37411-3.17543 10.71225-4.54535 10.81804-4.43957.10577.10579-.1563 1.96042-.84931 6.0104-.55127 3.22157-1.01115 5.86342-1.02195 5.87079-.0108.00734-.3352.09902-.72086.2037-.40946.11112-.97047.42732-1.34839.75997-.35595.31333-.7033.5618-.7719.55218-.06858-.00963-.48929-.08087-.9349-.15833zm6.77624-1.34456c0-.3872 1.58533-10.83726 1.68354-11.0975.03536-.09364.26088-.21343.5012-.26621.2403-.05279.69224-.2892 1.00429-.52538.31205-.23617.64447-.43125.7387-.4335.28347-.0068 12.28703 5.18074 12.6662 5.47388.31441.24309.04737.6771-.47711.7755-.27612.05177-.50203.15746-.50203.2348 0 .07735-.13465.14064-.29924.14064-.16458 0-.3374.09943-.38403.22096-.04666.12153-.17714.22097-.29.22097-.11286 0-.2052.13258-.2052.29462 0 .1964-.09821.29462-.29462.29462-.16204 0-.29462.06628-.29462.1473 0 .08103-.26516.14732-.58924.14732-.40411 0-.58924.06416-.58924.20423 0 .128-.23859.24002-.63923.3001-.47418.07111-.72257.20856-.96192.5323-.36341.49154-.6062.56229-.61317.17867-.00445-.24552-.01403-.24552-.20038 0-.10763.14178-.27125.25779-.36358.25779-.09235 0-.1679.13258-.1679.29462 0 .21605-.0982.29462-.36828.29462-.20254 0-.36928-.08286-.37053-.18414-.0011-.11404-.04348-.12806-.11048-.03685-.16399.2232-.73653.51558-1.00963.51558-.13339 0-.36638.14282-.51778.31738-.20113.2319-.46367.32443-.9748.34353-.38473.01436-.91166.1367-1.17095.27184-.2593.13515-.60732.24572-.77337.24572-.16607 0-.30194.0663-.30194.14731 0 .08102-.23201.14732-.51558.14732-.31918 0-.62782.11223-.8102.29461-.16205.16204-.39406.29462-.51559.29462-.12153 0-.22096.05178-.22096.11509 0 .0633-.46403.12908-1.03117.14618-.98751.02978-1.03116.0167-1.03116-.30857zm-32.48173-3.89439c-2.78473-.57272-9.12547-1.98305-9.42126-2.09551-.2167-.08239-.55541-.1498-.75269-.1498-.26047 0-.35868-.08066-.35868-.29462 0-.24242-.0982-.29461-.5543-.29461-.42793 0-.58746-.07358-.69972-.3227-.07998-.17748-.47226-.55103-.87173-.8301-.39947-.27907-.8763-.6574-1.05962-.84071-.18332-.18332-.41972-.36212-.52533-.39732-.13713-.04571-.07988-.2079.20032-.56748.6234-.79997 6.7078-6.99298 6.79023-6.91143.31942.316 8.06224 11.80041 8.0597 11.9544-.00585.3557-.49833.81335-.80692.74988zm8.32298-1.44665c0-.08163 3.76555-6.02039 6.29741-9.93184l1.47797-2.2833.90048-.10162c.98197-.11082 2.22553-.69644 2.66485-1.25492.14601-.18564.35687-.33752.46857-.33752.1117 0 2.35599.91506 4.98732 2.03346 4.4097 1.87428 4.78775 2.06324 4.82922 2.4138.0491.41536-.3385.58974-15.73345 7.07763-6.05609 2.55221-5.89237 2.48597-5.89237 2.3843zm-5.36957-1.3879c-.57532-.79531-7.5792-10.94412-7.96283-11.53835l-.2689-.4165 3.96392-3.96596c2.18016-2.18128 4.03067-3.9669 4.11225-3.96804.19462-.00278 9.66816 3.98231 9.90758 4.16761.10936.08464.18414.48576.18414.98765 0 .65622.10194 1.04278.45605 1.72938l.45604.88425-4.00866 6.17047c-2.20477 3.39375-4.07508 6.27352-4.15625 6.39949-.11125.17263-.40077.22704-1.1757.22096l-1.02812-.00807zM70.6733 37.4006c-7.27662-2.9696-11.54134-4.7888-11.4471-4.88304.05809-.0581 1.59683-.73437 3.41941-1.50284l3.3138-1.39721 1.4513 1.42735c.79821.78504 2.67792 2.71665 4.17712 4.29246 2.28544 2.40223 2.68165 2.8825 2.4524 2.97267-.51902.20413-.87196.1088-3.36693-.9094zm-13.74085-7.47687l-.45417-.39772.63615-3.85399c.3499-2.1197.66034-3.92653.6899-4.0152.02956-.08865 1.40944 1.19573 3.06642 2.8542 1.65699 1.65846 2.98262 3.0408 2.94585 3.07185-.05411.0457-2.26925.99012-5.97363 2.5468-.42217.1774-.49035.16199-.91052-.20594zm-9.63734-2.2634c-5.10865-2.16287-5.26202-2.23968-5.35964-2.68412-.05528-.25165-.19814-.66231-.31749-.9126l-.217-.45506 3.49064-5.43791c1.91986-2.99084 3.58506-5.53587 3.70045-5.6556.18345-.19039.61698.18874 3.45324 3.01984 1.78389 1.78065 3.27712 3.37012 3.3183 3.53217.06136.24155-1.48338 10.22788-1.59632 10.31973-.1324.10767-1.00006.5068-1.09525.50382-.06478-.00223-2.4844-1.00565-5.37693-2.23027zM30.8301 20.69257c-2.54994-1.08341-4.65542-2.02734-4.67885-2.09763-.02344-.07028 2.72962-2.89051 6.11789-6.26717 4.55095-4.53536 6.33145-6.21694 6.81483-6.43622.83957-.38088 2.0707-.38951 2.88392-.02021.61215.27797 4.76763 4.17747 4.76763 4.47395 0 .08375-1.66388 2.72226-3.69751 5.86335l-3.69752 5.71108-1.0532-.01904c-.85815-.01554-1.21341.0545-1.91806.3782-.47565.2185-.87339.39418-.88385.39041-.01047-.0039-2.10534-.89328-4.65528-1.9767z"/>
  <path fill="#34afb9" d="M31.26803 48.90805c0-.1561-.116-.31705-.2578-.35768-.14178-.04064.00736-.03669.33146.00874.73945.10367.78155.14356.43117.40863-.38436.2908-.50483.27655-.50483-.05969zm1.32578.14731c0-.07508-.116-.16902-.25779-.20875-.14178-.03975-.05892-.05005.18414-.02294.24307.02711.5248.05479.62607.06145.35205.02316.18182.30673-.18414.30673-.20255 0-.36828-.06143-.36828-.13651zm1.15086.03586c.10634-.04254.2334-.0373.28235.01163.04893.04894-.03803.08377-.19335.07737-.1716-.00707-.2065-.04197-.089-.089zm13.28547-.36983c-1.34478-.23375-15.21376-3.02822-16.31452-3.28722-.46294-.10892-.4189-.56222.07366-.75819.2228-.08865 5.20436-2.22782 11.07013-4.75373 7.37411-3.17542 10.71225-4.54535 10.81804-4.43956.10577.10578-.1563 1.96042-.84931 6.01039-.55127 3.22157-1.01115 5.86342-1.02195 5.87079-.0108.00735-.3352.09902-.72086.2037-.40946.11112-.97047.42732-1.34839.75998-.35595.31332-.7033.5618-.7719.55217-.06858-.00963-.48929-.08087-.9349-.15833zm6.77624-1.34456c0-.3872 1.58533-10.83726 1.68354-11.0975.03536-.09363.26088-.21343.5012-.26621.2403-.05278.69224-.2892 1.00429-.52538.31205-.23617.64447-.43125.7387-.4335.28347-.0068 12.28703 5.18074 12.6662 5.47388.31441.2431.04737.6771-.47711.7755-.27612.05177-.50203.15746-.50203.2348 0 .07736-.13465.14064-.29924.14064-.16458 0-.3374.09944-.38403.22097-.04666.12152-.17714.22096-.29.22096-.11286 0-.2052.13258-.2052.29462 0 .19641-.09821.29462-.29462.29462-.16204 0-.29462.06629-.29462.14731s-.26516.1473-.58924.1473c-.40411 0-.58924.06418-.58924.20425 0 .128-.23859.24001-.63923.3001-.47418.0711-.72257.20856-.96192.5323-.36341.49154-.6062.56228-.61317.17866-.00445-.24551-.01403-.24551-.20038 0-.10763.14178-.27125.2578-.36358.2578-.09235 0-.1679.13257-.1679.29461 0 .21605-.0982.29462-.36828.29462-.20254 0-.36928-.08286-.37053-.18413-.0011-.11405-.04348-.12807-.11048-.03686-.16399.2232-.73653.51558-1.00963.51558-.13339 0-.36638.14283-.51778.31739-.20113.2319-.46367.32442-.9748.34352-.38473.01436-.91166.1367-1.17095.27185-.2593.13514-.60732.24572-.77337.24572-.16607 0-.30194.06628-.30194.1473 0 .08102-.23201.14732-.51558.14732-.31918 0-.62782.11223-.8102.29461-.16205.16204-.39406.29462-.51559.29462-.12153 0-.22096.05178-.22096.1151 0 .0633-.46403.12907-1.03117.14617-.98751.02979-1.03116.0167-1.03116-.30857zm-32.48173-3.89439c-2.78473-.57272-9.12547-1.98305-9.42126-2.0955-.2167-.0824-.55541-.1498-.75269-.1498-.26047 0-.35868-.08067-.35868-.29463 0-.24241-.0982-.29461-.5543-.29461-.42793 0-.58746-.07358-.69972-.3227-.07998-.17748-.47226-.55103-.87173-.8301-.39947-.27906-.8763-.65739-1.05962-.8407-.18332-.18333-.41972-.36212-.52533-.39733-.13713-.0457-.07988-.2079.20032-.56748.6234-.79997 6.7078-6.99298 6.79023-6.91143.31942.316 8.06224 11.80042 8.0597 11.9544-.00585.3557-.49833.81335-.80692.74988zm8.32298-1.44665c0-.08163 3.76555-6.02038 6.29741-9.93184l1.47797-2.2833.90048-.10162c.98197-.11081 2.22553-.69644 2.66485-1.25492.14601-.18564.35687-.33751.46857-.33751.1117 0 2.35599.91505 4.98732 2.03346 4.4097 1.87427 4.78775 2.06323 4.82922 2.41378.0491.41537-.3385.58975-15.73345 7.07764-6.05609 2.55221-5.89237 2.48597-5.89237 2.38431zm-5.36957-1.38789c-.57532-.79532-7.5792-10.94413-7.96283-11.53836l-.2689-.4165 3.96392-3.96596c2.18016-2.18127 4.03067-3.9669 4.11225-3.96803.19462-.00279 9.66816 3.9823 9.90758 4.1676.10936.08464.18414.48576.18414.98765 0 .65622.10194 1.04278.45605 1.72938l.45604.88426-4.00866 6.17046c-2.20477 3.39375-4.07508 6.27352-4.15625 6.39949-.11125.17263-.40077.22704-1.1757.22096l-1.02812-.00807zm46.39524-3.24728c-7.27662-2.9696-11.54134-4.7888-11.4471-4.88304.05809-.05809 1.59683-.73437 3.41941-1.50284l3.3138-1.3972 1.4513 1.42734c.79821.78504 2.67792 2.71665 4.17712 4.29246 2.28544 2.40223 2.68165 2.8825 2.4524 2.97267-.51902.20413-.87196.1088-3.36693-.9094zm-13.74085-7.47687l-.45417-.39772.63615-3.85398c.3499-2.1197.66034-3.92654.6899-4.0152.02956-.08866 1.40944 1.19572 3.06642 2.85419 1.65699 1.65846 2.98262 3.0408 2.94585 3.07185-.05411.04571-2.26925.99013-5.97363 2.5468-.42217.17741-.49035.16199-.91052-.20594zm-9.63734-2.2634c-5.10865-2.16287-5.26202-2.23968-5.35964-2.68412-.05528-.25164-.19814-.66231-.31749-.9126l-.217-.45506 3.49064-5.4379c1.91986-2.99085 3.58506-5.53588 3.70045-5.65561.18345-.19038.61698.18874 3.45324 3.01984 1.78389 1.78065 3.27712 3.37012 3.3183 3.53217.06136.24155-1.48338 10.22789-1.59632 10.31973-.1324.10767-1.00006.5068-1.09525.50382-.06478-.00222-2.4844-1.00565-5.37693-2.23027zM30.8301 20.6926c-2.54994-1.08341-4.65542-2.02734-4.67885-2.09763-.02344-.07028 2.72962-2.89051 6.11789-6.26717 4.55095-4.53536 6.33145-6.21693 6.81483-6.43622.83957-.38087 2.0707-.3895 2.88392-.0202.61215.27796 4.76763 4.17747 4.76763 4.47394 0 .08375-1.66388 2.72226-3.69751 5.86335l-3.69752 5.71108-1.0532-.01904c-.85815-.01553-1.21341.0545-1.91806.37821-.47565.2185-.87339.39418-.88385.3904-.01047-.00389-2.10534-.89328-4.65528-1.9767z"/>
  <path fill="#23c1b6" d="M42.81702 25.45812c-.54273-.12489-.62278-.20211-.78859-.76075-.1015-.34197-.24859-.70038-.32686-.79648-.0931-.11428-.07966-.29261.03886-.51558.16662-.31347 2.99783-4.81185 5.816-9.24077l1.16386-1.82905 3.28458 3.3758 3.2846 3.3758-.0904.73655c-.16076 1.30974-.3438 1.81603-.69625 1.92581-.1805.05621-.56972.29222-.86495.52446-.29523.23225-.5849.42227-.64371.42227-.05881 0-.72702.29961-1.48492.6658-.7579.3662-1.59514.70788-1.86055.75929-.2654.05139-.5372.18558-.60397.29816-.07228.12184-.23666.1681-.40616.11431-.1566-.04972-.49332.0137-.74825.14085-.25492.12717-.5778.23123-.7175.23123-.1397 0-.50358.10428-.80864.23174-.30505.12746-.85567.25627-1.2236.28626-.36794.03-.90534.08574-1.19423.1239-.2889.0382-.79709.00685-1.12931-.0696zm-10.73774-1.01254c-.05161-.0835.00752-.1082.13861-.0579.2552.09793.3019.20352.09.20352-.07624 0-.17911-.06553-.22861-.14562zm-2.43165-1.03286c-.12153-.07854-.15467-.1428-.07365-.1428.08102 0 .24674.06426.36827.1428.12153.07854.15467.1428.07365.1428-.08102 0-.24674-.06426-.36827-.1428zm-1.10482-.44193c-.11523-.18643.07979-.18643.36827 0 .19043.12307.18654.14311-.02812.14506-.137.00111-.29006-.06403-.34014-.14506zm2.45198-2.35229c-2.45937-1.04582-4.50872-1.93864-4.55413-1.98404-.1094-.10941.97951-1.24962 6.9978-7.32739 3.45505-3.4892 5.25827-5.20519 5.68884-5.41362.734-.35533 1.93246-.4036 2.64126-.1064.65731.27561 1.74273 1.23177 3.48318 3.06837l1.48257 1.56448-2.9158 4.4709c-1.60368 2.459-3.27721 5.0163-3.71895 5.6829l-.80316 1.21198-1.10483.00501c-.86122.0039-1.27856.08564-1.89282.3716-.4334.20175-.798.36483-.8102.36239-.0122-.00223-2.0344-.8601-4.49376-1.90593z"/>
</svg>
