<?xml version="1.0" encoding="UTF-8" standalone="no"?>
<!-- Created with Inkscape (http://www.inkscape.org/) -->

<svg
   xmlns:dc="http://purl.org/dc/elements/1.1/"
   xmlns:cc="http://creativecommons.org/ns#"
   xmlns:rdf="http://www.w3.org/1999/02/22-rdf-syntax-ns#"
   xmlns:svg="http://www.w3.org/2000/svg"
   xmlns="http://www.w3.org/2000/svg"
   xmlns:sodipodi="http://sodipodi.sourceforge.net/DTD/sodipodi-0.dtd"
   xmlns:inkscape="http://www.inkscape.org/namespaces/inkscape"
   width="79.234787mm"
   height="79.245308mm"
   viewBox="0 0 79.234787 79.245308"
   version="1.1"
   id="svg8"
   inkscape:version="0.92.4 (5da689c313, 2019-01-14)"
   sodipodi:docname="netlifyLogo.svg">
  <defs
     id="defs2" />
  <sodipodi:namedview
     id="base"
     pagecolor="#ffffff"
     bordercolor="#666666"
     borderopacity="1.0"
     inkscape:pageopacity="0.0"
     inkscape:pageshadow="2"
     inkscape:zoom="0.49497475"
     inkscape:cx="-290.91257"
     inkscape:cy="342.30521"
     inkscape:document-units="mm"
     inkscape:current-layer="layer1"
     showgrid="false"
     fit-margin-top="0"
     fit-margin-left="0"
     fit-margin-right="0"
     fit-margin-bottom="0"
     inkscape:window-width="1920"
     inkscape:window-height="1001"
     inkscape:window-x="-9"
     inkscape:window-y="-9"
     inkscape:window-maximized="1" />
  <metadata
     id="metadata5">
    <rdf:RDF>
      <cc:Work
         rdf:about="">
        <dc:format>image/svg+xml</dc:format>
        <dc:type
           rdf:resource="http://purl.org/dc/dcmitype/StillImage" />
        <dc:title></dc:title>
      </cc:Work>
    </rdf:RDF>
  </metadata>
  <g
     inkscape:label="Layer 1"
     inkscape:groupmode="layer"
     id="layer1"
     transform="translate(-168.26951,-184.80592)">
    <g
       id="g834"
       transform="matrix(0.55676002,0,0,0.55676002,79.567904,94.958029)">
      <path
         style="fill:#9fd6dd;stroke-width:0.26458335"
         d="m 229.23652,297.30822 c -0.86437,-0.41793 -5.74013,-5.10898 -17.79323,-17.11917 -9.13143,-9.09891 -16.60261,-16.71291 -16.60261,-16.91999 0,-0.34571 5.88039,-9.68296 7.29407,-11.58198 0.60709,-0.81551 0.62501,-0.82031 2.59016,-0.69419 1.10041,0.0706 2.3441,-2.7e-4 2.80164,-0.15983 0.45254,-0.15776 0.98385,-0.22503 1.18069,-0.1495 0.19684,0.0755 2.38195,3.07684 4.85581,6.66957 2.47385,3.59273 9.05608,13.1402 14.62717,21.2166 5.5711,8.07641 10.1755,14.98203 10.23202,15.34584 0.0824,0.53018 -0.17039,0.89426 -1.27357,1.83453 -2.02541,1.72631 -2.97959,2.13425 -4.99153,2.13401 -1.23506,-1.5e-4 -2.07062,-0.16491 -2.92062,-0.57589 z m 10.78216,-7.95672 c -1.71148,-2.41785 -27.84724,-40.2209 -28.08923,-40.62858 -0.37121,-0.62535 0.0673,-1.63854 0.7095,-1.63934 0.32465,-5.3e-4 7.85309,1.49352 16.72986,3.31984 11.57878,2.38224 16.21435,3.43694 16.40417,3.73233 0.14552,0.22645 0.5934,0.94152 0.99529,1.58903 0.40189,0.64752 1.08464,1.37932 1.51721,1.62623 0.43258,0.24691 0.84634,0.60343 0.91947,0.79227 0.12113,0.31276 -4.43663,28.88883 -4.79382,30.05612 -0.23898,0.78099 -2.22327,2.80575 -2.74967,2.80575 -0.27804,0 -0.95361,-0.68004 -1.64278,-1.65365 z m 9.06159,-6.38976 c 0,-0.0583 0.89513,-5.62442 1.98917,-12.36927 1.53318,-9.45211 2.08659,-12.32402 2.41412,-12.52795 0.23372,-0.14552 0.89767,-0.65153 1.47544,-1.12448 0.57778,-0.47294 1.2476,-0.85297 1.48849,-0.84451 0.24089,0.008 4.00093,0.75558 8.35564,1.66026 5.15363,1.07066 7.9586,1.76772 8.03494,1.99673 0.15456,0.46367 -22.67294,23.31513 -23.29068,23.31513 -0.25692,0 -0.46712,-0.0477 -0.46712,-0.10591 z M 188.4204,257.20065 c -1.70759,-1.71205 -3.10472,-3.30145 -3.10472,-3.53198 0,-0.50667 12.98791,-6.13116 13.60822,-5.89313 1.05348,0.40426 0.7331,1.1515 -2.93891,6.8544 -2.11247,3.28085 -3.82727,5.68148 -4.05886,5.68224 -0.22055,7.9e-4 -1.79813,-1.39947 -3.50573,-3.11153 z m 78.35834,-2.55916 c -5.03621,-1.05782 -9.28359,-2.0017 -9.43863,-2.09752 -0.15503,-0.0958 -0.47347,-0.75102 -0.70763,-1.45601 -0.23416,-0.70499 -0.71951,-1.55779 -1.07856,-1.8951 -0.41977,-0.39435 -0.65274,-0.90379 -0.65259,-1.42706 2.6e-4,-1.26772 3.37412,-21.62795 3.61867,-21.83821 0.11966,-0.10288 0.76517,-0.38833 1.43447,-0.63433 0.66929,-0.24599 1.49372,-0.74192 1.83205,-1.10206 0.33834,-0.36014 0.80276,-0.65375 1.03206,-0.65246 0.49749,0.003 31.4792,13.09475 31.83843,13.45398 0.13681,0.13681 0.16097,0.52862 0.0537,0.87069 -0.21534,0.68662 -18.087,18.76667 -18.51064,18.72648 -0.14552,-0.0138 -4.38512,-0.89059 -9.42132,-1.9484 z m -90.67083,-9.76547 c -3.08489,-3.10634 -5.60889,-5.77822 -5.60889,-5.93752 0,-0.15929 0.1012,-0.35216 0.22488,-0.42861 0.30487,-0.18842 25.77,5.09473 26.08755,5.41228 0.15926,0.15925 0.15439,0.34907 -0.0132,0.51671 -0.42847,0.42847 -13.94284,6.08502 -14.53805,6.08502 -0.35594,0 -2.47798,-1.94808 -6.15224,-5.64788 z m 53.40114,2.06747 c -16.55206,-3.43703 -16.41212,-3.39592 -16.41212,-4.82113 0,-0.76798 -1.73475,0.0279 21.76374,-9.98459 18.73752,-7.98387 19.45164,-8.24036 19.87452,-7.13837 0.22213,0.57887 -3.25072,21.6267 -3.62591,21.9755 -0.17007,0.1581 -0.82805,0.43461 -1.46219,0.61447 -0.74946,0.21256 -1.55142,0.73698 -2.2915,1.49848 -0.6262,0.6443 -1.35752,1.16055 -1.62516,1.14721 -0.26764,-0.0133 -7.56726,-1.49455 -16.22138,-3.29157 z m -45.91316,-9.53834 c -7.85812,-1.6593 -14.43633,-3.07359 -14.61823,-3.14286 -0.50634,-0.19283 -0.39464,-1.43008 0.25017,-2.771 0.67489,-1.40348 14.58251,-15.63086 15.27195,-15.62308 0.36314,0.004 14.78185,20.46754 15.46801,21.95265 0.17691,0.3829 0.0296,0.75871 -0.61755,1.57584 -0.46742,0.59017 -0.98868,1.06231 -1.15835,1.0492 -0.16967,-0.0131 -6.73787,-1.38145 -14.596,-3.04075 z m 27.7099,0.21429 c 0.15842,-0.60581 14.71677,-23.14868 15.11547,-23.40555 0.16595,-0.10692 0.89703,-0.19883 1.62463,-0.20425 1.63494,-0.0122 3.15607,-0.69397 4.35139,-1.95031 0.50148,-0.52709 1.03727,-0.95932 1.19062,-0.9605 0.35936,-0.003 17.89879,7.40829 18.33664,7.74791 0.48311,0.37473 0.40393,1.63315 -0.13229,2.10251 -0.55628,0.4869 -39.6144,17.13923 -40.20016,17.13923 -0.26122,0 -0.36465,-0.16944 -0.2863,-0.46904 z m -8.79283,-2.57269 c -1.69746,-2.2985 -14.82565,-21.54632 -14.99254,-21.98124 -0.11302,-0.29451 1.9499,-2.53007 7.08136,-7.67399 3.98246,-3.99214 7.42881,-7.31809 7.65856,-7.39101 0.22975,-0.0729 4.57767,1.62889 9.66206,3.7818 l 9.24433,3.91437 0.16171,1.84226 c 0.18035,2.05445 0.31241,2.46853 1.23922,3.88556 l 0.64422,0.98498 -0.51754,0.8671 c -0.56897,0.95329 -14.63176,22.75504 -14.80111,22.94639 -0.0579,0.0654 -1.07211,0.12534 -2.25388,0.13326 l -2.14868,0.0144 -0.97771,-1.32389 z m 77.28904,-8.32469 c -8.20539,-3.47985 -15.04553,-6.45363 -15.20031,-6.60841 -0.17771,-0.17771 -0.18879,-0.37379 -0.0301,-0.53208 0.39145,-0.39036 12.74567,-5.57017 13.28526,-5.57017 0.53831,0 15.37338,14.7878 16.6955,16.6423 0.84381,1.18358 1.09933,2.41273 0.49924,2.40152 -0.1819,-0.003 -7.04423,-2.85332 -15.24962,-6.33316 z m -18.80205,-11.13105 -0.91262,-0.78013 1.00449,-6.28672 c 1.52333,-9.53403 1.48,-9.32943 1.9758,-9.32943 0.55867,0 11.67723,11.10927 11.67723,11.66746 0,0.29381 -1.79003,1.18028 -6.01927,2.98089 -3.3106,1.4095 -6.19786,2.55493 -6.41614,2.54539 -0.21829,-0.01 -0.80755,-0.36839 -1.30949,-0.79746 z m -14.69781,-2.9934 c -4.2201,-1.79204 -8.62039,-3.66556 -9.77841,-4.16338 l -2.10549,-0.90512 -0.59947,-1.7198 c -0.32971,-0.94588 -0.60263,-1.87728 -0.60648,-2.06978 -0.0102,-0.5074 13.23347,-20.94897 13.57237,-20.94897 0.30666,0 12.24336,11.77579 12.60534,12.43542 0.21914,0.39933 -2.60014,18.62775 -2.97281,19.22104 -0.152,0.24199 -2.15329,1.4278 -2.38413,1.41265 -0.0319,-0.002 -3.51081,-1.47002 -7.73092,-3.26206 z m -32.27856,-13.64566 c -5.03854,-2.15742 -8.49616,-3.78134 -8.54042,-4.01112 -0.0415,-0.21541 4.92949,-5.36508 11.24419,-11.6484 8.52938,-8.487 11.6297,-11.41 12.58121,-11.86167 1.71487,-0.81401 3.9725,-0.81313 5.65676,0.002 1.57514,0.76252 8.82328,7.75566 8.82328,8.51287 0,0.44324 -11.26323,18.24786 -13.11753,20.73584 -0.60641,0.81364 -0.64155,0.8236 -2.44958,0.69424 -1.58613,-0.11349 -2.03972,-0.0372 -3.35205,0.56358 -0.83474,0.38215 -1.71167,0.68192 -1.94875,0.66615 -0.23708,-0.0158 -4.24077,-1.65993 -8.89711,-3.65369 z"
         id="path848"
         inkscape:connector-curvature="0" />
      <path
         style="fill:#67c7cb;stroke-width:0.26458335"
         d="m 230.21027,297.35036 c -0.41033,-0.12314 -1.36283,-0.7029 -2.11667,-1.28836 -0.75384,-0.58545 -8.50374,-8.20523 -17.22199,-16.93284 -15.57308,-15.58977 -15.84438,-15.87915 -15.45282,-16.48213 0.21921,-0.33757 1.80661,-2.81641 3.52755,-5.50855 1.72095,-2.69213 3.306,-5.1036 3.52234,-5.35882 0.31383,-0.37023 0.74589,-0.45071 2.13736,-0.39812 0.95921,0.0362 2.29325,-0.0339 2.96452,-0.15589 l 1.22051,-0.22179 14.6296,21.25741 c 8.04628,11.69158 14.68087,21.45205 14.74352,21.68992 0.1481,0.56228 -2.89731,3.05352 -4.16517,3.40724 -1.09934,0.3067 -2.7516,0.30318 -3.78875,-0.008 z m 10.58529,-7.46969 c -2.58727,-3.48317 -28.75696,-41.59089 -28.75696,-41.87524 0,-0.19839 0.12254,-0.43645 0.27231,-0.52901 0.14977,-0.0926 7.65211,1.35178 16.67186,3.20966 l 16.39956,3.37795 0.79205,1.40343 c 0.43562,0.77188 1.20551,1.67199 1.71087,2.00024 0.50535,0.32826 0.96093,0.71589 1.01241,0.86141 0.0515,0.14552 -1.01884,6.98849 -2.37847,15.20661 l -2.47206,14.94203 -1.11039,1.13141 c -0.61072,0.62227 -1.19861,1.13141 -1.30643,1.13141 -0.10781,0 -0.48345,-0.38696 -0.83475,-0.8599 z m 8.81388,-7.69892 c 0,-0.35455 3.66873,-23.16609 3.77884,-23.4962 0.14581,-0.43713 2.99716,-2.32676 3.35694,-2.22468 0.22266,0.0632 3.73859,0.7902 7.81317,1.61561 4.07459,0.82542 7.52416,1.60959 7.66572,1.74262 0.16144,0.1517 -3.93146,4.43158 -10.97904,11.48062 -6.18003,6.18132 -11.32625,11.23876 -11.43603,11.23876 -0.10978,0 -0.1996,-0.16053 -0.1996,-0.35673 z m -60.96386,-25.28518 c -2.40403,-2.41031 -3.0201,-3.1684 -2.75083,-3.38493 0.54279,-0.43648 12.20098,-5.3703 12.68794,-5.36961 0.23909,2.7e-4 0.49743,0.16405 0.57407,0.36379 0.14474,0.37718 -6.60696,11.16203 -7.12149,11.37554 -0.16053,0.0666 -1.68589,-1.27655 -3.38969,-2.98479 z m 77.82118,-2.67943 c -4.77123,-1.00216 -8.7809,-1.88759 -8.91038,-1.96762 -0.12948,-0.08 -0.37616,-0.59032 -0.54818,-1.13399 -0.17202,-0.54368 -0.6759,-1.45158 -1.11974,-2.01756 l -0.80697,-1.02906 1.67256,-10.34803 c 0.91991,-5.69141 1.74844,-10.63574 1.84117,-10.9874 0.11633,-0.44116 0.49264,-0.75154 1.21381,-1.00117 0.57486,-0.19898 1.49777,-0.72544 2.05091,-1.1699 l 1.00572,-0.80811 14.20783,6.00951 c 19.07887,8.06983 17.61255,7.37917 17.23147,8.11628 -0.1721,0.3329 -4.25256,4.56409 -9.06769,9.40266 -7.04735,7.08166 -8.88552,8.79341 -9.42516,8.77695 -0.36871,-0.0112 -4.57412,-0.84039 -9.34535,-1.84256 z m -90.00478,-9.50423 c -3.04793,-3.05052 -5.45874,-5.62934 -5.35737,-5.73072 0.17826,-0.17825 23.45736,4.50666 24.79441,4.98987 0.58253,0.21052 0.60783,0.26906 0.21205,0.49055 -0.82977,0.46438 -13.55399,5.79671 -13.83233,5.79671 -0.15129,0 -2.76883,-2.49589 -5.81676,-5.54641 z m 53.436,1.95541 c -8.58573,-1.7951 -15.70227,-3.2693 -15.81453,-3.276 -0.40281,-0.024 -0.82959,-1.33326 -0.53171,-1.63114 0.47001,-0.47001 39.83774,-17.19054 40.27811,-17.10719 0.22671,0.0429 0.44786,0.40852 0.495,0.81832 0.10652,0.92605 -3.11584,20.83969 -3.43919,21.2536 -0.13021,0.16668 -0.64458,0.37956 -1.14304,0.47307 -0.56164,0.10537 -1.45257,0.66929 -2.34277,1.48289 -0.79007,0.72207 -1.53885,1.29878 -1.66397,1.28157 -0.12512,-0.0172 -7.25217,-1.50002 -15.8379,-3.29512 z m -46.81005,-9.72484 c -9.23267,-1.9492 -14.04118,-3.07531 -14.11759,-3.3062 -0.0637,-0.19259 0.0951,-0.90696 0.35284,-1.5875 0.38247,-1.00968 1.8091,-2.58908 7.75381,-8.58412 4.0068,-4.04073 7.37668,-7.31495 7.48861,-7.27604 0.35355,0.12289 14.84894,21.21177 14.96525,21.77247 0.16598,0.80018 -0.8805,1.98264 -1.73281,1.95795 -0.38962,-0.0113 -7.00917,-1.35074 -14.71011,-2.97656 z m 28.68609,0.47452 c 0,-0.10927 3.28014,-5.28506 7.28919,-11.50174 l 7.2892,-11.30306 1.57273,-0.16439 c 2.05773,-0.21507 3.14013,-0.69029 4.56608,-2.00468 l 1.16999,-1.07847 8.83401,3.72792 c 4.8587,2.05035 8.98977,3.87722 9.18014,4.0597 0.21158,0.2028 0.28057,0.59301 0.17747,1.00377 -0.15203,0.60578 -2.07517,1.4841 -19.51614,8.91332 -10.64112,4.53273 -19.62091,8.30994 -19.95508,8.39382 -0.33418,0.0839 -0.60759,0.0631 -0.60759,-0.0462 z m -6.41183,-1.39203 c -1.65625,-0.0726 -1.82637,-0.1378 -2.41763,-0.92604 -2.144,-2.85831 -14.8178,-21.57892 -14.90379,-22.01457 -0.0795,-0.40249 1.62811,-2.2583 7.13273,-7.75198 l 7.23719,-7.2228 9.24573,3.91693 9.24572,3.91693 0.14534,1.86228 c 0.1042,1.3352 0.34758,2.22414 0.8599,3.14076 0.393,0.70317 0.71455,1.41857 0.71455,1.58979 0,0.43261 -14.77911,23.27007 -15.16513,23.43396 -0.17214,0.0731 -1.11472,0.0977 -2.09461,0.0547 z m 74.28479,-9.70968 c -7.99962,-3.39651 -14.58228,-6.28807 -14.62816,-6.42569 -0.0714,-0.21421 4.46461,-2.24427 11.13401,-4.98294 l 1.80486,-0.74113 8.02241,8.05837 c 8.48475,8.52278 10.02217,10.34598 8.67465,10.2871 -0.25466,-0.0111 -7.00816,-2.79919 -15.00777,-6.19571 z m -18.35013,-10.93278 -0.8803,-0.73032 1.20286,-7.34441 c 0.66158,-4.03943 1.28139,-7.47147 1.37737,-7.62676 0.15994,-0.25879 11.48349,10.7797 11.48349,11.19441 0,0.17112 -11.76139,5.25889 -12.12374,5.24452 -0.0987,-0.004 -0.57552,-0.33576 -1.05968,-0.73744 z m -17.07016,-4.00168 c -5.07056,-2.16098 -9.30778,-4.03094 -9.41604,-4.15547 -0.10826,-0.12453 -0.46398,-0.97975 -0.79047,-1.90047 l -0.59364,-1.67406 0.63151,-0.97178 c 0.34733,-0.53448 3.29187,-5.1092 6.54342,-10.16605 3.25154,-5.05685 6.04394,-9.19427 6.20532,-9.19427 0.16138,0 3.00112,2.70962 6.31053,6.02138 4.25013,4.25315 6.01712,6.19478 6.01712,6.61184 0,0.53895 -2.48688,16.33018 -2.79314,17.73593 -0.14739,0.67655 -1.55692,1.64914 -2.36624,1.63272 -0.29104,-0.006 -4.67781,-1.7788 -9.74837,-3.93977 z m -29.87298,-12.64568 c -4.62029,-1.97212 -8.40053,-3.7194 -8.40053,-3.88285 0,-0.16344 5.0304,-5.31976 11.17865,-11.45848 12.09406,-12.07531 12.28308,-12.22925 15.0293,-12.24011 2.33135,-0.009 3.57794,0.79255 7.77215,4.99883 3.18343,3.19259 3.65184,3.76884 3.43958,4.23148 -0.13514,0.29456 -3.16275,5.06134 -6.72801,10.59284 l -6.48229,10.05728 -2.13797,0.006 c -1.74799,0.005 -2.3754,0.12629 -3.43958,0.66618 -0.71589,0.3632 -1.42068,0.65008 -1.5662,0.63752 -0.14552,-0.0126 -4.04482,-1.6364 -8.6651,-3.60852 z"
         id="path846"
         inkscape:connector-curvature="0" />
      <path
         style="fill:#5bb4c5;stroke-width:0.26458335"
         d="m 231.22089,297.44513 c -2.20431,-0.51848 -2.34155,-0.64324 -19.11614,-17.37912 -9.2042,-9.18296 -16.7349,-16.78785 -16.7349,-16.89977 0,-0.11192 1.66337,-2.78475 3.69637,-5.93963 l 3.69637,-5.73615 2.45519,-0.0459 c 1.35036,-0.0252 2.68763,-0.0939 2.97172,-0.15255 0.42483,-0.0877 3.14138,3.69799 15.30219,21.32462 l 14.78567,21.43125 -1.40616,1.29565 c -0.77338,0.7126 -1.76578,1.44342 -2.20532,1.62404 -0.97979,0.40262 -2.73134,0.64544 -3.44499,0.47758 z m -4.36562,-27.8816 c -7.93089,-11.49045 -14.45784,-21.12984 -14.50434,-21.42088 -0.0596,-0.3731 0.0637,-0.52917 0.41795,-0.52917 0.3843,0 29.0786,5.81557 32.00869,6.48731 0.34553,0.0792 0.80919,0.56128 1.11342,1.15762 0.28673,0.56203 1.06771,1.50283 1.73553,2.09066 l 1.21421,1.06879 -2.42556,14.90458 -2.42557,14.90458 -1.08163,1.12448 c -0.59489,0.61847 -1.20567,1.11982 -1.35727,1.11412 -0.1516,-0.006 -6.76455,-9.41164 -14.69543,-20.90209 z m 23.01875,12.13954 c 0,-0.59669 3.17477,-20.50532 3.58046,-22.45272 0.0836,-0.4015 0.68133,-1.06943 1.50404,-1.6808 l 1.36524,-1.01453 7.64328,1.5485 c 4.20381,0.85168 7.78301,1.63516 7.95378,1.74108 0.19741,0.12243 -3.76064,4.26569 -10.86816,11.37669 -9.46492,9.46955 -11.17864,11.07645 -11.17864,10.48178 z m -61.1099,-24.95258 c -1.66387,-1.66861 -2.97162,-3.08492 -2.9061,-3.14735 0.37099,-0.35355 12.78314,-5.4322 12.97955,-5.31081 0.13005,0.0804 0.23645,0.25596 0.23645,0.3902 0,0.32358 -6.91585,11.10179 -7.12348,11.10179 -0.0887,0 -1.52255,-1.36523 -3.18642,-3.03383 z m 78.04323,-2.62078 c -4.87495,-1.03731 -9.00321,-1.97668 -9.17391,-2.08749 -0.17071,-0.11081 -0.38701,-0.5504 -0.48068,-0.97686 -0.0937,-0.42647 -0.51955,-1.25751 -0.9464,-1.84676 -0.42685,-0.58926 -0.77609,-1.35761 -0.77609,-1.70745 0,-0.58646 3.0049,-19.41149 3.30626,-20.71305 0.084,-0.36299 0.46662,-0.68483 1.03836,-0.87352 0.4979,-0.16432 1.40934,-0.66391 2.02542,-1.1102 l 1.12015,-0.81143 2.14188,0.88426 c 11.91171,4.91765 29.11294,12.35819 29.20442,12.63263 0.12595,0.37785 -17.87514,18.58084 -18.3226,18.5281 -0.1503,-0.0177 -4.26186,-0.88091 -9.13681,-1.91823 z m -90.22292,-9.55894 c -4.447,-4.45097 -5.30089,-5.42144 -4.76008,-5.40996 1.28559,0.0273 23.93949,4.88474 23.89392,5.12332 -0.0539,0.28244 -12.70411,5.7106 -13.30836,5.7106 -0.2235,0 -2.84496,-2.44078 -5.82548,-5.42396 z m 53.06671,1.87812 c -15.7194,-3.2625 -16.34668,-3.43643 -15.96654,-4.42705 0.14636,-0.38141 39.23782,-17.16253 39.97996,-17.16253 0.22636,0 0.47873,0.10869 0.56083,0.24152 0.18362,0.29712 -3.22807,21.24261 -3.49697,21.469 -0.10612,0.0893 -0.73529,0.3617 -1.39816,0.60524 -0.66287,0.24354 -1.6693,0.91806 -2.23651,1.49894 -0.56721,0.58088 -1.21549,1.046 -1.44062,1.03361 -0.22512,-0.0124 -7.42602,-1.47883 -16.00199,-3.25873 z m -44.73233,-9.28644 c -7.13052,-1.50332 -13.58966,-2.871 -14.35365,-3.03928 -1.5739,-0.34668 -1.70879,-0.68086 -0.94644,-2.3447 0.44236,-0.96548 14.57453,-15.45752 14.94186,-15.32237 0.19742,0.0726 14.74903,21.02476 14.95239,21.52919 0.12105,0.30026 -1.13814,1.97341 -1.45466,1.93287 -0.0962,-0.0123 -6.00898,-1.25239 -13.1395,-2.75571 z m 27.27532,-0.19845 c 0.10272,-0.1819 3.39672,-5.30159 7.32001,-11.37708 l 7.13326,-11.04636 1.3607,-0.006 c 1.66611,-0.007 3.40495,-0.75364 4.70811,-2.02131 l 0.96615,-0.93983 8.95573,3.8021 c 7.55979,3.20947 8.96856,3.89174 9.03808,4.37717 0.053,0.37047 -0.13522,0.71653 -0.52917,0.97267 -0.75532,0.49109 -38.4577,16.56919 -38.85394,16.56919 -0.15713,0 -0.20165,-0.14883 -0.0989,-0.33073 z m -8.86015,-1.65364 c -0.26024,-0.29104 -3.84255,-5.45295 -7.9607,-11.4709 l -7.48754,-10.94172 7.27353,-7.27353 7.27352,-7.27352 9.10239,3.84665 9.10238,3.84665 0.16727,1.81991 c 0.16219,1.76458 0.66668,3.15403 1.48381,4.08667 0.36126,0.41231 -0.27905,1.50019 -7.17552,12.19109 l -7.57217,11.73837 -1.8669,-0.0202 c -1.51661,-0.0165 -1.95569,-0.11954 -2.34007,-0.54942 z m 76.63639,-9.06412 c -8.11278,-3.43859 -14.7493,-6.31821 -14.7478,-6.39914 0.003,-0.1734 12.1762,-5.31833 12.56664,-5.31132 0.35392,0.006 15.76425,15.50392 16.51775,16.61125 0.32326,0.47506 0.54864,0.97342 0.50084,1.10747 -0.0478,0.13405 -6.72464,-2.56967 -14.83743,-6.00826 z m -18.55996,-11.02873 -0.76674,-0.62694 1.11169,-6.97032 c 0.61142,-3.83367 1.19458,-7.18016 1.2959,-7.43664 0.14824,-0.37527 1.26681,0.61736 5.72827,5.08338 3.04922,3.05234 5.49,5.59881 5.42395,5.65881 -0.23315,0.21182 -11.52194,4.93755 -11.77236,4.92817 -0.13969,-0.005 -0.59901,-0.29164 -1.02071,-0.63646 z m -16.95978,-3.97172 -9.52443,-4.04828 -0.50149,-1.28941 c -0.27581,-0.70917 -0.51392,-1.58707 -0.52913,-1.95087 -0.0298,-0.7137 12.4478,-20.3561 12.93793,-20.36699 0.14674,-0.003 2.91494,2.64419 6.15157,5.88321 5.4725,5.47656 5.88349,5.95386 5.86652,6.81302 -0.01,0.50814 -0.63799,4.73315 -1.39546,9.38892 l -1.37721,8.46503 -1.05193,0.57683 -1.05194,0.57682 z m -29.87861,-12.66078 c -4.50021,-1.92023 -8.22172,-3.61281 -8.27002,-3.7613 -0.0483,-0.14849 4.88384,-5.23147 10.96032,-11.29551 8.26548,-8.24854 11.34804,-11.16122 12.23878,-11.56431 1.62739,-0.73644 3.90372,-0.72912 5.36836,0.0173 1.52139,0.77529 8.45622,7.61713 8.30536,8.19399 -0.12225,0.46751 -12.44972,19.70823 -13.0022,20.29385 -0.20881,0.22133 -1.08997,0.36595 -2.41824,0.39688 -1.58763,0.037 -2.36188,0.1917 -3.22236,0.64397 -0.62295,0.32743 -1.27779,0.58883 -1.45521,0.58091 -0.17742,-0.008 -4.00458,-1.5855 -8.50479,-3.50573 z"
         id="path844"
         inkscape:connector-curvature="0" />
      <path
         style="fill:#42a3bc;stroke-width:0.26458335"
         d="m 230.16256,296.96644 c -0.58208,-0.21839 -1.11199,-0.39886 -1.17757,-0.40106 -0.22554,-0.008 -33.35056,-33.1957 -33.35056,-33.41413 0,-0.12022 1.62551,-2.7497 3.61224,-5.84327 l 3.61224,-5.62469 2.27474,-0.0256 c 1.25111,-0.0141 2.55588,-0.0666 2.8995,-0.11668 0.71016,-0.10355 -0.9683,-2.4453 18.14035,25.3089 l 11.84069,17.19792 -1.25603,1.1395 c -0.69081,0.62673 -1.60762,1.32132 -2.03735,1.54354 -1.14447,0.59183 -3.31031,0.70374 -4.55825,0.23554 z m 10.10689,-8.40869 c -9.35212,-13.27881 -27.96355,-40.52083 -27.7935,-40.68203 0.12326,-0.11685 7.53059,1.29827 16.46072,3.14471 l 16.23662,3.35716 0.4757,0.91742 c 0.52475,1.01203 1.14643,1.72924 2.25433,2.60071 l 0.73191,0.57572 -2.43609,14.87779 -2.43608,14.87779 -0.96697,0.99219 c -0.53183,0.54571 -1.05585,0.99219 -1.16448,0.99219 -0.10864,0 -0.72161,-0.74414 -1.36216,-1.65365 z m 9.8686,-7.2111 c -2.6e-4,-0.29038 0.78972,-5.46905 1.75562,-11.50817 1.90238,-11.8944 1.61399,-10.90756 3.64746,-12.48121 l 0.77231,-0.59768 7.7605,1.57636 c 4.26827,0.86699 7.7605,1.63739 7.7605,1.71201 0,0.0746 -4.88157,5.01612 -10.84792,10.98115 -7.39975,7.3981 -10.84809,10.67768 -10.84847,10.31754 z m -61.24187,-24.72869 -2.89277,-2.90176 0.91291,-0.38313 c 0.5021,-0.21072 3.28987,-1.40524 6.19504,-2.65449 2.90517,-1.24924 5.37572,-2.27135 5.49011,-2.27135 0.11438,0 0.20796,0.1357 0.20796,0.30155 0,0.33344 -6.66513,10.79535 -6.88367,10.80495 -0.0752,0.003 -1.43856,-1.29979 -3.02958,-2.89577 z m 80.42471,-2.14914 c -3.34697,-0.71005 -7.31503,-1.54842 -8.81789,-1.86303 l -2.73248,-0.57202 -0.65447,-1.47987 c -0.35996,-0.81393 -0.88755,-1.72797 -1.17242,-2.0312 -0.51531,-0.54852 -0.50919,-0.60511 1.20303,-11.11517 0.94653,-5.81011 1.77138,-10.69735 1.833,-10.86052 0.0616,-0.16318 0.44908,-0.37775 0.86101,-0.47684 0.41194,-0.0991 1.26068,-0.5426 1.88609,-0.9856 0.77741,-0.55066 1.32143,-0.75687 1.71979,-0.65189 1.38792,0.36578 30.48177,12.86557 30.57146,13.13464 0.13577,0.40731 -17.69812,18.25527 -18.20602,18.22038 -0.22312,-0.0153 -3.14412,-0.60883 -6.4911,-1.31888 z m -92.3371,-9.76299 c -2.94759,-2.95052 -5.09632,-5.29443 -4.85353,-5.29443 0.52113,0 22.03824,4.42088 22.9435,4.71394 0.51951,0.16819 -0.50099,0.68294 -5.82083,2.93611 -3.54793,1.50269 -6.56985,2.77866 -6.71537,2.83549 -0.14552,0.0568 -2.64472,-2.27917 -5.55377,-5.19111 z m 52.51731,1.54939 c -15.4418,-3.20201 -16.48046,-3.4924 -15.54686,-4.34659 0.18333,-0.16773 9.19388,-4.07608 20.02347,-8.68522 13.13838,-5.59179 19.77826,-8.29214 19.95496,-8.11544 0.40415,0.40415 -3.02205,21.20311 -3.5353,21.4612 -0.21508,0.10816 -0.88672,0.40079 -1.49253,0.65029 -0.6058,0.2495 -1.49236,0.85694 -1.97013,1.34987 -0.57119,0.58932 -1.10006,0.8867 -1.54437,0.8684 -0.37163,-0.0153 -7.52179,-1.44744 -15.88924,-3.18251 z m -46.16979,-9.60341 -14.02292,-2.96712 0.0938,-0.64238 c 0.0516,-0.3533 0.2748,-0.99956 0.49602,-1.43612 0.4392,-0.86672 14.35789,-14.99757 14.66205,-14.88555 0.22146,0.0816 14.47712,20.6999 14.68299,21.23639 0.20533,0.53509 -0.74105,1.70575 -1.35985,1.68211 -0.29104,-0.0111 -6.83948,-1.35541 -14.55208,-2.98733 z m 30.28931,-1.67218 c 0.71847,-1.12779 3.91578,-6.09865 7.10512,-11.04636 l 5.7988,-8.99583 1.62167,-0.18252 c 1.76817,-0.19901 4.00033,-1.24923 4.79067,-2.25398 0.26226,-0.33342 0.64098,-0.60621 0.8416,-0.60621 0.20062,0 4.23161,1.64354 8.95776,3.65231 7.88447,3.35117 8.59959,3.70805 8.6731,4.32823 0.0733,0.61827 -0.11852,0.76134 -2.24896,1.67758 -10.23704,4.40266 -36.44063,15.4773 -36.62068,15.4773 -0.12396,0 0.36245,-0.92274 1.08092,-2.05052 z m -17.19244,-9.8907 c -4.00182,-5.83477 -7.50278,-10.96286 -7.7799,-11.39574 l -0.50387,-0.78708 7.11661,-7.12027 c 3.91414,-3.91615 7.2365,-7.12196 7.38303,-7.12401 0.34956,-0.005 17.36505,7.15265 17.79507,7.48547 0.19641,0.15201 0.33073,0.87247 0.33073,1.77391 0,1.17743 0.18307,1.8729 0.81608,3.1003 l 0.81609,1.58235 -7.47404,11.55168 -7.47405,11.55169 -1.87485,-0.005 -1.87485,-0.005 z m 83.55872,0.99136 c -7.95817,-3.36367 -14.38755,-6.19853 -14.2875,-6.2997 0.10005,-0.10116 2.86082,-1.31727 6.13504,-2.70247 l 5.95312,-2.51854 7.74544,7.72956 c 6.95829,6.944 9.34581,9.5395 9.02876,9.81521 -0.058,0.0504 -6.61668,-2.66039 -14.57486,-6.02406 z m -18.4127,-10.95768 -0.81574,-0.71434 1.1426,-6.92217 c 0.62844,-3.8072 1.18604,-7.05247 1.23912,-7.21172 0.0531,-0.15924 2.53151,2.14765 5.50763,5.12643 2.97612,2.97877 5.3571,5.46159 5.29106,5.51737 -0.0972,0.0821 -4.07583,1.77837 -10.72928,4.57433 -0.75826,0.31864 -0.88073,0.29094 -1.63539,-0.3699 z m -17.30969,-4.0653 c -9.17568,-3.88475 -9.45114,-4.0227 -9.62647,-4.82097 -0.0993,-0.45198 -0.35588,-1.18958 -0.57025,-1.63912 l -0.38977,-0.81734 6.26958,-9.76706 c 3.44827,-5.37187 6.43914,-9.94301 6.64639,-10.15807 0.3295,-0.34194 1.10817,0.33901 6.20238,5.42396 3.20406,3.19824 5.88606,6.0531 5.96001,6.34415 0.11023,0.43385 -2.66429,18.37037 -2.86714,18.53533 -0.23782,0.19339 -1.79622,0.91027 -1.96719,0.90492 -0.11636,-0.004 -4.46226,-1.80625 -9.65754,-4.0058 z m -29.5729,-12.51484 c -4.57996,-1.94592 -8.36163,-3.64132 -8.40371,-3.76756 -0.0421,-0.12624 4.90269,-5.19167 10.98838,-11.2565 8.17399,-8.14599 11.37195,-11.16628 12.24016,-11.56014 1.50796,-0.68409 3.71919,-0.6996 5.17982,-0.0363 1.09949,0.49926 8.56318,7.50319 8.56318,8.03569 0,0.15043 -2.98851,4.88947 -6.64113,10.5312 l -6.64113,10.2577 -1.89168,-0.0342 c -1.54131,-0.0279 -2.1794,0.0979 -3.44502,0.67931 -0.85433,0.39244 -1.5687,0.70798 -1.5875,0.70121 -0.0188,-0.007 -3.78141,-1.60444 -8.36137,-3.55036 z"
         id="path842"
         inkscape:connector-curvature="0" />
      <path
         style="fill:#479cbc;stroke-width:0.26458335"
         d="m 230.24866,297.00049 c -0.53472,-0.19966 -1.42769,-0.7296 -1.98437,-1.17766 -0.55668,-0.44805 -6.13183,-5.97034 -12.38923,-12.27175 -6.2574,-6.30142 -10.56915,-10.68468 -9.58168,-9.74059 1.14113,1.09101 1.97624,1.68782 2.29166,1.63773 0.27295,-0.0433 0.57337,0.046 0.66761,0.19844 0.0942,0.15248 0.73582,0.27724 1.42573,0.27724 0.68992,0 1.37146,0.11707 1.51454,0.26015 0.14309,0.14309 1.06236,0.27755 2.04283,0.29881 0.98047,0.0213 1.85105,0.14929 1.93462,0.28451 0.0836,0.13521 0.50267,0.16881 0.93134,0.0747 0.46938,-0.10309 0.93442,-0.0425 1.16913,0.15226 0.25155,0.20877 0.80646,0.26632 1.56515,0.16233 0.64648,-0.0886 1.23322,-0.0676 1.30387,0.0467 0.0706,0.11431 1.16463,0.23011 2.43107,0.25734 1.26645,0.0272 2.44517,0.16782 2.61939,0.31241 0.17422,0.14459 0.38169,0.19796 0.46104,0.1186 0.0794,-0.0793 2.66758,3.52332 5.75161,8.00594 l 5.60731,8.15023 -1.25407,1.1395 c -0.68974,0.62673 -1.60567,1.32132 -2.0354,1.54355 -1.10352,0.57065 -3.30966,0.70364 -4.47215,0.26958 z m 10.02309,-8.44274 c -1.25297,-1.7826 -5.89467,-8.51153 -7.80242,-11.31093 -0.8085,-1.18638 -0.91936,-1.43257 -0.35745,-0.79375 0.44801,0.50932 0.81777,0.98557 0.82167,1.05833 0.008,0.14172 2.99334,0.0837 7.28318,-0.14161 1.45521,-0.0764 3.21138,-0.13159 3.9026,-0.12261 1.01234,0.0131 1.25677,-0.0711 1.25677,-0.43299 0,-0.24713 0.0612,-0.38813 0.13597,-0.31335 0.0748,0.0748 -0.28729,2.74375 -0.80461,5.93105 l -0.94059,5.79507 -0.96887,0.99222 c -0.53288,0.54572 -1.05776,0.99222 -1.16639,0.99222 -0.10864,0 -0.72057,-0.74414 -1.35986,-1.65365 z m 9.8651,-7.27604 c -0.001,-0.25466 0.13774,-1.37944 0.30822,-2.49951 0.34149,-2.24364 0.46496,-2.36776 2.73624,-2.75062 0.58208,-0.0981 1.38925,-0.34595 1.79371,-0.55073 0.40445,-0.20478 0.86293,-0.29349 1.01884,-0.19713 0.1559,0.0963 1.07514,-0.5823 2.04275,-1.50812 0.96761,-0.92581 -0.3826,0.4885 -3.00046,3.14292 -2.61786,2.65441 -4.79075,4.82621 -4.82865,4.82621 -0.0379,0 -0.0697,-0.20836 -0.0707,-0.46302 z m -24.21675,-4.36562 -0.4196,-0.8599 0.53921,0.66146 c 0.51915,0.63686 0.6886,1.05833 0.42548,1.05833 -0.069,0 -0.31432,-0.38695 -0.54509,-0.85989 z m 25.05403,-1.25677 c 0,-0.36381 0.06,-0.51263 0.13345,-0.33073 0.0734,0.1819 0.0734,0.47955 0,0.66146 -0.0734,0.1819 -0.13345,0.0331 -0.13345,-0.33073 z m -25.97625,-0.13869 c -0.18408,-0.2218 -0.28345,-0.45451 -0.22082,-0.51713 0.0626,-0.0626 0.2592,0.11884 0.43682,0.40327 0.38413,0.61508 0.25602,0.68261 -0.216,0.11386 z m 20.66369,-0.0157 c 0.0127,-0.30823 0.0754,-0.37092 0.15985,-0.15986 0.0764,0.191 0.067,0.4192 -0.0209,0.50712 -0.0879,0.0879 -0.15045,-0.0684 -0.13897,-0.34726 z m -30.18339,-26.28459 c 0,-0.28037 -0.20835,-0.56946 -0.46302,-0.64243 -0.25466,-0.073 0.0132,-0.0659 0.59532,0.0157 1.32814,0.18619 1.40374,0.25784 0.77443,0.73394 -0.69036,0.52229 -0.90673,0.49671 -0.90673,-0.10721 z m 2.38125,0.26458 c 0,-0.13485 -0.20835,-0.30357 -0.46302,-0.37494 -0.25466,-0.0714 -0.10583,-0.0899 0.33073,-0.0412 0.43657,0.0487 0.94258,0.0984 1.12448,0.11037 0.63233,0.0416 0.32657,0.55092 -0.33073,0.55092 -0.3638,0 -0.66146,-0.11033 -0.66146,-0.24519 z m 2.06706,0.0644 c 0.191,-0.0764 0.4192,-0.067 0.50712,0.0209 0.0879,0.0879 -0.0683,0.15046 -0.34726,0.13897 -0.30823,-0.0127 -0.37092,-0.0754 -0.15986,-0.15985 z m 23.86211,-0.66424 c -2.41537,-0.41985 -27.32553,-5.43901 -29.3026,-5.9042 -0.83149,-0.19564 -0.7524,-1.00981 0.13229,-1.36179 0.40018,-0.15922 9.34759,-4.00141 19.88314,-8.5382 13.24468,-5.7034 19.24033,-8.16393 19.43033,-7.97393 0.18999,0.19 -0.28072,3.52112 -1.52545,10.7953 -0.99013,5.78628 -1.81612,10.53133 -1.83553,10.54456 -0.0194,0.0132 -0.60205,0.17786 -1.29473,0.36586 -0.73543,0.19959 -1.74308,0.76753 -2.42185,1.36501 -0.63933,0.56276 -1.26322,1.00906 -1.38641,0.99177 -0.12319,-0.0173 -0.87882,-0.14526 -1.67919,-0.28438 z m 12.17084,-2.41498 c 0,-0.69545 2.84742,-19.46486 3.02383,-19.93228 0.0635,-0.16818 0.46856,-0.38335 0.90019,-0.47815 0.43163,-0.0948 1.24335,-0.51943 1.80382,-0.94363 0.56047,-0.42419 1.15753,-0.77457 1.3268,-0.77862 0.50913,-0.0122 22.0688,9.30516 22.74981,9.83168 0.56473,0.43661 0.0851,1.21613 -0.85693,1.39286 -0.49593,0.093 -0.90169,0.28283 -0.90169,0.42175 0,0.13893 -0.24186,0.2526 -0.53747,0.2526 -0.29561,0 -0.606,0.17859 -0.68977,0.39687 -0.0838,0.21828 -0.31815,0.39688 -0.52086,0.39688 -0.20271,0 -0.36857,0.23812 -0.36857,0.52917 0,0.35277 -0.17639,0.52916 -0.52916,0.52916 -0.29105,0 -0.52917,0.11906 -0.52917,0.26459 0,0.14552 -0.47625,0.26458 -1.05833,0.26458 -0.72584,0 -1.05834,0.11525 -1.05834,0.36683 0,0.22991 -0.42854,0.4311 -1.14814,0.53901 -0.85167,0.12772 -1.2978,0.3746 -1.72771,0.95608 -0.65272,0.88285 -1.08879,1.00991 -1.10131,0.32089 -0.008,-0.44097 -0.0252,-0.44097 -0.3599,0 -0.19332,0.25466 -0.48719,0.46302 -0.65304,0.46302 -0.16586,0 -0.30156,0.23813 -0.30156,0.52917 0,0.38805 -0.17639,0.52917 -0.66146,0.52917 -0.3638,0 -0.66328,-0.14883 -0.66551,-0.33073 -0.002,-0.20483 -0.0781,-0.23001 -0.19844,-0.0662 -0.29454,0.40091 -1.32288,0.92604 -1.81341,0.92604 -0.23957,0 -0.65806,0.25653 -0.92998,0.57006 -0.36125,0.41652 -0.8328,0.5827 -1.75083,0.617 -0.69103,0.0258 -1.63746,0.24554 -2.10317,0.48827 -0.46572,0.24274 -1.0908,0.44134 -1.38906,0.44134 -0.29827,0 -0.54231,0.11906 -0.54231,0.26458 0,0.14552 -0.41672,0.26459 -0.92604,0.26459 -0.57327,0 -1.12763,0.20158 -1.45521,0.52916 -0.29104,0.29104 -0.70776,0.52917 -0.92604,0.52917 -0.21828,0 -0.39688,0.093 -0.39688,0.20671 0,0.1137 -0.83344,0.23184 -1.85208,0.26255 -1.77368,0.0535 -1.85208,0.03 -1.85208,-0.55422 z m -58.34063,-6.99473 c -5.00167,-1.02867 -16.3903,-3.56177 -16.92158,-3.76376 -0.38921,-0.14798 -0.99757,-0.26905 -1.3519,-0.26905 -0.46784,0 -0.64423,-0.14488 -0.64423,-0.52917 0,-0.43541 -0.17639,-0.52916 -0.99559,-0.52916 -0.7686,0 -1.05514,-0.13215 -1.25677,-0.5796 -0.14365,-0.31878 -0.84822,-0.98971 -1.56571,-1.49094 -0.71749,-0.50124 -1.57393,-1.18075 -1.9032,-1.51001 -0.32926,-0.32927 -0.75386,-0.6504 -0.94354,-0.71363 -0.24631,-0.0821 -0.14348,-0.37341 0.3598,-1.01925 1.11967,-1.43683 12.04792,-12.56014 12.19597,-12.41366 0.5737,0.56757 14.48063,21.19479 14.47607,21.47137 -0.0105,0.63887 -0.89505,1.46085 -1.44932,1.34686 z m 14.94896,-2.59834 c 0,-0.14661 6.76332,-10.81325 11.31082,-17.83864 l 2.65459,-4.10104 1.61735,-0.18252 c 1.76373,-0.19904 3.9973,-1.25088 4.78635,-2.25398 0.26226,-0.33342 0.64098,-0.60621 0.8416,-0.60621 0.20062,0 4.23161,1.64354 8.95776,3.65231 7.92029,3.3664 8.59931,3.70579 8.67379,4.33542 0.0882,0.74604 -0.60799,1.05925 -28.25893,12.71218 -10.87738,4.58405 -10.58333,4.46507 -10.58333,4.28248 z m -9.64432,-2.4928 c -1.03334,-1.42848 -13.61304,-19.65681 -14.30209,-20.72412 l -0.48295,-0.74808 7.11961,-7.12328 c 3.91579,-3.9178 7.2395,-7.12496 7.38603,-7.12701 0.34956,-0.005 17.36505,7.15265 17.79507,7.48547 0.19641,0.15201 0.33073,0.87247 0.33073,1.77391 0,1.17864 0.18309,1.87295 0.81911,3.10616 l 0.8191,1.58821 -7.19998,11.08281 c -3.95999,6.09554 -7.31927,11.26791 -7.46507,11.49416 -0.19981,0.31006 -0.71981,0.40779 -2.11168,0.39687 l -1.8466,-0.0145 z m 83.33078,-5.83246 c -13.06959,-5.3337 -20.72947,-8.6012 -20.56023,-8.77045 0.10435,-0.10434 2.86809,-1.31901 6.14164,-2.69926 l 5.95192,-2.50954 2.6067,2.56367 c 1.43368,1.41001 4.80983,4.87939 7.50256,7.70972 4.10489,4.31466 4.81653,5.17727 4.40476,5.33922 -0.93221,0.36664 -1.56613,0.19542 -6.04735,-1.63336 z m -24.68003,-13.42925 -0.81574,-0.71434 1.1426,-6.92217 c 0.62844,-3.8072 1.18604,-7.05247 1.23912,-7.21172 0.0531,-0.15924 2.53151,2.14765 5.50763,5.12643 2.97612,2.97877 5.3571,5.46159 5.29106,5.51737 -0.0972,0.0821 -4.07583,1.77837 -10.72928,4.57433 -0.75826,0.31864 -0.88073,0.29094 -1.63539,-0.3699 z m -17.30969,-4.0653 c -9.17568,-3.88475 -9.45114,-4.0227 -9.62647,-4.82097 -0.0993,-0.45198 -0.35588,-1.18958 -0.57025,-1.63912 l -0.38977,-0.81734 6.26958,-9.76706 c 3.44827,-5.37187 6.43914,-9.94301 6.64639,-10.15807 0.3295,-0.34194 1.10817,0.33901 6.20238,5.42396 3.20406,3.19824 5.88606,6.0531 5.96001,6.34415 0.11023,0.43385 -2.66429,18.37037 -2.86714,18.53533 -0.23782,0.19339 -1.79622,0.91027 -1.96719,0.90492 -0.11636,-0.004 -4.46226,-1.80625 -9.65754,-4.0058 z m -29.5729,-12.51484 c -4.57996,-1.94592 -8.36163,-3.64132 -8.40371,-3.76756 -0.0421,-0.12624 4.90269,-5.19167 10.98838,-11.2565 8.17399,-8.14599 11.37195,-11.16628 12.24016,-11.56014 1.50796,-0.68409 3.71919,-0.6996 5.17982,-0.0363 1.09949,0.49926 8.56318,7.50319 8.56318,8.03569 0,0.15043 -2.98851,4.88947 -6.64113,10.5312 l -6.64113,10.2577 -1.89168,-0.0342 c -1.54131,-0.0279 -2.1794,0.0979 -3.44502,0.67931 -0.85433,0.39244 -1.5687,0.70798 -1.5875,0.70121 -0.0188,-0.007 -3.78141,-1.60444 -8.36137,-3.55036 z"
         id="path840"
         inkscape:connector-curvature="0" />
      <path
         style="fill:#34afb9;stroke-width:0.26458335"
         d="m 215.47818,249.22038 c 0,-0.28037 -0.20835,-0.56946 -0.46302,-0.64243 -0.25466,-0.073 0.0132,-0.0659 0.59532,0.0157 1.32814,0.18619 1.40374,0.25784 0.77443,0.73394 -0.69036,0.52229 -0.90673,0.49671 -0.90673,-0.10721 z m 2.38125,0.26458 c 0,-0.13485 -0.20835,-0.30357 -0.46302,-0.37494 -0.25466,-0.0714 -0.10583,-0.0899 0.33073,-0.0412 0.43657,0.0487 0.94258,0.0984 1.12448,0.11037 0.63233,0.0416 0.32657,0.55092 -0.33073,0.55092 -0.3638,0 -0.66146,-0.11033 -0.66146,-0.24519 z m 2.06706,0.0644 c 0.191,-0.0764 0.4192,-0.067 0.50712,0.0209 0.0879,0.0879 -0.0683,0.15046 -0.34726,0.13897 -0.30823,-0.0127 -0.37092,-0.0754 -0.15986,-0.15985 z m 23.86211,-0.66424 c -2.41537,-0.41985 -27.32553,-5.43901 -29.3026,-5.9042 -0.83149,-0.19564 -0.7524,-1.00981 0.13229,-1.36179 0.40018,-0.15922 9.34759,-4.00141 19.88314,-8.5382 13.24468,-5.7034 19.24033,-8.16393 19.43033,-7.97393 0.18999,0.19 -0.28072,3.52112 -1.52545,10.7953 -0.99013,5.78628 -1.81612,10.53133 -1.83553,10.54456 -0.0194,0.0132 -0.60205,0.17786 -1.29473,0.36586 -0.73543,0.19959 -1.74308,0.76753 -2.42185,1.36501 -0.63933,0.56276 -1.26322,1.00906 -1.38641,0.99177 -0.12319,-0.0173 -0.87882,-0.14526 -1.67919,-0.28438 z m 12.17084,-2.41498 c 0,-0.69545 2.84742,-19.46486 3.02383,-19.93228 0.0635,-0.16818 0.46856,-0.38335 0.90019,-0.47815 0.43163,-0.0948 1.24335,-0.51943 1.80382,-0.94363 0.56047,-0.42419 1.15753,-0.77457 1.3268,-0.77862 0.50913,-0.0122 22.0688,9.30516 22.74981,9.83168 0.56473,0.43661 0.0851,1.21613 -0.85693,1.39286 -0.49593,0.093 -0.90169,0.28283 -0.90169,0.42175 0,0.13893 -0.24186,0.2526 -0.53747,0.2526 -0.29561,0 -0.606,0.17859 -0.68977,0.39687 -0.0838,0.21828 -0.31815,0.39688 -0.52086,0.39688 -0.20271,0 -0.36857,0.23812 -0.36857,0.52917 0,0.35277 -0.17639,0.52916 -0.52916,0.52916 -0.29105,0 -0.52917,0.11906 -0.52917,0.26459 0,0.14552 -0.47625,0.26458 -1.05833,0.26458 -0.72584,0 -1.05834,0.11525 -1.05834,0.36683 0,0.22991 -0.42854,0.4311 -1.14814,0.53901 -0.85167,0.12772 -1.2978,0.3746 -1.72771,0.95608 -0.65272,0.88285 -1.08879,1.00991 -1.10131,0.32089 -0.008,-0.44097 -0.0252,-0.44097 -0.3599,0 -0.19332,0.25466 -0.48719,0.46302 -0.65304,0.46302 -0.16586,0 -0.30156,0.23813 -0.30156,0.52917 0,0.38805 -0.17639,0.52917 -0.66146,0.52917 -0.3638,0 -0.66328,-0.14883 -0.66551,-0.33073 -0.002,-0.20483 -0.0781,-0.23001 -0.19844,-0.0662 -0.29454,0.40091 -1.32288,0.92604 -1.81341,0.92604 -0.23957,0 -0.65806,0.25653 -0.92998,0.57006 -0.36125,0.41652 -0.8328,0.5827 -1.75083,0.617 -0.69103,0.0258 -1.63746,0.24554 -2.10317,0.48827 -0.46572,0.24274 -1.0908,0.44134 -1.38906,0.44134 -0.29827,0 -0.54231,0.11906 -0.54231,0.26458 0,0.14552 -0.41672,0.26459 -0.92604,0.26459 -0.57327,0 -1.12763,0.20158 -1.45521,0.52916 -0.29104,0.29104 -0.70776,0.52917 -0.92604,0.52917 -0.21828,0 -0.39688,0.093 -0.39688,0.20671 0,0.1137 -0.83344,0.23184 -1.85208,0.26255 -1.77368,0.0535 -1.85208,0.03 -1.85208,-0.55422 z m -58.34063,-6.99473 c -5.00167,-1.02867 -16.3903,-3.56177 -16.92158,-3.76376 -0.38921,-0.14798 -0.99757,-0.26905 -1.3519,-0.26905 -0.46784,0 -0.64423,-0.14488 -0.64423,-0.52917 0,-0.43541 -0.17639,-0.52916 -0.99559,-0.52916 -0.7686,0 -1.05514,-0.13215 -1.25677,-0.5796 -0.14365,-0.31878 -0.84822,-0.98971 -1.56571,-1.49094 -0.71749,-0.50124 -1.57393,-1.18075 -1.9032,-1.51001 -0.32926,-0.32927 -0.75386,-0.6504 -0.94354,-0.71363 -0.24631,-0.0821 -0.14348,-0.37341 0.3598,-1.01925 1.11967,-1.43683 12.04792,-12.56014 12.19597,-12.41366 0.5737,0.56757 14.48063,21.19479 14.47607,21.47137 -0.0105,0.63887 -0.89505,1.46085 -1.44932,1.34686 z m 14.94896,-2.59834 c 0,-0.14661 6.76332,-10.81325 11.31082,-17.83864 l 2.65459,-4.10104 1.61735,-0.18252 c 1.76373,-0.19904 3.9973,-1.25088 4.78635,-2.25398 0.26226,-0.33342 0.64098,-0.60621 0.8416,-0.60621 0.20062,0 4.23161,1.64354 8.95776,3.65231 7.92029,3.3664 8.59931,3.70579 8.67379,4.33542 0.0882,0.74604 -0.60799,1.05925 -28.25893,12.71218 -10.87738,4.58405 -10.58333,4.46507 -10.58333,4.28248 z m -9.64432,-2.4928 c -1.03334,-1.42848 -13.61304,-19.65681 -14.30209,-20.72412 l -0.48295,-0.74808 7.11961,-7.12328 c 3.91579,-3.9178 7.2395,-7.12496 7.38603,-7.12701 0.34956,-0.005 17.36505,7.15265 17.79507,7.48547 0.19641,0.15201 0.33073,0.87247 0.33073,1.77391 0,1.17864 0.18309,1.87295 0.81911,3.10616 l 0.8191,1.58821 -7.19998,11.08281 c -3.95999,6.09554 -7.31927,11.26791 -7.46507,11.49416 -0.19981,0.31006 -0.71981,0.40779 -2.11168,0.39687 l -1.8466,-0.0145 z m 83.33078,-5.83246 c -13.06959,-5.3337 -20.72947,-8.6012 -20.56023,-8.77045 0.10435,-0.10434 2.86809,-1.31901 6.14164,-2.69926 l 5.95192,-2.50954 2.6067,2.56367 c 1.43368,1.41001 4.80983,4.87939 7.50256,7.70972 4.10489,4.31466 4.81653,5.17727 4.40476,5.33922 -0.93221,0.36664 -1.56613,0.19542 -6.04735,-1.63336 z m -24.68003,-13.42925 -0.81574,-0.71434 1.1426,-6.92217 c 0.62844,-3.8072 1.18604,-7.05247 1.23912,-7.21172 0.0531,-0.15924 2.53151,2.14765 5.50763,5.12643 2.97612,2.97877 5.3571,5.46159 5.29106,5.51737 -0.0972,0.0821 -4.07583,1.77837 -10.72928,4.57433 -0.75826,0.31864 -0.88073,0.29094 -1.63539,-0.3699 z m -17.30969,-4.0653 c -9.17568,-3.88475 -9.45114,-4.0227 -9.62647,-4.82097 -0.0993,-0.45198 -0.35588,-1.18958 -0.57025,-1.63912 l -0.38977,-0.81734 6.26958,-9.76706 c 3.44827,-5.37187 6.43914,-9.94301 6.64639,-10.15807 0.3295,-0.34194 1.10817,0.33901 6.20238,5.42396 3.20406,3.19824 5.88606,6.0531 5.96001,6.34415 0.11023,0.43385 -2.66429,18.37037 -2.86714,18.53533 -0.23782,0.19339 -1.79622,0.91027 -1.96719,0.90492 -0.11636,-0.004 -4.46226,-1.80625 -9.65754,-4.0058 z m -29.5729,-12.51484 c -4.57996,-1.94592 -8.36163,-3.64132 -8.40371,-3.76756 -0.0421,-0.12624 4.90269,-5.19167 10.98838,-11.2565 8.17399,-8.14599 11.37195,-11.16628 12.24016,-11.56014 1.50796,-0.68409 3.71919,-0.6996 5.17982,-0.0363 1.09949,0.49926 8.56318,7.50319 8.56318,8.03569 0,0.15043 -2.98851,4.88947 -6.64113,10.5312 l -6.64113,10.2577 -1.89168,-0.0342 c -1.54131,-0.0279 -2.1794,0.0979 -3.44502,0.67931 -0.85433,0.39244 -1.5687,0.70798 -1.5875,0.70121 -0.0188,-0.007 -3.78141,-1.60444 -8.36137,-3.55036 z"
         id="path838"
         inkscape:connector-curvature="0" />
      <path
         style="fill:#23c1b6;stroke-width:0.26458335"
         d="m 236.22139,207.10181 c -0.9748,-0.22431 -1.11857,-0.36301 -1.41639,-1.36639 -0.1823,-0.6142 -0.44649,-1.25795 -0.58708,-1.43055 -0.16721,-0.20527 -0.14307,-0.52557 0.0698,-0.92604 0.29926,-0.56302 5.38442,-8.64259 10.44616,-16.5974 l 2.0904,-3.28517 5.89947,6.0633 5.89948,6.0633 -0.16237,1.32291 c -0.28874,2.35244 -0.6175,3.26179 -1.25054,3.45896 -0.32418,0.10096 -1.02327,0.52486 -1.55353,0.94199 -0.53027,0.41714 -1.05055,0.75843 -1.15618,0.75843 -0.10563,0 -1.30581,0.53814 -2.66707,1.19587 -1.36126,0.65773 -2.86504,1.27142 -3.34174,1.36375 -0.4767,0.0923 -0.96486,0.33332 -1.0848,0.53552 -0.12982,0.21885 -0.42506,0.30194 -0.72951,0.20532 -0.28128,-0.0893 -0.88605,0.0246 -1.34393,0.25298 -0.45787,0.22842 -1.03779,0.41531 -1.2887,0.41531 -0.25091,0 -0.9045,0.1873 -1.45241,0.41623 -0.54791,0.22894 -1.53688,0.4603 -2.19773,0.51415 -0.66084,0.0539 -1.62607,0.154 -2.14496,0.22255 -0.51889,0.0686 -1.43165,0.0123 -2.02836,-0.12502 z m -19.28612,-1.81863 c -0.0927,-0.14998 0.0135,-0.19434 0.24896,-0.10399 0.45837,0.1759 0.54224,0.36554 0.16165,0.36554 -0.13693,0 -0.32171,-0.1177 -0.41061,-0.26155 z m -4.3675,-1.85512 c -0.21828,-0.14106 -0.27781,-0.25647 -0.13229,-0.25647 0.14552,0 0.44317,0.11541 0.66145,0.25647 0.21829,0.14107 0.27782,0.25648 0.1323,0.25648 -0.14552,0 -0.44318,-0.11541 -0.66146,-0.25648 z m -1.98438,-0.79375 c -0.20695,-0.33485 0.14331,-0.33485 0.66146,0 0.34203,0.22104 0.33504,0.25704 -0.0505,0.26054 -0.24607,0.002 -0.52099,-0.11501 -0.61093,-0.26054 z m 4.40402,-4.22496 c -4.41728,-1.8784 -8.09813,-3.482 -8.17969,-3.56355 -0.19651,-0.19652 1.7593,-2.24445 12.56878,-13.16077 6.20563,-6.26697 9.44442,-9.34907 10.21777,-9.72344 1.31835,-0.63821 3.4709,-0.72492 4.74398,-0.19111 1.1806,0.49504 3.13012,2.21239 6.25615,5.51112 l 2.66286,2.80998 -5.23708,8.03022 c -2.88039,4.41662 -5.88623,9.00981 -6.67964,10.20708 l -1.44256,2.17685 -1.98438,0.009 c -1.54685,0.007 -2.29644,0.15381 -3.39971,0.66741 -0.77843,0.36238 -1.43328,0.65529 -1.45521,0.6509 -0.0219,-0.004 -3.654,-1.54484 -8.07127,-3.42324 z"
         id="path836"
         inkscape:connector-curvature="0" />
    </g>
  </g>
</svg>
