<?xml version="1.0" encoding="UTF-8"?>
<svg width="207.31mm" height="233.6mm" version="1.1" viewBox="0 0 207.31 233.6" xmlns="http://www.w3.org/2000/svg" xmlns:cc="http://creativecommons.org/ns#" xmlns:dc="http://purl.org/dc/elements/1.1/" xmlns:rdf="http://www.w3.org/1999/02/22-rdf-syntax-ns#">
<metadata>
<rdf:RDF>
<cc:Work rdf:about="">
<dc:format>image/svg+xml</dc:format>
<dc:type rdf:resource="http://purl.org/dc/dcmitype/StillImage"/>
<dc:title/>
</cc:Work>
</rdf:RDF>
</metadata>
<g transform="translate(-1.3891 -31.384)">
<path d="m105.04 264.98c-3.2179 0-6.2223-0.85787-9.0132-2.3601l-28.542-16.953c-4.293-2.3619-2.1465-3.2198-0.85786-3.6487 5.7934-1.9311 6.8667-2.3619 12.875-5.7934 0.64432-0.4308 1.5041-0.2154 2.1465 0.21353l21.89 13.091c0.85786 0.42893 1.9311 0.42893 2.5736 0l85.629-49.574c0.85786-0.42895 1.2887-1.2887 1.2887-2.3601v-98.933c0-1.0751-0.4308-1.9311-1.2887-2.3619l-85.629-49.359c-0.85787-0.43078-1.9311-0.43078-2.5736 0l-85.629 49.359c-0.85788 0.42893-1.2887 1.5022-1.2887 2.3601v98.933c0 0.85973 0.43078 1.9311 1.2887 2.3619l23.393 13.52c12.662 6.4377 20.602-1.0733 20.602-8.5842v-97.647c0-1.2868 1.0733-2.5754 2.5755-2.5754h10.944c1.2887 0 2.5755 1.0732 2.5755 2.5754v97.647c0 16.953-9.2286 26.826-25.324 26.826-4.9355 0-8.7978 0-19.744-5.3663l-22.533-12.875c-5.5799-3.2179-9.0132-9.2286-9.0132-15.666v-98.933c0-6.4377 3.4333-12.448 9.0132-15.666l85.627-49.574c5.3663-3.0044 12.664-3.0044 18.028 0l85.627 49.574c5.5798 3.2179 9.015 9.2286 9.015 15.666v98.933c0 6.4377-3.4352 12.448-9.015 15.666l-85.627 49.574c-2.7909 1.2886-6.0088 1.9311-9.0132 1.9311zm26.397-68.03c-37.555 0-45.281-17.168-45.281-31.762 0-1.2886 1.0733-2.5754 2.5755-2.5754h11.16c1.2868 0 2.3601 0.85788 2.3601 2.1465 1.7176 11.373 6.6531 16.953 29.401 16.953 18.026 0 25.755-4.0776 25.755-13.735 0-5.5799-2.1484-9.6557-30.261-12.447-23.393-2.3619-37.986-7.511-37.986-26.182 0-17.384 14.595-27.686 39.059-27.686 27.468 0 40.99 9.444 42.708 30.044 0 0.64619-0.2154 1.2887-0.64432 1.933-0.43081 0.42893-1.0733 0.85787-1.7176 0.85787h-11.16c-1.0732 0-2.1465-0.85787-2.3601-1.9311-2.5755-11.802-9.2286-15.666-26.826-15.666-19.744 0-22.106 6.8685-22.106 12.018 0 6.2242 2.7908 8.1553 29.401 11.589 26.397 3.4352 38.845 8.3707 38.845 26.826-0.21541 18.886-15.666 29.617-42.923 29.617z" fill="#539e43" stroke-width="1.2917"/>
</g>
</svg>
