<?xml version="1.0" encoding="UTF-8"?>
<svg fill="none" viewBox="0 0 536 483" xmlns="http://www.w3.org/2000/svg">
<g clip-path="url(#a)">
<path d="m94.449 349.67c-3.042 2.981-4.7832 7.04-4.845 11.296-0.0619 4.256 1.5607 8.365 4.5149 11.433l102.22 105.68c1.486 1.537 3.264 2.763 5.229 3.607 1.966 0.844 4.079 1.289 6.218 1.31s4.261-0.384 6.242-1.19c1.982-0.806 3.783-1.998 5.298-3.505l311.92-310.23c1.704-1.695 3.007-3.749 3.814-6.012 0.807-2.262 1.097-4.676 0.85-7.066-0.247-2.389-1.026-4.693-2.279-6.743s-2.949-3.794-4.964-5.105l-122.65-79.8c-3.068-2.0164-6.735-2.9205-10.389-2.5611-3.655 0.3593-7.075 1.9602-9.69 4.5353l-291.49 284.35z" fill="#3F3D56"/>
<path d="m533.39 147.86c-0.619 0.95-1.336 1.831-2.138 2.631l-311.19 316.09c-1.516 1.508-3.317 2.699-5.298 3.505-1.981 0.807-4.103 1.211-6.242 1.19-2.139-0.02-4.253-0.466-6.218-1.31s-3.743-2.07-5.229-3.607l-104.42-110.08c-0.7115-0.738-1.3505-1.543-1.9082-2.403-4.0044 6.154-1.9335 13.033 3.375 18.52l102.22 105.68c1.487 1.536 3.264 2.762 5.23 3.607 1.965 0.844 4.078 1.289 6.218 1.31 2.139 0.02 4.261-0.384 6.242-1.19s3.782-1.998 5.298-3.506l311.92-310.23c2.625-2.613 4.27-6.047 4.659-9.728 0.39-3.681-0.5-7.383-2.521-10.486z" fill="#6DD5ED"/>
<path d="m504.51 151.69-12.694-8.084c1.337 2.38 1.828 5.142 1.393 7.836s-1.77 5.162-3.789 7.001c-2.018 1.84-4.6 2.942-7.326 3.128s-5.434-0.555-7.684-2.103l-82.141-56.409c-1.867-1.28-3.337-3.0587-4.241-5.1327-0.904-2.0739-1.207-4.36-0.874-6.5976 0.333-2.2375 1.289-4.3366 2.758-6.0579s3.393-2.9956 5.553-3.6777l-6.54-4.165c-0.848-0.5404-1.857-0.774-2.857-0.6617-1 0.1122-1.931 0.5635-2.639 1.2785l-276.33 271.25c-0.412 0.417-0.737 0.912-0.955 1.455-0.218 0.544-0.325 1.126-0.314 1.712 0.01 0.586 0.138 1.164 0.375 1.7 0.237 0.535 0.579 1.019 1.006 1.421l100.36 97.676c0.832 0.784 1.937 1.213 3.08 1.197s2.235-0.476 3.045-1.282l291.56-294.67c0.467-0.465 0.824-1.029 1.043-1.65 0.22-0.621 0.297-1.283 0.226-1.937-0.071-0.655-0.289-1.285-0.637-1.845-0.347-0.559-0.817-1.034-1.372-1.388z" fill="#fff"/>
<path d="m369.65 103.72-184.07 185.68 84.769 79.836 201.63-198.98-102.33-66.53z" fill="#E6E6E6"/>
<path d="m464.14 219.36c0.559 0.532 1.302 0.83 2.074 0.83 0.773 0 1.516-0.298 2.075-0.83l17.632-17.613c0.549-0.55 0.857-1.295 0.857-2.072s-0.308-1.522-0.857-2.072c-0.559-0.533-1.302-0.83-2.074-0.83-0.773 0-1.516 0.297-2.075 0.83l-17.632 17.613c-0.549 0.55-0.858 1.295-0.858 2.072 0 0.776 0.309 1.521 0.858 2.072z" fill="#3F3D56"/>
<path d="m434.44 249.03c0.551 0.549 1.297 0.856 2.075 0.856 0.777 0 1.523-0.307 2.074-0.856l17.633-17.613c0.549-0.549 0.858-1.295 0.857-2.072 0-0.776-0.309-1.521-0.859-2.071-0.55-0.549-1.296-0.858-2.073-0.858-0.778 0-1.524 0.308-2.074 0.857l-17.633 17.613c-0.549 0.55-0.857 1.295-0.857 2.072s0.308 1.522 0.857 2.072z" fill="#3F3D56"/>
<path d="m187.54 377.71c10.937 0 19.802-8.856 19.802-19.78s-8.865-19.78-19.802-19.78c-10.936 0-19.801 8.856-19.801 19.78s8.865 19.78 19.801 19.78z" fill="#6DD5ED"/>
<path d="m332.02 187.01h-209.32v41.281h209.32v-41.281z" fill="#E6E6E6"/>
<path d="m127.16 223.83h200.39v-32.367h-200.39v32.367z" fill="#fff"/>
<path d="m5.1338 0c-1.3611 0.0015284-2.666 0.5423-3.6285 1.5037-0.96244 0.96138-1.5038 2.2648-1.5053 3.6244v216.85c0.0016061 1.359 0.54296 2.663 1.5054 3.624 0.96244 0.961 2.2674 1.502 3.6284 1.504h318.3c1.361-2e-3 2.665-0.543 3.628-1.504 0.962-0.961 1.504-2.265 1.505-3.624v-216.85c-1e-3 -1.3596-0.543-2.663-1.505-3.6244-0.962-0.96136-2.267-1.5022-3.628-1.5037h-318.3z" fill="#E6E6E6"/>
<path d="m12.468 7.3262c-1.3611 0.00152-2.6661 0.54229-3.6285 1.5037-0.96245 0.96137-1.5039 2.2649-1.5054 3.6245v202.19c0.00153 1.359 0.54295 2.663 1.5054 3.624 0.96244 0.962 2.2674 1.502 3.6285 1.504h303.63c1.361-2e-3 2.666-0.542 3.628-1.504 0.963-0.961 1.504-2.265 1.505-3.624v-202.19c-1e-3 -1.3596-0.542-2.663-1.505-3.6244-0.962-0.96136-2.267-1.5022-3.628-1.5037h-303.63z" fill="#fff"/>
<path d="m248.68 82.791 15.293 5.027 35.174-57.811v145.7l-269.16 0.081 16.058-11.73 63.466-10.055 38.997-10.054 21.411 8.461 29.056-41.136 19.881 4.189 29.821-32.676z" fill="#6DD5ED" opacity=".2"/>
<path d="m31.82 175.42c-0.389 0-0.7621-0.154-1.0371-0.429-0.2751-0.275-0.4297-0.647-0.4297-1.036 0-0.388 0.1546-0.761 0.4297-1.036 0.275-0.275 0.6481-0.429 1.0371-0.429 67.777 0 132.42-13.556 182.01-38.17 46.503-23.082 76.137-54.381 81.302-85.874 0.031-0.1901 0.099-0.3724 0.2-0.5362 0.102-0.1639 0.235-0.3062 0.391-0.4187 0.157-0.1126 0.334-0.1932 0.522-0.2373 0.187-0.044 0.382-0.0507 0.572-0.0196 0.19 0.0312 0.373 0.0995 0.537 0.2011 0.163 0.1016 0.306 0.2344 0.418 0.391 0.112 0.1565 0.193 0.3337 0.237 0.5213 0.043 0.1876 0.05 0.382 0.018 0.572-2.683 16.359-11.393 32.406-25.886 47.696-14.294 15.08-33.473 28.648-57.005 40.328-49.99 24.812-115.09 38.476-183.31 38.476z" fill="#6DD5ED"/>
<path d="m30.07 175.72v-138.26h1.4668v136.79h278.69v1.465h-280.16z" fill="#E6E6E6"/>
</g>
<defs>
<clipPath id="a">
<rect width="536" height="483" fill="#fff"/>
</clipPath>
</defs>
</svg>
