<?xml version="1.0" encoding="UTF-8"?>
<svg viewBox="0 0 324.43 345.43" xmlns="http://www.w3.org/2000/svg">
<path d="m40.306 345.15c-10.033-0.26032-12.283-0.52469-16.41-1.9285-9.2504-3.1463-16.89-9.9976-20.825-18.677-2.2657-4.997-2.4588-6.4739-2.8609-21.89-0.43053-16.505-0.14564-93.06 0.39712-106.72 2.2453-56.488 9.9291-92.549 25.725-120.73 14.733-26.283 35.785-48.809 61.917-66.253 6.6333-4.428 10.562-6.6189 14.37-8.0136 2.3833-0.87284 3.0208-0.95065 7.7133-0.94143 10.039 0.0197 16.51 2.7204 22.958 9.5817 6.1444 6.538 9.5456 16.448 8.4846 24.721-1.1885 9.2674-5.4357 15.546-15.921 23.533-21.922 16.701-35.424 36.796-43.532 64.791-4.7069 16.252-8.4941 41.992-8.7617 59.549l-0.0941 6.1736 6.5264 0.0828c17.045 0.21618 38.455 0.83251 40.04 1.1527 4.7623 0.96151 10.54 4.1846 14.976 8.3539 4.3721 4.1095 7.1101 8.2826 10.027 15.281l0.9555 2.293-0.227 101.6-0.77957 2.4568c-1.887 5.9469-5.0791 11.169-9.6056 15.716-3.5236 3.539-7.3767 6.0541-11.397 7.4394-5.3963 1.8595-7.3849 2.1046-19.824 2.4433-13.221 0.36002-49.592 0.34681-63.853-0.0232zm187.15 0.0179c-10.463-0.15502-20.019-0.45425-21.444-0.67149-7.2964-1.1123-16.178-6.6631-21.066-13.166-2.0473-2.7235-4.4955-7.7425-5.4697-11.213-1.2467-4.4416-1.4194-16.241-1.0463-71.51 0.42419-62.834 0.74666-74.516 2.491-90.239 3.5803-32.272 10.24-57.914 20.064-77.258 8.7022-17.135 19.993-32.547 34.387-46.94 10.403-10.402 19.531-17.857 31.828-25.995 10.925-7.2301 13.183-8.0962 21.11-8.0979 4.2687-9.2e-4 5.8372 0.14328 8.1139 0.74593 11.176 2.9583 19.404 11.519 22.285 23.186 0.83802 3.3932 0.83782 11.457-3.6e-4 14.592-1.8941 7.0844-5.1038 11.186-14.85 18.978-8.856 7.0798-19.774 17.99-25.313 25.296-2.5506 3.3639-6.0284 9.1937-8.8686 14.866-9.2827 18.539-15.133 41.925-17.682 70.683-0.62175 7.0137-1.3959 19.736-1.2116 19.911 0.0727 0.0692 10.762 0.24295 23.754 0.38621l23.622 0.26047 4.7765 2.4081c5.3974 2.7211 8.4709 4.9068 11.592 8.2437 4.2272 4.5189 6.8773 9.3485 8.4039 15.315 0.79229 3.0968 0.89625 4.426 1.1898 15.211 0.41852 15.379 0.41853 55.878 1e-5 72.496-0.30802 12.23-0.38536 13.275-1.2271 16.581-1.7916 7.0353-6.024 13.574-11.805 18.238-5.0701 4.0901-11.052 6.5308-18.018 7.351-4.1032 0.48319-42.609 0.68532-65.617 0.34444z"/>
</svg>
