<?xml version="1.0" encoding="UTF-8" standalone="no"?>
<svg
   xmlns:svg="http://www.w3.org/2000/svg"
   xmlns="http://www.w3.org/2000/svg"
   viewBox="0 0 324.43451 345.43274"
   >
  <defs
     id="defs2">
  </defs>
  <path
     style="fill:#000000;fill-opacity:1;stroke-width:1"
     d="m 40.305569,345.1472 c -10.03343,-0.26032 -12.28304,-0.52469 -16.41042,-1.9285 -9.25043,-3.14627 -16.88964,-9.9976 -20.82525,-18.6774 -2.26573995,-4.99699 -2.45875995,-6.4739 -2.86086995,-21.88992 -0.43053,-16.50534 -0.14564,-93.06 0.39712,-106.71528 C 2.851429,139.44765 10.535219,103.38755 26.331039,75.209032 c 14.73302,-26.28254 35.78484,-48.8086 61.91739,-66.2533604 6.63329,-4.42805 10.56193,-6.61886 14.370241,-8.01359001 2.38328,-0.8728401 3.02078,-0.9506501 7.71328,-0.94143010017 C 120.37084,0.02035149 126.84196,2.7210916 133.29022,9.5823516 c 6.14442,6.5379504 9.54561,16.4478704 8.48459,24.7212604 -1.1885,9.26745 -5.43573,15.54556 -15.92064,23.53336 -21.92217,16.70116 -35.423591,36.796306 -43.531731,64.791478 -4.7069,16.25165 -8.49409,41.99153 -8.76168,59.54932 l -0.0941,6.17361 6.52639,0.0828 c 17.04519,0.21618 38.454581,0.83251 40.040271,1.15266 4.76229,0.96151 10.54023,4.18457 14.97596,8.35391 4.37209,4.10952 7.11011,8.28255 10.02656,15.28149 l 0.9555,2.29305 -0.1135,50.8 -0.1135,50.8 -0.77957,2.45677 c -1.88704,5.9469 -5.07912,11.16943 -9.60562,15.71567 -3.52362,3.53899 -7.37666,6.05408 -11.39687,7.43938 -5.39631,1.85947 -7.38493,2.10457 -19.82396,2.44329 -13.220761,0.36002 -49.592151,0.34681 -63.852771,-0.0232 z m 187.148591,0.0179 c -10.46286,-0.15502 -20.01907,-0.45425 -21.44402,-0.67149 -7.29644,-1.11234 -16.17777,-6.66314 -21.06634,-13.16637 -2.04726,-2.72346 -4.49546,-7.74246 -5.4697,-11.2133 -1.24673,-4.44163 -1.41937,-16.2411 -1.04626,-71.50955 0.42419,-62.83428 0.74666,-74.51584 2.49102,-90.23907 3.58028,-32.27161 10.23959,-57.91393 20.064,-77.258328 8.70222,-17.1348 19.9929,-32.54704 34.3874,-46.94019 10.40264,-10.40169 19.53093,-17.85702 31.82833,-25.9951104 10.92531,-7.23007001 13.18305,-8.09617011 21.10973,-8.09789011 4.26872,-9.2e-4 5.83724,0.14328 8.11389,0.7459301 11.17562,2.95834001 19.40415,11.51924941 22.28547,23.18565041 0.83802,3.39315 0.83782,11.4568 -3.6e-4,14.59188 -1.89406,7.08439 -5.10379,11.18625 -14.85032,18.97796 -8.85599,7.07977 -19.7739,17.99021 -25.31299,25.29565 -2.55055,3.36391 -6.02841,9.193656 -8.86856,14.865946 -9.28271,18.539112 -15.1329,41.924602 -17.68223,70.682672 -0.62175,7.0137 -1.39586,19.73556 -1.21156,19.91084 0.0727,0.0692 10.76216,0.24295 23.7543,0.38621 l 23.62209,0.26047 4.77652,2.40811 c 5.3974,2.72112 8.47086,4.90675 11.59241,8.24369 4.22724,4.51893 6.8773,9.34847 8.40386,15.31541 0.79229,3.0968 0.89625,4.42604 1.18977,15.21138 0.41852,15.37913 0.41853,55.878 10e-6,72.49583 -0.30802,12.23015 -0.38536,13.27512 -1.22711,16.58056 -1.79158,7.03533 -6.02404,13.57404 -11.80509,18.23768 -5.0701,4.0901 -11.05225,6.53075 -18.0176,7.35098 -4.10317,0.48319 -42.60896,0.68532 -65.61666,0.34444 z"
      />
</svg>
