<?xml version="1.0" encoding="UTF-8"?>
<svg width="206.33mm" height="181.38mm" version="1.1" viewBox="0 0 206.33 181.38" xmlns="http://www.w3.org/2000/svg" xmlns:cc="http://creativecommons.org/ns#" xmlns:dc="http://purl.org/dc/elements/1.1/" xmlns:rdf="http://www.w3.org/1999/02/22-rdf-syntax-ns#">
<metadata>
<rdf:RDF>
<cc:Work rdf:about="">
<dc:format>image/svg+xml</dc:format>
<dc:type rdf:resource="http://purl.org/dc/dcmitype/StillImage"/>
<dc:title/>
</cc:Work>
</rdf:RDF>
</metadata>
<g transform="translate(-8.7702 -89.179)">
<g transform="translate(6.6761 35.769)">
<g transform="matrix(2.4913 0 0 2.4913 63.013 -325.06)" stroke-width=".1062">
<path d="m30.924 160.7c-0.02646-0.23812-0.23812-0.34396-0.39688-0.34396s-3.6248-0.26458-3.6248-0.26458-2.4077-2.4077-2.6988-2.6458c-0.26458-0.26459-0.76729-0.18521-0.97896-0.1323-0.02646 0-0.52917 0.15875-1.3494 0.42334-0.82021-2.3548-2.2225-4.4979-4.736-4.4979h-0.23812c-0.68792-0.89958-1.5875-1.3229-2.3283-1.3229-5.8208 0-8.6254 7.276-9.4985 10.98-2.2754 0.71438-3.8894 1.1906-4.0746 1.27-1.27 0.39688-1.2965 0.42334-1.4552 1.614-0.13229 0.89958-3.4396 26.485-3.4396 26.485l25.744 4.8154 13.97-3.0162c0.02646-0.0529-4.8683-33.126-4.8948-33.364zm-10.478-2.5929c-0.635 0.18521-1.4023 0.42334-2.1696 0.68792v-0.47625c0-1.4288-0.18521-2.5929-0.52917-3.519 1.3229 0.15875 2.1431 1.614 2.6988 3.3073zm-4.3127-3.0162c0.34396 0.89959 0.58208 2.1696 0.58208 3.9158v0.26458c-1.4288 0.44979-2.9369 0.89958-4.4979 1.4023 0.87312-3.3338 2.54-4.9742 3.9158-5.5827zm-1.6933-1.6404c0.26458 0 0.52917 0.10583 0.74083 0.26458-1.8785 0.87313-3.8629 3.0692-4.6831 7.5142-1.2435 0.39687-2.4342 0.74083-3.5719 1.1112 0.9525-3.3867 3.3337-8.89 7.5142-8.89z" fill="#95bf47"/>
<path d="m30.527 160.31c-0.15875 0-3.6248-0.26459-3.6248-0.26459s-2.4077-2.4077-2.6988-2.6458c-0.10583-0.10583-0.23812-0.15875-0.34396-0.15875l-1.9315 39.846 13.97-3.0162s-4.8948-33.126-4.9212-33.364c-0.10583-0.23812-0.29104-0.34396-0.44979-0.39687z" fill="#5e8e3e"/>
<path d="m17.139 168.03-1.6933 5.1065s-1.5346-0.82021-3.3602-0.82021c-2.7252 0-2.8575 1.7198-2.8575 2.1431 0 2.3283 6.0854 3.2279 6.0854 8.7048 0 4.3127-2.7252 7.0908-6.4029 7.0908-4.445 0-6.6675-2.7517-6.6675-2.7517l1.1906-3.9158s2.3283 2.0108 4.2862 2.0108c1.2965 0 1.8256-1.0054 1.8256-1.7462 0-3.0427-4.9742-3.175-4.9742-8.2021 0-4.2069 3.0162-8.2815 9.1281-8.2815 2.2754-0.0265 3.4396 0.66146 3.4396 0.66146z" fill="#fff"/>
</g>
<path d="m19.763 198.32c-2.4972-1.3193-3.7694-2.4972-3.7694-4.0521 0-1.9789 1.7905-3.2511 4.5704-3.2511 3.2511 0 6.1252 1.3193 6.1252 1.3193l2.2616-6.9262s-2.0732-1.602-8.1984-1.602c-8.5282 0-14.465 4.9002-14.465 11.779 0 3.9107 2.7799 6.8791 6.4551 8.9994 3.0155 1.6491 4.0521 2.8742 4.0521 4.6646 0 1.8376-1.5078 3.3453-4.2877 3.3453-4.0992 0-8.0099-2.1203-8.0099-2.1203l-2.403 6.9262s3.5809 2.403 9.6119 2.403c8.7638 0 15.125-4.3348 15.125-12.109-0.09424-4.2406-3.2511-7.1618-7.0676-9.3763zm34.961-14.606c-4.3348 0-7.7272 2.0732-10.319 5.1829l-0.09423-0.0473 3.7694-19.601h-9.7533l-9.5177 49.944h9.7533l3.2511-17.056c1.2722-6.4551 4.6175-10.46 7.7272-10.46 2.2145 0 3.0626 1.5078 3.0626 3.628 0 1.3193-0.09424 3.0155-0.42406 4.3348l-3.6751 19.554h9.7533l3.8165-20.166c0.42406-2.1203 0.70676-4.6646 0.70676-6.4079-0.04712-5.607-2.9213-8.9052-8.057-8.9052zm30.108 0c-11.779 0-19.554 10.601-19.554 22.428 0 7.5388 4.6646 13.664 13.428 13.664 11.544 0 19.318-10.319 19.318-22.428 0.04727-7.0205-4.005-13.664-13.193-13.664zm-4.806 28.647c-3.3453 0-4.7117-2.827-4.7117-6.408 0-5.607 2.8741-14.701 8.1984-14.701 3.4396 0 4.6175 3.0155 4.6175 5.8897 0 5.9839-2.9684 15.219-8.1042 15.219zm43.018-28.647c-6.5964 0-10.319 5.8425-10.319 5.8425h-0.0942l0.5654-5.23h-8.6696c-0.42407 3.5338-1.2251 8.9523-1.9789 12.957l-6.7378 35.762h9.7533l2.7328-14.465h0.23559s2.026 1.2722 5.7012 1.2722c11.497 0 18.988-11.779 18.988-23.653-0.0472-6.5964-3.0155-12.486-10.177-12.486zm-9.3292 28.741c-2.5443 0-4.0521-1.4606-4.0521-1.4606l1.602-9.0936c1.1308-6.1252 4.3348-10.13 7.7272-10.13 3.0155 0 3.9107 2.7799 3.9107 5.3714 0.0473 6.3137-3.7223 15.313-9.1879 15.313zm33.406-42.735c-3.1097 0-5.6069 2.4972-5.6069 5.6541 0 2.8741 1.8376 4.9002 4.6175 4.9002h0.0942c3.0626 0 5.6541-2.0731 5.7012-5.6541 0.0473-2.8742-1.8847-4.9002-4.806-4.9002zm-13.664 49.426h9.7533l6.5964-34.678h-9.8004m34.678-0.0473h-6.7849l0.32982-1.602c0.56541-3.3453 2.5443-6.2666 5.8425-6.2666 1.7433 0 3.1097 0.51831 3.1097 0.51831l1.8847-7.6801s-1.6491-0.8481-5.3242-0.8481c-3.4396 0-6.9262 0.98945-9.5648 3.2511-3.3453 2.827-4.9002 6.9262-5.6541 11.073l-0.28271 1.602h-4.5704l-1.4606 7.3974h4.5704l-5.1829 27.328h9.7533l5.1829-27.328h6.7378zm23.512 0.0473s-6.1252 15.407-8.8109 23.841h-0.0942c-0.18846-2.7328-2.403-23.841-2.403-23.841h-10.272l5.8896 31.757c0.0942 0.70676 0.0473 1.1308-0.23559 1.602-1.1308 2.2145-3.0626 4.3348-5.3242 5.8897-1.8376 1.3193-3.9107 2.2145-5.5598 2.7799l2.7328 8.2926c1.9789-0.42405 6.1252-2.0732 9.5648-5.3242 4.429-4.1463 8.5753-10.601 12.816-19.365l11.921-25.679h-10.224z" stroke-width=".26458"/>
</g>
</g>
</svg>
