<?xml version="1.0" encoding="UTF-8"?>
<svg width="65.34mm" height="66mm" version="1.1" viewBox="0 0 65.34 66" xmlns="http://www.w3.org/2000/svg" xmlns:cc="http://creativecommons.org/ns#" xmlns:dc="http://purl.org/dc/elements/1.1/" xmlns:rdf="http://www.w3.org/1999/02/22-rdf-syntax-ns#">
<metadata>
<rdf:RDF>
<cc:Work rdf:about="">
<dc:format>image/svg+xml</dc:format>
<dc:type rdf:resource="http://purl.org/dc/dcmitype/StillImage"/>
<dc:title/>
</cc:Work>
</rdf:RDF>
</metadata>
<g transform="translate(-70.61 -162.86)">
<path d="m86.65 228.51c-0.11492-0.21473-1.0764-3.9057-2.1366-8.2021-1.0602-4.2964-2.9166-11.812-4.1255-16.702-2.3048-9.3225-6.3507-25.704-8.5831-34.752-0.72335-2.9318-1.2579-5.4798-1.188-5.6621 0.06996-0.18231 0.3445-0.33125 0.61009-0.33099 0.26559 2.7e-4 7.1504 1.916 15.3 4.2571 8.1492 2.3411 15.436 4.4254 16.192 4.6318 0.75671 0.20639 3.2332 0.92103 5.5033 1.5881 2.2701 0.66708 4.7466 1.3818 5.5033 1.5884 0.7567 0.20652 4.9001 1.3965 9.2075 2.6444 4.3074 1.2479 8.6614 2.4939 9.6754 2.7688 2.5232 0.68413 3.3421 1.0508 3.3421 1.4968 0 0.20396-0.54851 0.89938-1.2189 1.5454-0.67039 0.64601-4.9804 4.787-9.5779 9.2022-4.5975 4.4152-9.6925 9.3236-11.322 10.907-3.693 3.5889-23.707 22.803-25.315 24.304-1.2912 1.2048-1.5514 1.3045-1.8669 0.71493zm6.3371-6.7845c4.0022-3.8784 4.8413-4.7896 4.6133-5.0093-0.41665-0.4014-13.104-3.9678-13.326-3.746-0.10951 0.10951 0.16042 1.596 0.64667 3.5612 0.45905 1.8553 1.1835 4.8015 1.6099 6.5471 0.85997 3.5205 0.86851 3.5436 1.2756 3.4524 0.15854-0.0356 2.4897-2.198 5.1803-4.8054zm5.0753-7.0288c0-0.67094-2.9605-12.542-3.1845-12.769-0.20438-0.20731-0.81435 0.3428-6.6191 5.9696-1.8413 1.7848-3.3124 3.3514-3.2691 3.4812 0.08154 0.24462 11.754 3.7167 12.596 3.7469 0.34841 0.0125 0.47625-0.1025 0.47625-0.42836zm3.689-1.4001c5.1475-4.9224 7.741-7.5232 7.741-7.7628 0-0.31599 0.0369-0.3038-7.1707-2.3692-3.3322-0.95487-5.6605-1.5227-5.7748-1.4083-0.11435 0.11435 0.41727 2.6594 1.3186 6.3125 1.4508 5.8805 1.7427 6.8617 2.0413 6.8617 0.07486 0 0.90494-0.73522 1.8446-1.6338zm-15.358-5.41c1.3538-1.3129 3.4854-3.3768 4.7369-4.5864 1.2515-1.2096 2.2754-2.3225 2.2754-2.473s-0.40481-0.37992-0.89958-0.50968c-0.49477-0.12976-1.6616-0.46163-2.5929-0.73749-6.2099-1.8394-9.2289-2.653-9.4157-2.5376-0.11834 0.0731-0.21516 0.26694-0.21516 0.43067 0 0.34303 2.9621 12.403 3.1051 12.642 0.22093 0.36972 0.67082 0.0362 3.0059-2.2284zm23.734-4.315c0-0.28748-2.1852-9.3723-2.986-12.414-0.13245-0.50311-0.32107-0.7821-0.50088-0.74084-0.30553 0.0701-1.6736 1.3403-6.726 6.2446-1.7171 1.6668-3.1221 3.1199-3.1221 3.229 0 0.29697 0.05304 0.31686 3.7042 1.3893 10.143 2.9793 9.6308 2.8573 9.6308 2.292zm3.05-1.2848c0.70903-0.66745 2.9521-2.8111 4.9846-4.7637 3.1968-3.071 3.6538-3.5896 3.3867-3.843-0.16983-0.1611-2.0709-0.79455-4.2246-1.4077-2.1537-0.61312-4.9818-1.4186-6.2846-1.7899-1.3028-0.37131-2.4718-0.61146-2.5977-0.53366-0.15493 0.0958 0.11708 1.5381 0.84212 4.4652 0.58904 2.3781 1.317 5.3239 1.6176 6.5462 0.56663 2.3038 0.64659 2.54 0.85965 2.54 0.0699 0 0.70723-0.5461 1.4162-1.2136zm-18.927-3.2844c-0.0055-0.60847-3.1666-12.937-3.3691-13.14-0.23357-0.23357-0.7928 0.27119-6.9603 6.2825-1.8824 1.8347-3.1624 3.2375-3.0535 3.3464 0.10314 0.10313 2.8455 0.95319 6.0941 1.889 3.2486 0.93583 5.9483 1.7432 5.9992 1.794 0.21569 0.21569 1.2918 0.0721 1.2896-0.17205zm6.7296-5.2107c3.7761-3.643 4.6623-4.6015 4.445-4.808-0.29389-0.27919-12.007-3.6868-12.673-3.6868-0.48191 0-0.49775 0.22496-0.11285 1.602 0.16047 0.5741 0.84546 3.3298 1.5222 6.1238 0.67674 2.794 1.3182 5.198 1.4255 5.3422 0.10731 0.14424 0.30339 0.19802 0.43572 0.11951 0.13233-0.0785 2.363-2.1903 4.957-4.6929zm-16.491-4.028c5.3587-5.157 5.2522-5.0417 4.9423-5.3516-0.23016-0.23016-12.324-3.7718-12.88-3.7718-0.15947 0-0.28995 0.18888-0.28995 0.41974 0 0.35483 2.1798 9.3983 2.9473 12.227 0.13422 0.49477 0.343 0.89959 0.46396 0.89959 0.12096 0 2.2883-1.9905 4.8162-4.4233zm37.493 1.7761c0-0.29179-0.27841-1.6491-0.61869-3.0162-0.34027-1.3671-1.007-4.0418-1.4817-5.9438s-0.86299-3.504-0.86299-3.5601c0-0.0561-0.18371-0.0716-0.40825-0.0344-0.42071 0.0697-9.7517 8.9583-9.7517 9.2894 0 0.20186 0.79827 0.45758 7.62 2.441 2.503 0.72771 4.7652 1.3302 5.0271 1.339 0.37142 0.0123 0.47625-0.10093 0.47625-0.51469zm6.8525-4.2693c2.634-2.5235 4.7891-4.7166 4.7891-4.8736 0-0.38398-0.27547-0.4786-7.0632-2.4263-3.7505-1.0762-5.9728-1.619-6.1014-1.4904-0.12861 0.12862 0.30463 2.2497 1.1895 5.8236 0.76548 3.0917 1.3918 5.726 1.3918 5.854 0 0.42054 0.60914 1.7007 0.80924 1.7007 0.10772 0 2.351-2.0647 4.985-4.5882zm-22.728-0.0941c0-0.27548-2.4155-10.127-2.887-11.775-0.17491-0.61119-0.43473-1.1112-0.57738-1.1112s-2.3981 2.0857-5.0121 4.6349c-3.5586 3.4704-4.6934 4.697-4.5167 4.8821 0.1298 0.13596 0.8918 0.41962 1.6933 0.63034 2.0219 0.53156 8.2623 2.3191 9.289 2.6608 1.0596 0.35267 2.0108 0.38953 2.0108 0.0779zm6.6675-4.7178c3.3793-3.2896 4.8024-4.8083 4.6527-4.9654-0.11859-0.12444-2.4046-0.85344-5.08-1.62-2.6754-0.76656-5.4697-1.5792-6.2096-1.8058s-1.4434-0.41205-1.5634-0.41205c-0.34077 0-0.0902 1.309 1.4384 7.5142 1.4397 5.8442 1.4947 6.0341 1.7472 6.0304 0.0804-1e-3 2.337-2.1348 5.0146-4.7413zm-22.656 0.31162c0.09306-0.15056-2.0378-9.2008-2.9832-12.671-0.07291-0.26757-0.25866-0.45807-0.41279-0.42333-0.34641 0.0781-8.9666 8.3258-9.3926 8.9867-0.16963 0.26318-0.24837 0.53855-0.17498 0.61194 0.16342 0.16343 11.977 3.6056 12.589 3.668 0.13865 0.0141 0.30729-0.0636 0.37476-0.17277zm6.9931-5.1678c2.5612-2.4935 4.592-4.6013 4.5129-4.684-0.0791-0.0827-1.9365-0.67146-4.1275-1.3083-2.191-0.63683-4.9266-1.4373-6.0791-1.7788-2.1756-0.64475-2.7817-0.73759-2.9576-0.45303-0.10716 0.17339 2.8958 12.547 3.1415 12.945 0.0915 0.14805 0.25838 0.1541 0.49553 0.018 0.19666-0.11287 2.4531-2.2453 5.0142-4.7388zm-16.214-4.3416c2.573-2.4871 4.6783-4.6113 4.6783-4.7204 0-0.10907-0.30956-0.3272-0.68792-0.48473-0.91495-0.38093-11.89-3.502-12.315-3.502-0.18271 0-0.3322 0.14992-0.3322 0.33315 0 0.5702 3.0222 12.67 3.2338 12.946 0.11011 0.14402 0.32271 0.19164 0.47244 0.10583 0.14974-0.0858 2.3775-2.191 4.9505-4.6781z" fill="#060606" stroke-width=".21167"/>
</g>
</svg>
