<?xml version="1.0" encoding="UTF-8" standalone="no"?>
<!-- Created with Inkscape (http://www.inkscape.org/) -->

<svg
   xmlns:dc="http://purl.org/dc/elements/1.1/"
   xmlns:cc="http://creativecommons.org/ns#"
   xmlns:rdf="http://www.w3.org/1999/02/22-rdf-syntax-ns#"
   xmlns:svg="http://www.w3.org/2000/svg"
   xmlns="http://www.w3.org/2000/svg"
   xmlns:sodipodi="http://sodipodi.sourceforge.net/DTD/sodipodi-0.dtd"
   xmlns:inkscape="http://www.inkscape.org/namespaces/inkscape"
   width="65.339973mm"
   height="65.999817mm"
   viewBox="0 0 65.339973 65.999817"
   version="1.1"
   id="svg8"
   inkscape:version="0.92.4 (5da689c313, 2019-01-14)"
   sodipodi:docname="threeLogo.svg">
  <defs
     id="defs2" />
  <sodipodi:namedview
     id="base"
     pagecolor="#ffffff"
     bordercolor="#666666"
     borderopacity="1.0"
     inkscape:pageopacity="0.0"
     inkscape:pageshadow="2"
     inkscape:zoom="1.979899"
     inkscape:cx="111.23607"
     inkscape:cy="155.06463"
     inkscape:document-units="mm"
     inkscape:current-layer="layer1"
     showgrid="false"
     fit-margin-top="0"
     fit-margin-left="0"
     fit-margin-right="0"
     fit-margin-bottom="0"
     inkscape:window-width="1920"
     inkscape:window-height="1001"
     inkscape:window-x="-9"
     inkscape:window-y="-9"
     inkscape:window-maximized="1" />
  <metadata
     id="metadata5">
    <rdf:RDF>
      <cc:Work
         rdf:about="">
        <dc:format>image/svg+xml</dc:format>
        <dc:type
           rdf:resource="http://purl.org/dc/dcmitype/StillImage" />
        <dc:title></dc:title>
      </cc:Work>
    </rdf:RDF>
  </metadata>
  <g
     inkscape:label="Layer 1"
     inkscape:groupmode="layer"
     id="layer1"
     transform="translate(-70.610498,-162.86051)">
    <path
       inkscape:connector-curvature="0"
       id="path832"
       d="m 86.649753,228.50961 c -0.11492,-0.21473 -1.076367,-3.90566 -2.13655,-8.20208 -1.060182,-4.29642 -2.916647,-11.81217 -4.125476,-16.70167 -2.304796,-9.32249 -6.350677,-25.70394 -8.583095,-34.75228 -0.723347,-2.93183 -1.257938,-5.47977 -1.187979,-5.66208 0.06996,-0.18231 0.344499,-0.33125 0.61009,-0.33099 0.265592,2.7e-4 7.150393,1.91596 15.29956,4.25708 8.149167,2.34113 15.435797,4.42545 16.192497,4.63183 0.75671,0.20639 3.23321,0.92103 5.50334,1.58811 2.27012,0.66708 4.74662,1.38184 5.50333,1.58836 0.7567,0.20652 4.90008,1.39651 9.2075,2.64443 4.30741,1.24791 8.66136,2.4939 9.67544,2.76885 2.52324,0.68413 3.34206,1.05084 3.34206,1.49676 0,0.20396 -0.54851,0.89938 -1.21891,1.54538 -0.67039,0.64601 -4.98045,4.78699 -9.57791,9.20218 -4.59746,4.4152 -9.69252,9.32355 -11.32235,10.90745 -3.69297,3.58888 -23.706638,22.80336 -25.314615,24.30374 -1.291213,1.20481 -1.551428,1.30446 -1.866932,0.71493 z m 6.337068,-6.7845 c 4.002178,-3.87843 4.841314,-4.78961 4.613251,-5.00933 -0.416649,-0.4014 -13.103834,-3.96785 -13.325737,-3.74595 -0.109508,0.10951 0.160416,1.59596 0.646671,3.56117 0.45905,1.85526 1.183526,4.80147 1.609943,6.54714 0.85997,3.52054 0.868507,3.54364 1.275588,3.45236 0.158545,-0.0356 2.489672,-2.19797 5.180284,-4.80539 z m 5.075315,-7.02883 c 0,-0.67094 -2.960513,-12.5421 -3.184497,-12.76929 -0.204381,-0.20731 -0.814349,0.3428 -6.619111,5.96959 -1.841276,1.78483 -3.312367,3.35136 -3.269092,3.48118 0.08154,0.24462 11.754182,3.7167 12.59645,3.74688 0.348414,0.0125 0.47625,-0.1025 0.47625,-0.42836 z m 3.688974,-1.40007 c 5.1475,-4.92242 7.74103,-7.52324 7.74103,-7.76279 0,-0.31599 0.0369,-0.3038 -7.17071,-2.36921 -3.332155,-0.95487 -5.660455,-1.52268 -5.774801,-1.40834 -0.114347,0.11435 0.417273,2.65942 1.318552,6.31246 1.45085,5.88053 1.742738,6.8617 2.041288,6.8617 0.07486,0 0.904941,-0.73522 1.844641,-1.63382 z m -15.357939,-5.40998 c 1.353805,-1.31293 3.485403,-3.37682 4.736882,-4.58644 1.251479,-1.20961 2.275417,-2.32247 2.275417,-2.47303 0,-0.15056 -0.404813,-0.37992 -0.899584,-0.50968 -0.49477,-0.12976 -1.661583,-0.46163 -2.592916,-0.73749 -6.20991,-1.83939 -9.228872,-2.653 -9.415678,-2.53755 -0.118336,0.0731 -0.215156,0.26694 -0.215156,0.43067 0,0.34303 2.962067,12.40252 3.105119,12.6419 0.220932,0.36972 0.670818,0.0362 3.005916,-2.22838 z m 23.733969,-4.31497 c 0,-0.28748 -2.18521,-9.37233 -2.986,-12.41407 -0.13245,-0.50311 -0.32107,-0.7821 -0.50088,-0.74084 -0.30553,0.0701 -1.6736,1.34026 -6.72604,6.24462 -1.717146,1.66682 -3.122084,3.11987 -3.122084,3.22899 0,0.29697 0.05304,0.31686 3.704164,1.38927 10.14329,2.9793 9.63084,2.85734 9.63084,2.29203 z m 3.05002,-1.28478 c 0.70903,-0.66745 2.95209,-2.8111 4.98458,-4.76367 3.19676,-3.07105 3.65377,-3.58964 3.38667,-3.84302 -0.16983,-0.1611 -2.0709,-0.79455 -4.22461,-1.40766 -2.15371,-0.61312 -4.98179,-1.41856 -6.28463,-1.78987 -1.30283,-0.37131 -2.47178,-0.61146 -2.59766,-0.53366 -0.15493,0.0958 0.11708,1.53809 0.84212,4.46519 0.58904,2.37806 1.31698,5.32387 1.61763,6.54624 0.56663,2.30377 0.64659,2.54 0.85965,2.54 0.0699,0 0.70723,-0.5461 1.41625,-1.21355 z m -18.927394,-3.28437 c -0.0055,-0.60847 -3.166629,-12.93741 -3.369107,-13.13989 -0.233574,-0.23357 -0.792798,0.27119 -6.960332,6.28248 -1.882391,1.83471 -3.162371,3.23748 -3.05346,3.3464 0.103135,0.10313 2.845495,0.95319 6.094134,1.88902 3.248641,0.93583 5.948259,1.74315 5.999154,1.79404 0.215692,0.21569 1.291799,0.0721 1.289611,-0.17205 z m 6.729624,-5.21068 c 3.77609,-3.64295 4.6623,-4.60152 4.445,-4.80796 -0.29389,-0.27919 -12.006857,-3.68677 -12.672638,-3.68677 -0.481906,0 -0.497751,0.22496 -0.112848,1.602 0.160473,0.5741 0.845465,3.32983 1.522203,6.12383 0.676739,2.794 1.318235,5.19802 1.425548,5.34225 0.107312,0.14424 0.303386,0.19802 0.435715,0.11951 0.13233,-0.0785 2.362986,-2.1903 4.95702,-4.69286 z M 84.487959,189.7634 c 5.358698,-5.15698 5.252208,-5.04167 4.942328,-5.35155 -0.230156,-0.23016 -12.324096,-3.77182 -12.879865,-3.77182 -0.159474,0 -0.289952,0.18888 -0.289952,0.41974 0,0.35483 2.179849,9.39833 2.947284,12.22734 0.134218,0.49477 0.342999,0.89959 0.463958,0.89959 0.120958,0 2.288269,-1.99049 4.816247,-4.4233 z m 37.492511,1.7761 c 0,-0.29179 -0.27841,-1.6491 -0.61869,-3.01625 -0.34027,-1.36714 -1.00702,-4.04185 -1.48166,-5.94379 -0.47464,-1.90194 -0.86299,-3.504 -0.86299,-3.56014 0,-0.0561 -0.18371,-0.0716 -0.40825,-0.0344 -0.42071,0.0697 -9.75174,8.95833 -9.75174,9.2894 0,0.20186 0.79827,0.45758 7.61999,2.44095 2.50296,0.72771 4.76515,1.33024 5.02709,1.33895 0.37142,0.0123 0.47625,-0.10093 0.47625,-0.51469 z m 6.85254,-4.26933 c 2.63402,-2.52351 4.78912,-4.71661 4.78912,-4.87357 0,-0.38398 -0.27547,-0.4786 -7.06324,-2.42626 -3.75052,-1.07615 -5.97276,-1.61897 -6.10138,-1.49036 -0.12861,0.12862 0.30463,2.24971 1.1895,5.82365 0.76548,3.09174 1.39179,5.72604 1.39179,5.854 0,0.42054 0.60914,1.70073 0.80924,1.70073 0.10772,0 2.35095,-2.06468 4.98497,-4.58819 z m -22.72754,-0.0941 c 0,-0.27548 -2.4155,-10.12716 -2.88702,-11.7748 -0.17491,-0.61119 -0.43473,-1.11125 -0.57738,-1.11125 -0.14265,0 -2.39808,2.0857 -5.012067,4.63488 -3.558614,3.47039 -4.693406,4.69699 -4.516694,4.88209 0.129803,0.13596 0.891803,0.41962 1.693334,0.63034 2.021901,0.53156 8.262317,2.31911 9.288997,2.66081 1.05961,0.35267 2.01083,0.38953 2.01083,0.0779 z m 6.6675,-4.71782 c 3.37931,-3.28963 4.80238,-4.80834 4.6527,-4.96539 -0.11859,-0.12444 -2.40459,-0.85344 -5.07999,-1.62 -2.67541,-0.76656 -5.46972,-1.57916 -6.20959,-1.80579 -0.73987,-0.22663 -1.44338,-0.41205 -1.56335,-0.41205 -0.34077,0 -0.0902,1.30904 1.4384,7.51417 1.43968,5.84421 1.49469,6.03406 1.74724,6.03035 0.0804,-0.001 2.33701,-2.13476 5.01459,-4.74129 z m -22.656483,0.31162 c 0.09306,-0.15056 -2.037776,-9.20085 -2.98319,-12.67052 -0.07291,-0.26757 -0.258663,-0.45807 -0.412788,-0.42333 -0.346407,0.0781 -8.966599,8.32575 -9.392623,8.98672 -0.16963,0.26318 -0.248369,0.53855 -0.174976,0.61194 0.163421,0.16343 11.977308,3.60559 12.588817,3.66796 0.13865,0.0141 0.307294,-0.0636 0.37476,-0.17277 z m 6.993149,-5.16777 c 2.561167,-2.49347 4.591954,-4.60127 4.512864,-4.68399 -0.0791,-0.0827 -1.936467,-0.67146 -4.127501,-1.30829 -2.191032,-0.63683 -4.926612,-1.4373 -6.079063,-1.77884 -2.17563,-0.64475 -2.781736,-0.73759 -2.957603,-0.45303 -0.107163,0.17339 2.895801,12.54739 3.141535,12.94499 0.0915,0.14805 0.258384,0.1541 0.495531,0.018 0.196664,-0.11287 2.453071,-2.24534 5.014237,-4.73881 z m -16.214091,-4.34163 c 2.573042,-2.48714 4.678258,-4.61131 4.678258,-4.72039 0,-0.10907 -0.309562,-0.3272 -0.687917,-0.48473 -0.914954,-0.38093 -11.890272,-3.50199 -12.314883,-3.50199 -0.18271,0 -0.3322,0.14992 -0.3322,0.33315 0,0.5702 3.022244,12.66951 3.233788,12.94622 0.110108,0.14402 0.322708,0.19164 0.472445,0.10583 0.149738,-0.0858 2.377467,-2.19096 4.950509,-4.67809 z"
       style="fill:#060606;fill-opacity:1;stroke-width:0.21166667" />
  </g>
</svg>
