<?xml version="1.0" encoding="UTF-8"?>
<svg viewBox="0 0 140.21 140.11" xmlns="http://www.w3.org/2000/svg">
<g transform="translate(115.8 -238.11)">
<path d="m-47.994 377.73c-1.3244-0.61671-65.132-43.114-66.105-44.027-0.38855-0.36483-0.91243-1.0443-1.1642-1.51l-0.4577-0.84666-0.0566-22.74c-0.0633-25.385-0.1267-24.197 1.3734-25.72 0.83696-0.84999 65.488-43.992 66.674-44.492 0.98208-0.41403 3.1678-0.35686 4.1872 0.1095 1.563 0.7151 66.022 43.739 66.654 44.489 1.3792 1.6365 1.2908-0.0657 1.2908 24.859 0 25.159 0.0639 23.997-1.4028 25.508-0.86378 0.89008-65.075 43.81-66.535 44.474-1.2368 0.56179-3.1252 0.51819-4.459-0.10293zm-3.4857-30.577v-14.355l-13.193-8.8225c-7.2563-4.8524-13.292-8.8225-13.412-8.8225-0.42643 0-21.338 14.127-21.404 14.46-0.0476 0.24136 6.7 4.8492 23.601 16.117 13.017 8.6782 23.834 15.779 24.038 15.779 0.34934 0 0.37057-0.82245 0.37057-14.355zm35.878-1.4064c12.922-8.5917 23.558-15.719 23.634-15.839 0.0765-0.11954 0.0967-0.32124 0.0449-0.44822-0.10538-0.25799-20.919-14.164-21.351-14.265-0.27543-0.0646-26.321 17.17-26.613 17.61-0.0855 0.12881-0.15696 6.6509-0.15875 14.493l-3e-3 14.259 0.47625-0.0947c0.26194-0.0521 11.049-7.1243 23.971-15.716zm-19.09-30.152c8.8628-5.9101 10.533-7.1015 10.478-7.4745-0.0479-0.32285-2.9444-2.366-10.633-7.5004-5.8121-3.8812-10.696-7.0567-10.854-7.0567-0.54666 0-21.653 14.237-21.653 14.606 0 0.44965 21.302 14.674 21.783 14.546 0.18462-0.0492 5.0802-3.2533 10.879-7.1202zm-61.555-2.0635c4.8107-3.2068 7.5137-5.134 7.5137-5.3574 0-0.37157-14.77-10.377-15.319-10.377-0.16469 0-0.35726 0.15067-0.42792 0.33481-0.16781 0.43731-0.16781 19.636 0 20.074 0.0707 0.18415 0.26138 0.33481 0.42382 0.33481s3.6765-2.2539 7.809-5.0086zm109.33-5.3878v-10.396l-0.47625 0.0922c-0.26193 0.0507-3.7862 2.3008-7.8317 5.0004-5.5547 3.7066-7.3554 5.0113-7.3554 5.3291 0 0.31804 1.8234 1.6368 7.4608 5.396 4.1034 2.7363 7.6277 4.9751 7.8317 4.9751 0.34838 0 0.37089-0.63111 0.37089-10.396zm-77.63-15.923 13.069-8.7111 1e-3 -14.34c1e-3 -13.995-8e-3 -14.34-0.40443-14.34-0.64039 0-47.537 31.364-47.537 31.793 0 0.23929 3.4081 2.6471 10.16 7.1782 10.885 7.3044 11.07 7.4223 11.415 7.2474 0.12476-0.0633 6.1079-4.0352 13.296-8.8263zm62.139 1.7173c8.2426-5.4929 10.424-7.0393 10.372-7.3525-0.08-0.47808-46.96-31.757-47.596-31.757-0.4092 0-0.41458 0.21396-0.361 14.34l0.0544 14.34 13.202 8.8204c8.8435 5.9083 13.316 8.7781 13.547 8.6922 0.18935-0.0705 5.0414-3.2584 10.782-7.0842z" fill="#344561" stroke-width=".21167"/>
</g>
</svg>
