<?xml version="1.0" encoding="UTF-8"?>
<svg viewBox="0 0 120.38 117.39" xmlns="http://www.w3.org/2000/svg">
<g transform="translate(-406.34 -199.11)">
<path d="m447.81 316.44c-0.40746-0.0764-1.741-0.52347-2.9633-0.99358-8.1863-3.1484-14.979-7.6116-21.069-13.845-13.795-14.118-19.626-32.22-16.694-51.826 1.9564-13.082 8.755-25.784 18.638-34.821 13.822-12.639 31.991-18.013 50.845-15.039 10.141 1.5996 19.718 5.9139 28.183 12.695 2.4282 1.9454 7.1113 6.734 9.1255 9.3311 7.4748 9.6384 11.587 20.053 12.698 32.16 0.30507 3.3252 0.13431 10.197-0.3396 13.665-2.687 19.667-15.77 37.485-33.666 45.847-5.6873 2.6577-8.3958 3.3542-9.5947 2.4673-1.1573-0.85611-1.1515-0.79778-1.1789-11.904-0.0243-9.8657-0.0436-10.338-0.49073-12.015-0.53876-2.0208-1.4596-3.9503-2.3919-5.0122-0.35913-0.40903-0.60008-0.82927-0.53544-0.93385 0.0646-0.10459 0.77097-0.25455 1.5696-0.33325 2.3222-0.22882 6.5334-1.2811 8.9344-2.2325 6.2434-2.4739 10.215-5.7817 12.818-10.675 3.649-6.8593 4.7357-17.582 2.4908-24.576-0.7363-2.2937-2.6274-5.6572-4.4182-7.8581l-0.53821-0.66148 0.56897-1.8785c0.50665-1.6728 0.56841-2.2147 0.56376-4.9477-5e-3 -2.7355-0.0761-3.3412-0.6573-5.5712-0.8033-3.0822-1.1815-3.7802-2.163-3.9919-2.3654-0.51019-8.4971 1.6991-13.573 4.8906-2.1058 1.3239-2.5118 1.439-3.777 1.0704-2.7431-0.79912-9.7956-1.6842-13.439-1.6866-3.9699-3e-3 -9.3283 0.65109-14.199 1.7323l-1.076 0.23883-2.2049-1.3402c-4.9537-3.011-11.336-5.3437-13.582-4.9642-0.99772 0.16857-1.2368 0.52161-1.9292 2.8486-1.2412 4.1718-1.3958 7.9521-0.47123 11.524 0.44406 1.7157 0.49623 2.1706 0.28197 2.4588-3.7904 5.0984-5.1748 8.3729-5.6905 13.459-0.44394 4.3789 0.29537 10.684 1.7584 14.997 2.4674 7.273 6.3434 11.405 13.658 14.559 2.609 1.125 6.2716 2.1291 9.1781 2.516 1.0366 0.13801 1.9911 0.31669 2.1212 0.39707 0.15446 0.0955-0.0385 0.50446-0.55643 1.1796-0.98135 1.2791-1.7077 2.8839-2.2325 4.9322-0.22127 0.86369-0.44002 1.6081-0.48612 1.6542-0.32255 0.32256-3.4761 1.1562-5.0968 1.3474-5.0081 0.59064-8.5112-1.1941-11.616-5.9182-2.3646-3.5977-5.5515-6.0418-8.5937-6.5908-1.3573-0.24495-2.949-0.14072-3.6597 0.23965-1.0824 0.57924 0.0972 2.44 2.6027 4.1057 1.003 0.66679 1.8878 1.5058 2.7471 2.6052 1.1902 1.5226 1.7495 2.5328 3.7101 6.7016 1.2746 2.7101 3.4604 4.6465 6.5498 5.8024 2.3605 0.88316 8.4538 1.329 11.565 0.84625 0.81715-0.12678 1.5187-0.19752 1.559-0.15719 0.0403 0.0403 0.14001 2.4539 0.22149 5.3634 0.16051 5.7309 0.0578 6.6533-0.834 7.4912-0.61726 0.57988-1.6657 0.83351-2.6687 0.64556zm-3.3693-18.489c-0.46846-0.56447-0.12005-0.97344 0.82929-0.97344 0.869 0 1.3399 0.4381 0.92107 0.85692-0.39185 0.39185-1.4627 0.46314-1.7504 0.11652zm4.5031-0.65864c-0.19799-0.51596 0.34654-0.97837 1.0689-0.9077 0.70765 0.0692 1.0289 0.71603 0.51684 1.0405-0.46777 0.29644-1.4527 0.21393-1.5857-0.13284zm-9.3866-0.20627c-0.35364-0.42611-0.11637-0.9552 0.42837-0.9552 0.68174 0 1.2627 0.39298 1.2627 0.85411 0 0.33132-0.14538 0.41589-0.71491 0.41589-0.39321 0-0.83249-0.14166-0.97618-0.3148zm-3.6929-2.2524c-0.59535-0.4683-0.71573-1.1311-0.23868-1.3142 0.40635-0.15593 1.3893 0.6382 1.3893 1.1224 0 0.58089-0.54128 0.6711-1.1507 0.19176zm-3.1984-3.6624c-0.38154-0.58231-0.28938-1.1788 0.18213-1.1788 0.43421 0 1.0397 0.75998 0.95516 1.1989-0.1144 0.59399-0.74218 0.58286-1.1373-0.0202zm-2.2967-3.3287c-0.22753-0.32484-0.26602-0.54795-0.11976-0.69421 0.29702-0.29702 0.94472 0.13288 0.94472 0.62705 0 0.57323-0.44511 0.60947-0.82496 0.0672zm-2.4109-2.3348c-0.39712-0.39712-0.3047-0.63158 0.21961-0.55712 0.26193 0.0372 0.47625 0.20258 0.47625 0.3675 0 0.40299-0.37917 0.50631-0.69586 0.18962z" fill="#344561" stroke-width=".21167"/>
</g>
</svg>
