<?xml version="1.0" encoding="UTF-8"?>
<svg width="209.76mm" height="216.43mm" version="1.1" viewBox="0 0 209.76 216.43" xmlns="http://www.w3.org/2000/svg" xmlns:cc="http://creativecommons.org/ns#" xmlns:dc="http://purl.org/dc/elements/1.1/" xmlns:rdf="http://www.w3.org/1999/02/22-rdf-syntax-ns#">
<metadata>
<rdf:RDF>
<cc:Work rdf:about="">
<dc:format>image/svg+xml</dc:format>
<dc:type rdf:resource="http://purl.org/dc/dcmitype/StillImage"/>
<dc:title/>
</cc:Work>
</rdf:RDF>
</metadata>
<g transform="translate(-.55769 -39.478)">
<g transform="matrix(.74223 0 0 .74223 19.658 127.23)" fill="#413000" stroke-width=".35647">
<path d="m155.37 106.84c-5.5543 0-9.6905 2.7274-9.6905 9.2914 0 4.9456 2.7261 8.3786 9.3917 8.3786 5.6494 0 9.4863-3.3288 9.4863-8.5829 0-5.9542-3.4337-9.0868-9.1875-9.0868zm-11.109 46.346c-1.3143 1.6131-2.624 3.327-2.624 5.3497 0 4.0353 5.1459 5.2497 12.215 5.2497 5.8559 0 13.832-0.41008 13.832-5.8545 0-3.236-3.8374-3.4363-8.6864-3.7403l-14.737-1.0046zm29.884-46.041c1.8143 2.3228 3.7353 5.5541 3.7353 10.198 0 11.206-8.7838 17.768-21.502 17.768-3.2342 0-6.1621-0.40288-7.9776-0.9068l-3.3327 5.3499 9.8928 0.60438c17.467 1.1129 27.762 1.6187 27.762 15.042 0 11.613-10.194 18.172-27.762 18.172-18.273 0-25.239-4.6447-25.239-12.619 0-4.545 2.0196-6.9626 5.5532-10.299-3.3328-1.4088-4.4417-3.9313-4.4417-6.6584 0-2.2226 1.109-4.2413 2.929-6.1608 1.8166-1.9164 3.8351-3.8372 6.2585-6.0576-4.9464-2.4225-8.6828-7.6726-8.6828-15.145 0-11.609 7.6737-19.581 23.117-19.581 4.3421 0 6.9684 0.39963 9.2905 1.0091h19.688v8.5793l-9.2896 0.70693"/>
<path d="m201.2 88.796c-5.7561 0-9.0866-3.3346-9.0866-9.0914 0-5.7495 3.3305-8.8816 9.0866-8.8816 5.8559 0 9.1875 3.1321 9.1875 8.8816 0 5.7567-3.3316 9.0914-9.1875 9.0914zm-13.026 60.671v-7.9717l5.1506-0.70461c1.4141-0.20486 1.6148-0.50531 1.6148-2.0233v-29.681c0-1.1082-0.30161-1.818-1.3143-2.1185l-5.4511-1.9199 1.1101-8.1747h20.9v41.895c0 1.6183 0.0975 1.8185 1.6159 2.0233l5.1495 0.70461v7.9717h-28.776"/>
<path d="m256.88 145.55c-4.3432 2.1176-10.702 4.0361-16.46 4.0361-12.013 0-16.555-4.8414-16.555-16.254v-26.449c0-0.6045 0-1.0101-0.81086-1.0101h-7.0659v-8.9848c8.887-1.0123 12.418-5.4553 13.529-16.46h9.5921v14.341c0 0.70414 0 1.0091 0.80855 1.0091h14.234v10.094h-15.042v24.128c0 5.9574 1.4152 8.2775 6.8639 8.2775 2.8305 0 5.7549-0.70461 8.1783-1.614l2.7284 8.8869"/>
</g>
<g transform="matrix(1.7078 0 0 1.7078 -5.5069 -81.616)" stroke-width=".58555">
<path d="m107.29 119.06-46.165-46.159c-2.6562-2.6586-6.9679-2.6586-9.6274 0l-9.5856 9.5866 12.159 12.159c2.8267-0.95439 6.0666-0.31449 8.3188 1.9381 2.2638 2.2666 2.8992 5.5342 1.9208 8.3704l11.719 11.719c2.8352-0.97703 6.1065-0.34581 8.3704 1.9221 3.1651 3.1642 3.1651 8.2915 0 11.457-3.1656 3.1661-8.2929 3.1661-11.46 0-2.3799-2.3818-2.9686-5.8786-1.7632-8.8109l-10.929-10.929-9.28e-4 28.761c0.77166 0.382 1.4999 0.89184 2.1429 1.5321 3.1642 3.1638 3.1642 8.2902 0 11.459-3.1651 3.1638-8.2948 3.1638-11.457 0-3.1647-3.1688-3.1647-8.2952 0-11.459 0.7821-0.7807 1.6871-1.3716 2.6527-1.7677v-29.028c-0.96608-0.39442-1.87-0.98093-2.6532-1.7679-2.3971-2.3952-2.9744-5.9134-1.7451-8.857l-11.986-11.988-31.651 31.651c-2.6595 2.6607-2.6595 6.9723 0 9.6311l46.162 46.159c2.6577 2.6586 6.9679 2.6586 9.6293 0l45.949-45.941c2.6586-2.6599 2.6586-6.9729 0-9.632" fill="#f05133" stroke-width=".15493"/>
</g>
</g>
</svg>
