<?xml version="1.0" encoding="UTF-8"?>
<svg version="1.1" viewBox="0 0 180.14 180.14" xmlns="http://www.w3.org/2000/svg">
<g transform="translate(737.54 -42.888)">
<g transform="translate(-16.158 67.235)">
<path transform="matrix(.26458 0 0 .26458 16.158 -67.235)" d="m-2448.3 162.1a340.42 340.42 0 0 0-339.31 341.5 340.42 340.42 0 0 0 341.47 339.34 340.42 340.42 0 0 0 339.37-341.45v-0.10742a340.42 340.42 0 0 0-341.53-339.29zm66.904 170.22c62.031 0.0253 99.538 0.23412 102.11 0.58984 10.354 1.4349 20.696 8.6374 25.225 17.568 3.3567 6.6197 3.3577 6.7095 3.1016 128.49l-0.2442 116.8-2.4726 5.2129c-2.844 6.0011-8.9146 12.629-13.898 15.172-7.9611 4.0614-6.8517 3.9966-69.141 4.0059l-58.312 8e-3 0.4649 3.918c0.6407 5.4104 3.8687 14.693 8.584 24.689 4.6783 9.9181 5.0576 13.426 1.9511 17.998-4.1538 6.1128-0.6521 5.7765-61.976 5.9355-30.14 0.0782-55.78-0.15633-56.979-0.52343v-2e-3c-5.1394-1.5739-9.327-6.9102-9.3886-11.967-0.023-1.7244 1.6305-6.2913 4.4238-12.238 5.5434-11.802 7.4681-17.324 8.0879-23.211l0.4844-4.5996-58.314-8e-3c-49.372-8e-3 -58.917-0.19121-62.246-1.2012-11.761-3.568-20.698-13.429-22.875-25.242-1.2587-6.8309-0.6818-234.65 0.6035-238.36 3.0465-8.7882 11.337-17.418 20.17-20.994l4.4336-1.7949 166.39-0.21484c25.741-0.0333 49.143-0.0455 69.82-0.0371zm-231.89 26.252-1.9629 1.9629-1.9648 1.9629v175.04l1.9629 2.1172 1.9609 2.1172h332.15l1.9102-1.9102c1.0508-1.0509 2.1294-3.1204 2.3965-4.5996 0.2672-1.4792 0.38-40.972 0.2519-87.76l-0.2324-85.07-2.2442-1.9297-2.2441-1.9297h-165.99z" fill="#2193b0"/>
</g>
</g>
</svg>
