<?xml version="1.0" encoding="UTF-8"?>
<svg width="207.82mm" height="234.43mm" version="1.1" viewBox="0 0 207.82 234.43" xmlns="http://www.w3.org/2000/svg" xmlns:cc="http://creativecommons.org/ns#" xmlns:dc="http://purl.org/dc/elements/1.1/" xmlns:rdf="http://www.w3.org/1999/02/22-rdf-syntax-ns#">
<metadata>
<rdf:RDF>
<cc:Work rdf:about="">
<dc:format>image/svg+xml</dc:format>
<dc:type rdf:resource="http://purl.org/dc/dcmitype/StillImage"/>
<dc:title/>
</cc:Work>
</rdf:RDF>
</metadata>
<g transform="translate(-1.5645 -38.123)">
<g transform="matrix(1.7229 0 0 1.7229 -75.789 -93.534)">
<path d="m100.93 143.23v-57.394l26.852-0.15921c14.769-0.0876 26.927-0.13211 27.018-0.099 0.27167 0.0987-9.6548 99.366-10.262 102.63-0.2869 1.5393-0.6156 1.7378-4.6087 2.7829-3.4056 0.89137-27.016 6.7324-37.07 9.1709l-1.9286 0.46774z" stroke-width=".31026"/>
<path d="m92.877 209.25c-6.203-1.7684-16.871-4.7786-23.707-6.6891s-12.568-3.6113-12.739-3.7793c-0.37027-0.36529-0.0996 2.4881-6.1649-64.982-2.6743-29.749-4.9763-54.762-5.1154-55.585l-0.25295-1.4961h120.62l-0.20116 1.7262c-0.11064 0.94944-1.8482 20.266-3.8612 42.926-2.013 22.66-4.3795 49.259-5.259 59.11-0.87943 9.8504-1.7634 18.066-1.9643 18.256-0.49505 0.4689-48.165 13.787-49.234 13.755-0.466-0.014-5.9225-1.4723-12.125-3.2408zm7.7132-66.5-0.11767-39.563h-11.508l-0.11831 31.188c-0.0651 17.153-0.27221 31.187-0.46033 31.185-0.18811-9.2e-4 -5.1694-1.3476-11.069-2.9922-5.9001-1.6446-10.923-2.9901-11.163-2.9901-0.25447 0-0.43566 2.8495-0.43566 6.8516v6.8516l8.6312 2.4016c4.7472 1.3209 12.464 3.4854 17.147 4.8102 4.6839 1.3247 8.6727 2.2762 8.864 2.1144 0.19132-0.16177 0.29489-18.097 0.23017-39.857zm27.272 35.626c7.9753-2.0615 14.57-3.8036 14.656-3.8714 0.20673-0.16414 3.248-38.593 3.069-38.78-0.0767-0.0801-5.3146 0.4896-11.64 1.2659-6.3251 0.77632-11.628 1.4115-11.785 1.4115-0.15647 0-0.28449-4.7644-0.28449-10.588v-10.588h25.237l0.25531-1.7262c0.14041-0.94944 0.37798-3.5906 0.52792-5.8692 0.14994-2.2786 0.38044-4.7127 0.51223-5.4089l0.23962-1.2659h-38.281v52.091l1.2659-0.27063c0.69626-0.14885 5.4089-0.99608 10.473-1.8827 5.0637-0.88666 9.8089-1.7371 10.545-1.8899l1.3384-0.27783-0.27677 5.8575c-0.15223 3.2216-0.37141 5.9522-0.48709 6.0678s-5.218 1.5402-11.339 3.1656-11.268 3.0413-11.439 3.1464-0.24869 3.3011-0.17294 7.1023l0.13775 6.9113 1.4734-0.42645c0.81038-0.23454 7.9986-2.1132 15.974-4.1747z" fill="#fdd638" stroke-width=".26719"/>
<path d="m100.93 143.23v-57.394l-26.432-0.15921c-14.538-0.0876-26.505-0.13211-26.595-0.099-0.26741 0.0987 9.5037 99.366 10.102 102.63 0.28242 1.5393 0.60598 1.7378 4.5366 2.7829 3.3523 0.89137 26.594 6.7324 36.49 9.1709l1.8984 0.46774z" stroke-width=".31026"/>
<path d="m97.319 209.91c-4.1775-1.2155-14.017-4.0096-21.866-6.209s-15.202-4.2607-16.342-4.5805c-1.5216-0.42715-2.1593-0.87464-2.4023-1.6859-0.18196-0.60742-1.8007-17.78-3.5972-38.161-4.7857-54.294-6.8236-77.231-7.1268-80.213l-0.26909-2.6469h59.866c51.562 0 59.866 0.0912 59.866 0.65727 0 0.3615-1.0297 12.117-2.2882 26.124-6.7072 74.65-7.8522 87.489-8.13 91.166l-0.30333 4.0147-2.3498 0.66341c-22.569 6.3717-47.081 13.177-47.28 13.127-0.10023-0.0252-3.6002-1.0403-7.7777-2.2559zm28.286-12.659c10.62-2.9103 19.462-5.4473 19.649-5.6378 0.18646-0.19046 1.4966-13.397 2.9113-29.347 1.4148-15.951 3.3981-38.323 4.4075-49.716 1.0093-11.393 1.961-21.804 2.1148-23.136l0.2797-2.4208-49.132 0.23828-0.11687 57.657c-0.0643 31.711 0.0393 57.656 0.23017 57.655 0.19087-9.2e-4 9.0365-2.3825 19.657-5.2928zm-24.604-54.549v-40.049h-11.969v62.667l-0.99743-0.31657c-4.6358-1.4714-21.863-6.0534-22.134-5.8872-0.62658 0.38423-0.41018 13.411 0.22968 13.825 0.59523 0.38558 33.275 9.6928 34.295 9.7672 0.45625 0.0333 0.57542-8.2523 0.57542-40.007z" fill="#d8b72b" stroke-width=".26719"/>
</g>
</g>
</svg>
