<?xml version="1.0" encoding="UTF-8"?>
<svg width="4.1306mm" height="6.0854mm" version="1.1" viewBox="0 0 4.1306 6.0854" xmlns="http://www.w3.org/2000/svg">
<path d="m2.0653 0c-1.1388 0-2.0653 0.92648-2.0653 2.0653 0 0.45762 0.26942 1.1536 0.84789 2.1902 0.39474 0.70734 0.78766 1.3048 0.80423 1.3299l0.28399 0.43047c0.0286 0.0434 0.0772 0.0695 0.12917 0.0695 0.052 0 0.10053-0.0261 0.12917-0.0695l0.28398-0.43045c0.0164-0.0249 0.40648-0.61716 0.80423-1.33 0.57848-1.0366 0.84791-1.7325 0.84791-2.1902 0-1.1388-0.92649-2.0653-2.0653-2.0653zm0.94716 4.1047c-0.39225 0.70284-0.77614 1.2858-0.79232 1.3103l-0.15484 0.23468-0.15479-0.23463c-0.0163-0.0247-0.40311-0.61291-0.79236-1.3104-0.53658-0.96158-0.80865-1.6477-0.80865-2.0394 0-0.96815 0.78764-1.7558 1.7558-1.7558 0.96817 0 1.7558 0.78764 1.7558 1.7558 0 0.39171-0.27208 1.0778-0.80865 2.0394z" stroke-width=".26458"/>
<path d="m2.0653 0.90731c-0.63141 0-1.1451 0.51369-1.1451 1.1451 0 0.63138 0.51367 1.1451 1.1451 1.1451s1.1451-0.51369 1.1451-1.1451c0-0.63139-0.51366-1.1451-1.1451-1.1451zm0 1.9807c-0.46076 0-0.8356-0.37484-0.8356-0.83559 0-0.46076 0.37484-0.8356 0.8356-0.8356 0.46077 0 0.83561 0.37484 0.83561 0.8356 0 0.46075-0.37484 0.83559-0.83561 0.83559z" stroke-width=".26458"/>
</svg>
