<svg xmlns="http://www.w3.org/2000/svg" width="261.897" height="264.765" viewBox="0 0 69.294 70.053">
  <defs/>
  <path fill="#42a3bc" d="M64.698 34.928c-1.047 2.96-12.154 6.916-15.563 7.157-.988.03-1.032.017-1.032-.308l-.009 1.142c.159.17.453.679.653 1.132l.365.823 1.521.319c.837.175 3.046.642 4.91 1.037 1.863.396 3.489.726 3.613.734.283.02 10.213-9.917 10.137-10.144l-4.161-2.025zM1.43 37.847c-.136 0 1.06 1.305 2.702 2.947 1.62 1.622 3.011 2.922 3.092 2.89.081-.03 1.764-.741 3.739-1.578 2.962-1.254 3.53-1.541 3.24-1.635-.503-.163-12.483-2.624-12.773-2.624zm22.462 4.712c-.094.09 10.268 15.257 15.475 22.65.356.507.698.92.758.92.06 0 .352-.248.648-.552l.539-.552 1.356-8.283 1.356-8.283-.407-.32c-.617-.486-.963-.885-1.255-1.449l-.265-.51-9.04-1.87c-4.972-1.028-9.096-1.816-9.165-1.75zm-7.724.296c-.064 0-1.44.57-3.057 1.265a959.67 959.67 0 01-3.449 1.478l-.508.213 1.61 1.616c.886.888 1.645 1.614 1.687 1.612.122-.005 3.833-5.83 3.833-6.016 0-.092-.053-.168-.116-.168zm5.418 1.7c-.066-.02-.093.034-.167.045-.191.028-.918.057-1.614.065l-1.267.014-2.011 3.132c-1.106 1.722-2.011 3.186-2.011 3.253 0 .122 18.442 18.6 18.568 18.604.037.001.332.101.656.223.695.26 1.9.198 2.538-.131.239-.124.75-.51 1.134-.86l.7-.634-6.593-9.575c-8.644-12.555-9.648-14.049-9.933-14.137zm26.714 2.95l-.43.334c-1.132.876-.972.326-2.031 6.948-.538 3.363-.978 6.246-.978 6.408 0 .2 1.92-1.626 6.04-5.745 3.322-3.32 6.04-6.072 6.04-6.114 0-.041-1.944-.47-4.32-.953z"/>
  <path fill="#34afb9" d="M41.086 43.163c-1.345-.234-14.854-3.034-15.954-3.293-.463-.11-.573-.527-.08-.723.223-.089 5.417-2.299 11.283-4.825 7.374-3.175 10.712-4.545 10.818-4.44.105.106-.157 1.961-.85 6.011-.55 3.222-1.01 5.863-1.022 5.87-.01.008-.335.218-.72.323-.41.11-.93.504-1.308.836-.338.39-.72.497-.79.488-.068-.01-.589-.093-1.034-.17zm7.112-1.704c0-.387 1.669-10.52 1.767-10.78.035-.093.26-.213.501-.266.24-.053.692-.29 1.004-.525.313-.236.645-.432.74-.434.283-.007 12.815 5.18 13.195 5.474.314.243-5.298 4.352-5.823 4.45-5.121 2.316-7.534 2.869-10.436 3.008-.988.03-1.015-.008-1.015-.334zm-32.306-3.51L1.547 34.97s-1.326-.127-1.51-.31c-.183-.184.362-1.187.362-1.187s.629-.657.909-1.016c.623-.8 7.157-7.36 7.239-7.278.32.316 8.18 11.75 8.177 11.904-.006.356-.524.93-.832.867zm8.23-1.513c0-.082 3.766-6.02 6.298-9.932l1.478-2.283.9-.102c.983-.11 2.226-.696 2.665-1.255.146-.186.357-.337.469-.337.112 0 2.356.915 4.987 2.033 4.41 1.874 4.788 2.063 4.83 2.414.049.415-.339.59-15.734 7.077-6.056 2.553-5.892 2.486-5.892 2.385zm-5.369-1.388c-.575-.795-7.579-10.944-7.963-11.539l-.269-.416 3.964-3.966c2.18-2.181 4.031-3.967 4.113-3.968.194-.003 9.668 3.982 9.907 4.168.11.084.184.485.184.987 0 .656.102 1.043.456 1.73l.456.884-4.008 6.17-4.157 6.4c-.11.172-.4.227-1.175.22l-1.028-.007zM65.148 31.8c-7.276-2.97-11.54-4.79-11.447-4.883.058-.059 1.597-.735 3.42-1.503l3.314-1.398 1.45 1.428c.799.785 2.679 2.716 4.178 4.292 2.285 2.403 2.835 3.036 2.606 3.126-.52.205-1.026-.044-3.52-1.062zm-13.74-7.477l-.455-.398.637-3.854c.35-2.12.66-3.927.69-4.015.029-.089 1.409 1.196 3.066 2.854 1.657 1.658 2.982 3.04 2.946 3.072-.054.046-2.27.99-5.974 2.547-.422.177-.49.162-.91-.206zM41.77 22.06c-5.108-2.163-5.262-2.24-5.36-2.684a5.117 5.117 0 00-.317-.912l-.217-.455 3.49-5.438c1.92-2.991 3.586-5.536 3.701-5.656.184-.19.617.189 3.453 3.02 1.784 1.78 3.278 3.37 3.319 3.532.061.242-1.484 10.228-1.597 10.32-.132.107-1 .507-1.095.504-.065-.002-2.484-1.006-5.377-2.23zm-16.465-6.967c-2.55-1.084-4.655-2.028-4.679-2.098-.023-.07 2.73-2.89 6.118-6.267C31.295 2.192 33.076.51 33.56.292c.84-.381 2.07-.39 2.884-.02.612.277 4.768 4.177 4.768 4.473 0 .084-1.664 2.723-3.698 5.864l-3.697 5.71-1.054-.018c-.858-.016-1.213.054-1.918.378a17.01 17.01 0 01-.884.39l-4.655-1.976z"/>
</svg>
