<?xml version="1.0" encoding="UTF-8"?>
<svg width="205.17mm" height="227.1mm" version="1.1" viewBox="0 0 205.17 227.1" xmlns="http://www.w3.org/2000/svg" xmlns:cc="http://creativecommons.org/ns#" xmlns:dc="http://purl.org/dc/elements/1.1/" xmlns:rdf="http://www.w3.org/1999/02/22-rdf-syntax-ns#">
<metadata>
<rdf:RDF>
<cc:Work rdf:about="">
<dc:format>image/svg+xml</dc:format>
<dc:type rdf:resource="http://purl.org/dc/dcmitype/StillImage"/>
<dc:title/>
</cc:Work>
</rdf:RDF>
</metadata>
<g transform="translate(-2.6581 -34.33)">
<g transform="matrix(1.0271 0 0 1.0271 -4.0899 -.1609)" stroke-width=".97364">
<path d="m57.664 229.45c-24.54-13.878-44.671-25.286-44.736-25.35-0.12794-0.12794 33.274-19.467 33.623-19.467 0.11784 0 12.735 6.8827 28.038 15.295l27.824 15.295v19.734c0 10.854-0.0293 19.732-0.0651 19.73-0.0358-2e-3 -20.144-11.359-44.684-25.237zm52.626 5.543 0.0668-19.756 27.862-15.317c15.324-8.4242 28.04-15.264 28.258-15.199 0.86927 0.25828 33.153 19.075 33.141 19.316-0.0106 0.20512-87.836 50.078-89.067 50.578-0.26128 0.10613-0.31375-3.8475-0.26045-19.623zm-35.549-43.903-27.542-15.138v-30.038c0-16.521 0.06043-30.038 0.1343-30.038 0.21814 0 54.397 31.289 54.755 31.621 0.25897 0.24083 0.31295 6.3592 0.26044 29.517l-0.0662 29.213zm35.549-14.159 0.0662-29.318 54.953-31.722 0.0662 29.994c0.0364 16.497-0.0222 30.078-0.13022 30.18-0.24924 0.23606-54.708 30.184-54.888 30.184-0.0734 0-0.1037-13.193-0.0673-29.318zm-103.72-31.502c0-29.17 0.094124-52.998 0.20916-52.95 0.11504 0.04775 7.4986 4.2958 16.408 9.4401l16.199 9.3533-0.0021 34.14-0.0021 34.14-14.887 8.5946c-8.1876 4.727-15.57 8.9822-16.406 9.4561l-1.519 0.86152zm183.09 43.511-16.278-9.4153-0.0661-34.006c-0.0525-27.008 1e-3 -34.06 0.26044-34.269 0.44324-0.35746 32.435-18.814 32.612-18.814 0.21918 0 0.16387 105.7-0.0554 105.81-0.10743 0.058-7.5202-4.1314-16.473-9.3098zm-110.95-63.962c-15.112-8.7343-27.5-15.967-27.528-16.073-0.0283-0.10557 12.384-7.0166 27.582-15.358l27.634-15.166 27.501 15.12c15.126 8.3158 27.584 15.2 27.685 15.298 0.1651 0.1599-54.449 31.871-55.119 32.004-0.15319 0.0305-12.643-7.0909-27.755-15.825zm-52.134-30.154c-8.8346-5.1096-15.984-9.3647-15.887-9.4559 0.21316-0.20093 91.482-51.792 91.624-51.792 0.0551 0 0.0702 8.5841 0.0334 19.076l-0.0668 19.076-29.43 16.199c-16.186 8.9095-29.606 16.196-29.821 16.193-0.21486-3e-3 -7.6189-4.1863-16.453-9.2959zm113.34-6.9223-29.56-16.264-0.06681-19.06c-0.06-17.116-0.0257-19.044 0.33638-18.905 0.6924 0.2657 90.866 51.263 91.22 51.589 0.26415 0.24341-3.0334 2.2533-15.59 9.5024-8.7588 5.0565-16.117 9.2402-16.352 9.2971-0.23494 0.0569-13.729-7.2153-29.987-16.16z" fill="#8dd4f8"/>
<path d="m74.741 190.98-27.281-15.004v-29.917c0-16.454 0.05505-29.917 0.12233-29.917 0.06728 0 12.432 7.1068 27.477 15.793l27.354 15.793v29.133c0 16.023-0.0879 29.131-0.19533 29.128-0.10743-3e-3 -12.472-6.7569-27.477-15.009zm35.81-14.164 0.0662-29.222 27.216-15.721c14.969-8.6466 27.304-15.723 27.411-15.726 0.10743-3e-3 0.19533 13.445 0.19533 29.883v29.888l-27.23 14.973c-14.977 8.2352-27.342 15.012-27.478 15.06-0.15563 0.0548-0.22289-10.757-0.18124-29.135zm-10.384-39.589c-3.42-1.9756-15.858-9.1553-27.64-15.955l-21.422-12.363 27.022-14.853c14.862-8.1689 27.33-14.993 27.708-15.164 0.64386-0.29205 2.3443 0.60066 27.788 14.588 14.906 8.1944 27.289 15.036 27.517 15.203 0.40961 0.29952-4.6018 3.2477-48.592 28.587l-6.161 3.5488z" fill="#1b77bf"/>
</g>
</g>
</svg>
